0
SECTION
2
HEADER
9
$INSUNITS
70
4
9
$ACADVER
1
AC1014
9
$HANDSEED
5
FFFF
0
ENDSEC
0
SECTION
2
TABLES
0
TABLE
2
VPORT
5
8
100
AcDbSymbolTable
0
ENDTAB
0
TABLE
2
LTYPE
5
5
100
AcDbSymbolTable
0
LTYPE
5
14
100
AcDbSymbolTableRecord
100
AcDbLinetypeTableRecord
2
BYBLOCK
70
0
0
LTYPE
5
15
100
AcDbSymbolTableRecord
100
AcDbLinetypeTableRecord
2
BYLAYER
70
0
0
ENDTAB
0
TABLE
2
LAYER
5
2
100
AcDbSymbolTable
70
2
0
LAYER
5
50
100
AcDbSymbolTableRecord
100
AcDbLayerTableRecord
2
0
70
0
6
CONTINUOUS
0
ENDTAB
0
TABLE
2
STYLE
5
3
100
AcDbSymbolTable
70
1
0
STYLE
5
11
100
AcDbSymbolTableRecord
100
AcDbTextStyleTableRecord
2
STANDARD
70
0
0
ENDTAB
0
TABLE
2
VIEW
5
6
100
AcDbSymbolTable
70
0
0
ENDTAB
0
TABLE
2
UCS
5
7
100
AcDbSymbolTable
70
0
0
ENDTAB
0
TABLE
2
APPID
5
9
100
AcDbSymbolTable
70
2
0
APPID
5
12
100
AcDbSymbolTableRecord
100
AcDbRegAppTableRecord
2
ACAD
70
0
0
ENDTAB
0
TABLE
2
DIMSTYLE
5
A
100
AcDbSymbolTable
70
1
0
ENDTAB
0
TABLE
2
BLOCK_RECORD
5
1
100
AcDbSymbolTable
70
1
0
BLOCK_RECORD
5
1F
100
AcDbSymbolTableRecord
100
AcDbBlockTableRecord
2
*MODEL_SPACE
0
BLOCK_RECORD
5
1B
100
AcDbSymbolTableRecord
100
AcDbBlockTableRecord
2
*PAPER_SPACE
0
ENDTAB
0
ENDSEC
0
SECTION
2
BLOCKS
0
BLOCK
5
20
100
AcDbEntity
100
AcDbBlockBegin
2
*MODEL_SPACE
0
ENDBLK
5
21
100
AcDbEntity
100
AcDbBlockEnd
0
BLOCK
5
1C
100
AcDbEntity
100
AcDbBlockBegin
2
*PAPER_SPACE
0
ENDBLK
5
1D
100
AcDbEntity
100
AcDbBlockEnd
0
ENDSEC
0
SECTION
2
ENTITIES
0
LWPOLYLINE
5
100
100
AcDbEntity
8
0
100
AcDbPolyline
90
44
70
1
43
0.0
10
172.50000000000006
20
94.350000000000009
10
-3.2792913984280858e-06
20
94.349994004474752
10
-172.50000000000003
20
94.350000000000009
10
-176.11325599706234
20
94.350000000000009
42
0.30529252858594369
10
-184.77679930577025
20
88.51646375470331
10
-185.47528074688515
20
86.795608760155446
42
-0.19773669072328182
10
-187.95448979237764
20
84.269417537647072
10
-190.17846705594343
20
83.317716977843503
42
0.30016941485552784
10
-195.85000000000005
20
74.721707431644816
10
-195.85000000000005
20
71.000000000000014
10
-195.7813146373984
20
0.18990669208713523
10
-195.78094622105763
20
0.18990633472551366
10
-195.78113042905471
20
-5.4445337127617677e-12
10
-195.78094622105763
20
-0.18990633472551366
10
-195.7813146373984
20
-0.1899066920871384
10
-195.85000000000005
20
-71.000000000000014
10
-195.85000000000005
20
-74.721707431644816
42
0.30016941485552795
10
-190.17846705594343
20
-83.317716977843503
10
-187.95448979237761
20
-84.269417537647016
42
-0.19773669072328698
10
-185.47528074688515
20
-86.795608760155432
10
-184.77679930577025
20
-88.51646375470331
42
0.30529252858594158
10
-176.11325599706234
20
-94.350000000000009
10
-172.50000000000006
20
-94.350000000000009
10
-3.2792913984280858e-06
20
-94.349994004474752
10
172.50000000000003
20
-94.350000000000009
10
176.11325599706234
20
-94.350000000000009
42
0.30529252858594369
10
184.77679930577025
20
-88.51646375470331
10
185.47528074688515
20
-86.795608760155446
42
-0.19773669072328182
10
187.95448979237764
20
-84.269417537647072
10
190.17846705594343
20
-83.317716977843503
42
0.30016941485552784
10
195.85000000000005
20
-74.721707431644816
10
195.85000000000005
20
-71.000000000000014
10
195.7813146373984
20
-0.18990669208713523
10
195.78094622105763
20
-0.18990633472551366
10
195.78113042905471
20
-5.4445337127617677e-12
10
195.78094622105763
20
0.18990633472551366
10
195.7813146373984
20
0.1899066920871384
10
195.85000000000005
20
71.000000000000014
10
195.85000000000005
20
74.721707431644816
42
0.30016941485552795
10
190.17846705594343
20
83.317716977843503
10
187.95448979237761
20
84.269417537647016
42
-0.19773669072328698
10
185.47528074688515
20
86.795608760155432
10
184.77679930577025
20
88.51646375470331
42
0.30529252858594158
10
176.11325599706234
20
94.350000000000009
0
CIRCLE
5
101
100
AcDbEntity
8
0
100
AcDbCircle
10
-191.50000000000003
20
-90.000000000000014
30
0
40
3.0000000000000071
210
-0
220
0
230
1
0
CIRCLE
5
102
100
AcDbEntity
8
0
100
AcDbCircle
10
-191.50000000000003
20
90.000000000000014
30
0
40
3.0000000000000071
210
0
220
-0
230
1
0
CIRCLE
5
103
100
AcDbEntity
8
0
100
AcDbCircle
10
191.50000000000003
20
90.000000000000014
30
0
40
3.0000000000000071
210
0
220
-0
230
1
0
CIRCLE
5
104
100
AcDbEntity
8
0
100
AcDbCircle
10
191.50000000000003
20
-90.000000000000014
30
0
40
3.0000000000000071
210
0
220
0
230
1
0
LWPOLYLINE
5
105
100
AcDbEntity
8
0
100
AcDbPolyline
90
6
70
1
43
0.0
10
-197.50000000000003
20
96.000000000000014
10
3.3366400842282928e-06
20
96.000000000000014
10
197.50000000000003
20
96.000000000000014
10
197.50000000000003
20
-96.000000000000014
10
3.3366400842282928e-06
20
-96.000000000000014
10
-197.50000000000003
20
-96.000000000000014
0
LWPOLYLINE
5
106
100
AcDbEntity
8
0
100
AcDbPolyline
90
44
70
1
43
0.0
10
172.50000005734853
20
90.000000000000014
10
-3.1280998058491605e-06
20
89.999994004474772
10
-172.50000005734853
20
90.000000000000014
10
-176.11325599706234
20
90
42
0.30529252858594941
10
-180.74616685733392
20
86.880461900910873
10
-181.44464829844884
20
85.159606906363038
42
-0.19773669072327893
10
-186.24311741875692
20
80.270204540217719
10
-188.46709468232265
20
79.318503980414178
42
0.30016941485553317
10
-191.50000000000003
20
74.721707431644802
10
-191.50000000000003
20
71.000800244837464
10
-191.43130976829718
20
0.1856872136512866
10
-191.43094953768585
20
0.18568686422977265
10
-191.43112965282205
20
0
10
-191.43094953768585
20
-0.18568686422977265
10
-191.43130976829718
20
-0.1856872136512866
10
-191.50000000000003
20
-71.000800244837464
10
-191.50000000000003
20
-74.721707431644802
42
0.30016941485553073
10
-188.46709468232265
20
-79.318503980414178
10
-186.24311741875692
20
-80.270204540217719
42
-0.19773669072327488
10
-181.44464829844881
20
-85.159606906363038
10
-180.74616685733392
20
-86.880461900910873
42
0.30529252858594064
10
-176.11325599706234
20
-90
10
-172.50000005734853
20
-90.000000000000014
10
-3.1280998058491605e-06
20
-89.999994004474772
10
172.50000005734853
20
-90.000000000000014
10
176.11325599706234
20
-90
42
0.30529252858594941
10
180.74616685733392
20
-86.880461900910873
10
181.44464829844884
20
-85.159606906363038
42
-0.19773669072327893
10
186.24311741875692
20
-80.270204540217719
10
188.46709468232265
20
-79.318503980414178
42
0.30016941485553317
10
191.50000000000003
20
-74.721707431644802
10
191.50000000000003
20
-71.000800244837464
10
191.43130976829718
20
-0.18568721365128876
10
191.43094953768585
20
-0.18568686422977265
10
191.43112965282205
20
0
10
191.43094953768585
20
0.18568686422977265
10
191.43130976829718
20
0.1856872136512866
10
191.50000000000003
20
71.000800244837464
10
191.50000000000003
20
74.721707431644802
42
0.30016941485553073
10
188.46709468232265
20
79.318503980414178
10
186.24311741875692
20
80.270204540217719
42
-0.19773669072327488
10
181.44464829844881
20
85.159606906363038
10
180.74616685733392
20
86.880461900910873
42
0.30529252858594064
10
176.11325599706234
20
90
0
LWPOLYLINE
5
107
100
AcDbEntity
8
0
100
AcDbPolyline
90
36
70
1
43
0.0
10
-172.50000000000003
20
91.650000000000006
10
3.1854483495408203e-06
20
91.649994004474763
10
172.50000000000003
20
91.650000000000006
10
176.11325599706234
20
91.649999999999991
42
-0.30529252858594147
10
182.27502744122359
20
87.501014328211454
10
182.97350888233848
20
85.780159333663605
42
0.19773669072327466
10
186.89225866392343
20
81.787147401311614
10
189.11623592748919
20
80.835446841508031
42
-0.30016941485552834
10
193.15000000000001
20
74.721707431644816
10
193.15000000000001
20
71.000000000000014
10
193.08113042905472
20
-9.9387165164444013e-12
10
193.15000000000001
20
-71.000000000000014
10
193.15000000000001
20
-74.721707431644816
42
-0.30016941485553045
10
189.11623592748919
20
-80.835446841508059
10
186.89225866392343
20
-81.787147401311614
42
0.19773669072327965
10
182.97350888233848
20
-85.780159333663605
10
182.27502744122359
20
-87.501014328211454
42
-0.30529252858594808
10
176.11325599706234
20
-91.650000000000006
10
172.50000000000003
20
-91.650000000000006
10
3.1854483495408203e-06
20
-91.649994004474763
10
-172.50000000000003
20
-91.650000000000006
10
-176.11325599706234
20
-91.649999999999991
42
-0.30529252858594147
10
-182.27502744122359
20
-87.501014328211454
10
-182.97350888233848
20
-85.780159333663605
42
0.19773669072327466
10
-186.89225866392343
20
-81.787147401311614
10
-189.11623592748919
20
-80.835446841508031
42
-0.30016941485552834
10
-193.15000000000001
20
-74.721707431644816
10
-193.15000000000001
20
-71.000000000000014
10
-193.08113042905472
20
-9.9387165164444013e-12
10
-193.15000000000001
20
71.000000000000014
10
-193.15000000000001
20
74.721707431644816
42
-0.30016941485553045
10
-189.11623592748919
20
80.835446841508059
10
-186.89225866392343
20
81.787147401311614
42
0.19773669072327965
10
-182.97350888233848
20
85.780159333663605
10
-182.27502744122359
20
87.501014328211454
42
-0.30529252858594808
10
-176.11325599706234
20
91.650000000000006
0
LWPOLYLINE
5
108
100
AcDbEntity
8
0
100
AcDbPolyline
90
36
70
1
43
0.0
10
172.50000000000003
20
91.650000000000006
10
-3.1854483140136836e-06
20
91.649994004474763
10
-172.50000000000003
20
91.650000000000006
10
-176.11325599706234
20
91.650000000000006
42
0.30529252858594147
10
-182.27502744122359
20
87.501014328211454
10
-182.97350888233842
20
85.780159333663605
42
-0.19773669072328054
10
-186.89225866392343
20
81.787147401311614
10
-189.11623592748919
20
80.835446841508059
42
0.30016941485552862
10
-193.15000000000001
20
74.721707431644816
10
-193.15000000000001
20
71.000000000000014
10
-193.08113042905467
20
0
10
-193.15000000000001
20
-71.000000000000014
10
-193.15000000000001
20
-74.721707431644816
42
0.30016941485553239
10
-189.11623592748919
20
-80.835446841508059
10
-186.89225866392343
20
-81.787147401311614
42
-0.1977366907232796
10
-182.97350888233848
20
-85.780159333663605
10
-182.27502744122359
20
-87.501014328211454
42
0.30529252858594214
10
-176.11325599706234
20
-91.650000000000006
10
-172.50000000000003
20
-91.650000000000006
10
-3.1854483140136836e-06
20
-91.649994004474763
10
172.50000000000003
20
-91.650000000000006
10
176.11325599706234
20
-91.650000000000006
42
0.30529252858594147
10
182.27502744122359
20
-87.501014328211454
10
182.97350888233842
20
-85.780159333663605
42
-0.19773669072328054
10
186.89225866392343
20
-81.787147401311614
10
189.11623592748919
20
-80.835446841508059
42
0.30016941485552862
10
193.15000000000001
20
-74.721707431644816
10
193.15000000000001
20
-71.000000000000014
10
193.08113042905467
20
0
10
193.15000000000001
20
71.000000000000014
10
193.15000000000001
20
74.721707431644816
42
0.30016941485553239
10
189.11623592748919
20
80.835446841508059
10
186.89225866392343
20
81.787147401311614
42
-0.1977366907232796
10
182.97350888233848
20
85.780159333663605
10
182.27502744122359
20
87.501014328211454
42
0.30529252858594214
10
176.11325599706234
20
91.650000000000006
0
LWPOLYLINE
5
109
100
AcDbEntity
8
0
100
AcDbPolyline
90
44
70
1
43
0.0
10
-172.50000000000003
20
94.350000000000009
10
3.2792913273738122e-06
20
94.349994004474752
10
172.50000000000003
20
94.350000000000009
10
176.11325599706234
20
94.350000000000009
42
-0.30529252858594202
10
184.77679930577025
20
88.51646375470331
10
185.47528074688518
20
86.795608760155446
42
0.19773669072328179
10
187.95448979237764
20
84.269417537647072
10
190.17846705594343
20
83.317716977843503
42
-0.30016941485553067
10
195.85000000000005
20
74.721707431644816
10
195.85000000000005
20
71.000000000000014
10
195.7813146373984
20
0.18990669208712951
10
195.78094622105763
20
0.18990633472551366
10
195.78113042905471
20
0
10
195.78094622105763
20
-0.18990633472551366
10
195.7813146373984
20
-0.18990669208712951
10
195.85000000000005
20
-71.000000000000014
10
195.85000000000005
20
-74.721707431644816
42
-0.30016941485552795
10
190.17846705594343
20
-83.317716977843503
10
187.95448979237764
20
-84.269417537647072
42
0.1977366907232822
10
185.47528074688515
20
-86.795608760155432
10
184.77679930577025
20
-88.51646375470331
42
-0.30529252858594158
10
176.11325599706234
20
-94.350000000000009
10
172.50000000000003
20
-94.350000000000009
10
3.2792913273738122e-06
20
-94.349994004474752
10
-172.50000000000003
20
-94.350000000000009
10
-176.11325599706234
20
-94.350000000000009
42
-0.30529252858594202
10
-184.77679930577025
20
-88.51646375470331
10
-185.47528074688518
20
-86.795608760155446
42
0.19773669072328179
10
-187.95448979237764
20
-84.269417537647072
10
-190.17846705594343
20
-83.317716977843503
42
-0.30016941485553067
10
-195.85000000000005
20
-74.721707431644816
10
-195.85000000000005
20
-71.000000000000014
10
-195.7813146373984
20
-0.18990669208712951
10
-195.78094622105763
20
-0.18990633472551366
10
-195.78113042905471
20
0
10
-195.78094622105763
20
0.18990633472551366
10
-195.7813146373984
20
0.18990669208712951
10
-195.85000000000005
20
71.000000000000014
10
-195.85000000000005
20
74.721707431644816
42
-0.30016941485552795
10
-190.17846705594343
20
83.317716977843503
10
-187.95448979237764
20
84.269417537647072
42
0.1977366907232822
10
-185.47528074688515
20
86.795608760155432
10
-184.77679930577025
20
88.51646375470331
42
-0.30529252858594158
10
-176.11325599706234
20
94.350000000000009
0
ENDSEC
0
SECTION
2
OBJECTS
0
DICTIONARY
5
C
100
AcDbDictionary
3
ACAD_GROUP
350
D
3
ACAD_MLINESTYLE
350
17
0
DICTIONARY
5
D
100
AcDbDictionary
0
DICTIONARY
5
1A
330
C
100
AcDbDictionary
0
DICTIONARY
5
17
100
AcDbDictionary
0
ENDSEC
0
EOF
