  0
SECTION
  2
HEADER
  9
$ACADVER
  1
AC1009
  9
$EXTMIN
 10
0.0
 20
0.0
 30
0.0
  9
$EXTMAX
 10
1000.0
 20
1000.0
 30
0.0
  9
$FILLMODE
 70
 0
  9
$SPLFRAME
 70
 1
  0
ENDSEC
  0
SECTION
  2
TABLES
  0
TABLE
  2
LAYER
 70
1
  0
LAYER
  2
0
 70
     0
 62
     7
  6
CONTINUOUS
  0
ENDTAB
  0
ENDSEC
  0
SECTION
  2
ENTITIES
  0
POLYLINE
  8
0
 62
     0
 66
     1
 10
0
 20
0
 30
0.0
 70
     1
 40
0
 41
0
  0
VERTEX
  8
0
 10
0
 20
607.014
 30
0.0
 40
0
 41
0
  0
VERTEX
  8
0
 10
192
 20
607.014
 30
0.0
 40
0
 41
0
  0
VERTEX
  8
0
 10
192
 20
212.014
 30
0.0
 40
0
 41
0
  0
VERTEX
  8
0
 10
0
 20
212.014
 30
0.0
 40
0
 41
0
  0
VERTEX
  8
0
 10
0
 20
607.014
 30
0.0
 40
0
 41
0
  0
SEQEND
 8
0
  0
POLYLINE
  8
0
 62
     0
 66
     1
 10
0
 20
0
 30
0.0
 70
     1
 40
0
 41
0
  0
VERTEX
  8
0
 10
192
 20
607.014
 30
0.0
 40
0
 41
0
  0
VERTEX
  8
0
 10
0
 20
212.014
 30
0.0
 40
0
 41
0
  0
SEQEND
 8
0
  0
POLYLINE
  8
0
 62
     0
 66
     1
 10
0
 20
0
 30
0.0
 70
     1
 40
0
 41
0
  0
VERTEX
  8
0
 10
192
 20
212.014
 30
0.0
 40
0
 41
0
  0
VERTEX
  8
0
 10
0
 20
607.014
 30
0.0
 40
0
 41
0
  0
SEQEND
 8
0
  0
POLYLINE
  8
0
 62
     0
 66
     1
 10
0
 20
0
 30
0.0
 70
     1
 40
0
 41
0
  0
VERTEX
  8
0
 10
212
 20
607.014
 30
0.0
 40
0
 41
0
  0
VERTEX
  8
0
 10
404
 20
607.014
 30
0.0
 40
0
 41
0
  0
VERTEX
  8
0
 10
404
 20
212.014
 30
0.0
 40
0
 41
0
  0
VERTEX
  8
0
 10
212
 20
212.014
 30
0.0
 40
0
 41
0
  0
VERTEX
  8
0
 10
212
 20
607.014
 30
0.0
 40
0
 41
0
  0
SEQEND
 8
0
  0
POLYLINE
  8
0
 62
     0
 66
     1
 10
0
 20
0
 30
0.0
 70
     1
 40
0
 41
0
  0
VERTEX
  8
0
 10
402.35
 20
237.014
 30
0.0
 40
0
 41
0
  0
VERTEX
  8
0
 10
402.35
 20
585.628
 30
0.0
 40
0
 41
0
  0
VERTEX
  8
0
 10
402.35
 20
585.801
 30
0.0
 40
0
 41
0
  0
VERTEX
  8
0
 10
402.325
 20
586.322
 30
0.0
 40
0
 41
0
  0
VERTEX
  8
0
 10
402.247
 20
587.011
 30
0.0
 40
0
 41
0
  0
VERTEX
  8
0
 10
402.119
 20
587.69
 30
0.0
 40
0
 41
0
  0
VERTEX
  8
0
 10
401.943
 20
588.357
 30
0.0
 40
0
 41
0
  0
VERTEX
  8
0
 10
401.718
 20
589.01
 30
0.0
 40
0
 41
0
  0
VERTEX
  8
0
 10
401.444
 20
589.644
 30
0.0
 40
0
 41
0
  0
VERTEX
  8
0
 10
401.124
 20
590.258
 30
0.0
 40
0
 41
0
  0
VERTEX
  8
0
 10
400.853
 20
590.706
 30
0.0
 40
0
 41
0
  0
VERTEX
  8
0
 10
400.757
 20
590.85
 30
0.0
 40
0
 41
0
  0
VERTEX
  8
0
 10
400.66
 20
590.993
 30
0.0
 40
0
 41
0
  0
VERTEX
  8
0
 10
400.346
 20
591.411
 30
0.0
 40
0
 41
0
  0
VERTEX
  8
0
 10
399.897
 20
591.94
 30
0.0
 40
0
 41
0
  0
VERTEX
  8
0
 10
399.412
 20
592.432
 30
0.0
 40
0
 41
0
  0
VERTEX
  8
0
 10
398.893
 20
592.886
 30
0.0
 40
0
 41
0
  0
VERTEX
  8
0
 10
398.342
 20
593.301
 30
0.0
 40
0
 41
0
  0
VERTEX
  8
0
 10
397.761
 20
593.675
 30
0.0
 40
0
 41
0
  0
VERTEX
  8
0
 10
397.151
 20
594.006
 30
0.0
 40
0
 41
0
  0
VERTEX
  8
0
 10
396.678
 20
594.225
 30
0.0
 40
0
 41
0
  0
VERTEX
  8
0
 10
396.517
 20
594.29
 30
0.0
 40
0
 41
0
  0
VERTEX
  8
0
 10
394.796
 20
594.989
 30
0.0
 40
0
 41
0
  0
VERTEX
  8
0
 10
394.69
 20
595.032
 30
0.0
 40
0
 41
0
  0
VERTEX
  8
0
 10
394.381
 20
595.182
 30
0.0
 40
0
 41
0
  0
VERTEX
  8
0
 10
393.99
 20
595.412
 30
0.0
 40
0
 41
0
  0
VERTEX
  8
0
 10
393.625
 20
595.679
 30
0.0
 40
0
 41
0
  0
VERTEX
  8
0
 10
393.287
 20
595.979
 30
0.0
 40
0
 41
0
  0
VERTEX
  8
0
 10
392.982
 20
596.31
 30
0.0
 40
0
 41
0
  0
VERTEX
  8
0
 10
392.708
 20
596.671
 30
0.0
 40
0
 41
0
  0
VERTEX
  8
0
 10
392.471
 20
597.057
 30
0.0
 40
0
 41
0
  0
VERTEX
  8
0
 10
392.315
 20
597.364
 30
0.0
 40
0
 41
0
  0
VERTEX
  8
0
 10
392.269
 20
597.468
 30
0.0
 40
0
 41
0
  0
VERTEX
  8
0
 10
391.318
 20
599.692
 30
0.0
 40
0
 41
0
  0
VERTEX
  8
0
 10
391.251
 20
599.85
 30
0.0
 40
0
 41
0
  0
VERTEX
  8
0
 10
391.026
 20
600.311
 30
0.0
 40
0
 41
0
  0
VERTEX
  8
0
 10
390.69
 20
600.906
 30
0.0
 40
0
 41
0
  0
VERTEX
  8
0
 10
390.314
 20
601.472
 30
0.0
 40
0
 41
0
  0
VERTEX
  8
0
 10
389.897
 20
602.008
 30
0.0
 40
0
 41
0
  0
VERTEX
  8
0
 10
389.443
 20
602.514
 30
0.0
 40
0
 41
0
  0
VERTEX
  8
0
 10
388.953
 20
602.985
 30
0.0
 40
0
 41
0
  0
VERTEX
  8
0
 10
388.429
 20
603.421
 30
0.0
 40
0
 41
0
  0
VERTEX
  8
0
 10
388.014
 20
603.724
 30
0.0
 40
0
 41
0
  0
VERTEX
  8
0
 10
387.871
 20
603.818
 30
0.0
 40
0
 41
0
  0
VERTEX
  8
0
 10
387.729
 20
603.912
 30
0.0
 40
0
 41
0
  0
VERTEX
  8
0
 10
387.286
 20
604.174
 30
0.0
 40
0
 41
0
  0
VERTEX
  8
0
 10
386.679
 20
604.485
 30
0.0
 40
0
 41
0
  0
VERTEX
  8
0
 10
386.053
 20
604.75
 30
0.0
 40
0
 41
0
  0
VERTEX
  8
0
 10
385.41
 20
604.969
 30
0.0
 40
0
 41
0
  0
VERTEX
  8
0
 10
384.753
 20
605.14
 30
0.0
 40
0
 41
0
  0
VERTEX
  8
0
 10
384.085
 20
605.264
 30
0.0
 40
0
 41
0
  0
VERTEX
  8
0
 10
383.407
 20
605.339
 30
0.0
 40
0
 41
0
  0
VERTEX
  8
0
 10
382.893
 20
605.364
 30
0.0
 40
0
 41
0
  0
VERTEX
  8
0
 10
382.722
 20
605.364
 30
0.0
 40
0
 41
0
  0
VERTEX
  8
0
 10
379
 20
605.364
 30
0.0
 40
0
 41
0
  0
VERTEX
  8
0
 10
308.19
 20
605.296
 30
0.0
 40
0
 41
0
  0
VERTEX
  8
0
 10
308.19
 20
605.294
 30
0.0
 40
0
 41
0
  0
VERTEX
  8
0
 10
308
 20
605.294
 30
0.0
 40
0
 41
0
  0
VERTEX
  8
0
 10
307.811
 20
605.294
 30
0.0
 40
0
 41
0
  0
VERTEX
  8
0
 10
307.811
 20
605.296
 30
0.0
 40
0
 41
0
  0
VERTEX
  8
0
 10
237
 20
605.364
 30
0.0
 40
0
 41
0
  0
VERTEX
  8
0
 10
233.279
 20
605.364
 30
0.0
 40
0
 41
0
  0
VERTEX
  8
0
 10
233.107
 20
605.364
 30
0.0
 40
0
 41
0
  0
VERTEX
  8
0
 10
232.594
 20
605.339
 30
0.0
 40
0
 41
0
  0
VERTEX
  8
0
 10
231.917
 20
605.264
 30
0.0
 40
0
 41
0
  0
VERTEX
  8
0
 10
231.247
 20
605.14
 30
0.0
 40
0
 41
0
  0
VERTEX
  8
0
 10
230.59
 20
604.969
 30
0.0
 40
0
 41
0
  0
VERTEX
  8
0
 10
229.947
 20
604.75
 30
0.0
 40
0
 41
0
  0
VERTEX
  8
0
 10
229.321
 20
604.485
 30
0.0
 40
0
 41
0
  0
VERTEX
  8
0
 10
228.714
 20
604.174
 30
0.0
 40
0
 41
0
  0
VERTEX
  8
0
 10
228.272
 20
603.912
 30
0.0
 40
0
 41
0
  0
VERTEX
  8
0
 10
228.129
 20
603.818
 30
0.0
 40
0
 41
0
  0
VERTEX
  8
0
 10
227.986
 20
603.724
 30
0.0
 40
0
 41
0
  0
VERTEX
  8
0
 10
227.572
 20
603.421
 30
0.0
 40
0
 41
0
  0
VERTEX
  8
0
 10
227.047
 20
602.985
 30
0.0
 40
0
 41
0
  0
VERTEX
  8
0
 10
226.557
 20
602.514
 30
0.0
 40
0
 41
0
  0
VERTEX
  8
0
 10
226.103
 20
602.008
 30
0.0
 40
0
 41
0
  0
VERTEX
  8
0
 10
225.686
 20
601.472
 30
0.0
 40
0
 41
0
  0
VERTEX
  8
0
 10
225.31
 20
600.906
 30
0.0
 40
0
 41
0
  0
VERTEX
  8
0
 10
224.975
 20
600.311
 30
0.0
 40
0
 41
0
  0
VERTEX
  8
0
 10
224.75
 20
599.85
 30
0.0
 40
0
 41
0
  0
VERTEX
  8
0
 10
224.682
 20
599.692
 30
0.0
 40
0
 41
0
  0
VERTEX
  8
0
 10
223.731
 20
597.468
 30
0.0
 40
0
 41
0
  0
VERTEX
  8
0
 10
223.686
 20
597.364
 30
0.0
 40
0
 41
0
  0
VERTEX
  8
0
 10
223.531
 20
597.057
 30
0.0
 40
0
 41
0
  0
VERTEX
  8
0
 10
223.293
 20
596.671
 30
0.0
 40
0
 41
0
  0
VERTEX
  8
0
 10
223.019
 20
596.31
 30
0.0
 40
0
 41
0
  0
VERTEX
  8
0
 10
222.712
 20
595.979
 30
0.0
 40
0
 41
0
  0
VERTEX
  8
0
 10
222.376
 20
595.679
 30
0.0
 40
0
 41
0
  0
VERTEX
  8
0
 10
222.011
 20
595.412
 30
0.0
 40
0
 41
0
  0
VERTEX
  8
0
 10
221.619
 20
595.182
 30
0.0
 40
0
 41
0
  0
VERTEX
  8
0
 10
221.311
 20
595.032
 30
0.0
 40
0
 41
0
  0
VERTEX
  8
0
 10
221.204
 20
594.989
 30
0.0
 40
0
 41
0
  0
VERTEX
  8
0
 10
219.483
 20
594.29
 30
0.0
 40
0
 41
0
  0
VERTEX
  8
0
 10
219.322
 20
594.225
 30
0.0
 40
0
 41
0
  0
VERTEX
  8
0
 10
218.849
 20
594.006
 30
0.0
 40
0
 41
0
  0
VERTEX
  8
0
 10
218.24
 20
593.675
 30
0.0
 40
0
 41
0
  0
VERTEX
  8
0
 10
217.658
 20
593.301
 30
0.0
 40
0
 41
0
  0
VERTEX
  8
0
 10
217.107
 20
592.886
 30
0.0
 40
0
 41
0
  0
VERTEX
  8
0
 10
216.587
 20
592.432
 30
0.0
 40
0
 41
0
  0
VERTEX
  8
0
 10
216.103
 20
591.94
 30
0.0
 40
0
 41
0
  0
VERTEX
  8
0
 10
215.654
 20
591.411
 30
0.0
 40
0
 41
0
  0
VERTEX
  8
0
 10
215.342
 20
590.993
 30
0.0
 40
0
 41
0
  0
VERTEX
  8
0
 10
215.244
 20
590.85
 30
0.0
 40
0
 41
0
  0
VERTEX
  8
0
 10
215.147
 20
590.706
 30
0.0
 40
0
 41
0
  0
VERTEX
  8
0
 10
214.878
 20
590.258
 30
0.0
 40
0
 41
0
  0
VERTEX
  8
0
 10
214.557
 20
589.644
 30
0.0
 40
0
 41
0
  0
VERTEX
  8
0
 10
214.283
 20
589.01
 30
0.0
 40
0
 41
0
  0
VERTEX
  8
0
 10
214.058
 20
588.357
 30
0.0
 40
0
 41
0
  0
VERTEX
  8
0
 10
213.881
 20
587.69
 30
0.0
 40
0
 41
0
  0
VERTEX
  8
0
 10
213.753
 20
587.011
 30
0.0
 40
0
 41
0
  0
VERTEX
  8
0
 10
213.676
 20
586.322
 30
0.0
 40
0
 41
0
  0
VERTEX
  8
0
 10
213.65
 20
585.801
 30
0.0
 40
0
 41
0
  0
VERTEX
  8
0
 10
213.65
 20
585.628
 30
0.0
 40
0
 41
0
  0
VERTEX
  8
0
 10
213.65
 20
233.4
 30
0.0
 40
0
 41
0
  0
VERTEX
  8
0
 10
213.65
 20
233.226
 30
0.0
 40
0
 41
0
  0
VERTEX
  8
0
 10
213.676
 20
232.704
 30
0.0
 40
0
 41
0
  0
VERTEX
  8
0
 10
213.753
 20
232.017
 30
0.0
 40
0
 41
0
  0
VERTEX
  8
0
 10
213.881
 20
231.338
 30
0.0
 40
0
 41
0
  0
VERTEX
  8
0
 10
214.058
 20
230.669
 30
0.0
 40
0
 41
0
  0
VERTEX
  8
0
 10
214.283
 20
230.018
 30
0.0
 40
0
 41
0
  0
VERTEX
  8
0
 10
214.557
 20
229.383
 30
0.0
 40
0
 41
0
  0
VERTEX
  8
0
 10
214.878
 20
228.769
 30
0.0
 40
0
 41
0
  0
VERTEX
  8
0
 10
215.147
 20
228.322
 30
0.0
 40
0
 41
0
  0
VERTEX
  8
0
 10
215.244
 20
228.178
 30
0.0
 40
0
 41
0
  0
VERTEX
  8
0
 10
215.342
 20
228.033
 30
0.0
 40
0
 41
0
  0
VERTEX
  8
0
 10
215.654
 20
227.615
 30
0.0
 40
0
 41
0
  0
VERTEX
  8
0
 10
216.103
 20
227.087
 30
0.0
 40
0
 41
0
  0
VERTEX
  8
0
 10
216.587
 20
226.596
 30
0.0
 40
0
 41
0
  0
VERTEX
  8
0
 10
217.107
 20
226.14
 30
0.0
 40
0
 41
0
  0
VERTEX
  8
0
 10
217.658
 20
225.726
 30
0.0
 40
0
 41
0
  0
VERTEX
  8
0
 10
218.24
 20
225.353
 30
0.0
 40
0
 41
0
  0
VERTEX
  8
0
 10
218.849
 20
225.022
 30
0.0
 40
0
 41
0
  0
VERTEX
  8
0
 10
219.322
 20
224.801
 30
0.0
 40
0
 41
0
  0
VERTEX
  8
0
 10
219.483
 20
224.736
 30
0.0
 40
0
 41
0
  0
VERTEX
  8
0
 10
221.204
 20
224.038
 30
0.0
 40
0
 41
0
  0
VERTEX
  8
0
 10
221.311
 20
223.994
 30
0.0
 40
0
 41
0
  0
VERTEX
  8
0
 10
221.619
 20
223.846
 30
0.0
 40
0
 41
0
  0
VERTEX
  8
0
 10
222.011
 20
223.615
 30
0.0
 40
0
 41
0
  0
VERTEX
  8
0
 10
222.376
 20
223.349
 30
0.0
 40
0
 41
0
  0
VERTEX
  8
0
 10
222.712
 20
223.049
 30
0.0
 40
0
 41
0
  0
VERTEX
  8
0
 10
223.019
 20
222.717
 30
0.0
 40
0
 41
0
  0
VERTEX
  8
0
 10
223.293
 20
222.357
 30
0.0
 40
0
 41
0
  0
VERTEX
  8
0
 10
223.531
 20
221.969
 30
0.0
 40
0
 41
0
  0
VERTEX
  8
0
 10
223.686
 20
221.664
 30
0.0
 40
0
 41
0
  0
VERTEX
  8
0
 10
223.731
 20
221.558
 30
0.0
 40
0
 41
0
  0
VERTEX
  8
0
 10
224.682
 20
219.335
 30
0.0
 40
0
 41
0
  0
VERTEX
  8
0
 10
224.75
 20
219.178
 30
0.0
 40
0
 41
0
  0
VERTEX
  8
0
 10
224.975
 20
218.715
 30
0.0
 40
0
 41
0
  0
VERTEX
  8
0
 10
225.31
 20
218.122
 30
0.0
 40
0
 41
0
  0
VERTEX
  8
0
 10
225.686
 20
217.556
 30
0.0
 40
0
 41
0
  0
VERTEX
  8
0
 10
226.103
 20
217.019
 30
0.0
 40
0
 41
0
  0
VERTEX
  8
0
 10
226.557
 20
216.514
 30
0.0
 40
0
 41
0
  0
VERTEX
  8
0
 10
227.047
 20
216.042
 30
0.0
 40
0
 41
0
  0
VERTEX
  8
0
 10
227.572
 20
215.607
 30
0.0
 40
0
 41
0
  0
VERTEX
  8
0
 10
227.986
 20
215.303
 30
0.0
 40
0
 41
0
  0
VERTEX
  8
0
 10
228.129
 20
215.208
 30
0.0
 40
0
 41
0
  0
VERTEX
  8
0
 10
228.272
 20
215.115
 30
0.0
 40
0
 41
0
  0
VERTEX
  8
0
 10
228.714
 20
214.853
 30
0.0
 40
0
 41
0
  0
VERTEX
  8
0
 10
229.321
 20
214.542
 30
0.0
 40
0
 41
0
  0
VERTEX
  8
0
 10
229.947
 20
214.276
 30
0.0
 40
0
 41
0
  0
VERTEX
  8
0
 10
230.59
 20
214.058
 30
0.0
 40
0
 41
0
  0
VERTEX
  8
0
 10
231.247
 20
213.886
 30
0.0
 40
0
 41
0
  0
VERTEX
  8
0
 10
231.917
 20
213.763
 30
0.0
 40
0
 41
0
  0
VERTEX
  8
0
 10
232.594
 20
213.689
 30
0.0
 40
0
 41
0
  0
VERTEX
  8
0
 10
233.107
 20
213.664
 30
0.0
 40
0
 41
0
  0
VERTEX
  8
0
 10
233.279
 20
213.664
 30
0.0
 40
0
 41
0
  0
VERTEX
  8
0
 10
237
 20
213.664
 30
0.0
 40
0
 41
0
  0
VERTEX
  8
0
 10
307.811
 20
213.732
 30
0.0
 40
0
 41
0
  0
VERTEX
  8
0
 10
307.811
 20
213.732
 30
0.0
 40
0
 41
0
  0
VERTEX
  8
0
 10
308
 20
213.732
 30
0.0
 40
0
 41
0
  0
VERTEX
  8
0
 10
308.19
 20
213.732
 30
0.0
 40
0
 41
0
  0
VERTEX
  8
0
 10
308.19
 20
213.732
 30
0.0
 40
0
 41
0
  0
VERTEX
  8
0
 10
379
 20
213.664
 30
0.0
 40
0
 41
0
  0
VERTEX
  8
0
 10
382.722
 20
213.664
 30
0.0
 40
0
 41
0
  0
VERTEX
  8
0
 10
382.893
 20
213.664
 30
0.0
 40
0
 41
0
  0
VERTEX
  8
0
 10
383.407
 20
213.689
 30
0.0
 40
0
 41
0
  0
VERTEX
  8
0
 10
384.085
 20
213.763
 30
0.0
 40
0
 41
0
  0
VERTEX
  8
0
 10
384.753
 20
213.886
 30
0.0
 40
0
 41
0
  0
VERTEX
  8
0
 10
385.41
 20
214.058
 30
0.0
 40
0
 41
0
  0
VERTEX
  8
0
 10
386.053
 20
214.276
 30
0.0
 40
0
 41
0
  0
VERTEX
  8
0
 10
386.679
 20
214.542
 30
0.0
 40
0
 41
0
  0
VERTEX
  8
0
 10
387.286
 20
214.853
 30
0.0
 40
0
 41
0
  0
VERTEX
  8
0
 10
387.729
 20
215.115
 30
0.0
 40
0
 41
0
  0
VERTEX
  8
0
 10
387.871
 20
215.208
 30
0.0
 40
0
 41
0
  0
VERTEX
  8
0
 10
388.014
 20
215.303
 30
0.0
 40
0
 41
0
  0
VERTEX
  8
0
 10
388.429
 20
215.607
 30
0.0
 40
0
 41
0
  0
VERTEX
  8
0
 10
388.953
 20
216.042
 30
0.0
 40
0
 41
0
  0
VERTEX
  8
0
 10
389.443
 20
216.514
 30
0.0
 40
0
 41
0
  0
VERTEX
  8
0
 10
389.897
 20
217.019
 30
0.0
 40
0
 41
0
  0
VERTEX
  8
0
 10
390.314
 20
217.556
 30
0.0
 40
0
 41
0
  0
VERTEX
  8
0
 10
390.69
 20
218.122
 30
0.0
 40
0
 41
0
  0
VERTEX
  8
0
 10
391.026
 20
218.715
 30
0.0
 40
0
 41
0
  0
VERTEX
  8
0
 10
391.251
 20
219.178
 30
0.0
 40
0
 41
0
  0
VERTEX
  8
0
 10
391.318
 20
219.335
 30
0.0
 40
0
 41
0
  0
VERTEX
  8
0
 10
392.269
 20
221.558
 30
0.0
 40
0
 41
0
  0
VERTEX
  8
0
 10
392.315
 20
221.664
 30
0.0
 40
0
 41
0
  0
VERTEX
  8
0
 10
392.471
 20
221.969
 30
0.0
 40
0
 41
0
  0
VERTEX
  8
0
 10
392.708
 20
222.357
 30
0.0
 40
0
 41
0
  0
VERTEX
  8
0
 10
392.982
 20
222.717
 30
0.0
 40
0
 41
0
  0
VERTEX
  8
0
 10
393.287
 20
223.049
 30
0.0
 40
0
 41
0
  0
VERTEX
  8
0
 10
393.625
 20
223.349
 30
0.0
 40
0
 41
0
  0
VERTEX
  8
0
 10
393.99
 20
223.615
 30
0.0
 40
0
 41
0
  0
VERTEX
  8
0
 10
394.381
 20
223.846
 30
0.0
 40
0
 41
0
  0
VERTEX
  8
0
 10
394.69
 20
223.994
 30
0.0
 40
0
 41
0
  0
VERTEX
  8
0
 10
394.796
 20
224.038
 30
0.0
 40
0
 41
0
  0
VERTEX
  8
0
 10
396.517
 20
224.736
 30
0.0
 40
0
 41
0
  0
VERTEX
  8
0
 10
396.678
 20
224.801
 30
0.0
 40
0
 41
0
  0
VERTEX
  8
0
 10
397.151
 20
225.022
 30
0.0
 40
0
 41
0
  0
VERTEX
  8
0
 10
397.761
 20
225.353
 30
0.0
 40
0
 41
0
  0
VERTEX
  8
0
 10
398.342
 20
225.726
 30
0.0
 40
0
 41
0
  0
VERTEX
  8
0
 10
398.893
 20
226.14
 30
0.0
 40
0
 41
0
  0
VERTEX
  8
0
 10
399.412
 20
226.596
 30
0.0
 40
0
 41
0
  0
VERTEX
  8
0
 10
399.897
 20
227.087
 30
0.0
 40
0
 41
0
  0
VERTEX
  8
0
 10
400.346
 20
227.615
 30
0.0
 40
0
 41
0
  0
VERTEX
  8
0
 10
400.66
 20
228.033
 30
0.0
 40
0
 41
0
  0
VERTEX
  8
0
 10
400.757
 20
228.178
 30
0.0
 40
0
 41
0
  0
VERTEX
  8
0
 10
400.853
 20
228.322
 30
0.0
 40
0
 41
0
  0
VERTEX
  8
0
 10
401.124
 20
228.769
 30
0.0
 40
0
 41
0
  0
VERTEX
  8
0
 10
401.444
 20
229.383
 30
0.0
 40
0
 41
0
  0
VERTEX
  8
0
 10
401.718
 20
230.018
 30
0.0
 40
0
 41
0
  0
VERTEX
  8
0
 10
401.943
 20
230.669
 30
0.0
 40
0
 41
0
  0
VERTEX
  8
0
 10
402.119
 20
231.338
 30
0.0
 40
0
 41
0
  0
VERTEX
  8
0
 10
402.247
 20
232.017
 30
0.0
 40
0
 41
0
  0
VERTEX
  8
0
 10
402.325
 20
232.704
 30
0.0
 40
0
 41
0
  0
VERTEX
  8
0
 10
402.35
 20
233.226
 30
0.0
 40
0
 41
0
  0
VERTEX
  8
0
 10
402.35
 20
233.4
 30
0.0
 40
0
 41
0
  0
VERTEX
  8
0
 10
402.35
 20
237.014
 30
0.0
 40
0
 41
0
  0
SEQEND
 8
0
  0
POLYLINE
  8
0
 62
     0
 66
     1
 10
0
 20
0
 30
0.0
 70
     1
 40
0
 41
0
  0
VERTEX
  8
0
 10
398
 20
237.014
 30
0.0
 40
0
 41
0
  0
VERTEX
  8
0
 10
398
 20
585.628
 30
0.0
 40
0
 41
0
  0
VERTEX
  8
0
 10
398
 20
585.722
 30
0.0
 40
0
 41
0
  0
VERTEX
  8
0
 10
397.986
 20
586.006
 30
0.0
 40
0
 41
0
  0
VERTEX
  8
0
 10
397.944
 20
586.379
 30
0.0
 40
0
 41
0
  0
VERTEX
  8
0
 10
397.874
 20
586.744
 30
0.0
 40
0
 41
0
  0
VERTEX
  8
0
 10
397.778
 20
587.101
 30
0.0
 40
0
 41
0
  0
VERTEX
  8
0
 10
397.657
 20
587.45
 30
0.0
 40
0
 41
0
  0
VERTEX
  8
0
 10
397.511
 20
587.786
 30
0.0
 40
0
 41
0
  0
VERTEX
  8
0
 10
397.34
 20
588.11
 30
0.0
 40
0
 41
0
  0
VERTEX
  8
0
 10
397.149
 20
588.419
 30
0.0
 40
0
 41
0
  0
VERTEX
  8
0
 10
396.933
 20
588.715
 30
0.0
 40
0
 41
0
  0
VERTEX
  8
0
 10
396.697
 20
588.994
 30
0.0
 40
0
 41
0
  0
VERTEX
  8
0
 10
396.44
 20
589.257
 30
0.0
 40
0
 41
0
  0
VERTEX
  8
0
 10
396.164
 20
589.5
 30
0.0
 40
0
 41
0
  0
VERTEX
  8
0
 10
395.869
 20
589.722
 30
0.0
 40
0
 41
0
  0
VERTEX
  8
0
 10
395.557
 20
589.925
 30
0.0
 40
0
 41
0
  0
VERTEX
  8
0
 10
395.226
 20
590.104
 30
0.0
 40
0
 41
0
  0
VERTEX
  8
0
 10
394.969
 20
590.225
 30
0.0
 40
0
 41
0
  0
VERTEX
  8
0
 10
394.881
 20
590.26
 30
0.0
 40
0
 41
0
  0
VERTEX
  8
0
 10
393.16
 20
590.958
 30
0.0
 40
0
 41
0
  0
VERTEX
  8
0
 10
393.057
 20
591
 30
0.0
 40
0
 41
0
  0
VERTEX
  8
0
 10
392.753
 20
591.136
 30
0.0
 40
0
 41
0
  0
VERTEX
  8
0
 10
392.357
 20
591.332
 30
0.0
 40
0
 41
0
  0
VERTEX
  8
0
 10
391.972
 20
591.546
 30
0.0
 40
0
 41
0
  0
VERTEX
  8
0
 10
391.6
 20
591.778
 30
0.0
 40
0
 41
0
  0
VERTEX
  8
0
 10
391.24
 20
592.028
 30
0.0
 40
0
 41
0
  0
VERTEX
  8
0
 10
390.893
 20
592.294
 30
0.0
 40
0
 41
0
  0
VERTEX
  8
0
 10
390.56
 20
592.576
 30
0.0
 40
0
 41
0
  0
VERTEX
  8
0
 10
390.242
 20
592.875
 30
0.0
 40
0
 41
0
  0
VERTEX
  8
0
 10
389.938
 20
593.188
 30
0.0
 40
0
 41
0
  0
VERTEX
  8
0
 10
389.649
 20
593.515
 30
0.0
 40
0
 41
0
  0
VERTEX
  8
0
 10
389.375
 20
593.857
 30
0.0
 40
0
 41
0
  0
VERTEX
  8
0
 10
389.119
 20
594.213
 30
0.0
 40
0
 41
0
  0
VERTEX
  8
0
 10
388.881
 20
594.581
 30
0.0
 40
0
 41
0
  0
VERTEX
  8
0
 10
388.658
 20
594.961
 30
0.0
 40
0
 41
0
  0
VERTEX
  8
0
 10
388.456
 20
595.353
 30
0.0
 40
0
 41
0
  0
VERTEX
  8
0
 10
388.314
 20
595.656
 30
0.0
 40
0
 41
0
  0
VERTEX
  8
0
 10
388.271
 20
595.757
 30
0.0
 40
0
 41
0
  0
VERTEX
  8
0
 10
387.319
 20
597.981
 30
0.0
 40
0
 41
0
  0
VERTEX
  8
0
 10
387.282
 20
598.067
 30
0.0
 40
0
 41
0
  0
VERTEX
  8
0
 10
387.16
 20
598.318
 30
0.0
 40
0
 41
0
  0
VERTEX
  8
0
 10
386.978
 20
598.639
 30
0.0
 40
0
 41
0
  0
VERTEX
  8
0
 10
386.774
 20
598.944
 30
0.0
 40
0
 41
0
  0
VERTEX
  8
0
 10
386.55
 20
599.231
 30
0.0
 40
0
 41
0
  0
VERTEX
  8
0
 10
386.307
 20
599.5
 30
0.0
 40
0
 41
0
  0
VERTEX
  8
0
 10
386.046
 20
599.749
 30
0.0
 40
0
 41
0
  0
VERTEX
  8
0
 10
385.769
 20
599.979
 30
0.0
 40
0
 41
0
  0
VERTEX
  8
0
 10
385.476
 20
600.188
 30
0.0
 40
0
 41
0
  0
VERTEX
  8
0
 10
385.168
 20
600.375
 30
0.0
 40
0
 41
0
  0
VERTEX
  8
0
 10
384.849
 20
600.539
 30
0.0
 40
0
 41
0
  0
VERTEX
  8
0
 10
384.517
 20
600.681
 30
0.0
 40
0
 41
0
  0
VERTEX
  8
0
 10
384.174
 20
600.799
 30
0.0
 40
0
 41
0
  0
VERTEX
  8
0
 10
383.822
 20
600.892
 30
0.0
 40
0
 41
0
  0
VERTEX
  8
0
 10
383.463
 20
600.96
 30
0.0
 40
0
 41
0
  0
VERTEX
  8
0
 10
383.094
 20
601
 30
0.0
 40
0
 41
0
  0
VERTEX
  8
0
 10
382.815
 20
601.014
 30
0.0
 40
0
 41
0
  0
VERTEX
  8
0
 10
382.722
 20
601.014
 30
0.0
 40
0
 41
0
  0
VERTEX
  8
0
 10
379.001
 20
601.014
 30
0.0
 40
0
 41
0
  0
VERTEX
  8
0
 10
308.186
 20
600.946
 30
0.0
 40
0
 41
0
  0
VERTEX
  8
0
 10
308.186
 20
600.944
 30
0.0
 40
0
 41
0
  0
VERTEX
  8
0
 10
308
 20
600.944
 30
0.0
 40
0
 41
0
  0
VERTEX
  8
0
 10
307.815
 20
600.944
 30
0.0
 40
0
 41
0
  0
VERTEX
  8
0
 10
307.815
 20
600.946
 30
0.0
 40
0
 41
0
  0
VERTEX
  8
0
 10
237
 20
601.014
 30
0.0
 40
0
 41
0
  0
VERTEX
  8
0
 10
233.279
 20
601.014
 30
0.0
 40
0
 41
0
  0
VERTEX
  8
0
 10
233.186
 20
601.014
 30
0.0
 40
0
 41
0
  0
VERTEX
  8
0
 10
232.906
 20
601
 30
0.0
 40
0
 41
0
  0
VERTEX
  8
0
 10
232.539
 20
600.96
 30
0.0
 40
0
 41
0
  0
VERTEX
  8
0
 10
232.179
 20
600.892
 30
0.0
 40
0
 41
0
  0
VERTEX
  8
0
 10
231.826
 20
600.799
 30
0.0
 40
0
 41
0
  0
VERTEX
  8
0
 10
231.485
 20
600.681
 30
0.0
 40
0
 41
0
  0
VERTEX
  8
0
 10
231.153
 20
600.539
 30
0.0
 40
0
 41
0
  0
VERTEX
  8
0
 10
230.832
 20
600.375
 30
0.0
 40
0
 41
0
  0
VERTEX
  8
0
 10
230.525
 20
600.188
 30
0.0
 40
0
 41
0
  0
VERTEX
  8
0
 10
230.232
 20
599.979
 30
0.0
 40
0
 41
0
  0
VERTEX
  8
0
 10
229.954
 20
599.749
 30
0.0
 40
0
 41
0
  0
VERTEX
  8
0
 10
229.693
 20
599.5
 30
0.0
 40
0
 41
0
  0
VERTEX
  8
0
 10
229.451
 20
599.231
 30
0.0
 40
0
 41
0
  0
VERTEX
  8
0
 10
229.226
 20
598.944
 30
0.0
 40
0
 41
0
  0
VERTEX
  8
0
 10
229.024
 20
598.639
 30
0.0
 40
0
 41
0
  0
VERTEX
  8
0
 10
228.842
 20
598.318
 30
0.0
 40
0
 41
0
  0
VERTEX
  8
0
 10
228.718
 20
598.067
 30
0.0
 40
0
 41
0
  0
VERTEX
  8
0
 10
228.682
 20
597.981
 30
0.0
 40
0
 41
0
  0
VERTEX
  8
0
 10
227.731
 20
595.757
 30
0.0
 40
0
 41
0
  0
VERTEX
  8
0
 10
227.686
 20
595.656
 30
0.0
 40
0
 41
0
  0
VERTEX
  8
0
 10
227.546
 20
595.353
 30
0.0
 40
0
 41
0
  0
VERTEX
  8
0
 10
227.342
 20
594.961
 30
0.0
 40
0
 41
0
  0
VERTEX
  8
0
 10
227.121
 20
594.581
 30
0.0
 40
0
 41
0
  0
VERTEX
  8
0
 10
226.882
 20
594.213
 30
0.0
 40
0
 41
0
  0
VERTEX
  8
0
 10
226.625
 20
593.857
 30
0.0
 40
0
 41
0
  0
VERTEX
  8
0
 10
226.353
 20
593.515
 30
0.0
 40
0
 41
0
  0
VERTEX
  8
0
 10
226.064
 20
593.188
 30
0.0
 40
0
 41
0
  0
VERTEX
  8
0
 10
225.76
 20
592.875
 30
0.0
 40
0
 41
0
  0
VERTEX
  8
0
 10
225.44
 20
592.576
 30
0.0
 40
0
 41
0
  0
VERTEX
  8
0
 10
225.108
 20
592.294
 30
0.0
 40
0
 41
0
  0
VERTEX
  8
0
 10
224.761
 20
592.028
 30
0.0
 40
0
 41
0
  0
VERTEX
  8
0
 10
224.401
 20
591.778
 30
0.0
 40
0
 41
0
  0
VERTEX
  8
0
 10
224.028
 20
591.546
 30
0.0
 40
0
 41
0
  0
VERTEX
  8
0
 10
223.643
 20
591.332
 30
0.0
 40
0
 41
0
  0
VERTEX
  8
0
 10
223.247
 20
591.136
 30
0.0
 40
0
 41
0
  0
VERTEX
  8
0
 10
222.943
 20
591
 30
0.0
 40
0
 41
0
  0
VERTEX
  8
0
 10
222.84
 20
590.958
 30
0.0
 40
0
 41
0
  0
VERTEX
  8
0
 10
221.119
 20
590.26
 30
0.0
 40
0
 41
0
  0
VERTEX
  8
0
 10
221.032
 20
590.225
 30
0.0
 40
0
 41
0
  0
VERTEX
  8
0
 10
220.774
 20
590.104
 30
0.0
 40
0
 41
0
  0
VERTEX
  8
0
 10
220.444
 20
589.925
 30
0.0
 40
0
 41
0
  0
VERTEX
  8
0
 10
220.132
 20
589.722
 30
0.0
 40
0
 41
0
  0
VERTEX
  8
0
 10
219.837
 20
589.5
 30
0.0
 40
0
 41
0
  0
VERTEX
  8
0
 10
219.561
 20
589.257
 30
0.0
 40
0
 41
0
  0
VERTEX
  8
0
 10
219.304
 20
588.994
 30
0.0
 40
0
 41
0
  0
VERTEX
  8
0
 10
219.068
 20
588.715
 30
0.0
 40
0
 41
0
  0
VERTEX
  8
0
 10
218.853
 20
588.419
 30
0.0
 40
0
 41
0
  0
VERTEX
  8
0
 10
218.66
 20
588.11
 30
0.0
 40
0
 41
0
  0
VERTEX
  8
0
 10
218.49
 20
587.786
 30
0.0
 40
0
 41
0
  0
VERTEX
  8
0
 10
218.344
 20
587.45
 30
0.0
 40
0
 41
0
  0
VERTEX
  8
0
 10
218.222
 20
587.101
 30
0.0
 40
0
 41
0
  0
VERTEX
  8
0
 10
218.126
 20
586.744
 30
0.0
 40
0
 41
0
  0
VERTEX
  8
0
 10
218.057
 20
586.379
 30
0.0
 40
0
 41
0
  0
VERTEX
  8
0
 10
218.015
 20
586.006
 30
0.0
 40
0
 41
0
  0
VERTEX
  8
0
 10
218
 20
585.722
 30
0.0
 40
0
 41
0
  0
VERTEX
  8
0
 10
218
 20
585.628
 30
0.0
 40
0
 41
0
  0
VERTEX
  8
0
 10
218
 20
233.4
 30
0.0
 40
0
 41
0
  0
VERTEX
  8
0
 10
218
 20
233.306
 30
0.0
 40
0
 41
0
  0
VERTEX
  8
0
 10
218.015
 20
233.021
 30
0.0
 40
0
 41
0
  0
VERTEX
  8
0
 10
218.057
 20
232.649
 30
0.0
 40
0
 41
0
  0
VERTEX
  8
0
 10
218.126
 20
232.282
 30
0.0
 40
0
 41
0
  0
VERTEX
  8
0
 10
218.222
 20
231.925
 30
0.0
 40
0
 41
0
  0
VERTEX
  8
0
 10
218.344
 20
231.578
 30
0.0
 40
0
 41
0
  0
VERTEX
  8
0
 10
218.49
 20
231.242
 30
0.0
 40
0
 41
0
  0
VERTEX
  8
0
 10
218.66
 20
230.918
 30
0.0
 40
0
 41
0
  0
VERTEX
  8
0
 10
218.853
 20
230.607
 30
0.0
 40
0
 41
0
  0
VERTEX
  8
0
 10
219.068
 20
230.313
 30
0.0
 40
0
 41
0
  0
VERTEX
  8
0
 10
219.304
 20
230.033
 30
0.0
 40
0
 41
0
  0
VERTEX
  8
0
 10
219.561
 20
229.771
 30
0.0
 40
0
 41
0
  0
VERTEX
  8
0
 10
219.837
 20
229.528
 30
0.0
 40
0
 41
0
  0
VERTEX
  8
0
 10
220.132
 20
229.304
 30
0.0
 40
0
 41
0
  0
VERTEX
  8
0
 10
220.444
 20
229.103
 30
0.0
 40
0
 41
0
  0
VERTEX
  8
0
 10
220.774
 20
228.924
 30
0.0
 40
0
 41
0
  0
VERTEX
  8
0
 10
221.032
 20
228.803
 30
0.0
 40
0
 41
0
  0
VERTEX
  8
0
 10
221.119
 20
228.767
 30
0.0
 40
0
 41
0
  0
VERTEX
  8
0
 10
222.84
 20
228.068
 30
0.0
 40
0
 41
0
  0
VERTEX
  8
0
 10
222.943
 20
228.026
 30
0.0
 40
0
 41
0
  0
VERTEX
  8
0
 10
223.247
 20
227.892
 30
0.0
 40
0
 41
0
  0
VERTEX
  8
0
 10
223.643
 20
227.696
 30
0.0
 40
0
 41
0
  0
VERTEX
  8
0
 10
224.028
 20
227.482
 30
0.0
 40
0
 41
0
  0
VERTEX
  8
0
 10
224.401
 20
227.249
 30
0.0
 40
0
 41
0
  0
VERTEX
  8
0
 10
224.761
 20
227
 30
0.0
 40
0
 41
0
  0
VERTEX
  8
0
 10
225.108
 20
226.733
 30
0.0
 40
0
 41
0
  0
VERTEX
  8
0
 10
225.44
 20
226.451
 30
0.0
 40
0
 41
0
  0
VERTEX
  8
0
 10
225.76
 20
226.153
 30
0.0
 40
0
 41
0
  0
VERTEX
  8
0
 10
226.064
 20
225.84
 30
0.0
 40
0
 41
0
  0
VERTEX
  8
0
 10
226.353
 20
225.513
 30
0.0
 40
0
 41
0
  0
VERTEX
  8
0
 10
226.625
 20
225.169
 30
0.0
 40
0
 41
0
  0
VERTEX
  8
0
 10
226.882
 20
224.815
 30
0.0
 40
0
 41
0
  0
VERTEX
  8
0
 10
227.121
 20
224.447
 30
0.0
 40
0
 41
0
  0
VERTEX
  8
0
 10
227.342
 20
224.067
 30
0.0
 40
0
 41
0
  0
VERTEX
  8
0
 10
227.546
 20
223.674
 30
0.0
 40
0
 41
0
  0
VERTEX
  8
0
 10
227.686
 20
223.372
 30
0.0
 40
0
 41
0
  0
VERTEX
  8
0
 10
227.731
 20
223.271
 30
0.0
 40
0
 41
0
  0
VERTEX
  8
0
 10
228.682
 20
221.046
 30
0.0
 40
0
 41
0
  0
VERTEX
  8
0
 10
228.718
 20
220.961
 30
0.0
 40
0
 41
0
  0
VERTEX
  8
0
 10
228.842
 20
220.708
 30
0.0
 40
0
 41
0
  0
VERTEX
  8
0
 10
229.024
 20
220.388
 30
0.0
 40
0
 41
0
  0
VERTEX
  8
0
 10
229.226
 20
220.083
 30
0.0
 40
0
 41
0
  0
VERTEX
  8
0
 10
229.451
 20
219.796
 30
0.0
 40
0
 41
0
  0
VERTEX
  8
0
 10
229.693
 20
219.528
 30
0.0
 40
0
 41
0
  0
VERTEX
  8
0
 10
229.954
 20
219.278
 30
0.0
 40
0
 41
0
  0
VERTEX
  8
0
 10
230.232
 20
219.049
 30
0.0
 40
0
 41
0
  0
VERTEX
  8
0
 10
230.525
 20
218.84
 30
0.0
 40
0
 41
0
  0
VERTEX
  8
0
 10
230.832
 20
218.653
 30
0.0
 40
0
 41
0
  0
VERTEX
  8
0
 10
231.153
 20
218.487
 30
0.0
 40
0
 41
0
  0
VERTEX
  8
0
 10
231.485
 20
218.346
 30
0.0
 40
0
 41
0
  0
VERTEX
  8
0
 10
231.826
 20
218.229
 30
0.0
 40
0
 41
0
  0
VERTEX
  8
0
 10
232.179
 20
218.136
 30
0.0
 40
0
 41
0
  0
VERTEX
  8
0
 10
232.539
 20
218.068
 30
0.0
 40
0
 41
0
  0
VERTEX
  8
0
 10
232.906
 20
218.028
 30
0.0
 40
0
 41
0
  0
VERTEX
  8
0
 10
233.186
 20
218.014
 30
0.0
 40
0
 41
0
  0
VERTEX
  8
0
 10
233.279
 20
218.014
 30
0.0
 40
0
 41
0
  0
VERTEX
  8
0
 10
237
 20
218.014
 30
0.0
 40
0
 41
0
  0
VERTEX
  8
0
 10
307.815
 20
218.082
 30
0.0
 40
0
 41
0
  0
VERTEX
  8
0
 10
307.815
 20
218.082
 30
0.0
 40
0
 41
0
  0
VERTEX
  8
0
 10
308
 20
218.082
 30
0.0
 40
0
 41
0
  0
VERTEX
  8
0
 10
308.186
 20
218.082
 30
0.0
 40
0
 41
0
  0
VERTEX
  8
0
 10
308.186
 20
218.082
 30
0.0
 40
0
 41
0
  0
VERTEX
  8
0
 10
379.001
 20
218.014
 30
0.0
 40
0
 41
0
  0
VERTEX
  8
0
 10
382.722
 20
218.014
 30
0.0
 40
0
 41
0
  0
VERTEX
  8
0
 10
382.815
 20
218.014
 30
0.0
 40
0
 41
0
  0
VERTEX
  8
0
 10
383.094
 20
218.028
 30
0.0
 40
0
 41
0
  0
VERTEX
  8
0
 10
383.463
 20
218.068
 30
0.0
 40
0
 41
0
  0
VERTEX
  8
0
 10
383.822
 20
218.136
 30
0.0
 40
0
 41
0
  0
VERTEX
  8
0
 10
384.174
 20
218.229
 30
0.0
 40
0
 41
0
  0
VERTEX
  8
0
 10
384.517
 20
218.346
 30
0.0
 40
0
 41
0
  0
VERTEX
  8
0
 10
384.849
 20
218.487
 30
0.0
 40
0
 41
0
  0
VERTEX
  8
0
 10
385.168
 20
218.653
 30
0.0
 40
0
 41
0
  0
VERTEX
  8
0
 10
385.476
 20
218.84
 30
0.0
 40
0
 41
0
  0
VERTEX
  8
0
 10
385.769
 20
219.049
 30
0.0
 40
0
 41
0
  0
VERTEX
  8
0
 10
386.046
 20
219.278
 30
0.0
 40
0
 41
0
  0
VERTEX
  8
0
 10
386.307
 20
219.528
 30
0.0
 40
0
 41
0
  0
VERTEX
  8
0
 10
386.55
 20
219.796
 30
0.0
 40
0
 41
0
  0
VERTEX
  8
0
 10
386.774
 20
220.083
 30
0.0
 40
0
 41
0
  0
VERTEX
  8
0
 10
386.978
 20
220.388
 30
0.0
 40
0
 41
0
  0
VERTEX
  8
0
 10
387.16
 20
220.708
 30
0.0
 40
0
 41
0
  0
VERTEX
  8
0
 10
387.282
 20
220.961
 30
0.0
 40
0
 41
0
  0
VERTEX
  8
0
 10
387.319
 20
221.046
 30
0.0
 40
0
 41
0
  0
VERTEX
  8
0
 10
388.271
 20
223.271
 30
0.0
 40
0
 41
0
  0
VERTEX
  8
0
 10
388.314
 20
223.372
 30
0.0
 40
0
 41
0
  0
VERTEX
  8
0
 10
388.456
 20
223.674
 30
0.0
 40
0
 41
0
  0
VERTEX
  8
0
 10
388.658
 20
224.067
 30
0.0
 40
0
 41
0
  0
VERTEX
  8
0
 10
388.881
 20
224.447
 30
0.0
 40
0
 41
0
  0
VERTEX
  8
0
 10
389.119
 20
224.815
 30
0.0
 40
0
 41
0
  0
VERTEX
  8
0
 10
389.375
 20
225.169
 30
0.0
 40
0
 41
0
  0
VERTEX
  8
0
 10
389.649
 20
225.513
 30
0.0
 40
0
 41
0
  0
VERTEX
  8
0
 10
389.938
 20
225.84
 30
0.0
 40
0
 41
0
  0
VERTEX
  8
0
 10
390.242
 20
226.153
 30
0.0
 40
0
 41
0
  0
VERTEX
  8
0
 10
390.56
 20
226.451
 30
0.0
 40
0
 41
0
  0
VERTEX
  8
0
 10
390.893
 20
226.733
 30
0.0
 40
0
 41
0
  0
VERTEX
  8
0
 10
391.24
 20
227
 30
0.0
 40
0
 41
0
  0
VERTEX
  8
0
 10
391.6
 20
227.249
 30
0.0
 40
0
 41
0
  0
VERTEX
  8
0
 10
391.972
 20
227.482
 30
0.0
 40
0
 41
0
  0
VERTEX
  8
0
 10
392.357
 20
227.696
 30
0.0
 40
0
 41
0
  0
VERTEX
  8
0
 10
392.753
 20
227.892
 30
0.0
 40
0
 41
0
  0
VERTEX
  8
0
 10
393.057
 20
228.026
 30
0.0
 40
0
 41
0
  0
VERTEX
  8
0
 10
393.16
 20
228.068
 30
0.0
 40
0
 41
0
  0
VERTEX
  8
0
 10
394.881
 20
228.767
 30
0.0
 40
0
 41
0
  0
VERTEX
  8
0
 10
394.969
 20
228.803
 30
0.0
 40
0
 41
0
  0
VERTEX
  8
0
 10
395.226
 20
228.924
 30
0.0
 40
0
 41
0
  0
VERTEX
  8
0
 10
395.557
 20
229.103
 30
0.0
 40
0
 41
0
  0
VERTEX
  8
0
 10
395.869
 20
229.304
 30
0.0
 40
0
 41
0
  0
VERTEX
  8
0
 10
396.164
 20
229.528
 30
0.0
 40
0
 41
0
  0
VERTEX
  8
0
 10
396.44
 20
229.771
 30
0.0
 40
0
 41
0
  0
VERTEX
  8
0
 10
396.697
 20
230.033
 30
0.0
 40
0
 41
0
  0
VERTEX
  8
0
 10
396.933
 20
230.313
 30
0.0
 40
0
 41
0
  0
VERTEX
  8
0
 10
397.149
 20
230.607
 30
0.0
 40
0
 41
0
  0
VERTEX
  8
0
 10
397.34
 20
230.918
 30
0.0
 40
0
 41
0
  0
VERTEX
  8
0
 10
397.511
 20
231.242
 30
0.0
 40
0
 41
0
  0
VERTEX
  8
0
 10
397.657
 20
231.578
 30
0.0
 40
0
 41
0
  0
VERTEX
  8
0
 10
397.778
 20
231.925
 30
0.0
 40
0
 41
0
  0
VERTEX
  8
0
 10
397.874
 20
232.282
 30
0.0
 40
0
 41
0
  0
VERTEX
  8
0
 10
397.944
 20
232.649
 30
0.0
 40
0
 41
0
  0
VERTEX
  8
0
 10
397.986
 20
233.021
 30
0.0
 40
0
 41
0
  0
VERTEX
  8
0
 10
398
 20
233.306
 30
0.0
 40
0
 41
0
  0
VERTEX
  8
0
 10
398
 20
233.4
 30
0.0
 40
0
 41
0
  0
VERTEX
  8
0
 10
398
 20
237.014
 30
0.0
 40
0
 41
0
  0
SEQEND
 8
0
  0
POLYLINE
  8
0
 62
     0
 66
     1
 10
0
 20
0
 30
0.0
 70
     1
 40
0
 41
0
  0
VERTEX
  8
0
 10
399.65
 20
582.014
 30
0.0
 40
0
 41
0
  0
VERTEX
  8
0
 10
399.65
 20
409.514
 30
0.0
 40
0
 41
0
  0
VERTEX
  8
0
 10
399.65
 20
237.014
 30
0.0
 40
0
 41
0
  0
VERTEX
  8
0
 10
399.65
 20
233.4
 30
0.0
 40
0
 41
0
  0
VERTEX
  8
0
 10
399.65
 20
233.276
 30
0.0
 40
0
 41
0
  0
VERTEX
  8
0
 10
399.632
 20
232.906
 30
0.0
 40
0
 41
0
  0
VERTEX
  8
0
 10
399.578
 20
232.415
 30
0.0
 40
0
 41
0
  0
VERTEX
  8
0
 10
399.486
 20
231.933
 30
0.0
 40
0
 41
0
  0
VERTEX
  8
0
 10
399.361
 20
231.458
 30
0.0
 40
0
 41
0
  0
VERTEX
  8
0
 10
399.2
 20
230.994
 30
0.0
 40
0
 41
0
  0
VERTEX
  8
0
 10
399.006
 20
230.543
 30
0.0
 40
0
 41
0
  0
VERTEX
  8
0
 10
398.778
 20
230.107
 30
0.0
 40
0
 41
0
  0
VERTEX
  8
0
 10
398.586
 20
229.789
 30
0.0
 40
0
 41
0
  0
VERTEX
  8
0
 10
398.517
 20
229.686
 30
0.0
 40
0
 41
0
  0
VERTEX
  8
0
 10
398.447
 20
229.583
 30
0.0
 40
0
 41
0
  0
VERTEX
  8
0
 10
398.225
 20
229.286
 30
0.0
 40
0
 41
0
  0
VERTEX
  8
0
 10
397.906
 20
228.91
 30
0.0
 40
0
 41
0
  0
VERTEX
  8
0
 10
397.561
 20
228.56
 30
0.0
 40
0
 41
0
  0
VERTEX
  8
0
 10
397.192
 20
228.237
 30
0.0
 40
0
 41
0
  0
VERTEX
  8
0
 10
396.8
 20
227.942
 30
0.0
 40
0
 41
0
  0
VERTEX
  8
0
 10
396.386
 20
227.676
 30
0.0
 40
0
 41
0
  0
VERTEX
  8
0
 10
395.953
 20
227.442
 30
0.0
 40
0
 41
0
  0
VERTEX
  8
0
 10
395.617
 20
227.285
 30
0.0
 40
0
 41
0
  0
VERTEX
  8
0
 10
395.501
 20
227.239
 30
0.0
 40
0
 41
0
  0
VERTEX
  8
0
 10
393.781
 20
226.54
 30
0.0
 40
0
 41
0
  0
VERTEX
  8
0
 10
393.697
 20
226.506
 30
0.0
 40
0
 41
0
  0
VERTEX
  8
0
 10
393.449
 20
226.396
 30
0.0
 40
0
 41
0
  0
VERTEX
  8
0
 10
393.125
 20
226.235
 30
0.0
 40
0
 41
0
  0
VERTEX
  8
0
 10
392.811
 20
226.06
 30
0.0
 40
0
 41
0
  0
VERTEX
  8
0
 10
392.507
 20
225.871
 30
0.0
 40
0
 41
0
  0
VERTEX
  8
0
 10
392.213
 20
225.667
 30
0.0
 40
0
 41
0
  0
VERTEX
  8
0
 10
391.929
 20
225.45
 30
0.0
 40
0
 41
0
  0
VERTEX
  8
0
 10
391.657
 20
225.218
 30
0.0
 40
0
 41
0
  0
VERTEX
  8
0
 10
391.397
 20
224.975
 30
0.0
 40
0
 41
0
  0
VERTEX
  8
0
 10
391.149
 20
224.719
 30
0.0
 40
0
 41
0
  0
VERTEX
  8
0
 10
390.912
 20
224.451
 30
0.0
 40
0
 41
0
  0
VERTEX
  8
0
 10
390.69
 20
224.172
 30
0.0
 40
0
 41
0
  0
VERTEX
  8
0
 10
390.481
 20
223.882
 30
0.0
 40
0
 41
0
  0
VERTEX
  8
0
 10
390.286
 20
223.582
 30
0.0
 40
0
 41
0
  0
VERTEX
  8
0
 10
390.104
 20
223.271
 30
0.0
 40
0
 41
0
  0
VERTEX
  8
0
 10
389.939
 20
222.95
 30
0.0
 40
0
 41
0
  0
VERTEX
  8
0
 10
389.824
 20
222.704
 30
0.0
 40
0
 41
0
  0
VERTEX
  8
0
 10
389.787
 20
222.621
 30
0.0
 40
0
 41
0
  0
VERTEX
  8
0
 10
388.836
 20
220.397
 30
0.0
 40
0
 41
0
  0
VERTEX
  8
0
 10
388.787
 20
220.285
 30
0.0
 40
0
 41
0
  0
VERTEX
  8
0
 10
388.628
 20
219.957
 30
0.0
 40
0
 41
0
  0
VERTEX
  8
0
 10
388.39
 20
219.535
 30
0.0
 40
0
 41
0
  0
VERTEX
  8
0
 10
388.122
 20
219.132
 30
0.0
 40
0
 41
0
  0
VERTEX
  8
0
 10
387.826
 20
218.75
 30
0.0
 40
0
 41
0
  0
VERTEX
  8
0
 10
387.503
 20
218.39
 30
0.0
 40
0
 41
0
  0
VERTEX
  8
0
 10
387.154
 20
218.056
 30
0.0
 40
0
 41
0
  0
VERTEX
  8
0
 10
386.781
 20
217.746
 30
0.0
 40
0
 41
0
  0
VERTEX
  8
0
 10
386.486
 20
217.529
 30
0.0
 40
0
 41
0
  0
VERTEX
  8
0
 10
386.385
 20
217.462
 30
0.0
 40
0
 41
0
  0
VERTEX
  8
0
 10
386.283
 20
217.396
 30
0.0
 40
0
 41
0
  0
VERTEX
  8
0
 10
385.968
 20
217.21
 30
0.0
 40
0
 41
0
  0
VERTEX
  8
0
 10
385.537
 20
216.989
 30
0.0
 40
0
 41
0
  0
VERTEX
  8
0
 10
385.092
 20
216.8
 30
0.0
 40
0
 41
0
  0
VERTEX
  8
0
 10
384.635
 20
216.644
 30
0.0
 40
0
 41
0
  0
VERTEX
  8
0
 10
384.167
 20
216.522
 30
0.0
 40
0
 41
0
  0
VERTEX
  8
0
 10
383.69
 20
216.435
 30
0.0
 40
0
 41
0
  0
VERTEX
  8
0
 10
383.208
 20
216.381
 30
0.0
 40
0
 41
0
  0
VERTEX
  8
0
 10
382.844
 20
216.364
 30
0.0
 40
0
 41
0
  0
VERTEX
  8
0
 10
382.722
 20
216.364
 30
0.0
 40
0
 41
0
  0
VERTEX
  8
0
 10
379
 20
216.364
 30
0.0
 40
0
 41
0
  0
VERTEX
  8
0
 10
308
 20
216.432
 30
0.0
 40
0
 41
0
  0
VERTEX
  8
0
 10
237
 20
216.364
 30
0.0
 40
0
 41
0
  0
VERTEX
  8
0
 10
233.279
 20
216.364
 30
0.0
 40
0
 41
0
  0
VERTEX
  8
0
 10
233.157
 20
216.364
 30
0.0
 40
0
 41
0
  0
VERTEX
  8
0
 10
232.792
 20
216.381
 30
0.0
 40
0
 41
0
  0
VERTEX
  8
0
 10
232.31
 20
216.435
 30
0.0
 40
0
 41
0
  0
VERTEX
  8
0
 10
231.835
 20
216.522
 30
0.0
 40
0
 41
0
  0
VERTEX
  8
0
 10
231.367
 20
216.644
 30
0.0
 40
0
 41
0
  0
VERTEX
  8
0
 10
230.91
 20
216.8
 30
0.0
 40
0
 41
0
  0
VERTEX
  8
0
 10
230.464
 20
216.989
 30
0.0
 40
0
 41
0
  0
VERTEX
  8
0
 10
230.032
 20
217.21
 30
0.0
 40
0
 41
0
  0
VERTEX
  8
0
 10
229.718
 20
217.396
 30
0.0
 40
0
 41
0
  0
VERTEX
  8
0
 10
229.617
 20
217.462
 30
0.0
 40
0
 41
0
  0
VERTEX
  8
0
 10
229.515
 20
217.529
 30
0.0
 40
0
 41
0
  0
VERTEX
  8
0
 10
229.219
 20
217.746
 30
0.0
 40
0
 41
0
  0
VERTEX
  8
0
 10
228.847
 20
218.056
 30
0.0
 40
0
 41
0
  0
VERTEX
  8
0
 10
228.499
 20
218.39
 30
0.0
 40
0
 41
0
  0
VERTEX
  8
0
 10
228.175
 20
218.75
 30
0.0
 40
0
 41
0
  0
VERTEX
  8
0
 10
227.879
 20
219.132
 30
0.0
 40
0
 41
0
  0
VERTEX
  8
0
 10
227.611
 20
219.535
 30
0.0
 40
0
 41
0
  0
VERTEX
  8
0
 10
227.372
 20
219.957
 30
0.0
 40
0
 41
0
  0
VERTEX
  8
0
 10
227.212
 20
220.285
 30
0.0
 40
0
 41
0
  0
VERTEX
  8
0
 10
227.165
 20
220.397
 30
0.0
 40
0
 41
0
  0
VERTEX
  8
0
 10
226.212
 20
222.621
 30
0.0
 40
0
 41
0
  0
VERTEX
  8
0
 10
226.178
 20
222.704
 30
0.0
 40
0
 41
0
  0
VERTEX
  8
0
 10
226.063
 20
222.95
 30
0.0
 40
0
 41
0
  0
VERTEX
  8
0
 10
225.896
 20
223.271
 30
0.0
 40
0
 41
0
  0
VERTEX
  8
0
 10
225.715
 20
223.582
 30
0.0
 40
0
 41
0
  0
VERTEX
  8
0
 10
225.519
 20
223.882
 30
0.0
 40
0
 41
0
  0
VERTEX
  8
0
 10
225.311
 20
224.172
 30
0.0
 40
0
 41
0
  0
VERTEX
  8
0
 10
225.087
 20
224.451
 30
0.0
 40
0
 41
0
  0
VERTEX
  8
0
 10
224.853
 20
224.719
 30
0.0
 40
0
 41
0
  0
VERTEX
  8
0
 10
224.604
 20
224.975
 30
0.0
 40
0
 41
0
  0
VERTEX
  8
0
 10
224.343
 20
225.218
 30
0.0
 40
0
 41
0
  0
VERTEX
  8
0
 10
224.072
 20
225.45
 30
0.0
 40
0
 41
0
  0
VERTEX
  8
0
 10
223.789
 20
225.667
 30
0.0
 40
0
 41
0
  0
VERTEX
  8
0
 10
223.494
 20
225.871
 30
0.0
 40
0
 41
0
  0
VERTEX
  8
0
 10
223.19
 20
226.06
 30
0.0
 40
0
 41
0
  0
VERTEX
  8
0
 10
222.876
 20
226.235
 30
0.0
 40
0
 41
0
  0
VERTEX
  8
0
 10
222.553
 20
226.396
 30
0.0
 40
0
 41
0
  0
VERTEX
  8
0
 10
222.304
 20
226.506
 30
0.0
 40
0
 41
0
  0
VERTEX
  8
0
 10
222.221
 20
226.54
 30
0.0
 40
0
 41
0
  0
VERTEX
  8
0
 10
220.499
 20
227.239
 30
0.0
 40
0
 41
0
  0
VERTEX
  8
0
 10
220.385
 20
227.285
 30
0.0
 40
0
 41
0
  0
VERTEX
  8
0
 10
220.049
 20
227.442
 30
0.0
 40
0
 41
0
  0
VERTEX
  8
0
 10
219.615
 20
227.676
 30
0.0
 40
0
 41
0
  0
VERTEX
  8
0
 10
219.201
 20
227.942
 30
0.0
 40
0
 41
0
  0
VERTEX
  8
0
 10
218.81
 20
228.237
 30
0.0
 40
0
 41
0
  0
VERTEX
  8
0
 10
218.44
 20
228.56
 30
0.0
 40
0
 41
0
  0
VERTEX
  8
0
 10
218.094
 20
228.91
 30
0.0
 40
0
 41
0
  0
VERTEX
  8
0
 10
217.775
 20
229.286
 30
0.0
 40
0
 41
0
  0
VERTEX
  8
0
 10
217.553
 20
229.583
 30
0.0
 40
0
 41
0
  0
VERTEX
  8
0
 10
217.485
 20
229.686
 30
0.0
 40
0
 41
0
  0
VERTEX
  8
0
 10
217.415
 20
229.789
 30
0.0
 40
0
 41
0
  0
VERTEX
  8
0
 10
217.224
 20
230.107
 30
0.0
 40
0
 41
0
  0
VERTEX
  8
0
 10
216.996
 20
230.543
 30
0.0
 40
0
 41
0
  0
VERTEX
  8
0
 10
216.8
 20
230.994
 30
0.0
 40
0
 41
0
  0
VERTEX
  8
0
 10
216.64
 20
231.458
 30
0.0
 40
0
 41
0
  0
VERTEX
  8
0
 10
216.514
 20
231.933
 30
0.0
 40
0
 41
0
  0
VERTEX
  8
0
 10
216.424
 20
232.415
 30
0.0
 40
0
 41
0
  0
VERTEX
  8
0
 10
216.368
 20
232.906
 30
0.0
 40
0
 41
0
  0
VERTEX
  8
0
 10
216.35
 20
233.276
 30
0.0
 40
0
 41
0
  0
VERTEX
  8
0
 10
216.35
 20
233.4
 30
0.0
 40
0
 41
0
  0
VERTEX
  8
0
 10
216.35
 20
585.628
 30
0.0
 40
0
 41
0
  0
VERTEX
  8
0
 10
216.35
 20
585.751
 30
0.0
 40
0
 41
0
  0
VERTEX
  8
0
 10
216.368
 20
586.122
 30
0.0
 40
0
 41
0
  0
VERTEX
  8
0
 10
216.424
 20
586.611
 30
0.0
 40
0
 41
0
  0
VERTEX
  8
0
 10
216.514
 20
587.094
 30
0.0
 40
0
 41
0
  0
VERTEX
  8
0
 10
216.64
 20
587.569
 30
0.0
 40
0
 41
0
  0
VERTEX
  8
0
 10
216.8
 20
588.033
 30
0.0
 40
0
 41
0
  0
VERTEX
  8
0
 10
216.996
 20
588.483
 30
0.0
 40
0
 41
0
  0
VERTEX
  8
0
 10
217.224
 20
588.921
 30
0.0
 40
0
 41
0
  0
VERTEX
  8
0
 10
217.415
 20
589.239
 30
0.0
 40
0
 41
0
  0
VERTEX
  8
0
 10
217.485
 20
589.342
 30
0.0
 40
0
 41
0
  0
VERTEX
  8
0
 10
217.553
 20
589.444
 30
0.0
 40
0
 41
0
  0
VERTEX
  8
0
 10
217.775
 20
589.742
 30
0.0
 40
0
 41
0
  0
VERTEX
  8
0
 10
218.094
 20
590.117
 30
0.0
 40
0
 41
0
  0
VERTEX
  8
0
 10
218.44
 20
590.467
 30
0.0
 40
0
 41
0
  0
VERTEX
  8
0
 10
218.81
 20
590.79
 30
0.0
 40
0
 41
0
  0
VERTEX
  8
0
 10
219.201
 20
591.085
 30
0.0
 40
0
 41
0
  0
VERTEX
  8
0
 10
219.615
 20
591.351
 30
0.0
 40
0
 41
0
  0
VERTEX
  8
0
 10
220.049
 20
591.586
 30
0.0
 40
0
 41
0
  0
VERTEX
  8
0
 10
220.385
 20
591.743
 30
0.0
 40
0
 41
0
  0
VERTEX
  8
0
 10
220.499
 20
591.789
 30
0.0
 40
0
 41
0
  0
VERTEX
  8
0
 10
222.221
 20
592.488
 30
0.0
 40
0
 41
0
  0
VERTEX
  8
0
 10
222.304
 20
592.521
 30
0.0
 40
0
 41
0
  0
VERTEX
  8
0
 10
222.553
 20
592.632
 30
0.0
 40
0
 41
0
  0
VERTEX
  8
0
 10
222.876
 20
592.792
 30
0.0
 40
0
 41
0
  0
VERTEX
  8
0
 10
223.19
 20
592.967
 30
0.0
 40
0
 41
0
  0
VERTEX
  8
0
 10
223.494
 20
593.157
 30
0.0
 40
0
 41
0
  0
VERTEX
  8
0
 10
223.789
 20
593.36
 30
0.0
 40
0
 41
0
  0
VERTEX
  8
0
 10
224.072
 20
593.578
 30
0.0
 40
0
 41
0
  0
VERTEX
  8
0
 10
224.343
 20
593.808
 30
0.0
 40
0
 41
0
  0
VERTEX
  8
0
 10
224.604
 20
594.051
 30
0.0
 40
0
 41
0
  0
VERTEX
  8
0
 10
224.853
 20
594.308
 30
0.0
 40
0
 41
0
  0
VERTEX
  8
0
 10
225.087
 20
594.575
 30
0.0
 40
0
 41
0
  0
VERTEX
  8
0
 10
225.311
 20
594.854
 30
0.0
 40
0
 41
0
  0
VERTEX
  8
0
 10
225.519
 20
595.144
 30
0.0
 40
0
 41
0
  0
VERTEX
  8
0
 10
225.715
 20
595.446
 30
0.0
 40
0
 41
0
  0
VERTEX
  8
0
 10
225.896
 20
595.756
 30
0.0
 40
0
 41
0
  0
VERTEX
  8
0
 10
226.063
 20
596.076
 30
0.0
 40
0
 41
0
  0
VERTEX
  8
0
 10
226.178
 20
596.324
 30
0.0
 40
0
 41
0
  0
VERTEX
  8
0
 10
226.212
 20
596.406
 30
0.0
 40
0
 41
0
  0
VERTEX
  8
0
 10
227.165
 20
598.631
 30
0.0
 40
0
 41
0
  0
VERTEX
  8
0
 10
227.212
 20
598.742
 30
0.0
 40
0
 41
0
  0
VERTEX
  8
0
 10
227.372
 20
599.071
 30
0.0
 40
0
 41
0
  0
VERTEX
  8
0
 10
227.611
 20
599.493
 30
0.0
 40
0
 41
0
  0
VERTEX
  8
0
 10
227.879
 20
599.896
 30
0.0
 40
0
 41
0
  0
VERTEX
  8
0
 10
228.175
 20
600.278
 30
0.0
 40
0
 41
0
  0
VERTEX
  8
0
 10
228.499
 20
600.636
 30
0.0
 40
0
 41
0
  0
VERTEX
  8
0
 10
228.847
 20
600.972
 30
0.0
 40
0
 41
0
  0
VERTEX
  8
0
 10
229.219
 20
601.282
 30
0.0
 40
0
 41
0
  0
VERTEX
  8
0
 10
229.515
 20
601.497
 30
0.0
 40
0
 41
0
  0
VERTEX
  8
0
 10
229.617
 20
601.564
 30
0.0
 40
0
 41
0
  0
VERTEX
  8
0
 10
229.718
 20
601.632
 30
0.0
 40
0
 41
0
  0
VERTEX
  8
0
 10
230.032
 20
601.818
 30
0.0
 40
0
 41
0
  0
VERTEX
  8
0
 10
230.464
 20
602.039
 30
0.0
 40
0
 41
0
  0
VERTEX
  8
0
 10
230.91
 20
602.228
 30
0.0
 40
0
 41
0
  0
VERTEX
  8
0
 10
231.367
 20
602.383
 30
0.0
 40
0
 41
0
  0
VERTEX
  8
0
 10
231.835
 20
602.506
 30
0.0
 40
0
 41
0
  0
VERTEX
  8
0
 10
232.31
 20
602.593
 30
0.0
 40
0
 41
0
  0
VERTEX
  8
0
 10
232.792
 20
602.646
 30
0.0
 40
0
 41
0
  0
VERTEX
  8
0
 10
233.157
 20
602.664
 30
0.0
 40
0
 41
0
  0
VERTEX
  8
0
 10
233.279
 20
602.664
 30
0.0
 40
0
 41
0
  0
VERTEX
  8
0
 10
237
 20
602.664
 30
0.0
 40
0
 41
0
  0
VERTEX
  8
0
 10
308
 20
602.594
 30
0.0
 40
0
 41
0
  0
VERTEX
  8
0
 10
379
 20
602.664
 30
0.0
 40
0
 41
0
  0
VERTEX
  8
0
 10
382.722
 20
602.664
 30
0.0
 40
0
 41
0
  0
VERTEX
  8
0
 10
382.844
 20
602.664
 30
0.0
 40
0
 41
0
  0
VERTEX
  8
0
 10
383.208
 20
602.646
 30
0.0
 40
0
 41
0
  0
VERTEX
  8
0
 10
383.69
 20
602.593
 30
0.0
 40
0
 41
0
  0
VERTEX
  8
0
 10
384.167
 20
602.506
 30
0.0
 40
0
 41
0
  0
VERTEX
  8
0
 10
384.635
 20
602.383
 30
0.0
 40
0
 41
0
  0
VERTEX
  8
0
 10
385.092
 20
602.228
 30
0.0
 40
0
 41
0
  0
VERTEX
  8
0
 10
385.537
 20
602.039
 30
0.0
 40
0
 41
0
  0
VERTEX
  8
0
 10
385.968
 20
601.818
 30
0.0
 40
0
 41
0
  0
VERTEX
  8
0
 10
386.283
 20
601.632
 30
0.0
 40
0
 41
0
  0
VERTEX
  8
0
 10
386.385
 20
601.564
 30
0.0
 40
0
 41
0
  0
VERTEX
  8
0
 10
386.486
 20
601.497
 30
0.0
 40
0
 41
0
  0
VERTEX
  8
0
 10
386.781
 20
601.282
 30
0.0
 40
0
 41
0
  0
VERTEX
  8
0
 10
387.154
 20
600.972
 30
0.0
 40
0
 41
0
  0
VERTEX
  8
0
 10
387.503
 20
600.636
 30
0.0
 40
0
 41
0
  0
VERTEX
  8
0
 10
387.826
 20
600.278
 30
0.0
 40
0
 41
0
  0
VERTEX
  8
0
 10
388.122
 20
599.896
 30
0.0
 40
0
 41
0
  0
VERTEX
  8
0
 10
388.39
 20
599.493
 30
0.0
 40
0
 41
0
  0
VERTEX
  8
0
 10
388.628
 20
599.071
 30
0.0
 40
0
 41
0
  0
VERTEX
  8
0
 10
388.787
 20
598.742
 30
0.0
 40
0
 41
0
  0
VERTEX
  8
0
 10
388.836
 20
598.631
 30
0.0
 40
0
 41
0
  0
VERTEX
  8
0
 10
389.787
 20
596.406
 30
0.0
 40
0
 41
0
  0
VERTEX
  8
0
 10
389.824
 20
596.324
 30
0.0
 40
0
 41
0
  0
VERTEX
  8
0
 10
389.939
 20
596.076
 30
0.0
 40
0
 41
0
  0
VERTEX
  8
0
 10
390.104
 20
595.756
 30
0.0
 40
0
 41
0
  0
VERTEX
  8
0
 10
390.286
 20
595.446
 30
0.0
 40
0
 41
0
  0
VERTEX
  8
0
 10
390.481
 20
595.144
 30
0.0
 40
0
 41
0
  0
VERTEX
  8
0
 10
390.69
 20
594.854
 30
0.0
 40
0
 41
0
  0
VERTEX
  8
0
 10
390.912
 20
594.575
 30
0.0
 40
0
 41
0
  0
VERTEX
  8
0
 10
391.149
 20
594.308
 30
0.0
 40
0
 41
0
  0
VERTEX
  8
0
 10
391.397
 20
594.051
 30
0.0
 40
0
 41
0
  0
VERTEX
  8
0
 10
391.657
 20
593.808
 30
0.0
 40
0
 41
0
  0
VERTEX
  8
0
 10
391.929
 20
593.578
 30
0.0
 40
0
 41
0
  0
VERTEX
  8
0
 10
392.213
 20
593.36
 30
0.0
 40
0
 41
0
  0
VERTEX
  8
0
 10
392.507
 20
593.157
 30
0.0
 40
0
 41
0
  0
VERTEX
  8
0
 10
392.811
 20
592.967
 30
0.0
 40
0
 41
0
  0
VERTEX
  8
0
 10
393.125
 20
592.792
 30
0.0
 40
0
 41
0
  0
VERTEX
  8
0
 10
393.449
 20
592.632
 30
0.0
 40
0
 41
0
  0
VERTEX
  8
0
 10
393.697
 20
592.521
 30
0.0
 40
0
 41
0
  0
VERTEX
  8
0
 10
393.781
 20
592.488
 30
0.0
 40
0
 41
0
  0
VERTEX
  8
0
 10
395.501
 20
591.789
 30
0.0
 40
0
 41
0
  0
VERTEX
  8
0
 10
395.617
 20
591.743
 30
0.0
 40
0
 41
0
  0
VERTEX
  8
0
 10
395.953
 20
591.586
 30
0.0
 40
0
 41
0
  0
VERTEX
  8
0
 10
396.386
 20
591.351
 30
0.0
 40
0
 41
0
  0
VERTEX
  8
0
 10
396.8
 20
591.085
 30
0.0
 40
0
 41
0
  0
VERTEX
  8
0
 10
397.192
 20
590.79
 30
0.0
 40
0
 41
0
  0
VERTEX
  8
0
 10
397.561
 20
590.467
 30
0.0
 40
0
 41
0
  0
VERTEX
  8
0
 10
397.906
 20
590.117
 30
0.0
 40
0
 41
0
  0
VERTEX
  8
0
 10
398.225
 20
589.742
 30
0.0
 40
0
 41
0
  0
VERTEX
  8
0
 10
398.447
 20
589.444
 30
0.0
 40
0
 41
0
  0
VERTEX
  8
0
 10
398.517
 20
589.342
 30
0.0
 40
0
 41
0
  0
VERTEX
  8
0
 10
398.586
 20
589.239
 30
0.0
 40
0
 41
0
  0
VERTEX
  8
0
 10
398.778
 20
588.921
 30
0.0
 40
0
 41
0
  0
VERTEX
  8
0
 10
399.006
 20
588.483
 30
0.0
 40
0
 41
0
  0
VERTEX
  8
0
 10
399.2
 20
588.033
 30
0.0
 40
0
 41
0
  0
VERTEX
  8
0
 10
399.361
 20
587.569
 30
0.0
 40
0
 41
0
  0
VERTEX
  8
0
 10
399.486
 20
587.094
 30
0.0
 40
0
 41
0
  0
VERTEX
  8
0
 10
399.578
 20
586.611
 30
0.0
 40
0
 41
0
  0
VERTEX
  8
0
 10
399.632
 20
586.122
 30
0.0
 40
0
 41
0
  0
VERTEX
  8
0
 10
399.65
 20
585.751
 30
0.0
 40
0
 41
0
  0
VERTEX
  8
0
 10
399.65
 20
585.628
 30
0.0
 40
0
 41
0
  0
VERTEX
  8
0
 10
399.65
 20
582.014
 30
0.0
 40
0
 41
0
  0
SEQEND
 8
0
  0
POLYLINE
  8
0
 62
     0
 66
     1
 10
0
 20
0
 30
0.0
 70
     1
 40
0
 41
0
  0
VERTEX
  8
0
 10
399.65
 20
237.014
 30
0.0
 40
0
 41
0
  0
VERTEX
  8
0
 10
399.65
 20
409.514
 30
0.0
 40
0
 41
0
  0
VERTEX
  8
0
 10
399.65
 20
582.014
 30
0.0
 40
0
 41
0
  0
VERTEX
  8
0
 10
399.65
 20
585.628
 30
0.0
 40
0
 41
0
  0
VERTEX
  8
0
 10
399.65
 20
585.751
 30
0.0
 40
0
 41
0
  0
VERTEX
  8
0
 10
399.632
 20
586.122
 30
0.0
 40
0
 41
0
  0
VERTEX
  8
0
 10
399.578
 20
586.611
 30
0.0
 40
0
 41
0
  0
VERTEX
  8
0
 10
399.486
 20
587.094
 30
0.0
 40
0
 41
0
  0
VERTEX
  8
0
 10
399.361
 20
587.569
 30
0.0
 40
0
 41
0
  0
VERTEX
  8
0
 10
399.2
 20
588.033
 30
0.0
 40
0
 41
0
  0
VERTEX
  8
0
 10
399.006
 20
588.483
 30
0.0
 40
0
 41
0
  0
VERTEX
  8
0
 10
398.778
 20
588.921
 30
0.0
 40
0
 41
0
  0
VERTEX
  8
0
 10
398.586
 20
589.239
 30
0.0
 40
0
 41
0
  0
VERTEX
  8
0
 10
398.517
 20
589.342
 30
0.0
 40
0
 41
0
  0
VERTEX
  8
0
 10
398.447
 20
589.444
 30
0.0
 40
0
 41
0
  0
VERTEX
  8
0
 10
398.225
 20
589.742
 30
0.0
 40
0
 41
0
  0
VERTEX
  8
0
 10
397.906
 20
590.117
 30
0.0
 40
0
 41
0
  0
VERTEX
  8
0
 10
397.561
 20
590.467
 30
0.0
 40
0
 41
0
  0
VERTEX
  8
0
 10
397.192
 20
590.79
 30
0.0
 40
0
 41
0
  0
VERTEX
  8
0
 10
396.8
 20
591.085
 30
0.0
 40
0
 41
0
  0
VERTEX
  8
0
 10
396.386
 20
591.351
 30
0.0
 40
0
 41
0
  0
VERTEX
  8
0
 10
395.953
 20
591.586
 30
0.0
 40
0
 41
0
  0
VERTEX
  8
0
 10
395.617
 20
591.743
 30
0.0
 40
0
 41
0
  0
VERTEX
  8
0
 10
395.501
 20
591.789
 30
0.0
 40
0
 41
0
  0
VERTEX
  8
0
 10
393.781
 20
592.488
 30
0.0
 40
0
 41
0
  0
VERTEX
  8
0
 10
393.697
 20
592.521
 30
0.0
 40
0
 41
0
  0
VERTEX
  8
0
 10
393.449
 20
592.632
 30
0.0
 40
0
 41
0
  0
VERTEX
  8
0
 10
393.125
 20
592.792
 30
0.0
 40
0
 41
0
  0
VERTEX
  8
0
 10
392.811
 20
592.967
 30
0.0
 40
0
 41
0
  0
VERTEX
  8
0
 10
392.507
 20
593.157
 30
0.0
 40
0
 41
0
  0
VERTEX
  8
0
 10
392.213
 20
593.36
 30
0.0
 40
0
 41
0
  0
VERTEX
  8
0
 10
391.929
 20
593.578
 30
0.0
 40
0
 41
0
  0
VERTEX
  8
0
 10
391.657
 20
593.808
 30
0.0
 40
0
 41
0
  0
VERTEX
  8
0
 10
391.397
 20
594.051
 30
0.0
 40
0
 41
0
  0
VERTEX
  8
0
 10
391.149
 20
594.308
 30
0.0
 40
0
 41
0
  0
VERTEX
  8
0
 10
390.912
 20
594.575
 30
0.0
 40
0
 41
0
  0
VERTEX
  8
0
 10
390.69
 20
594.854
 30
0.0
 40
0
 41
0
  0
VERTEX
  8
0
 10
390.481
 20
595.144
 30
0.0
 40
0
 41
0
  0
VERTEX
  8
0
 10
390.286
 20
595.446
 30
0.0
 40
0
 41
0
  0
VERTEX
  8
0
 10
390.104
 20
595.756
 30
0.0
 40
0
 41
0
  0
VERTEX
  8
0
 10
389.939
 20
596.076
 30
0.0
 40
0
 41
0
  0
VERTEX
  8
0
 10
389.824
 20
596.324
 30
0.0
 40
0
 41
0
  0
VERTEX
  8
0
 10
389.787
 20
596.406
 30
0.0
 40
0
 41
0
  0
VERTEX
  8
0
 10
388.836
 20
598.631
 30
0.0
 40
0
 41
0
  0
VERTEX
  8
0
 10
388.787
 20
598.742
 30
0.0
 40
0
 41
0
  0
VERTEX
  8
0
 10
388.628
 20
599.071
 30
0.0
 40
0
 41
0
  0
VERTEX
  8
0
 10
388.39
 20
599.493
 30
0.0
 40
0
 41
0
  0
VERTEX
  8
0
 10
388.122
 20
599.896
 30
0.0
 40
0
 41
0
  0
VERTEX
  8
0
 10
387.826
 20
600.278
 30
0.0
 40
0
 41
0
  0
VERTEX
  8
0
 10
387.503
 20
600.636
 30
0.0
 40
0
 41
0
  0
VERTEX
  8
0
 10
387.154
 20
600.972
 30
0.0
 40
0
 41
0
  0
VERTEX
  8
0
 10
386.781
 20
601.282
 30
0.0
 40
0
 41
0
  0
VERTEX
  8
0
 10
386.486
 20
601.497
 30
0.0
 40
0
 41
0
  0
VERTEX
  8
0
 10
386.385
 20
601.564
 30
0.0
 40
0
 41
0
  0
VERTEX
  8
0
 10
386.283
 20
601.632
 30
0.0
 40
0
 41
0
  0
VERTEX
  8
0
 10
385.968
 20
601.818
 30
0.0
 40
0
 41
0
  0
VERTEX
  8
0
 10
385.537
 20
602.039
 30
0.0
 40
0
 41
0
  0
VERTEX
  8
0
 10
385.092
 20
602.228
 30
0.0
 40
0
 41
0
  0
VERTEX
  8
0
 10
384.635
 20
602.383
 30
0.0
 40
0
 41
0
  0
VERTEX
  8
0
 10
384.167
 20
602.506
 30
0.0
 40
0
 41
0
  0
VERTEX
  8
0
 10
383.69
 20
602.593
 30
0.0
 40
0
 41
0
  0
VERTEX
  8
0
 10
383.208
 20
602.646
 30
0.0
 40
0
 41
0
  0
VERTEX
  8
0
 10
382.844
 20
602.664
 30
0.0
 40
0
 41
0
  0
VERTEX
  8
0
 10
382.722
 20
602.664
 30
0.0
 40
0
 41
0
  0
VERTEX
  8
0
 10
379
 20
602.664
 30
0.0
 40
0
 41
0
  0
VERTEX
  8
0
 10
308
 20
602.594
 30
0.0
 40
0
 41
0
  0
VERTEX
  8
0
 10
237
 20
602.664
 30
0.0
 40
0
 41
0
  0
VERTEX
  8
0
 10
233.279
 20
602.664
 30
0.0
 40
0
 41
0
  0
VERTEX
  8
0
 10
233.157
 20
602.664
 30
0.0
 40
0
 41
0
  0
VERTEX
  8
0
 10
232.792
 20
602.646
 30
0.0
 40
0
 41
0
  0
VERTEX
  8
0
 10
232.31
 20
602.593
 30
0.0
 40
0
 41
0
  0
VERTEX
  8
0
 10
231.835
 20
602.506
 30
0.0
 40
0
 41
0
  0
VERTEX
  8
0
 10
231.367
 20
602.383
 30
0.0
 40
0
 41
0
  0
VERTEX
  8
0
 10
230.91
 20
602.228
 30
0.0
 40
0
 41
0
  0
VERTEX
  8
0
 10
230.464
 20
602.039
 30
0.0
 40
0
 41
0
  0
VERTEX
  8
0
 10
230.032
 20
601.818
 30
0.0
 40
0
 41
0
  0
VERTEX
  8
0
 10
229.718
 20
601.632
 30
0.0
 40
0
 41
0
  0
VERTEX
  8
0
 10
229.617
 20
601.564
 30
0.0
 40
0
 41
0
  0
VERTEX
  8
0
 10
229.515
 20
601.497
 30
0.0
 40
0
 41
0
  0
VERTEX
  8
0
 10
229.219
 20
601.282
 30
0.0
 40
0
 41
0
  0
VERTEX
  8
0
 10
228.847
 20
600.972
 30
0.0
 40
0
 41
0
  0
VERTEX
  8
0
 10
228.499
 20
600.636
 30
0.0
 40
0
 41
0
  0
VERTEX
  8
0
 10
228.175
 20
600.278
 30
0.0
 40
0
 41
0
  0
VERTEX
  8
0
 10
227.879
 20
599.896
 30
0.0
 40
0
 41
0
  0
VERTEX
  8
0
 10
227.611
 20
599.493
 30
0.0
 40
0
 41
0
  0
VERTEX
  8
0
 10
227.372
 20
599.071
 30
0.0
 40
0
 41
0
  0
VERTEX
  8
0
 10
227.212
 20
598.742
 30
0.0
 40
0
 41
0
  0
VERTEX
  8
0
 10
227.165
 20
598.631
 30
0.0
 40
0
 41
0
  0
VERTEX
  8
0
 10
226.212
 20
596.406
 30
0.0
 40
0
 41
0
  0
VERTEX
  8
0
 10
226.178
 20
596.324
 30
0.0
 40
0
 41
0
  0
VERTEX
  8
0
 10
226.063
 20
596.076
 30
0.0
 40
0
 41
0
  0
VERTEX
  8
0
 10
225.896
 20
595.756
 30
0.0
 40
0
 41
0
  0
VERTEX
  8
0
 10
225.715
 20
595.446
 30
0.0
 40
0
 41
0
  0
VERTEX
  8
0
 10
225.519
 20
595.144
 30
0.0
 40
0
 41
0
  0
VERTEX
  8
0
 10
225.311
 20
594.854
 30
0.0
 40
0
 41
0
  0
VERTEX
  8
0
 10
225.087
 20
594.575
 30
0.0
 40
0
 41
0
  0
VERTEX
  8
0
 10
224.853
 20
594.308
 30
0.0
 40
0
 41
0
  0
VERTEX
  8
0
 10
224.604
 20
594.051
 30
0.0
 40
0
 41
0
  0
VERTEX
  8
0
 10
224.343
 20
593.808
 30
0.0
 40
0
 41
0
  0
VERTEX
  8
0
 10
224.072
 20
593.578
 30
0.0
 40
0
 41
0
  0
VERTEX
  8
0
 10
223.789
 20
593.36
 30
0.0
 40
0
 41
0
  0
VERTEX
  8
0
 10
223.494
 20
593.157
 30
0.0
 40
0
 41
0
  0
VERTEX
  8
0
 10
223.19
 20
592.967
 30
0.0
 40
0
 41
0
  0
VERTEX
  8
0
 10
222.876
 20
592.792
 30
0.0
 40
0
 41
0
  0
VERTEX
  8
0
 10
222.553
 20
592.632
 30
0.0
 40
0
 41
0
  0
VERTEX
  8
0
 10
222.304
 20
592.521
 30
0.0
 40
0
 41
0
  0
VERTEX
  8
0
 10
222.221
 20
592.488
 30
0.0
 40
0
 41
0
  0
VERTEX
  8
0
 10
220.499
 20
591.789
 30
0.0
 40
0
 41
0
  0
VERTEX
  8
0
 10
220.385
 20
591.743
 30
0.0
 40
0
 41
0
  0
VERTEX
  8
0
 10
220.049
 20
591.586
 30
0.0
 40
0
 41
0
  0
VERTEX
  8
0
 10
219.615
 20
591.351
 30
0.0
 40
0
 41
0
  0
VERTEX
  8
0
 10
219.201
 20
591.085
 30
0.0
 40
0
 41
0
  0
VERTEX
  8
0
 10
218.81
 20
590.79
 30
0.0
 40
0
 41
0
  0
VERTEX
  8
0
 10
218.44
 20
590.467
 30
0.0
 40
0
 41
0
  0
VERTEX
  8
0
 10
218.094
 20
590.117
 30
0.0
 40
0
 41
0
  0
VERTEX
  8
0
 10
217.775
 20
589.742
 30
0.0
 40
0
 41
0
  0
VERTEX
  8
0
 10
217.553
 20
589.444
 30
0.0
 40
0
 41
0
  0
VERTEX
  8
0
 10
217.485
 20
589.342
 30
0.0
 40
0
 41
0
  0
VERTEX
  8
0
 10
217.415
 20
589.239
 30
0.0
 40
0
 41
0
  0
VERTEX
  8
0
 10
217.224
 20
588.921
 30
0.0
 40
0
 41
0
  0
VERTEX
  8
0
 10
216.996
 20
588.483
 30
0.0
 40
0
 41
0
  0
VERTEX
  8
0
 10
216.8
 20
588.033
 30
0.0
 40
0
 41
0
  0
VERTEX
  8
0
 10
216.64
 20
587.569
 30
0.0
 40
0
 41
0
  0
VERTEX
  8
0
 10
216.514
 20
587.094
 30
0.0
 40
0
 41
0
  0
VERTEX
  8
0
 10
216.424
 20
586.611
 30
0.0
 40
0
 41
0
  0
VERTEX
  8
0
 10
216.368
 20
586.122
 30
0.0
 40
0
 41
0
  0
VERTEX
  8
0
 10
216.35
 20
585.751
 30
0.0
 40
0
 41
0
  0
VERTEX
  8
0
 10
216.35
 20
585.628
 30
0.0
 40
0
 41
0
  0
VERTEX
  8
0
 10
216.35
 20
233.4
 30
0.0
 40
0
 41
0
  0
VERTEX
  8
0
 10
216.35
 20
233.276
 30
0.0
 40
0
 41
0
  0
VERTEX
  8
0
 10
216.368
 20
232.906
 30
0.0
 40
0
 41
0
  0
VERTEX
  8
0
 10
216.424
 20
232.415
 30
0.0
 40
0
 41
0
  0
VERTEX
  8
0
 10
216.514
 20
231.933
 30
0.0
 40
0
 41
0
  0
VERTEX
  8
0
 10
216.64
 20
231.458
 30
0.0
 40
0
 41
0
  0
VERTEX
  8
0
 10
216.8
 20
230.994
 30
0.0
 40
0
 41
0
  0
VERTEX
  8
0
 10
216.996
 20
230.543
 30
0.0
 40
0
 41
0
  0
VERTEX
  8
0
 10
217.224
 20
230.107
 30
0.0
 40
0
 41
0
  0
VERTEX
  8
0
 10
217.415
 20
229.789
 30
0.0
 40
0
 41
0
  0
VERTEX
  8
0
 10
217.485
 20
229.686
 30
0.0
 40
0
 41
0
  0
VERTEX
  8
0
 10
217.553
 20
229.583
 30
0.0
 40
0
 41
0
  0
VERTEX
  8
0
 10
217.775
 20
229.286
 30
0.0
 40
0
 41
0
  0
VERTEX
  8
0
 10
218.094
 20
228.91
 30
0.0
 40
0
 41
0
  0
VERTEX
  8
0
 10
218.44
 20
228.56
 30
0.0
 40
0
 41
0
  0
VERTEX
  8
0
 10
218.81
 20
228.237
 30
0.0
 40
0
 41
0
  0
VERTEX
  8
0
 10
219.201
 20
227.942
 30
0.0
 40
0
 41
0
  0
VERTEX
  8
0
 10
219.615
 20
227.676
 30
0.0
 40
0
 41
0
  0
VERTEX
  8
0
 10
220.049
 20
227.442
 30
0.0
 40
0
 41
0
  0
VERTEX
  8
0
 10
220.385
 20
227.285
 30
0.0
 40
0
 41
0
  0
VERTEX
  8
0
 10
220.499
 20
227.239
 30
0.0
 40
0
 41
0
  0
VERTEX
  8
0
 10
222.221
 20
226.54
 30
0.0
 40
0
 41
0
  0
VERTEX
  8
0
 10
222.304
 20
226.506
 30
0.0
 40
0
 41
0
  0
VERTEX
  8
0
 10
222.553
 20
226.396
 30
0.0
 40
0
 41
0
  0
VERTEX
  8
0
 10
222.876
 20
226.235
 30
0.0
 40
0
 41
0
  0
VERTEX
  8
0
 10
223.19
 20
226.06
 30
0.0
 40
0
 41
0
  0
VERTEX
  8
0
 10
223.494
 20
225.871
 30
0.0
 40
0
 41
0
  0
VERTEX
  8
0
 10
223.789
 20
225.667
 30
0.0
 40
0
 41
0
  0
VERTEX
  8
0
 10
224.072
 20
225.45
 30
0.0
 40
0
 41
0
  0
VERTEX
  8
0
 10
224.343
 20
225.218
 30
0.0
 40
0
 41
0
  0
VERTEX
  8
0
 10
224.604
 20
224.975
 30
0.0
 40
0
 41
0
  0
VERTEX
  8
0
 10
224.853
 20
224.719
 30
0.0
 40
0
 41
0
  0
VERTEX
  8
0
 10
225.087
 20
224.451
 30
0.0
 40
0
 41
0
  0
VERTEX
  8
0
 10
225.311
 20
224.172
 30
0.0
 40
0
 41
0
  0
VERTEX
  8
0
 10
225.519
 20
223.882
 30
0.0
 40
0
 41
0
  0
VERTEX
  8
0
 10
225.715
 20
223.582
 30
0.0
 40
0
 41
0
  0
VERTEX
  8
0
 10
225.896
 20
223.271
 30
0.0
 40
0
 41
0
  0
VERTEX
  8
0
 10
226.063
 20
222.95
 30
0.0
 40
0
 41
0
  0
VERTEX
  8
0
 10
226.178
 20
222.704
 30
0.0
 40
0
 41
0
  0
VERTEX
  8
0
 10
226.212
 20
222.621
 30
0.0
 40
0
 41
0
  0
VERTEX
  8
0
 10
227.165
 20
220.397
 30
0.0
 40
0
 41
0
  0
VERTEX
  8
0
 10
227.212
 20
220.285
 30
0.0
 40
0
 41
0
  0
VERTEX
  8
0
 10
227.372
 20
219.957
 30
0.0
 40
0
 41
0
  0
VERTEX
  8
0
 10
227.611
 20
219.535
 30
0.0
 40
0
 41
0
  0
VERTEX
  8
0
 10
227.879
 20
219.132
 30
0.0
 40
0
 41
0
  0
VERTEX
  8
0
 10
228.175
 20
218.75
 30
0.0
 40
0
 41
0
  0
VERTEX
  8
0
 10
228.499
 20
218.39
 30
0.0
 40
0
 41
0
  0
VERTEX
  8
0
 10
228.847
 20
218.056
 30
0.0
 40
0
 41
0
  0
VERTEX
  8
0
 10
229.219
 20
217.746
 30
0.0
 40
0
 41
0
  0
VERTEX
  8
0
 10
229.515
 20
217.529
 30
0.0
 40
0
 41
0
  0
VERTEX
  8
0
 10
229.617
 20
217.462
 30
0.0
 40
0
 41
0
  0
VERTEX
  8
0
 10
229.718
 20
217.396
 30
0.0
 40
0
 41
0
  0
VERTEX
  8
0
 10
230.032
 20
217.21
 30
0.0
 40
0
 41
0
  0
VERTEX
  8
0
 10
230.464
 20
216.989
 30
0.0
 40
0
 41
0
  0
VERTEX
  8
0
 10
230.91
 20
216.8
 30
0.0
 40
0
 41
0
  0
VERTEX
  8
0
 10
231.367
 20
216.644
 30
0.0
 40
0
 41
0
  0
VERTEX
  8
0
 10
231.835
 20
216.522
 30
0.0
 40
0
 41
0
  0
VERTEX
  8
0
 10
232.31
 20
216.435
 30
0.0
 40
0
 41
0
  0
VERTEX
  8
0
 10
232.792
 20
216.381
 30
0.0
 40
0
 41
0
  0
VERTEX
  8
0
 10
233.157
 20
216.364
 30
0.0
 40
0
 41
0
  0
VERTEX
  8
0
 10
233.279
 20
216.364
 30
0.0
 40
0
 41
0
  0
VERTEX
  8
0
 10
237
 20
216.364
 30
0.0
 40
0
 41
0
  0
VERTEX
  8
0
 10
308
 20
216.432
 30
0.0
 40
0
 41
0
  0
VERTEX
  8
0
 10
379
 20
216.364
 30
0.0
 40
0
 41
0
  0
VERTEX
  8
0
 10
382.722
 20
216.364
 30
0.0
 40
0
 41
0
  0
VERTEX
  8
0
 10
382.844
 20
216.364
 30
0.0
 40
0
 41
0
  0
VERTEX
  8
0
 10
383.208
 20
216.381
 30
0.0
 40
0
 41
0
  0
VERTEX
  8
0
 10
383.69
 20
216.435
 30
0.0
 40
0
 41
0
  0
VERTEX
  8
0
 10
384.167
 20
216.522
 30
0.0
 40
0
 41
0
  0
VERTEX
  8
0
 10
384.635
 20
216.644
 30
0.0
 40
0
 41
0
  0
VERTEX
  8
0
 10
385.092
 20
216.8
 30
0.0
 40
0
 41
0
  0
VERTEX
  8
0
 10
385.537
 20
216.989
 30
0.0
 40
0
 41
0
  0
VERTEX
  8
0
 10
385.968
 20
217.21
 30
0.0
 40
0
 41
0
  0
VERTEX
  8
0
 10
386.283
 20
217.396
 30
0.0
 40
0
 41
0
  0
VERTEX
  8
0
 10
386.385
 20
217.462
 30
0.0
 40
0
 41
0
  0
VERTEX
  8
0
 10
386.486
 20
217.529
 30
0.0
 40
0
 41
0
  0
VERTEX
  8
0
 10
386.781
 20
217.746
 30
0.0
 40
0
 41
0
  0
VERTEX
  8
0
 10
387.154
 20
218.056
 30
0.0
 40
0
 41
0
  0
VERTEX
  8
0
 10
387.503
 20
218.39
 30
0.0
 40
0
 41
0
  0
VERTEX
  8
0
 10
387.826
 20
218.75
 30
0.0
 40
0
 41
0
  0
VERTEX
  8
0
 10
388.122
 20
219.132
 30
0.0
 40
0
 41
0
  0
VERTEX
  8
0
 10
388.39
 20
219.535
 30
0.0
 40
0
 41
0
  0
VERTEX
  8
0
 10
388.628
 20
219.957
 30
0.0
 40
0
 41
0
  0
VERTEX
  8
0
 10
388.787
 20
220.285
 30
0.0
 40
0
 41
0
  0
VERTEX
  8
0
 10
388.836
 20
220.397
 30
0.0
 40
0
 41
0
  0
VERTEX
  8
0
 10
389.787
 20
222.621
 30
0.0
 40
0
 41
0
  0
VERTEX
  8
0
 10
389.824
 20
222.704
 30
0.0
 40
0
 41
0
  0
VERTEX
  8
0
 10
389.939
 20
222.95
 30
0.0
 40
0
 41
0
  0
VERTEX
  8
0
 10
390.104
 20
223.271
 30
0.0
 40
0
 41
0
  0
VERTEX
  8
0
 10
390.286
 20
223.582
 30
0.0
 40
0
 41
0
  0
VERTEX
  8
0
 10
390.481
 20
223.882
 30
0.0
 40
0
 41
0
  0
VERTEX
  8
0
 10
390.69
 20
224.172
 30
0.0
 40
0
 41
0
  0
VERTEX
  8
0
 10
390.912
 20
224.451
 30
0.0
 40
0
 41
0
  0
VERTEX
  8
0
 10
391.149
 20
224.719
 30
0.0
 40
0
 41
0
  0
VERTEX
  8
0
 10
391.397
 20
224.975
 30
0.0
 40
0
 41
0
  0
VERTEX
  8
0
 10
391.657
 20
225.218
 30
0.0
 40
0
 41
0
  0
VERTEX
  8
0
 10
391.929
 20
225.45
 30
0.0
 40
0
 41
0
  0
VERTEX
  8
0
 10
392.213
 20
225.667
 30
0.0
 40
0
 41
0
  0
VERTEX
  8
0
 10
392.507
 20
225.871
 30
0.0
 40
0
 41
0
  0
VERTEX
  8
0
 10
392.811
 20
226.06
 30
0.0
 40
0
 41
0
  0
VERTEX
  8
0
 10
393.125
 20
226.235
 30
0.0
 40
0
 41
0
  0
VERTEX
  8
0
 10
393.449
 20
226.396
 30
0.0
 40
0
 41
0
  0
VERTEX
  8
0
 10
393.697
 20
226.506
 30
0.0
 40
0
 41
0
  0
VERTEX
  8
0
 10
393.781
 20
226.54
 30
0.0
 40
0
 41
0
  0
VERTEX
  8
0
 10
395.501
 20
227.239
 30
0.0
 40
0
 41
0
  0
VERTEX
  8
0
 10
395.617
 20
227.285
 30
0.0
 40
0
 41
0
  0
VERTEX
  8
0
 10
395.953
 20
227.442
 30
0.0
 40
0
 41
0
  0
VERTEX
  8
0
 10
396.386
 20
227.676
 30
0.0
 40
0
 41
0
  0
VERTEX
  8
0
 10
396.8
 20
227.942
 30
0.0
 40
0
 41
0
  0
VERTEX
  8
0
 10
397.192
 20
228.237
 30
0.0
 40
0
 41
0
  0
VERTEX
  8
0
 10
397.561
 20
228.56
 30
0.0
 40
0
 41
0
  0
VERTEX
  8
0
 10
397.906
 20
228.91
 30
0.0
 40
0
 41
0
  0
VERTEX
  8
0
 10
398.225
 20
229.286
 30
0.0
 40
0
 41
0
  0
VERTEX
  8
0
 10
398.447
 20
229.583
 30
0.0
 40
0
 41
0
  0
VERTEX
  8
0
 10
398.517
 20
229.686
 30
0.0
 40
0
 41
0
  0
VERTEX
  8
0
 10
398.586
 20
229.789
 30
0.0
 40
0
 41
0
  0
VERTEX
  8
0
 10
398.778
 20
230.107
 30
0.0
 40
0
 41
0
  0
VERTEX
  8
0
 10
399.006
 20
230.543
 30
0.0
 40
0
 41
0
  0
VERTEX
  8
0
 10
399.2
 20
230.994
 30
0.0
 40
0
 41
0
  0
VERTEX
  8
0
 10
399.361
 20
231.458
 30
0.0
 40
0
 41
0
  0
VERTEX
  8
0
 10
399.486
 20
231.933
 30
0.0
 40
0
 41
0
  0
VERTEX
  8
0
 10
399.578
 20
232.415
 30
0.0
 40
0
 41
0
  0
VERTEX
  8
0
 10
399.632
 20
232.906
 30
0.0
 40
0
 41
0
  0
VERTEX
  8
0
 10
399.65
 20
233.276
 30
0.0
 40
0
 41
0
  0
VERTEX
  8
0
 10
399.65
 20
233.4
 30
0.0
 40
0
 41
0
  0
VERTEX
  8
0
 10
399.65
 20
237.014
 30
0.0
 40
0
 41
0
  0
SEQEND
 8
0
  0
POLYLINE
  8
0
 62
     0
 66
     1
 10
0
 20
0
 30
0.0
 70
     1
 40
0
 41
0
  0
VERTEX
  8
0
 10
402.35
 20
582.014
 30
0.0
 40
0
 41
0
  0
VERTEX
  8
0
 10
402.35
 20
233.4
 30
0.0
 40
0
 41
0
  0
VERTEX
  8
0
 10
402.35
 20
233.226
 30
0.0
 40
0
 41
0
  0
VERTEX
  8
0
 10
402.325
 20
232.704
 30
0.0
 40
0
 41
0
  0
VERTEX
  8
0
 10
402.247
 20
232.017
 30
0.0
 40
0
 41
0
  0
VERTEX
  8
0
 10
402.119
 20
231.338
 30
0.0
 40
0
 41
0
  0
VERTEX
  8
0
 10
401.943
 20
230.669
 30
0.0
 40
0
 41
0
  0
VERTEX
  8
0
 10
401.718
 20
230.018
 30
0.0
 40
0
 41
0
  0
VERTEX
  8
0
 10
401.444
 20
229.383
 30
0.0
 40
0
 41
0
  0
VERTEX
  8
0
 10
401.124
 20
228.769
 30
0.0
 40
0
 41
0
  0
VERTEX
  8
0
 10
400.853
 20
228.322
 30
0.0
 40
0
 41
0
  0
VERTEX
  8
0
 10
400.757
 20
228.178
 30
0.0
 40
0
 41
0
  0
VERTEX
  8
0
 10
400.66
 20
228.033
 30
0.0
 40
0
 41
0
  0
VERTEX
  8
0
 10
400.346
 20
227.615
 30
0.0
 40
0
 41
0
  0
VERTEX
  8
0
 10
399.897
 20
227.087
 30
0.0
 40
0
 41
0
  0
VERTEX
  8
0
 10
399.412
 20
226.596
 30
0.0
 40
0
 41
0
  0
VERTEX
  8
0
 10
398.893
 20
226.14
 30
0.0
 40
0
 41
0
  0
VERTEX
  8
0
 10
398.342
 20
225.726
 30
0.0
 40
0
 41
0
  0
VERTEX
  8
0
 10
397.761
 20
225.353
 30
0.0
 40
0
 41
0
  0
VERTEX
  8
0
 10
397.151
 20
225.022
 30
0.0
 40
0
 41
0
  0
VERTEX
  8
0
 10
396.678
 20
224.801
 30
0.0
 40
0
 41
0
  0
VERTEX
  8
0
 10
396.517
 20
224.736
 30
0.0
 40
0
 41
0
  0
VERTEX
  8
0
 10
394.796
 20
224.038
 30
0.0
 40
0
 41
0
  0
VERTEX
  8
0
 10
394.69
 20
223.994
 30
0.0
 40
0
 41
0
  0
VERTEX
  8
0
 10
394.381
 20
223.846
 30
0.0
 40
0
 41
0
  0
VERTEX
  8
0
 10
393.99
 20
223.615
 30
0.0
 40
0
 41
0
  0
VERTEX
  8
0
 10
393.625
 20
223.349
 30
0.0
 40
0
 41
0
  0
VERTEX
  8
0
 10
393.287
 20
223.049
 30
0.0
 40
0
 41
0
  0
VERTEX
  8
0
 10
392.982
 20
222.717
 30
0.0
 40
0
 41
0
  0
VERTEX
  8
0
 10
392.708
 20
222.357
 30
0.0
 40
0
 41
0
  0
VERTEX
  8
0
 10
392.471
 20
221.969
 30
0.0
 40
0
 41
0
  0
VERTEX
  8
0
 10
392.315
 20
221.664
 30
0.0
 40
0
 41
0
  0
VERTEX
  8
0
 10
392.269
 20
221.558
 30
0.0
 40
0
 41
0
  0
VERTEX
  8
0
 10
391.318
 20
219.335
 30
0.0
 40
0
 41
0
  0
VERTEX
  8
0
 10
391.251
 20
219.178
 30
0.0
 40
0
 41
0
  0
VERTEX
  8
0
 10
391.026
 20
218.715
 30
0.0
 40
0
 41
0
  0
VERTEX
  8
0
 10
390.69
 20
218.122
 30
0.0
 40
0
 41
0
  0
VERTEX
  8
0
 10
390.314
 20
217.556
 30
0.0
 40
0
 41
0
  0
VERTEX
  8
0
 10
389.897
 20
217.019
 30
0.0
 40
0
 41
0
  0
VERTEX
  8
0
 10
389.443
 20
216.514
 30
0.0
 40
0
 41
0
  0
VERTEX
  8
0
 10
388.953
 20
216.042
 30
0.0
 40
0
 41
0
  0
VERTEX
  8
0
 10
388.429
 20
215.607
 30
0.0
 40
0
 41
0
  0
VERTEX
  8
0
 10
388.014
 20
215.303
 30
0.0
 40
0
 41
0
  0
VERTEX
  8
0
 10
387.871
 20
215.208
 30
0.0
 40
0
 41
0
  0
VERTEX
  8
0
 10
387.729
 20
215.115
 30
0.0
 40
0
 41
0
  0
VERTEX
  8
0
 10
387.286
 20
214.853
 30
0.0
 40
0
 41
0
  0
VERTEX
  8
0
 10
386.679
 20
214.542
 30
0.0
 40
0
 41
0
  0
VERTEX
  8
0
 10
386.053
 20
214.276
 30
0.0
 40
0
 41
0
  0
VERTEX
  8
0
 10
385.41
 20
214.058
 30
0.0
 40
0
 41
0
  0
VERTEX
  8
0
 10
384.753
 20
213.886
 30
0.0
 40
0
 41
0
  0
VERTEX
  8
0
 10
384.085
 20
213.763
 30
0.0
 40
0
 41
0
  0
VERTEX
  8
0
 10
383.407
 20
213.689
 30
0.0
 40
0
 41
0
  0
VERTEX
  8
0
 10
382.893
 20
213.664
 30
0.0
 40
0
 41
0
  0
VERTEX
  8
0
 10
382.722
 20
213.664
 30
0.0
 40
0
 41
0
  0
VERTEX
  8
0
 10
379
 20
213.664
 30
0.0
 40
0
 41
0
  0
VERTEX
  8
0
 10
308.19
 20
213.732
 30
0.0
 40
0
 41
0
  0
VERTEX
  8
0
 10
308.19
 20
213.732
 30
0.0
 40
0
 41
0
  0
VERTEX
  8
0
 10
308
 20
213.732
 30
0.0
 40
0
 41
0
  0
VERTEX
  8
0
 10
307.811
 20
213.732
 30
0.0
 40
0
 41
0
  0
VERTEX
  8
0
 10
307.811
 20
213.732
 30
0.0
 40
0
 41
0
  0
VERTEX
  8
0
 10
237
 20
213.664
 30
0.0
 40
0
 41
0
  0
VERTEX
  8
0
 10
233.279
 20
213.664
 30
0.0
 40
0
 41
0
  0
VERTEX
  8
0
 10
233.107
 20
213.664
 30
0.0
 40
0
 41
0
  0
VERTEX
  8
0
 10
232.594
 20
213.689
 30
0.0
 40
0
 41
0
  0
VERTEX
  8
0
 10
231.917
 20
213.763
 30
0.0
 40
0
 41
0
  0
VERTEX
  8
0
 10
231.247
 20
213.886
 30
0.0
 40
0
 41
0
  0
VERTEX
  8
0
 10
230.59
 20
214.058
 30
0.0
 40
0
 41
0
  0
VERTEX
  8
0
 10
229.947
 20
214.276
 30
0.0
 40
0
 41
0
  0
VERTEX
  8
0
 10
229.321
 20
214.542
 30
0.0
 40
0
 41
0
  0
VERTEX
  8
0
 10
228.714
 20
214.853
 30
0.0
 40
0
 41
0
  0
VERTEX
  8
0
 10
228.272
 20
215.115
 30
0.0
 40
0
 41
0
  0
VERTEX
  8
0
 10
228.129
 20
215.208
 30
0.0
 40
0
 41
0
  0
VERTEX
  8
0
 10
227.986
 20
215.303
 30
0.0
 40
0
 41
0
  0
VERTEX
  8
0
 10
227.572
 20
215.607
 30
0.0
 40
0
 41
0
  0
VERTEX
  8
0
 10
227.047
 20
216.042
 30
0.0
 40
0
 41
0
  0
VERTEX
  8
0
 10
226.557
 20
216.514
 30
0.0
 40
0
 41
0
  0
VERTEX
  8
0
 10
226.103
 20
217.019
 30
0.0
 40
0
 41
0
  0
VERTEX
  8
0
 10
225.686
 20
217.556
 30
0.0
 40
0
 41
0
  0
VERTEX
  8
0
 10
225.31
 20
218.122
 30
0.0
 40
0
 41
0
  0
VERTEX
  8
0
 10
224.975
 20
218.715
 30
0.0
 40
0
 41
0
  0
VERTEX
  8
0
 10
224.75
 20
219.178
 30
0.0
 40
0
 41
0
  0
VERTEX
  8
0
 10
224.682
 20
219.335
 30
0.0
 40
0
 41
0
  0
VERTEX
  8
0
 10
223.731
 20
221.558
 30
0.0
 40
0
 41
0
  0
VERTEX
  8
0
 10
223.686
 20
221.664
 30
0.0
 40
0
 41
0
  0
VERTEX
  8
0
 10
223.531
 20
221.969
 30
0.0
 40
0
 41
0
  0
VERTEX
  8
0
 10
223.293
 20
222.357
 30
0.0
 40
0
 41
0
  0
VERTEX
  8
0
 10
223.019
 20
222.717
 30
0.0
 40
0
 41
0
  0
VERTEX
  8
0
 10
222.712
 20
223.049
 30
0.0
 40
0
 41
0
  0
VERTEX
  8
0
 10
222.376
 20
223.349
 30
0.0
 40
0
 41
0
  0
VERTEX
  8
0
 10
222.011
 20
223.615
 30
0.0
 40
0
 41
0
  0
VERTEX
  8
0
 10
221.619
 20
223.846
 30
0.0
 40
0
 41
0
  0
VERTEX
  8
0
 10
221.311
 20
223.994
 30
0.0
 40
0
 41
0
  0
VERTEX
  8
0
 10
221.204
 20
224.038
 30
0.0
 40
0
 41
0
  0
VERTEX
  8
0
 10
219.483
 20
224.736
 30
0.0
 40
0
 41
0
  0
VERTEX
  8
0
 10
219.322
 20
224.801
 30
0.0
 40
0
 41
0
  0
VERTEX
  8
0
 10
218.849
 20
225.022
 30
0.0
 40
0
 41
0
  0
VERTEX
  8
0
 10
218.24
 20
225.353
 30
0.0
 40
0
 41
0
  0
VERTEX
  8
0
 10
217.658
 20
225.726
 30
0.0
 40
0
 41
0
  0
VERTEX
  8
0
 10
217.107
 20
226.14
 30
0.0
 40
0
 41
0
  0
VERTEX
  8
0
 10
216.587
 20
226.596
 30
0.0
 40
0
 41
0
  0
VERTEX
  8
0
 10
216.103
 20
227.087
 30
0.0
 40
0
 41
0
  0
VERTEX
  8
0
 10
215.654
 20
227.615
 30
0.0
 40
0
 41
0
  0
VERTEX
  8
0
 10
215.342
 20
228.033
 30
0.0
 40
0
 41
0
  0
VERTEX
  8
0
 10
215.244
 20
228.178
 30
0.0
 40
0
 41
0
  0
VERTEX
  8
0
 10
215.147
 20
228.322
 30
0.0
 40
0
 41
0
  0
VERTEX
  8
0
 10
214.878
 20
228.769
 30
0.0
 40
0
 41
0
  0
VERTEX
  8
0
 10
214.557
 20
229.383
 30
0.0
 40
0
 41
0
  0
VERTEX
  8
0
 10
214.283
 20
230.018
 30
0.0
 40
0
 41
0
  0
VERTEX
  8
0
 10
214.058
 20
230.669
 30
0.0
 40
0
 41
0
  0
VERTEX
  8
0
 10
213.881
 20
231.338
 30
0.0
 40
0
 41
0
  0
VERTEX
  8
0
 10
213.753
 20
232.017
 30
0.0
 40
0
 41
0
  0
VERTEX
  8
0
 10
213.676
 20
232.704
 30
0.0
 40
0
 41
0
  0
VERTEX
  8
0
 10
213.65
 20
233.226
 30
0.0
 40
0
 41
0
  0
VERTEX
  8
0
 10
213.65
 20
233.4
 30
0.0
 40
0
 41
0
  0
VERTEX
  8
0
 10
213.65
 20
585.628
 30
0.0
 40
0
 41
0
  0
VERTEX
  8
0
 10
213.65
 20
585.801
 30
0.0
 40
0
 41
0
  0
VERTEX
  8
0
 10
213.676
 20
586.322
 30
0.0
 40
0
 41
0
  0
VERTEX
  8
0
 10
213.753
 20
587.011
 30
0.0
 40
0
 41
0
  0
VERTEX
  8
0
 10
213.881
 20
587.69
 30
0.0
 40
0
 41
0
  0
VERTEX
  8
0
 10
214.058
 20
588.357
 30
0.0
 40
0
 41
0
  0
VERTEX
  8
0
 10
214.283
 20
589.01
 30
0.0
 40
0
 41
0
  0
VERTEX
  8
0
 10
214.557
 20
589.644
 30
0.0
 40
0
 41
0
  0
VERTEX
  8
0
 10
214.878
 20
590.258
 30
0.0
 40
0
 41
0
  0
VERTEX
  8
0
 10
215.147
 20
590.706
 30
0.0
 40
0
 41
0
  0
VERTEX
  8
0
 10
215.244
 20
590.85
 30
0.0
 40
0
 41
0
  0
VERTEX
  8
0
 10
215.342
 20
590.993
 30
0.0
 40
0
 41
0
  0
VERTEX
  8
0
 10
215.654
 20
591.411
 30
0.0
 40
0
 41
0
  0
VERTEX
  8
0
 10
216.103
 20
591.94
 30
0.0
 40
0
 41
0
  0
VERTEX
  8
0
 10
216.587
 20
592.432
 30
0.0
 40
0
 41
0
  0
VERTEX
  8
0
 10
217.107
 20
592.886
 30
0.0
 40
0
 41
0
  0
VERTEX
  8
0
 10
217.658
 20
593.301
 30
0.0
 40
0
 41
0
  0
VERTEX
  8
0
 10
218.24
 20
593.675
 30
0.0
 40
0
 41
0
  0
VERTEX
  8
0
 10
218.849
 20
594.006
 30
0.0
 40
0
 41
0
  0
VERTEX
  8
0
 10
219.322
 20
594.225
 30
0.0
 40
0
 41
0
  0
VERTEX
  8
0
 10
219.483
 20
594.29
 30
0.0
 40
0
 41
0
  0
VERTEX
  8
0
 10
221.204
 20
594.989
 30
0.0
 40
0
 41
0
  0
VERTEX
  8
0
 10
221.311
 20
595.032
 30
0.0
 40
0
 41
0
  0
VERTEX
  8
0
 10
221.619
 20
595.182
 30
0.0
 40
0
 41
0
  0
VERTEX
  8
0
 10
222.011
 20
595.412
 30
0.0
 40
0
 41
0
  0
VERTEX
  8
0
 10
222.376
 20
595.679
 30
0.0
 40
0
 41
0
  0
VERTEX
  8
0
 10
222.712
 20
595.979
 30
0.0
 40
0
 41
0
  0
VERTEX
  8
0
 10
223.019
 20
596.31
 30
0.0
 40
0
 41
0
  0
VERTEX
  8
0
 10
223.293
 20
596.671
 30
0.0
 40
0
 41
0
  0
VERTEX
  8
0
 10
223.531
 20
597.057
 30
0.0
 40
0
 41
0
  0
VERTEX
  8
0
 10
223.686
 20
597.364
 30
0.0
 40
0
 41
0
  0
VERTEX
  8
0
 10
223.731
 20
597.468
 30
0.0
 40
0
 41
0
  0
VERTEX
  8
0
 10
224.682
 20
599.692
 30
0.0
 40
0
 41
0
  0
VERTEX
  8
0
 10
224.75
 20
599.85
 30
0.0
 40
0
 41
0
  0
VERTEX
  8
0
 10
224.975
 20
600.311
 30
0.0
 40
0
 41
0
  0
VERTEX
  8
0
 10
225.31
 20
600.906
 30
0.0
 40
0
 41
0
  0
VERTEX
  8
0
 10
225.686
 20
601.472
 30
0.0
 40
0
 41
0
  0
VERTEX
  8
0
 10
226.103
 20
602.008
 30
0.0
 40
0
 41
0
  0
VERTEX
  8
0
 10
226.557
 20
602.514
 30
0.0
 40
0
 41
0
  0
VERTEX
  8
0
 10
227.047
 20
602.985
 30
0.0
 40
0
 41
0
  0
VERTEX
  8
0
 10
227.572
 20
603.421
 30
0.0
 40
0
 41
0
  0
VERTEX
  8
0
 10
227.986
 20
603.724
 30
0.0
 40
0
 41
0
  0
VERTEX
  8
0
 10
228.129
 20
603.818
 30
0.0
 40
0
 41
0
  0
VERTEX
  8
0
 10
228.272
 20
603.912
 30
0.0
 40
0
 41
0
  0
VERTEX
  8
0
 10
228.714
 20
604.174
 30
0.0
 40
0
 41
0
  0
VERTEX
  8
0
 10
229.321
 20
604.485
 30
0.0
 40
0
 41
0
  0
VERTEX
  8
0
 10
229.947
 20
604.75
 30
0.0
 40
0
 41
0
  0
VERTEX
  8
0
 10
230.59
 20
604.969
 30
0.0
 40
0
 41
0
  0
VERTEX
  8
0
 10
231.247
 20
605.14
 30
0.0
 40
0
 41
0
  0
VERTEX
  8
0
 10
231.917
 20
605.264
 30
0.0
 40
0
 41
0
  0
VERTEX
  8
0
 10
232.594
 20
605.339
 30
0.0
 40
0
 41
0
  0
VERTEX
  8
0
 10
233.107
 20
605.364
 30
0.0
 40
0
 41
0
  0
VERTEX
  8
0
 10
233.279
 20
605.364
 30
0.0
 40
0
 41
0
  0
VERTEX
  8
0
 10
237
 20
605.364
 30
0.0
 40
0
 41
0
  0
VERTEX
  8
0
 10
307.811
 20
605.296
 30
0.0
 40
0
 41
0
  0
VERTEX
  8
0
 10
307.811
 20
605.294
 30
0.0
 40
0
 41
0
  0
VERTEX
  8
0
 10
308
 20
605.294
 30
0.0
 40
0
 41
0
  0
VERTEX
  8
0
 10
308.19
 20
605.294
 30
0.0
 40
0
 41
0
  0
VERTEX
  8
0
 10
308.19
 20
605.296
 30
0.0
 40
0
 41
0
  0
VERTEX
  8
0
 10
379
 20
605.364
 30
0.0
 40
0
 41
0
  0
VERTEX
  8
0
 10
382.722
 20
605.364
 30
0.0
 40
0
 41
0
  0
VERTEX
  8
0
 10
382.893
 20
605.364
 30
0.0
 40
0
 41
0
  0
VERTEX
  8
0
 10
383.407
 20
605.339
 30
0.0
 40
0
 41
0
  0
VERTEX
  8
0
 10
384.085
 20
605.264
 30
0.0
 40
0
 41
0
  0
VERTEX
  8
0
 10
384.753
 20
605.14
 30
0.0
 40
0
 41
0
  0
VERTEX
  8
0
 10
385.41
 20
604.969
 30
0.0
 40
0
 41
0
  0
VERTEX
  8
0
 10
386.053
 20
604.75
 30
0.0
 40
0
 41
0
  0
VERTEX
  8
0
 10
386.679
 20
604.485
 30
0.0
 40
0
 41
0
  0
VERTEX
  8
0
 10
387.286
 20
604.174
 30
0.0
 40
0
 41
0
  0
VERTEX
  8
0
 10
387.729
 20
603.912
 30
0.0
 40
0
 41
0
  0
VERTEX
  8
0
 10
387.871
 20
603.818
 30
0.0
 40
0
 41
0
  0
VERTEX
  8
0
 10
388.014
 20
603.724
 30
0.0
 40
0
 41
0
  0
VERTEX
  8
0
 10
388.429
 20
603.421
 30
0.0
 40
0
 41
0
  0
VERTEX
  8
0
 10
388.953
 20
602.985
 30
0.0
 40
0
 41
0
  0
VERTEX
  8
0
 10
389.443
 20
602.514
 30
0.0
 40
0
 41
0
  0
VERTEX
  8
0
 10
389.897
 20
602.008
 30
0.0
 40
0
 41
0
  0
VERTEX
  8
0
 10
390.314
 20
601.472
 30
0.0
 40
0
 41
0
  0
VERTEX
  8
0
 10
390.69
 20
600.906
 30
0.0
 40
0
 41
0
  0
VERTEX
  8
0
 10
391.026
 20
600.311
 30
0.0
 40
0
 41
0
  0
VERTEX
  8
0
 10
391.251
 20
599.85
 30
0.0
 40
0
 41
0
  0
VERTEX
  8
0
 10
391.318
 20
599.692
 30
0.0
 40
0
 41
0
  0
VERTEX
  8
0
 10
392.269
 20
597.468
 30
0.0
 40
0
 41
0
  0
VERTEX
  8
0
 10
392.315
 20
597.364
 30
0.0
 40
0
 41
0
  0
VERTEX
  8
0
 10
392.471
 20
597.057
 30
0.0
 40
0
 41
0
  0
VERTEX
  8
0
 10
392.708
 20
596.671
 30
0.0
 40
0
 41
0
  0
VERTEX
  8
0
 10
392.982
 20
596.31
 30
0.0
 40
0
 41
0
  0
VERTEX
  8
0
 10
393.287
 20
595.979
 30
0.0
 40
0
 41
0
  0
VERTEX
  8
0
 10
393.625
 20
595.679
 30
0.0
 40
0
 41
0
  0
VERTEX
  8
0
 10
393.99
 20
595.412
 30
0.0
 40
0
 41
0
  0
VERTEX
  8
0
 10
394.381
 20
595.182
 30
0.0
 40
0
 41
0
  0
VERTEX
  8
0
 10
394.69
 20
595.032
 30
0.0
 40
0
 41
0
  0
VERTEX
  8
0
 10
394.796
 20
594.989
 30
0.0
 40
0
 41
0
  0
VERTEX
  8
0
 10
396.517
 20
594.29
 30
0.0
 40
0
 41
0
  0
VERTEX
  8
0
 10
396.678
 20
594.225
 30
0.0
 40
0
 41
0
  0
VERTEX
  8
0
 10
397.151
 20
594.006
 30
0.0
 40
0
 41
0
  0
VERTEX
  8
0
 10
397.761
 20
593.675
 30
0.0
 40
0
 41
0
  0
VERTEX
  8
0
 10
398.342
 20
593.301
 30
0.0
 40
0
 41
0
  0
VERTEX
  8
0
 10
398.893
 20
592.886
 30
0.0
 40
0
 41
0
  0
VERTEX
  8
0
 10
399.412
 20
592.432
 30
0.0
 40
0
 41
0
  0
VERTEX
  8
0
 10
399.897
 20
591.94
 30
0.0
 40
0
 41
0
  0
VERTEX
  8
0
 10
400.346
 20
591.411
 30
0.0
 40
0
 41
0
  0
VERTEX
  8
0
 10
400.66
 20
590.993
 30
0.0
 40
0
 41
0
  0
VERTEX
  8
0
 10
400.757
 20
590.85
 30
0.0
 40
0
 41
0
  0
VERTEX
  8
0
 10
400.853
 20
590.706
 30
0.0
 40
0
 41
0
  0
VERTEX
  8
0
 10
401.124
 20
590.258
 30
0.0
 40
0
 41
0
  0
VERTEX
  8
0
 10
401.444
 20
589.644
 30
0.0
 40
0
 41
0
  0
VERTEX
  8
0
 10
401.718
 20
589.01
 30
0.0
 40
0
 41
0
  0
VERTEX
  8
0
 10
401.943
 20
588.357
 30
0.0
 40
0
 41
0
  0
VERTEX
  8
0
 10
402.119
 20
587.69
 30
0.0
 40
0
 41
0
  0
VERTEX
  8
0
 10
402.247
 20
587.011
 30
0.0
 40
0
 41
0
  0
VERTEX
  8
0
 10
402.325
 20
586.322
 30
0.0
 40
0
 41
0
  0
VERTEX
  8
0
 10
402.35
 20
585.801
 30
0.0
 40
0
 41
0
  0
VERTEX
  8
0
 10
402.35
 20
585.628
 30
0.0
 40
0
 41
0
  0
VERTEX
  8
0
 10
402.35
 20
582.014
 30
0.0
 40
0
 41
0
  0
SEQEND
 8
0
  0
POLYLINE
  8
0
 62
     0
 66
     1
 10
0
 20
0
 30
0.0
 70
     1
 40
0
 41
0
  0
VERTEX
  8
0
 10
218
 20
598.014
 30
0.0
 40
0
 41
0
  0
VERTEX
  8
0
 10
217.924
 20
598.014
 30
0.0
 40
0
 41
0
  0
VERTEX
  8
0
 10
217.693
 20
598.029
 30
0.0
 40
0
 41
0
  0
VERTEX
  8
0
 10
217.396
 20
598.075
 30
0.0
 40
0
 41
0
  0
VERTEX
  8
0
 10
217.108
 20
598.149
 30
0.0
 40
0
 41
0
  0
VERTEX
  8
0
 10
216.832
 20
598.25
 30
0.0
 40
0
 41
0
  0
VERTEX
  8
0
 10
216.571
 20
598.376
 30
0.0
 40
0
 41
0
  0
VERTEX
  8
0
 10
216.324
 20
598.526
 30
0.0
 40
0
 41
0
  0
VERTEX
  8
0
 10
216.092
 20
598.699
 30
0.0
 40
0
 41
0
  0
VERTEX
  8
0
 10
215.879
 20
598.893
 30
0.0
 40
0
 41
0
  0
VERTEX
  8
0
 10
215.685
 20
599.106
 30
0.0
 40
0
 41
0
  0
VERTEX
  8
0
 10
215.513
 20
599.336
 30
0.0
 40
0
 41
0
  0
VERTEX
  8
0
 10
215.362
 20
599.583
 30
0.0
 40
0
 41
0
  0
VERTEX
  8
0
 10
215.236
 20
599.846
 30
0.0
 40
0
 41
0
  0
VERTEX
  8
0
 10
215.135
 20
600.122
 30
0.0
 40
0
 41
0
  0
VERTEX
  8
0
 10
215.061
 20
600.41
 30
0.0
 40
0
 41
0
  0
VERTEX
  8
0
 10
215.015
 20
600.707
 30
0.0
 40
0
 41
0
  0
VERTEX
  8
0
 10
215
 20
600.938
 30
0.0
 40
0
 41
0
  0
VERTEX
  8
0
 10
215
 20
601.014
 30
0.0
 40
0
 41
0
  0
VERTEX
  8
0
 10
215
 20
601.09
 30
0.0
 40
0
 41
0
  0
VERTEX
  8
0
 10
215.015
 20
601.321
 30
0.0
 40
0
 41
0
  0
VERTEX
  8
0
 10
215.061
 20
601.618
 30
0.0
 40
0
 41
0
  0
VERTEX
  8
0
 10
215.135
 20
601.906
 30
0.0
 40
0
 41
0
  0
VERTEX
  8
0
 10
215.236
 20
602.182
 30
0.0
 40
0
 41
0
  0
VERTEX
  8
0
 10
215.362
 20
602.444
 30
0.0
 40
0
 41
0
  0
VERTEX
  8
0
 10
215.513
 20
602.692
 30
0.0
 40
0
 41
0
  0
VERTEX
  8
0
 10
215.685
 20
602.922
 30
0.0
 40
0
 41
0
  0
VERTEX
  8
0
 10
215.879
 20
603.135
 30
0.0
 40
0
 41
0
  0
VERTEX
  8
0
 10
216.092
 20
603.329
 30
0.0
 40
0
 41
0
  0
VERTEX
  8
0
 10
216.324
 20
603.501
 30
0.0
 40
0
 41
0
  0
VERTEX
  8
0
 10
216.571
 20
603.651
 30
0.0
 40
0
 41
0
  0
VERTEX
  8
0
 10
216.832
 20
603.778
 30
0.0
 40
0
 41
0
  0
VERTEX
  8
0
 10
217.108
 20
603.879
 30
0.0
 40
0
 41
0
  0
VERTEX
  8
0
 10
217.396
 20
603.953
 30
0.0
 40
0
 41
0
  0
VERTEX
  8
0
 10
217.693
 20
603.999
 30
0.0
 40
0
 41
0
  0
VERTEX
  8
0
 10
217.924
 20
604.014
 30
0.0
 40
0
 41
0
  0
VERTEX
  8
0
 10
218
 20
604.014
 30
0.0
 40
0
 41
0
  0
VERTEX
  8
0
 10
218.076
 20
604.014
 30
0.0
 40
0
 41
0
  0
VERTEX
  8
0
 10
218.307
 20
603.999
 30
0.0
 40
0
 41
0
  0
VERTEX
  8
0
 10
218.606
 20
603.953
 30
0.0
 40
0
 41
0
  0
VERTEX
  8
0
 10
218.893
 20
603.879
 30
0.0
 40
0
 41
0
  0
VERTEX
  8
0
 10
219.168
 20
603.778
 30
0.0
 40
0
 41
0
  0
VERTEX
  8
0
 10
219.431
 20
603.651
 30
0.0
 40
0
 41
0
  0
VERTEX
  8
0
 10
219.678
 20
603.501
 30
0.0
 40
0
 41
0
  0
VERTEX
  8
0
 10
219.908
 20
603.329
 30
0.0
 40
0
 41
0
  0
VERTEX
  8
0
 10
220.122
 20
603.135
 30
0.0
 40
0
 41
0
  0
VERTEX
  8
0
 10
220.315
 20
602.922
 30
0.0
 40
0
 41
0
  0
VERTEX
  8
0
 10
220.487
 20
602.692
 30
0.0
 40
0
 41
0
  0
VERTEX
  8
0
 10
220.639
 20
602.444
 30
0.0
 40
0
 41
0
  0
VERTEX
  8
0
 10
220.764
 20
602.182
 30
0.0
 40
0
 41
0
  0
VERTEX
  8
0
 10
220.865
 20
601.906
 30
0.0
 40
0
 41
0
  0
VERTEX
  8
0
 10
220.939
 20
601.618
 30
0.0
 40
0
 41
0
  0
VERTEX
  8
0
 10
220.985
 20
601.321
 30
0.0
 40
0
 41
0
  0
VERTEX
  8
0
 10
221
 20
601.09
 30
0.0
 40
0
 41
0
  0
VERTEX
  8
0
 10
221
 20
601.014
 30
0.0
 40
0
 41
0
  0
VERTEX
  8
0
 10
221
 20
600.938
 30
0.0
 40
0
 41
0
  0
VERTEX
  8
0
 10
220.985
 20
600.707
 30
0.0
 40
0
 41
0
  0
VERTEX
  8
0
 10
220.939
 20
600.41
 30
0.0
 40
0
 41
0
  0
VERTEX
  8
0
 10
220.865
 20
600.122
 30
0.0
 40
0
 41
0
  0
VERTEX
  8
0
 10
220.764
 20
599.846
 30
0.0
 40
0
 41
0
  0
VERTEX
  8
0
 10
220.639
 20
599.583
 30
0.0
 40
0
 41
0
  0
VERTEX
  8
0
 10
220.487
 20
599.336
 30
0.0
 40
0
 41
0
  0
VERTEX
  8
0
 10
220.315
 20
599.106
 30
0.0
 40
0
 41
0
  0
VERTEX
  8
0
 10
220.122
 20
598.893
 30
0.0
 40
0
 41
0
  0
VERTEX
  8
0
 10
219.908
 20
598.699
 30
0.0
 40
0
 41
0
  0
VERTEX
  8
0
 10
219.678
 20
598.526
 30
0.0
 40
0
 41
0
  0
VERTEX
  8
0
 10
219.431
 20
598.376
 30
0.0
 40
0
 41
0
  0
VERTEX
  8
0
 10
219.168
 20
598.25
 30
0.0
 40
0
 41
0
  0
VERTEX
  8
0
 10
218.893
 20
598.149
 30
0.0
 40
0
 41
0
  0
VERTEX
  8
0
 10
218.606
 20
598.075
 30
0.0
 40
0
 41
0
  0
VERTEX
  8
0
 10
218.307
 20
598.029
 30
0.0
 40
0
 41
0
  0
VERTEX
  8
0
 10
218.076
 20
598.014
 30
0.0
 40
0
 41
0
  0
VERTEX
  8
0
 10
218
 20
598.014
 30
0.0
 40
0
 41
0
  0
SEQEND
 8
0
  0
POLYLINE
  8
0
 62
     0
 66
     1
 10
0
 20
0
 30
0.0
 70
     1
 40
0
 41
0
  0
VERTEX
  8
0
 10
398
 20
598.014
 30
0.0
 40
0
 41
0
  0
VERTEX
  8
0
 10
397.924
 20
598.014
 30
0.0
 40
0
 41
0
  0
VERTEX
  8
0
 10
397.694
 20
598.029
 30
0.0
 40
0
 41
0
  0
VERTEX
  8
0
 10
397.396
 20
598.075
 30
0.0
 40
0
 41
0
  0
VERTEX
  8
0
 10
397.108
 20
598.149
 30
0.0
 40
0
 41
0
  0
VERTEX
  8
0
 10
396.833
 20
598.25
 30
0.0
 40
0
 41
0
  0
VERTEX
  8
0
 10
396.571
 20
598.376
 30
0.0
 40
0
 41
0
  0
VERTEX
  8
0
 10
396.324
 20
598.526
 30
0.0
 40
0
 41
0
  0
VERTEX
  8
0
 10
396.092
 20
598.699
 30
0.0
 40
0
 41
0
  0
VERTEX
  8
0
 10
395.879
 20
598.893
 30
0.0
 40
0
 41
0
  0
VERTEX
  8
0
 10
395.686
 20
599.106
 30
0.0
 40
0
 41
0
  0
VERTEX
  8
0
 10
395.513
 20
599.336
 30
0.0
 40
0
 41
0
  0
VERTEX
  8
0
 10
395.362
 20
599.583
 30
0.0
 40
0
 41
0
  0
VERTEX
  8
0
 10
395.236
 20
599.846
 30
0.0
 40
0
 41
0
  0
VERTEX
  8
0
 10
395.136
 20
600.122
 30
0.0
 40
0
 41
0
  0
VERTEX
  8
0
 10
395.061
 20
600.41
 30
0.0
 40
0
 41
0
  0
VERTEX
  8
0
 10
395.017
 20
600.707
 30
0.0
 40
0
 41
0
  0
VERTEX
  8
0
 10
395
 20
600.938
 30
0.0
 40
0
 41
0
  0
VERTEX
  8
0
 10
395
 20
601.014
 30
0.0
 40
0
 41
0
  0
VERTEX
  8
0
 10
395
 20
601.09
 30
0.0
 40
0
 41
0
  0
VERTEX
  8
0
 10
395.017
 20
601.321
 30
0.0
 40
0
 41
0
  0
VERTEX
  8
0
 10
395.061
 20
601.618
 30
0.0
 40
0
 41
0
  0
VERTEX
  8
0
 10
395.136
 20
601.906
 30
0.0
 40
0
 41
0
  0
VERTEX
  8
0
 10
395.236
 20
602.182
 30
0.0
 40
0
 41
0
  0
VERTEX
  8
0
 10
395.362
 20
602.444
 30
0.0
 40
0
 41
0
  0
VERTEX
  8
0
 10
395.513
 20
602.692
 30
0.0
 40
0
 41
0
  0
VERTEX
  8
0
 10
395.686
 20
602.922
 30
0.0
 40
0
 41
0
  0
VERTEX
  8
0
 10
395.879
 20
603.135
 30
0.0
 40
0
 41
0
  0
VERTEX
  8
0
 10
396.092
 20
603.329
 30
0.0
 40
0
 41
0
  0
VERTEX
  8
0
 10
396.324
 20
603.501
 30
0.0
 40
0
 41
0
  0
VERTEX
  8
0
 10
396.571
 20
603.651
 30
0.0
 40
0
 41
0
  0
VERTEX
  8
0
 10
396.833
 20
603.778
 30
0.0
 40
0
 41
0
  0
VERTEX
  8
0
 10
397.108
 20
603.879
 30
0.0
 40
0
 41
0
  0
VERTEX
  8
0
 10
397.396
 20
603.953
 30
0.0
 40
0
 41
0
  0
VERTEX
  8
0
 10
397.694
 20
603.999
 30
0.0
 40
0
 41
0
  0
VERTEX
  8
0
 10
397.924
 20
604.014
 30
0.0
 40
0
 41
0
  0
VERTEX
  8
0
 10
398
 20
604.014
 30
0.0
 40
0
 41
0
  0
VERTEX
  8
0
 10
398.078
 20
604.014
 30
0.0
 40
0
 41
0
  0
VERTEX
  8
0
 10
398.307
 20
603.999
 30
0.0
 40
0
 41
0
  0
VERTEX
  8
0
 10
398.606
 20
603.953
 30
0.0
 40
0
 41
0
  0
VERTEX
  8
0
 10
398.893
 20
603.879
 30
0.0
 40
0
 41
0
  0
VERTEX
  8
0
 10
399.168
 20
603.778
 30
0.0
 40
0
 41
0
  0
VERTEX
  8
0
 10
399.431
 20
603.651
 30
0.0
 40
0
 41
0
  0
VERTEX
  8
0
 10
399.678
 20
603.501
 30
0.0
 40
0
 41
0
  0
VERTEX
  8
0
 10
399.908
 20
603.329
 30
0.0
 40
0
 41
0
  0
VERTEX
  8
0
 10
400.122
 20
603.135
 30
0.0
 40
0
 41
0
  0
VERTEX
  8
0
 10
400.315
 20
602.922
 30
0.0
 40
0
 41
0
  0
VERTEX
  8
0
 10
400.489
 20
602.692
 30
0.0
 40
0
 41
0
  0
VERTEX
  8
0
 10
400.639
 20
602.444
 30
0.0
 40
0
 41
0
  0
VERTEX
  8
0
 10
400.765
 20
602.182
 30
0.0
 40
0
 41
0
  0
VERTEX
  8
0
 10
400.865
 20
601.906
 30
0.0
 40
0
 41
0
  0
VERTEX
  8
0
 10
400.94
 20
601.618
 30
0.0
 40
0
 41
0
  0
VERTEX
  8
0
 10
400.985
 20
601.321
 30
0.0
 40
0
 41
0
  0
VERTEX
  8
0
 10
401
 20
601.09
 30
0.0
 40
0
 41
0
  0
VERTEX
  8
0
 10
401
 20
601.014
 30
0.0
 40
0
 41
0
  0
VERTEX
  8
0
 10
401
 20
600.938
 30
0.0
 40
0
 41
0
  0
VERTEX
  8
0
 10
400.985
 20
600.707
 30
0.0
 40
0
 41
0
  0
VERTEX
  8
0
 10
400.94
 20
600.41
 30
0.0
 40
0
 41
0
  0
VERTEX
  8
0
 10
400.865
 20
600.122
 30
0.0
 40
0
 41
0
  0
VERTEX
  8
0
 10
400.765
 20
599.846
 30
0.0
 40
0
 41
0
  0
VERTEX
  8
0
 10
400.639
 20
599.583
 30
0.0
 40
0
 41
0
  0
VERTEX
  8
0
 10
400.489
 20
599.336
 30
0.0
 40
0
 41
0
  0
VERTEX
  8
0
 10
400.315
 20
599.106
 30
0.0
 40
0
 41
0
  0
VERTEX
  8
0
 10
400.122
 20
598.893
 30
0.0
 40
0
 41
0
  0
VERTEX
  8
0
 10
399.908
 20
598.699
 30
0.0
 40
0
 41
0
  0
VERTEX
  8
0
 10
399.678
 20
598.526
 30
0.0
 40
0
 41
0
  0
VERTEX
  8
0
 10
399.431
 20
598.376
 30
0.0
 40
0
 41
0
  0
VERTEX
  8
0
 10
399.168
 20
598.25
 30
0.0
 40
0
 41
0
  0
VERTEX
  8
0
 10
398.893
 20
598.149
 30
0.0
 40
0
 41
0
  0
VERTEX
  8
0
 10
398.606
 20
598.075
 30
0.0
 40
0
 41
0
  0
VERTEX
  8
0
 10
398.307
 20
598.029
 30
0.0
 40
0
 41
0
  0
VERTEX
  8
0
 10
398.078
 20
598.014
 30
0.0
 40
0
 41
0
  0
VERTEX
  8
0
 10
398
 20
598.014
 30
0.0
 40
0
 41
0
  0
SEQEND
 8
0
  0
POLYLINE
  8
0
 62
     0
 66
     1
 10
0
 20
0
 30
0.0
 70
     1
 40
0
 41
0
  0
VERTEX
  8
0
 10
398
 20
215.014
 30
0.0
 40
0
 41
0
  0
VERTEX
  8
0
 10
397.924
 20
215.014
 30
0.0
 40
0
 41
0
  0
VERTEX
  8
0
 10
397.694
 20
215.029
 30
0.0
 40
0
 41
0
  0
VERTEX
  8
0
 10
397.396
 20
215.074
 30
0.0
 40
0
 41
0
  0
VERTEX
  8
0
 10
397.108
 20
215.149
 30
0.0
 40
0
 41
0
  0
VERTEX
  8
0
 10
396.833
 20
215.249
 30
0.0
 40
0
 41
0
  0
VERTEX
  8
0
 10
396.571
 20
215.375
 30
0.0
 40
0
 41
0
  0
VERTEX
  8
0
 10
396.324
 20
215.525
 30
0.0
 40
0
 41
0
  0
VERTEX
  8
0
 10
396.092
 20
215.699
 30
0.0
 40
0
 41
0
  0
VERTEX
  8
0
 10
395.879
 20
215.892
 30
0.0
 40
0
 41
0
  0
VERTEX
  8
0
 10
395.686
 20
216.106
 30
0.0
 40
0
 41
0
  0
VERTEX
  8
0
 10
395.513
 20
216.336
 30
0.0
 40
0
 41
0
  0
VERTEX
  8
0
 10
395.362
 20
216.583
 30
0.0
 40
0
 41
0
  0
VERTEX
  8
0
 10
395.236
 20
216.846
 30
0.0
 40
0
 41
0
  0
VERTEX
  8
0
 10
395.136
 20
217.121
 30
0.0
 40
0
 41
0
  0
VERTEX
  8
0
 10
395.061
 20
217.408
 30
0.0
 40
0
 41
0
  0
VERTEX
  8
0
 10
395.017
 20
217.707
 30
0.0
 40
0
 41
0
  0
VERTEX
  8
0
 10
395
 20
217.936
 30
0.0
 40
0
 41
0
  0
VERTEX
  8
0
 10
395
 20
218.014
 30
0.0
 40
0
 41
0
  0
VERTEX
  8
0
 10
395
 20
218.09
 30
0.0
 40
0
 41
0
  0
VERTEX
  8
0
 10
395.017
 20
218.319
 30
0.0
 40
0
 41
0
  0
VERTEX
  8
0
 10
395.061
 20
218.618
 30
0.0
 40
0
 41
0
  0
VERTEX
  8
0
 10
395.136
 20
218.906
 30
0.0
 40
0
 41
0
  0
VERTEX
  8
0
 10
395.236
 20
219.181
 30
0.0
 40
0
 41
0
  0
VERTEX
  8
0
 10
395.362
 20
219.443
 30
0.0
 40
0
 41
0
  0
VERTEX
  8
0
 10
395.513
 20
219.69
 30
0.0
 40
0
 41
0
  0
VERTEX
  8
0
 10
395.686
 20
219.922
 30
0.0
 40
0
 41
0
  0
VERTEX
  8
0
 10
395.879
 20
220.135
 30
0.0
 40
0
 41
0
  0
VERTEX
  8
0
 10
396.092
 20
220.328
 30
0.0
 40
0
 41
0
  0
VERTEX
  8
0
 10
396.324
 20
220.501
 30
0.0
 40
0
 41
0
  0
VERTEX
  8
0
 10
396.571
 20
220.651
 30
0.0
 40
0
 41
0
  0
VERTEX
  8
0
 10
396.833
 20
220.778
 30
0.0
 40
0
 41
0
  0
VERTEX
  8
0
 10
397.108
 20
220.878
 30
0.0
 40
0
 41
0
  0
VERTEX
  8
0
 10
397.396
 20
220.953
 30
0.0
 40
0
 41
0
  0
VERTEX
  8
0
 10
397.694
 20
220.997
 30
0.0
 40
0
 41
0
  0
VERTEX
  8
0
 10
397.924
 20
221.014
 30
0.0
 40
0
 41
0
  0
VERTEX
  8
0
 10
398
 20
221.014
 30
0.0
 40
0
 41
0
  0
VERTEX
  8
0
 10
398.078
 20
221.014
 30
0.0
 40
0
 41
0
  0
VERTEX
  8
0
 10
398.307
 20
220.997
 30
0.0
 40
0
 41
0
  0
VERTEX
  8
0
 10
398.606
 20
220.953
 30
0.0
 40
0
 41
0
  0
VERTEX
  8
0
 10
398.893
 20
220.878
 30
0.0
 40
0
 41
0
  0
VERTEX
  8
0
 10
399.168
 20
220.778
 30
0.0
 40
0
 41
0
  0
VERTEX
  8
0
 10
399.431
 20
220.651
 30
0.0
 40
0
 41
0
  0
VERTEX
  8
0
 10
399.678
 20
220.501
 30
0.0
 40
0
 41
0
  0
VERTEX
  8
0
 10
399.908
 20
220.328
 30
0.0
 40
0
 41
0
  0
VERTEX
  8
0
 10
400.122
 20
220.135
 30
0.0
 40
0
 41
0
  0
VERTEX
  8
0
 10
400.315
 20
219.922
 30
0.0
 40
0
 41
0
  0
VERTEX
  8
0
 10
400.489
 20
219.69
 30
0.0
 40
0
 41
0
  0
VERTEX
  8
0
 10
400.639
 20
219.443
 30
0.0
 40
0
 41
0
  0
VERTEX
  8
0
 10
400.765
 20
219.181
 30
0.0
 40
0
 41
0
  0
VERTEX
  8
0
 10
400.865
 20
218.906
 30
0.0
 40
0
 41
0
  0
VERTEX
  8
0
 10
400.94
 20
218.618
 30
0.0
 40
0
 41
0
  0
VERTEX
  8
0
 10
400.985
 20
218.319
 30
0.0
 40
0
 41
0
  0
VERTEX
  8
0
 10
401
 20
218.09
 30
0.0
 40
0
 41
0
  0
VERTEX
  8
0
 10
401
 20
218.014
 30
0.0
 40
0
 41
0
  0
VERTEX
  8
0
 10
401
 20
217.936
 30
0.0
 40
0
 41
0
  0
VERTEX
  8
0
 10
400.985
 20
217.707
 30
0.0
 40
0
 41
0
  0
VERTEX
  8
0
 10
400.94
 20
217.408
 30
0.0
 40
0
 41
0
  0
VERTEX
  8
0
 10
400.865
 20
217.121
 30
0.0
 40
0
 41
0
  0
VERTEX
  8
0
 10
400.765
 20
216.846
 30
0.0
 40
0
 41
0
  0
VERTEX
  8
0
 10
400.639
 20
216.583
 30
0.0
 40
0
 41
0
  0
VERTEX
  8
0
 10
400.489
 20
216.336
 30
0.0
 40
0
 41
0
  0
VERTEX
  8
0
 10
400.315
 20
216.106
 30
0.0
 40
0
 41
0
  0
VERTEX
  8
0
 10
400.122
 20
215.892
 30
0.0
 40
0
 41
0
  0
VERTEX
  8
0
 10
399.908
 20
215.699
 30
0.0
 40
0
 41
0
  0
VERTEX
  8
0
 10
399.678
 20
215.525
 30
0.0
 40
0
 41
0
  0
VERTEX
  8
0
 10
399.431
 20
215.375
 30
0.0
 40
0
 41
0
  0
VERTEX
  8
0
 10
399.168
 20
215.249
 30
0.0
 40
0
 41
0
  0
VERTEX
  8
0
 10
398.893
 20
215.149
 30
0.0
 40
0
 41
0
  0
VERTEX
  8
0
 10
398.606
 20
215.074
 30
0.0
 40
0
 41
0
  0
VERTEX
  8
0
 10
398.307
 20
215.029
 30
0.0
 40
0
 41
0
  0
VERTEX
  8
0
 10
398.078
 20
215.014
 30
0.0
 40
0
 41
0
  0
VERTEX
  8
0
 10
398
 20
215.014
 30
0.0
 40
0
 41
0
  0
SEQEND
 8
0
  0
POLYLINE
  8
0
 62
     0
 66
     1
 10
0
 20
0
 30
0.0
 70
     1
 40
0
 41
0
  0
VERTEX
  8
0
 10
218
 20
215.014
 30
0.0
 40
0
 41
0
  0
VERTEX
  8
0
 10
217.924
 20
215.014
 30
0.0
 40
0
 41
0
  0
VERTEX
  8
0
 10
217.693
 20
215.029
 30
0.0
 40
0
 41
0
  0
VERTEX
  8
0
 10
217.396
 20
215.074
 30
0.0
 40
0
 41
0
  0
VERTEX
  8
0
 10
217.108
 20
215.149
 30
0.0
 40
0
 41
0
  0
VERTEX
  8
0
 10
216.832
 20
215.249
 30
0.0
 40
0
 41
0
  0
VERTEX
  8
0
 10
216.571
 20
215.375
 30
0.0
 40
0
 41
0
  0
VERTEX
  8
0
 10
216.324
 20
215.525
 30
0.0
 40
0
 41
0
  0
VERTEX
  8
0
 10
216.092
 20
215.699
 30
0.0
 40
0
 41
0
  0
VERTEX
  8
0
 10
215.879
 20
215.892
 30
0.0
 40
0
 41
0
  0
VERTEX
  8
0
 10
215.685
 20
216.106
 30
0.0
 40
0
 41
0
  0
VERTEX
  8
0
 10
215.513
 20
216.336
 30
0.0
 40
0
 41
0
  0
VERTEX
  8
0
 10
215.362
 20
216.583
 30
0.0
 40
0
 41
0
  0
VERTEX
  8
0
 10
215.236
 20
216.846
 30
0.0
 40
0
 41
0
  0
VERTEX
  8
0
 10
215.135
 20
217.121
 30
0.0
 40
0
 41
0
  0
VERTEX
  8
0
 10
215.061
 20
217.408
 30
0.0
 40
0
 41
0
  0
VERTEX
  8
0
 10
215.015
 20
217.707
 30
0.0
 40
0
 41
0
  0
VERTEX
  8
0
 10
215
 20
217.936
 30
0.0
 40
0
 41
0
  0
VERTEX
  8
0
 10
215
 20
218.014
 30
0.0
 40
0
 41
0
  0
VERTEX
  8
0
 10
215
 20
218.09
 30
0.0
 40
0
 41
0
  0
VERTEX
  8
0
 10
215.015
 20
218.319
 30
0.0
 40
0
 41
0
  0
VERTEX
  8
0
 10
215.061
 20
218.618
 30
0.0
 40
0
 41
0
  0
VERTEX
  8
0
 10
215.135
 20
218.906
 30
0.0
 40
0
 41
0
  0
VERTEX
  8
0
 10
215.236
 20
219.181
 30
0.0
 40
0
 41
0
  0
VERTEX
  8
0
 10
215.362
 20
219.443
 30
0.0
 40
0
 41
0
  0
VERTEX
  8
0
 10
215.513
 20
219.69
 30
0.0
 40
0
 41
0
  0
VERTEX
  8
0
 10
215.685
 20
219.922
 30
0.0
 40
0
 41
0
  0
VERTEX
  8
0
 10
215.879
 20
220.135
 30
0.0
 40
0
 41
0
  0
VERTEX
  8
0
 10
216.092
 20
220.328
 30
0.0
 40
0
 41
0
  0
VERTEX
  8
0
 10
216.324
 20
220.501
 30
0.0
 40
0
 41
0
  0
VERTEX
  8
0
 10
216.571
 20
220.651
 30
0.0
 40
0
 41
0
  0
VERTEX
  8
0
 10
216.832
 20
220.778
 30
0.0
 40
0
 41
0
  0
VERTEX
  8
0
 10
217.108
 20
220.878
 30
0.0
 40
0
 41
0
  0
VERTEX
  8
0
 10
217.396
 20
220.953
 30
0.0
 40
0
 41
0
  0
VERTEX
  8
0
 10
217.693
 20
220.997
 30
0.0
 40
0
 41
0
  0
VERTEX
  8
0
 10
217.924
 20
221.014
 30
0.0
 40
0
 41
0
  0
VERTEX
  8
0
 10
218
 20
221.014
 30
0.0
 40
0
 41
0
  0
VERTEX
  8
0
 10
218.076
 20
221.014
 30
0.0
 40
0
 41
0
  0
VERTEX
  8
0
 10
218.307
 20
220.997
 30
0.0
 40
0
 41
0
  0
VERTEX
  8
0
 10
218.606
 20
220.953
 30
0.0
 40
0
 41
0
  0
VERTEX
  8
0
 10
218.893
 20
220.878
 30
0.0
 40
0
 41
0
  0
VERTEX
  8
0
 10
219.168
 20
220.778
 30
0.0
 40
0
 41
0
  0
VERTEX
  8
0
 10
219.431
 20
220.651
 30
0.0
 40
0
 41
0
  0
VERTEX
  8
0
 10
219.678
 20
220.501
 30
0.0
 40
0
 41
0
  0
VERTEX
  8
0
 10
219.908
 20
220.328
 30
0.0
 40
0
 41
0
  0
VERTEX
  8
0
 10
220.122
 20
220.135
 30
0.0
 40
0
 41
0
  0
VERTEX
  8
0
 10
220.315
 20
219.922
 30
0.0
 40
0
 41
0
  0
VERTEX
  8
0
 10
220.487
 20
219.69
 30
0.0
 40
0
 41
0
  0
VERTEX
  8
0
 10
220.639
 20
219.443
 30
0.0
 40
0
 41
0
  0
VERTEX
  8
0
 10
220.764
 20
219.181
 30
0.0
 40
0
 41
0
  0
VERTEX
  8
0
 10
220.865
 20
218.906
 30
0.0
 40
0
 41
0
  0
VERTEX
  8
0
 10
220.939
 20
218.618
 30
0.0
 40
0
 41
0
  0
VERTEX
  8
0
 10
220.985
 20
218.319
 30
0.0
 40
0
 41
0
  0
VERTEX
  8
0
 10
221
 20
218.09
 30
0.0
 40
0
 41
0
  0
VERTEX
  8
0
 10
221
 20
218.014
 30
0.0
 40
0
 41
0
  0
VERTEX
  8
0
 10
221
 20
217.936
 30
0.0
 40
0
 41
0
  0
VERTEX
  8
0
 10
220.985
 20
217.707
 30
0.0
 40
0
 41
0
  0
VERTEX
  8
0
 10
220.939
 20
217.408
 30
0.0
 40
0
 41
0
  0
VERTEX
  8
0
 10
220.865
 20
217.121
 30
0.0
 40
0
 41
0
  0
VERTEX
  8
0
 10
220.764
 20
216.846
 30
0.0
 40
0
 41
0
  0
VERTEX
  8
0
 10
220.639
 20
216.583
 30
0.0
 40
0
 41
0
  0
VERTEX
  8
0
 10
220.487
 20
216.336
 30
0.0
 40
0
 41
0
  0
VERTEX
  8
0
 10
220.315
 20
216.106
 30
0.0
 40
0
 41
0
  0
VERTEX
  8
0
 10
220.122
 20
215.892
 30
0.0
 40
0
 41
0
  0
VERTEX
  8
0
 10
219.908
 20
215.699
 30
0.0
 40
0
 41
0
  0
VERTEX
  8
0
 10
219.678
 20
215.525
 30
0.0
 40
0
 41
0
  0
VERTEX
  8
0
 10
219.431
 20
215.375
 30
0.0
 40
0
 41
0
  0
VERTEX
  8
0
 10
219.168
 20
215.249
 30
0.0
 40
0
 41
0
  0
VERTEX
  8
0
 10
218.893
 20
215.149
 30
0.0
 40
0
 41
0
  0
VERTEX
  8
0
 10
218.606
 20
215.074
 30
0.0
 40
0
 41
0
  0
VERTEX
  8
0
 10
218.307
 20
215.029
 30
0.0
 40
0
 41
0
  0
VERTEX
  8
0
 10
218.076
 20
215.014
 30
0.0
 40
0
 41
0
  0
VERTEX
  8
0
 10
218
 20
215.014
 30
0.0
 40
0
 41
0
  0
SEQEND
 8
0
  0
POLYLINE
  8
0
 62
     0
 66
     1
 10
0
 20
0
 30
0.0
 70
     1
 40
0
 41
0
  0
VERTEX
  8
0
 10
0
 20
192.014
 30
0.0
 40
0
 41
0
  0
VERTEX
  8
0
 10
395
 20
192.014
 30
0.0
 40
0
 41
0
  0
VERTEX
  8
0
 10
395
 20
0.0129666
 30
0.0
 40
0
 41
0
  0
VERTEX
  8
0
 10
0
 20
0.0129666
 30
0.0
 40
0
 41
0
  0
VERTEX
  8
0
 10
0
 20
192.014
 30
0.0
 40
0
 41
0
  0
SEQEND
 8
0
  0
POLYLINE
  8
0
 62
     0
 66
     1
 10
0
 20
0
 30
0.0
 70
     1
 40
0
 41
0
  0
VERTEX
  8
0
 10
8.10004
 20
186.014
 30
0.0
 40
0
 41
0
  0
VERTEX
  8
0
 10
8.10004
 20
185.96
 30
0.0
 40
0
 41
0
  0
VERTEX
  8
0
 10
8.08919
 20
185.799
 30
0.0
 40
0
 41
0
  0
VERTEX
  8
0
 10
8.05735
 20
185.59
 30
0.0
 40
0
 41
0
  0
VERTEX
  8
0
 10
8.00558
 20
185.389
 30
0.0
 40
0
 41
0
  0
VERTEX
  8
0
 10
7.935
 20
185.196
 30
0.0
 40
0
 41
0
  0
VERTEX
  8
0
 10
7.84657
 20
185.013
 30
0.0
 40
0
 41
0
  0
VERTEX
  8
0
 10
7.74138
 20
184.839
 30
0.0
 40
0
 41
0
  0
VERTEX
  8
0
 10
7.6205
 20
184.678
 30
0.0
 40
0
 41
0
  0
VERTEX
  8
0
 10
7.48492
 20
184.528
 30
0.0
 40
0
 41
0
  0
VERTEX
  8
0
 10
7.33578
 20
184.393
 30
0.0
 40
0
 41
0
  0
VERTEX
  8
0
 10
7.17415
 20
184.272
 30
0.0
 40
0
 41
0
  0
VERTEX
  8
0
 10
7.00097
 20
184.167
 30
0.0
 40
0
 41
0
  0
VERTEX
  8
0
 10
6.81739
 20
184.078
 30
0.0
 40
0
 41
0
  0
VERTEX
  8
0
 10
6.62446
 20
184.008
 30
0.0
 40
0
 41
0
  0
VERTEX
  8
0
 10
6.42324
 20
183.956
 30
0.0
 40
0
 41
0
  0
VERTEX
  8
0
 10
6.21468
 20
183.924
 30
0.0
 40
0
 41
0
  0
VERTEX
  8
0
 10
6.05365
 20
183.914
 30
0.0
 40
0
 41
0
  0
VERTEX
  8
0
 10
6
 20
183.914
 30
0.0
 40
0
 41
0
  0
VERTEX
  8
0
 10
5.94629
 20
183.914
 30
0.0
 40
0
 41
0
  0
VERTEX
  8
0
 10
5.78526
 20
183.924
 30
0.0
 40
0
 41
0
  0
VERTEX
  8
0
 10
5.57676
 20
183.956
 30
0.0
 40
0
 41
0
  0
VERTEX
  8
0
 10
5.37549
 20
184.008
 30
0.0
 40
0
 41
0
  0
VERTEX
  8
0
 10
5.18257
 20
184.078
 30
0.0
 40
0
 41
0
  0
VERTEX
  8
0
 10
4.99903
 20
184.167
 30
0.0
 40
0
 41
0
  0
VERTEX
  8
0
 10
4.82585
 20
184.272
 30
0.0
 40
0
 41
0
  0
VERTEX
  8
0
 10
4.66417
 20
184.393
 30
0.0
 40
0
 41
0
  0
VERTEX
  8
0
 10
4.51508
 20
184.528
 30
0.0
 40
0
 41
0
  0
VERTEX
  8
0
 10
4.3795
 20
184.678
 30
0.0
 40
0
 41
0
  0
VERTEX
  8
0
 10
4.25863
 20
184.839
 30
0.0
 40
0
 41
0
  0
VERTEX
  8
0
 10
4.15343
 20
185.013
 30
0.0
 40
0
 41
0
  0
VERTEX
  8
0
 10
4.065
 20
185.196
 30
0.0
 40
0
 41
0
  0
VERTEX
  8
0
 10
3.99442
 20
185.389
 30
0.0
 40
0
 41
0
  0
VERTEX
  8
0
 10
3.94265
 20
185.59
 30
0.0
 40
0
 41
0
  0
VERTEX
  8
0
 10
3.91081
 20
185.799
 30
0.0
 40
0
 41
0
  0
VERTEX
  8
0
 10
3.90001
 20
185.96
 30
0.0
 40
0
 41
0
  0
VERTEX
  8
0
 10
3.90001
 20
186.014
 30
0.0
 40
0
 41
0
  0
VERTEX
  8
0
 10
3.90001
 20
186.067
 30
0.0
 40
0
 41
0
  0
VERTEX
  8
0
 10
3.91081
 20
186.228
 30
0.0
 40
0
 41
0
  0
VERTEX
  8
0
 10
3.94265
 20
186.436
 30
0.0
 40
0
 41
0
  0
VERTEX
  8
0
 10
3.99442
 20
186.638
 30
0.0
 40
0
 41
0
  0
VERTEX
  8
0
 10
4.065
 20
186.831
 30
0.0
 40
0
 41
0
  0
VERTEX
  8
0
 10
4.15343
 20
187.014
 30
0.0
 40
0
 41
0
  0
VERTEX
  8
0
 10
4.25863
 20
187.188
 30
0.0
 40
0
 41
0
  0
VERTEX
  8
0
 10
4.3795
 20
187.349
 30
0.0
 40
0
 41
0
  0
VERTEX
  8
0
 10
4.51508
 20
187.499
 30
0.0
 40
0
 41
0
  0
VERTEX
  8
0
 10
4.66417
 20
187.633
 30
0.0
 40
0
 41
0
  0
VERTEX
  8
0
 10
4.82585
 20
187.754
 30
0.0
 40
0
 41
0
  0
VERTEX
  8
0
 10
4.99903
 20
187.86
 30
0.0
 40
0
 41
0
  0
VERTEX
  8
0
 10
5.18257
 20
187.949
 30
0.0
 40
0
 41
0
  0
VERTEX
  8
0
 10
5.37549
 20
188.019
 30
0.0
 40
0
 41
0
  0
VERTEX
  8
0
 10
5.57676
 20
188.071
 30
0.0
 40
0
 41
0
  0
VERTEX
  8
0
 10
5.78526
 20
188.103
 30
0.0
 40
0
 41
0
  0
VERTEX
  8
0
 10
5.94629
 20
188.114
 30
0.0
 40
0
 41
0
  0
VERTEX
  8
0
 10
6
 20
188.114
 30
0.0
 40
0
 41
0
  0
VERTEX
  8
0
 10
6.05365
 20
188.114
 30
0.0
 40
0
 41
0
  0
VERTEX
  8
0
 10
6.21468
 20
188.103
 30
0.0
 40
0
 41
0
  0
VERTEX
  8
0
 10
6.42324
 20
188.071
 30
0.0
 40
0
 41
0
  0
VERTEX
  8
0
 10
6.62446
 20
188.019
 30
0.0
 40
0
 41
0
  0
VERTEX
  8
0
 10
6.81739
 20
187.949
 30
0.0
 40
0
 41
0
  0
VERTEX
  8
0
 10
7.00097
 20
187.86
 30
0.0
 40
0
 41
0
  0
VERTEX
  8
0
 10
7.17415
 20
187.754
 30
0.0
 40
0
 41
0
  0
VERTEX
  8
0
 10
7.33578
 20
187.633
 30
0.0
 40
0
 41
0
  0
VERTEX
  8
0
 10
7.48492
 20
187.499
 30
0.0
 40
0
 41
0
  0
VERTEX
  8
0
 10
7.6205
 20
187.349
 30
0.0
 40
0
 41
0
  0
VERTEX
  8
0
 10
7.74138
 20
187.188
 30
0.0
 40
0
 41
0
  0
VERTEX
  8
0
 10
7.84657
 20
187.014
 30
0.0
 40
0
 41
0
  0
VERTEX
  8
0
 10
7.935
 20
186.831
 30
0.0
 40
0
 41
0
  0
VERTEX
  8
0
 10
8.00558
 20
186.638
 30
0.0
 40
0
 41
0
  0
VERTEX
  8
0
 10
8.05735
 20
186.436
 30
0.0
 40
0
 41
0
  0
VERTEX
  8
0
 10
8.08919
 20
186.228
 30
0.0
 40
0
 41
0
  0
VERTEX
  8
0
 10
8.10004
 20
186.067
 30
0.0
 40
0
 41
0
  0
VERTEX
  8
0
 10
8.10004
 20
186.014
 30
0.0
 40
0
 41
0
  0
SEQEND
 8
0
  0
POLYLINE
  8
0
 62
     0
 66
     1
 10
0
 20
0
 30
0.0
 70
     1
 40
0
 41
0
  0
VERTEX
  8
0
 10
391.1
 20
6.01303
 30
0.0
 40
0
 41
0
  0
VERTEX
  8
0
 10
391.1
 20
5.95936
 30
0.0
 40
0
 41
0
  0
VERTEX
  8
0
 10
391.09
 20
5.79833
 30
0.0
 40
0
 41
0
  0
VERTEX
  8
0
 10
391.058
 20
5.58979
 30
0.0
 40
0
 41
0
  0
VERTEX
  8
0
 10
391.006
 20
5.38857
 30
0.0
 40
0
 41
0
  0
VERTEX
  8
0
 10
390.936
 20
5.19564
 30
0.0
 40
0
 41
0
  0
VERTEX
  8
0
 10
390.847
 20
5.01204
 30
0.0
 40
0
 41
0
  0
VERTEX
  8
0
 10
390.742
 20
4.83886
 30
0.0
 40
0
 41
0
  0
VERTEX
  8
0
 10
390.621
 20
4.67725
 30
0.0
 40
0
 41
0
  0
VERTEX
  8
0
 10
390.486
 20
4.5281
 30
0.0
 40
0
 41
0
  0
VERTEX
  8
0
 10
390.336
 20
4.39253
 30
0.0
 40
0
 41
0
  0
VERTEX
  8
0
 10
390.175
 20
4.27165
 30
0.0
 40
0
 41
0
  0
VERTEX
  8
0
 10
390.001
 20
4.16644
 30
0.0
 40
0
 41
0
  0
VERTEX
  8
0
 10
389.818
 20
4.07801
 30
0.0
 40
0
 41
0
  0
VERTEX
  8
0
 10
389.625
 20
4.00743
 30
0.0
 40
0
 41
0
  0
VERTEX
  8
0
 10
389.424
 20
3.95568
 30
0.0
 40
0
 41
0
  0
VERTEX
  8
0
 10
389.215
 20
3.92383
 30
0.0
 40
0
 41
0
  0
VERTEX
  8
0
 10
389.054
 20
3.91297
 30
0.0
 40
0
 41
0
  0
VERTEX
  8
0
 10
389
 20
3.91297
 30
0.0
 40
0
 41
0
  0
VERTEX
  8
0
 10
388.947
 20
3.91297
 30
0.0
 40
0
 41
0
  0
VERTEX
  8
0
 10
388.786
 20
3.92383
 30
0.0
 40
0
 41
0
  0
VERTEX
  8
0
 10
388.578
 20
3.95568
 30
0.0
 40
0
 41
0
  0
VERTEX
  8
0
 10
388.376
 20
4.00743
 30
0.0
 40
0
 41
0
  0
VERTEX
  8
0
 10
388.183
 20
4.07801
 30
0.0
 40
0
 41
0
  0
VERTEX
  8
0
 10
388
 20
4.16644
 30
0.0
 40
0
 41
0
  0
VERTEX
  8
0
 10
387.826
 20
4.27165
 30
0.0
 40
0
 41
0
  0
VERTEX
  8
0
 10
387.665
 20
4.39253
 30
0.0
 40
0
 41
0
  0
VERTEX
  8
0
 10
387.515
 20
4.5281
 30
0.0
 40
0
 41
0
  0
VERTEX
  8
0
 10
387.381
 20
4.67725
 30
0.0
 40
0
 41
0
  0
VERTEX
  8
0
 10
387.26
 20
4.83886
 30
0.0
 40
0
 41
0
  0
VERTEX
  8
0
 10
387.154
 20
5.01204
 30
0.0
 40
0
 41
0
  0
VERTEX
  8
0
 10
387.065
 20
5.19564
 30
0.0
 40
0
 41
0
  0
VERTEX
  8
0
 10
386.994
 20
5.38857
 30
0.0
 40
0
 41
0
  0
VERTEX
  8
0
 10
386.943
 20
5.58979
 30
0.0
 40
0
 41
0
  0
VERTEX
  8
0
 10
386.911
 20
5.79833
 30
0.0
 40
0
 41
0
  0
VERTEX
  8
0
 10
386.9
 20
5.95936
 30
0.0
 40
0
 41
0
  0
VERTEX
  8
0
 10
386.9
 20
6.01303
 30
0.0
 40
0
 41
0
  0
VERTEX
  8
0
 10
386.9
 20
6.06674
 30
0.0
 40
0
 41
0
  0
VERTEX
  8
0
 10
386.911
 20
6.22775
 30
0.0
 40
0
 41
0
  0
VERTEX
  8
0
 10
386.943
 20
6.43625
 30
0.0
 40
0
 41
0
  0
VERTEX
  8
0
 10
386.994
 20
6.63753
 30
0.0
 40
0
 41
0
  0
VERTEX
  8
0
 10
387.065
 20
6.83046
 30
0.0
 40
0
 41
0
  0
VERTEX
  8
0
 10
387.154
 20
7.014
 30
0.0
 40
0
 41
0
  0
VERTEX
  8
0
 10
387.26
 20
7.18718
 30
0.0
 40
0
 41
0
  0
VERTEX
  8
0
 10
387.381
 20
7.34885
 30
0.0
 40
0
 41
0
  0
VERTEX
  8
0
 10
387.515
 20
7.49794
 30
0.0
 40
0
 41
0
  0
VERTEX
  8
0
 10
387.665
 20
7.63351
 30
0.0
 40
0
 41
0
  0
VERTEX
  8
0
 10
387.826
 20
7.75439
 30
0.0
 40
0
 41
0
  0
VERTEX
  8
0
 10
388
 20
7.8596
 30
0.0
 40
0
 41
0
  0
VERTEX
  8
0
 10
388.183
 20
7.94803
 30
0.0
 40
0
 41
0
  0
VERTEX
  8
0
 10
388.376
 20
8.01861
 30
0.0
 40
0
 41
0
  0
VERTEX
  8
0
 10
388.578
 20
8.07036
 30
0.0
 40
0
 41
0
  0
VERTEX
  8
0
 10
388.786
 20
8.10221
 30
0.0
 40
0
 41
0
  0
VERTEX
  8
0
 10
388.947
 20
8.11301
 30
0.0
 40
0
 41
0
  0
VERTEX
  8
0
 10
389
 20
8.11301
 30
0.0
 40
0
 41
0
  0
VERTEX
  8
0
 10
389.054
 20
8.11301
 30
0.0
 40
0
 41
0
  0
VERTEX
  8
0
 10
389.215
 20
8.10221
 30
0.0
 40
0
 41
0
  0
VERTEX
  8
0
 10
389.424
 20
8.07036
 30
0.0
 40
0
 41
0
  0
VERTEX
  8
0
 10
389.625
 20
8.01861
 30
0.0
 40
0
 41
0
  0
VERTEX
  8
0
 10
389.818
 20
7.94803
 30
0.0
 40
0
 41
0
  0
VERTEX
  8
0
 10
390.001
 20
7.8596
 30
0.0
 40
0
 41
0
  0
VERTEX
  8
0
 10
390.175
 20
7.75439
 30
0.0
 40
0
 41
0
  0
VERTEX
  8
0
 10
390.336
 20
7.63351
 30
0.0
 40
0
 41
0
  0
VERTEX
  8
0
 10
390.486
 20
7.49794
 30
0.0
 40
0
 41
0
  0
VERTEX
  8
0
 10
390.621
 20
7.34885
 30
0.0
 40
0
 41
0
  0
VERTEX
  8
0
 10
390.742
 20
7.18718
 30
0.0
 40
0
 41
0
  0
VERTEX
  8
0
 10
390.847
 20
7.014
 30
0.0
 40
0
 41
0
  0
VERTEX
  8
0
 10
390.936
 20
6.83046
 30
0.0
 40
0
 41
0
  0
VERTEX
  8
0
 10
391.006
 20
6.63753
 30
0.0
 40
0
 41
0
  0
VERTEX
  8
0
 10
391.058
 20
6.43625
 30
0.0
 40
0
 41
0
  0
VERTEX
  8
0
 10
391.09
 20
6.22775
 30
0.0
 40
0
 41
0
  0
VERTEX
  8
0
 10
391.1
 20
6.06674
 30
0.0
 40
0
 41
0
  0
VERTEX
  8
0
 10
391.1
 20
6.01303
 30
0.0
 40
0
 41
0
  0
SEQEND
 8
0
  0
POLYLINE
  8
0
 62
     0
 66
     1
 10
0
 20
0
 30
0.0
 70
     1
 40
0
 41
0
  0
VERTEX
  8
0
 10
8.10004
 20
6.01303
 30
0.0
 40
0
 41
0
  0
VERTEX
  8
0
 10
8.10004
 20
5.95936
 30
0.0
 40
0
 41
0
  0
VERTEX
  8
0
 10
8.08919
 20
5.79833
 30
0.0
 40
0
 41
0
  0
VERTEX
  8
0
 10
8.05735
 20
5.58979
 30
0.0
 40
0
 41
0
  0
VERTEX
  8
0
 10
8.00558
 20
5.38857
 30
0.0
 40
0
 41
0
  0
VERTEX
  8
0
 10
7.935
 20
5.19564
 30
0.0
 40
0
 41
0
  0
VERTEX
  8
0
 10
7.84657
 20
5.01204
 30
0.0
 40
0
 41
0
  0
VERTEX
  8
0
 10
7.74138
 20
4.83886
 30
0.0
 40
0
 41
0
  0
VERTEX
  8
0
 10
7.6205
 20
4.67725
 30
0.0
 40
0
 41
0
  0
VERTEX
  8
0
 10
7.48492
 20
4.5281
 30
0.0
 40
0
 41
0
  0
VERTEX
  8
0
 10
7.33578
 20
4.39253
 30
0.0
 40
0
 41
0
  0
VERTEX
  8
0
 10
7.17415
 20
4.27165
 30
0.0
 40
0
 41
0
  0
VERTEX
  8
0
 10
7.00097
 20
4.16644
 30
0.0
 40
0
 41
0
  0
VERTEX
  8
0
 10
6.81739
 20
4.07801
 30
0.0
 40
0
 41
0
  0
VERTEX
  8
0
 10
6.62446
 20
4.00743
 30
0.0
 40
0
 41
0
  0
VERTEX
  8
0
 10
6.42324
 20
3.95568
 30
0.0
 40
0
 41
0
  0
VERTEX
  8
0
 10
6.21468
 20
3.92383
 30
0.0
 40
0
 41
0
  0
VERTEX
  8
0
 10
6.05365
 20
3.91297
 30
0.0
 40
0
 41
0
  0
VERTEX
  8
0
 10
6
 20
3.91297
 30
0.0
 40
0
 41
0
  0
VERTEX
  8
0
 10
5.94629
 20
3.91297
 30
0.0
 40
0
 41
0
  0
VERTEX
  8
0
 10
5.78526
 20
3.92383
 30
0.0
 40
0
 41
0
  0
VERTEX
  8
0
 10
5.57676
 20
3.95568
 30
0.0
 40
0
 41
0
  0
VERTEX
  8
0
 10
5.37549
 20
4.00743
 30
0.0
 40
0
 41
0
  0
VERTEX
  8
0
 10
5.18257
 20
4.07801
 30
0.0
 40
0
 41
0
  0
VERTEX
  8
0
 10
4.99903
 20
4.16644
 30
0.0
 40
0
 41
0
  0
VERTEX
  8
0
 10
4.82585
 20
4.27165
 30
0.0
 40
0
 41
0
  0
VERTEX
  8
0
 10
4.66417
 20
4.39253
 30
0.0
 40
0
 41
0
  0
VERTEX
  8
0
 10
4.51508
 20
4.5281
 30
0.0
 40
0
 41
0
  0
VERTEX
  8
0
 10
4.3795
 20
4.67725
 30
0.0
 40
0
 41
0
  0
VERTEX
  8
0
 10
4.25863
 20
4.83886
 30
0.0
 40
0
 41
0
  0
VERTEX
  8
0
 10
4.15343
 20
5.01204
 30
0.0
 40
0
 41
0
  0
VERTEX
  8
0
 10
4.065
 20
5.19564
 30
0.0
 40
0
 41
0
  0
VERTEX
  8
0
 10
3.99442
 20
5.38857
 30
0.0
 40
0
 41
0
  0
VERTEX
  8
0
 10
3.94265
 20
5.58979
 30
0.0
 40
0
 41
0
  0
VERTEX
  8
0
 10
3.91081
 20
5.79833
 30
0.0
 40
0
 41
0
  0
VERTEX
  8
0
 10
3.90001
 20
5.95936
 30
0.0
 40
0
 41
0
  0
VERTEX
  8
0
 10
3.90001
 20
6.01303
 30
0.0
 40
0
 41
0
  0
VERTEX
  8
0
 10
3.90001
 20
6.06674
 30
0.0
 40
0
 41
0
  0
VERTEX
  8
0
 10
3.91081
 20
6.22775
 30
0.0
 40
0
 41
0
  0
VERTEX
  8
0
 10
3.94265
 20
6.43625
 30
0.0
 40
0
 41
0
  0
VERTEX
  8
0
 10
3.99442
 20
6.63753
 30
0.0
 40
0
 41
0
  0
VERTEX
  8
0
 10
4.065
 20
6.83046
 30
0.0
 40
0
 41
0
  0
VERTEX
  8
0
 10
4.15343
 20
7.014
 30
0.0
 40
0
 41
0
  0
VERTEX
  8
0
 10
4.25863
 20
7.18718
 30
0.0
 40
0
 41
0
  0
VERTEX
  8
0
 10
4.3795
 20
7.34885
 30
0.0
 40
0
 41
0
  0
VERTEX
  8
0
 10
4.51508
 20
7.49794
 30
0.0
 40
0
 41
0
  0
VERTEX
  8
0
 10
4.66417
 20
7.63351
 30
0.0
 40
0
 41
0
  0
VERTEX
  8
0
 10
4.82585
 20
7.75439
 30
0.0
 40
0
 41
0
  0
VERTEX
  8
0
 10
4.99903
 20
7.8596
 30
0.0
 40
0
 41
0
  0
VERTEX
  8
0
 10
5.18257
 20
7.94803
 30
0.0
 40
0
 41
0
  0
VERTEX
  8
0
 10
5.37549
 20
8.01861
 30
0.0
 40
0
 41
0
  0
VERTEX
  8
0
 10
5.57676
 20
8.07036
 30
0.0
 40
0
 41
0
  0
VERTEX
  8
0
 10
5.78526
 20
8.10221
 30
0.0
 40
0
 41
0
  0
VERTEX
  8
0
 10
5.94629
 20
8.11301
 30
0.0
 40
0
 41
0
  0
VERTEX
  8
0
 10
6
 20
8.11301
 30
0.0
 40
0
 41
0
  0
VERTEX
  8
0
 10
6.05365
 20
8.11301
 30
0.0
 40
0
 41
0
  0
VERTEX
  8
0
 10
6.21468
 20
8.10221
 30
0.0
 40
0
 41
0
  0
VERTEX
  8
0
 10
6.42324
 20
8.07036
 30
0.0
 40
0
 41
0
  0
VERTEX
  8
0
 10
6.62446
 20
8.01861
 30
0.0
 40
0
 41
0
  0
VERTEX
  8
0
 10
6.81739
 20
7.94803
 30
0.0
 40
0
 41
0
  0
VERTEX
  8
0
 10
7.00097
 20
7.8596
 30
0.0
 40
0
 41
0
  0
VERTEX
  8
0
 10
7.17415
 20
7.75439
 30
0.0
 40
0
 41
0
  0
VERTEX
  8
0
 10
7.33578
 20
7.63351
 30
0.0
 40
0
 41
0
  0
VERTEX
  8
0
 10
7.48492
 20
7.49794
 30
0.0
 40
0
 41
0
  0
VERTEX
  8
0
 10
7.6205
 20
7.34885
 30
0.0
 40
0
 41
0
  0
VERTEX
  8
0
 10
7.74138
 20
7.18718
 30
0.0
 40
0
 41
0
  0
VERTEX
  8
0
 10
7.84657
 20
7.014
 30
0.0
 40
0
 41
0
  0
VERTEX
  8
0
 10
7.935
 20
6.83046
 30
0.0
 40
0
 41
0
  0
VERTEX
  8
0
 10
8.00558
 20
6.63753
 30
0.0
 40
0
 41
0
  0
VERTEX
  8
0
 10
8.05735
 20
6.43625
 30
0.0
 40
0
 41
0
  0
VERTEX
  8
0
 10
8.08919
 20
6.22775
 30
0.0
 40
0
 41
0
  0
VERTEX
  8
0
 10
8.10004
 20
6.06674
 30
0.0
 40
0
 41
0
  0
VERTEX
  8
0
 10
8.10004
 20
6.01303
 30
0.0
 40
0
 41
0
  0
SEQEND
 8
0
  0
POLYLINE
  8
0
 62
     0
 66
     1
 10
0
 20
0
 30
0.0
 70
     1
 40
0
 41
0
  0
VERTEX
  8
0
 10
391.1
 20
186.014
 30
0.0
 40
0
 41
0
  0
VERTEX
  8
0
 10
391.1
 20
185.96
 30
0.0
 40
0
 41
0
  0
VERTEX
  8
0
 10
391.09
 20
185.799
 30
0.0
 40
0
 41
0
  0
VERTEX
  8
0
 10
391.058
 20
185.59
 30
0.0
 40
0
 41
0
  0
VERTEX
  8
0
 10
391.006
 20
185.389
 30
0.0
 40
0
 41
0
  0
VERTEX
  8
0
 10
390.936
 20
185.196
 30
0.0
 40
0
 41
0
  0
VERTEX
  8
0
 10
390.847
 20
185.013
 30
0.0
 40
0
 41
0
  0
VERTEX
  8
0
 10
390.742
 20
184.839
 30
0.0
 40
0
 41
0
  0
VERTEX
  8
0
 10
390.621
 20
184.678
 30
0.0
 40
0
 41
0
  0
VERTEX
  8
0
 10
390.486
 20
184.528
 30
0.0
 40
0
 41
0
  0
VERTEX
  8
0
 10
390.336
 20
184.393
 30
0.0
 40
0
 41
0
  0
VERTEX
  8
0
 10
390.175
 20
184.272
 30
0.0
 40
0
 41
0
  0
VERTEX
  8
0
 10
390.001
 20
184.167
 30
0.0
 40
0
 41
0
  0
VERTEX
  8
0
 10
389.818
 20
184.078
 30
0.0
 40
0
 41
0
  0
VERTEX
  8
0
 10
389.625
 20
184.008
 30
0.0
 40
0
 41
0
  0
VERTEX
  8
0
 10
389.424
 20
183.956
 30
0.0
 40
0
 41
0
  0
VERTEX
  8
0
 10
389.215
 20
183.924
 30
0.0
 40
0
 41
0
  0
VERTEX
  8
0
 10
389.054
 20
183.914
 30
0.0
 40
0
 41
0
  0
VERTEX
  8
0
 10
389
 20
183.914
 30
0.0
 40
0
 41
0
  0
VERTEX
  8
0
 10
388.947
 20
183.914
 30
0.0
 40
0
 41
0
  0
VERTEX
  8
0
 10
388.786
 20
183.924
 30
0.0
 40
0
 41
0
  0
VERTEX
  8
0
 10
388.578
 20
183.956
 30
0.0
 40
0
 41
0
  0
VERTEX
  8
0
 10
388.376
 20
184.008
 30
0.0
 40
0
 41
0
  0
VERTEX
  8
0
 10
388.183
 20
184.078
 30
0.0
 40
0
 41
0
  0
VERTEX
  8
0
 10
388
 20
184.167
 30
0.0
 40
0
 41
0
  0
VERTEX
  8
0
 10
387.826
 20
184.272
 30
0.0
 40
0
 41
0
  0
VERTEX
  8
0
 10
387.665
 20
184.393
 30
0.0
 40
0
 41
0
  0
VERTEX
  8
0
 10
387.515
 20
184.528
 30
0.0
 40
0
 41
0
  0
VERTEX
  8
0
 10
387.381
 20
184.678
 30
0.0
 40
0
 41
0
  0
VERTEX
  8
0
 10
387.26
 20
184.839
 30
0.0
 40
0
 41
0
  0
VERTEX
  8
0
 10
387.154
 20
185.013
 30
0.0
 40
0
 41
0
  0
VERTEX
  8
0
 10
387.065
 20
185.196
 30
0.0
 40
0
 41
0
  0
VERTEX
  8
0
 10
386.994
 20
185.389
 30
0.0
 40
0
 41
0
  0
VERTEX
  8
0
 10
386.943
 20
185.59
 30
0.0
 40
0
 41
0
  0
VERTEX
  8
0
 10
386.911
 20
185.799
 30
0.0
 40
0
 41
0
  0
VERTEX
  8
0
 10
386.9
 20
185.96
 30
0.0
 40
0
 41
0
  0
VERTEX
  8
0
 10
386.9
 20
186.014
 30
0.0
 40
0
 41
0
  0
VERTEX
  8
0
 10
386.9
 20
186.067
 30
0.0
 40
0
 41
0
  0
VERTEX
  8
0
 10
386.911
 20
186.228
 30
0.0
 40
0
 41
0
  0
VERTEX
  8
0
 10
386.943
 20
186.436
 30
0.0
 40
0
 41
0
  0
VERTEX
  8
0
 10
386.994
 20
186.638
 30
0.0
 40
0
 41
0
  0
VERTEX
  8
0
 10
387.065
 20
186.831
 30
0.0
 40
0
 41
0
  0
VERTEX
  8
0
 10
387.154
 20
187.014
 30
0.0
 40
0
 41
0
  0
VERTEX
  8
0
 10
387.26
 20
187.188
 30
0.0
 40
0
 41
0
  0
VERTEX
  8
0
 10
387.381
 20
187.349
 30
0.0
 40
0
 41
0
  0
VERTEX
  8
0
 10
387.515
 20
187.499
 30
0.0
 40
0
 41
0
  0
VERTEX
  8
0
 10
387.665
 20
187.633
 30
0.0
 40
0
 41
0
  0
VERTEX
  8
0
 10
387.826
 20
187.754
 30
0.0
 40
0
 41
0
  0
VERTEX
  8
0
 10
388
 20
187.86
 30
0.0
 40
0
 41
0
  0
VERTEX
  8
0
 10
388.183
 20
187.949
 30
0.0
 40
0
 41
0
  0
VERTEX
  8
0
 10
388.376
 20
188.019
 30
0.0
 40
0
 41
0
  0
VERTEX
  8
0
 10
388.578
 20
188.071
 30
0.0
 40
0
 41
0
  0
VERTEX
  8
0
 10
388.786
 20
188.103
 30
0.0
 40
0
 41
0
  0
VERTEX
  8
0
 10
388.947
 20
188.114
 30
0.0
 40
0
 41
0
  0
VERTEX
  8
0
 10
389
 20
188.114
 30
0.0
 40
0
 41
0
  0
VERTEX
  8
0
 10
389.054
 20
188.114
 30
0.0
 40
0
 41
0
  0
VERTEX
  8
0
 10
389.215
 20
188.103
 30
0.0
 40
0
 41
0
  0
VERTEX
  8
0
 10
389.424
 20
188.071
 30
0.0
 40
0
 41
0
  0
VERTEX
  8
0
 10
389.625
 20
188.019
 30
0.0
 40
0
 41
0
  0
VERTEX
  8
0
 10
389.818
 20
187.949
 30
0.0
 40
0
 41
0
  0
VERTEX
  8
0
 10
390.001
 20
187.86
 30
0.0
 40
0
 41
0
  0
VERTEX
  8
0
 10
390.175
 20
187.754
 30
0.0
 40
0
 41
0
  0
VERTEX
  8
0
 10
390.336
 20
187.633
 30
0.0
 40
0
 41
0
  0
VERTEX
  8
0
 10
390.486
 20
187.499
 30
0.0
 40
0
 41
0
  0
VERTEX
  8
0
 10
390.621
 20
187.349
 30
0.0
 40
0
 41
0
  0
VERTEX
  8
0
 10
390.742
 20
187.188
 30
0.0
 40
0
 41
0
  0
VERTEX
  8
0
 10
390.847
 20
187.014
 30
0.0
 40
0
 41
0
  0
VERTEX
  8
0
 10
390.936
 20
186.831
 30
0.0
 40
0
 41
0
  0
VERTEX
  8
0
 10
391.006
 20
186.638
 30
0.0
 40
0
 41
0
  0
VERTEX
  8
0
 10
391.058
 20
186.436
 30
0.0
 40
0
 41
0
  0
VERTEX
  8
0
 10
391.09
 20
186.228
 30
0.0
 40
0
 41
0
  0
VERTEX
  8
0
 10
391.1
 20
186.067
 30
0.0
 40
0
 41
0
  0
VERTEX
  8
0
 10
391.1
 20
186.014
 30
0.0
 40
0
 41
0
  0
SEQEND
 8
0
  0
POLYLINE
  8
0
 62
     0
 66
     1
 10
0
 20
0
 30
0.0
 70
     1
 40
0
 41
0
  0
VERTEX
  8
0
 10
424
 20
607.014
 30
0.0
 40
0
 41
0
  0
VERTEX
  8
0
 10
553.001
 20
607.014
 30
0.0
 40
0
 41
0
  0
VERTEX
  8
0
 10
553.001
 20
212.014
 30
0.0
 40
0
 41
0
  0
VERTEX
  8
0
 10
424
 20
212.014
 30
0.0
 40
0
 41
0
  0
VERTEX
  8
0
 10
424
 20
607.014
 30
0.0
 40
0
 41
0
  0
SEQEND
 8
0
  0
POLYLINE
  8
0
 62
     0
 66
     1
 10
0
 20
0
 30
0.0
 70
     1
 40
0
 41
0
  0
VERTEX
  8
0
 10
531.001
 20
236.014
 30
0.0
 40
0
 41
0
  0
VERTEX
  8
0
 10
530.833
 20
236.014
 30
0.0
 40
0
 41
0
  0
VERTEX
  8
0
 10
530.332
 20
236.031
 30
0.0
 40
0
 41
0
  0
VERTEX
  8
0
 10
529.667
 20
236.079
 30
0.0
 40
0
 41
0
  0
VERTEX
  8
0
 10
529.007
 20
236.161
 30
0.0
 40
0
 41
0
  0
VERTEX
  8
0
 10
528.354
 20
236.275
 30
0.0
 40
0
 41
0
  0
VERTEX
  8
0
 10
527.71
 20
236.421
 30
0.0
 40
0
 41
0
  0
VERTEX
  8
0
 10
527.075
 20
236.597
 30
0.0
 40
0
 41
0
  0
VERTEX
  8
0
 10
526.449
 20
236.804
 30
0.0
 40
0
 41
0
  0
VERTEX
  8
0
 10
525.835
 20
237.04
 30
0.0
 40
0
 41
0
  0
VERTEX
  8
0
 10
525.232
 20
237.308
 30
0.0
 40
0
 41
0
  0
VERTEX
  8
0
 10
524.643
 20
237.604
 30
0.0
 40
0
 41
0
  0
VERTEX
  8
0
 10
524.069
 20
237.929
 30
0.0
 40
0
 41
0
  0
VERTEX
  8
0
 10
523.511
 20
238.282
 30
0.0
 40
0
 41
0
  0
VERTEX
  8
0
 10
522.969
 20
238.662
 30
0.0
 40
0
 41
0
  0
VERTEX
  8
0
 10
522.444
 20
239.071
 30
0.0
 40
0
 41
0
  0
VERTEX
  8
0
 10
521.94
 20
239.506
 30
0.0
 40
0
 41
0
  0
VERTEX
  8
0
 10
521.574
 20
239.849
 30
0.0
 40
0
 41
0
  0
VERTEX
  8
0
 10
521.454
 20
239.968
 30
0.0
 40
0
 41
0
  0
VERTEX
  8
0
 10
521.336
 20
240.086
 30
0.0
 40
0
 41
0
  0
VERTEX
  8
0
 10
520.993
 20
240.453
 30
0.0
 40
0
 41
0
  0
VERTEX
  8
0
 10
520.558
 20
240.957
 30
0.0
 40
0
 41
0
  0
VERTEX
  8
0
 10
520.15
 20
241.482
 30
0.0
 40
0
 41
0
  0
VERTEX
  8
0
 10
519.769
 20
242.024
 30
0.0
 40
0
 41
0
  0
VERTEX
  8
0
 10
519.415
 20
242.582
 30
0.0
 40
0
 41
0
  0
VERTEX
  8
0
 10
519.092
 20
243.157
 30
0.0
 40
0
 41
0
  0
VERTEX
  8
0
 10
518.796
 20
243.744
 30
0.0
 40
0
 41
0
  0
VERTEX
  8
0
 10
518.528
 20
244.347
 30
0.0
 40
0
 41
0
  0
VERTEX
  8
0
 10
518.292
 20
244.961
 30
0.0
 40
0
 41
0
  0
VERTEX
  8
0
 10
518.085
 20
245.588
 30
0.0
 40
0
 41
0
  0
VERTEX
  8
0
 10
517.908
 20
246.222
 30
0.0
 40
0
 41
0
  0
VERTEX
  8
0
 10
517.762
 20
246.867
 30
0.0
 40
0
 41
0
  0
VERTEX
  8
0
 10
517.649
 20
247.519
 30
0.0
 40
0
 41
0
  0
VERTEX
  8
0
 10
517.567
 20
248.179
 30
0.0
 40
0
 41
0
  0
VERTEX
  8
0
 10
517.517
 20
248.844
 30
0.0
 40
0
 41
0
  0
VERTEX
  8
0
 10
517.501
 20
249.346
 30
0.0
 40
0
 41
0
  0
VERTEX
  8
0
 10
517.501
 20
249.514
 30
0.0
 40
0
 41
0
  0
VERTEX
  8
0
 10
517.501
 20
249.681
 30
0.0
 40
0
 41
0
  0
VERTEX
  8
0
 10
517.517
 20
250.183
 30
0.0
 40
0
 41
0
  0
VERTEX
  8
0
 10
517.567
 20
250.847
 30
0.0
 40
0
 41
0
  0
VERTEX
  8
0
 10
517.649
 20
251.507
 30
0.0
 40
0
 41
0
  0
VERTEX
  8
0
 10
517.762
 20
252.16
 30
0.0
 40
0
 41
0
  0
VERTEX
  8
0
 10
517.908
 20
252.804
 30
0.0
 40
0
 41
0
  0
VERTEX
  8
0
 10
518.085
 20
253.44
 30
0.0
 40
0
 41
0
  0
VERTEX
  8
0
 10
518.292
 20
254.065
 30
0.0
 40
0
 41
0
  0
VERTEX
  8
0
 10
518.528
 20
254.679
 30
0.0
 40
0
 41
0
  0
VERTEX
  8
0
 10
518.796
 20
255.282
 30
0.0
 40
0
 41
0
  0
VERTEX
  8
0
 10
519.092
 20
255.871
 30
0.0
 40
0
 41
0
  0
VERTEX
  8
0
 10
519.415
 20
256.444
 30
0.0
 40
0
 41
0
  0
VERTEX
  8
0
 10
519.769
 20
257.003
 30
0.0
 40
0
 41
0
  0
VERTEX
  8
0
 10
520.15
 20
257.544
 30
0.0
 40
0
 41
0
  0
VERTEX
  8
0
 10
520.558
 20
258.069
 30
0.0
 40
0
 41
0
  0
VERTEX
  8
0
 10
520.993
 20
258.574
 30
0.0
 40
0
 41
0
  0
VERTEX
  8
0
 10
521.336
 20
258.942
 30
0.0
 40
0
 41
0
  0
VERTEX
  8
0
 10
521.454
 20
259.06
 30
0.0
 40
0
 41
0
  0
VERTEX
  8
0
 10
521.574
 20
259.178
 30
0.0
 40
0
 41
0
  0
VERTEX
  8
0
 10
521.94
 20
259.521
 30
0.0
 40
0
 41
0
  0
VERTEX
  8
0
 10
522.444
 20
259.956
 30
0.0
 40
0
 41
0
  0
VERTEX
  8
0
 10
522.969
 20
260.364
 30
0.0
 40
0
 41
0
  0
VERTEX
  8
0
 10
523.511
 20
260.746
 30
0.0
 40
0
 41
0
  0
VERTEX
  8
0
 10
524.069
 20
261.099
 30
0.0
 40
0
 41
0
  0
VERTEX
  8
0
 10
524.643
 20
261.424
 30
0.0
 40
0
 41
0
  0
VERTEX
  8
0
 10
525.232
 20
261.719
 30
0.0
 40
0
 41
0
  0
VERTEX
  8
0
 10
525.835
 20
261.986
 30
0.0
 40
0
 41
0
  0
VERTEX
  8
0
 10
526.449
 20
262.222
 30
0.0
 40
0
 41
0
  0
VERTEX
  8
0
 10
527.075
 20
262.429
 30
0.0
 40
0
 41
0
  0
VERTEX
  8
0
 10
527.71
 20
262.606
 30
0.0
 40
0
 41
0
  0
VERTEX
  8
0
 10
528.354
 20
262.751
 30
0.0
 40
0
 41
0
  0
VERTEX
  8
0
 10
529.007
 20
262.865
 30
0.0
 40
0
 41
0
  0
VERTEX
  8
0
 10
529.667
 20
262.947
 30
0.0
 40
0
 41
0
  0
VERTEX
  8
0
 10
530.332
 20
262.997
 30
0.0
 40
0
 41
0
  0
VERTEX
  8
0
 10
530.833
 20
263.014
 30
0.0
 40
0
 41
0
  0
VERTEX
  8
0
 10
531.001
 20
263.014
 30
0.0
 40
0
 41
0
  0
VERTEX
  8
0
 10
531.168
 20
263.014
 30
0.0
 40
0
 41
0
  0
VERTEX
  8
0
 10
531.671
 20
262.997
 30
0.0
 40
0
 41
0
  0
VERTEX
  8
0
 10
532.335
 20
262.947
 30
0.0
 40
0
 41
0
  0
VERTEX
  8
0
 10
532.994
 20
262.865
 30
0.0
 40
0
 41
0
  0
VERTEX
  8
0
 10
533.647
 20
262.751
 30
0.0
 40
0
 41
0
  0
VERTEX
  8
0
 10
534.292
 20
262.606
 30
0.0
 40
0
 41
0
  0
VERTEX
  8
0
 10
534.926
 20
262.429
 30
0.0
 40
0
 41
0
  0
VERTEX
  8
0
 10
535.553
 20
262.222
 30
0.0
 40
0
 41
0
  0
VERTEX
  8
0
 10
536.167
 20
261.986
 30
0.0
 40
0
 41
0
  0
VERTEX
  8
0
 10
536.769
 20
261.719
 30
0.0
 40
0
 41
0
  0
VERTEX
  8
0
 10
537.358
 20
261.424
 30
0.0
 40
0
 41
0
  0
VERTEX
  8
0
 10
537.932
 20
261.099
 30
0.0
 40
0
 41
0
  0
VERTEX
  8
0
 10
538.49
 20
260.746
 30
0.0
 40
0
 41
0
  0
VERTEX
  8
0
 10
539.032
 20
260.364
 30
0.0
 40
0
 41
0
  0
VERTEX
  8
0
 10
539.557
 20
259.956
 30
0.0
 40
0
 41
0
  0
VERTEX
  8
0
 10
540.061
 20
259.521
 30
0.0
 40
0
 41
0
  0
VERTEX
  8
0
 10
540.428
 20
259.178
 30
0.0
 40
0
 41
0
  0
VERTEX
  8
0
 10
540.547
 20
259.06
 30
0.0
 40
0
 41
0
  0
VERTEX
  8
0
 10
540.665
 20
258.942
 30
0.0
 40
0
 41
0
  0
VERTEX
  8
0
 10
541.008
 20
258.574
 30
0.0
 40
0
 41
0
  0
VERTEX
  8
0
 10
541.443
 20
258.069
 30
0.0
 40
0
 41
0
  0
VERTEX
  8
0
 10
541.851
 20
257.544
 30
0.0
 40
0
 41
0
  0
VERTEX
  8
0
 10
542.232
 20
257.003
 30
0.0
 40
0
 41
0
  0
VERTEX
  8
0
 10
542.586
 20
256.444
 30
0.0
 40
0
 41
0
  0
VERTEX
  8
0
 10
542.91
 20
255.871
 30
0.0
 40
0
 41
0
  0
VERTEX
  8
0
 10
543.207
 20
255.282
 30
0.0
 40
0
 41
0
  0
VERTEX
  8
0
 10
543.474
 20
254.679
 30
0.0
 40
0
 41
0
  0
VERTEX
  8
0
 10
543.71
 20
254.065
 30
0.0
 40
0
 41
0
  0
VERTEX
  8
0
 10
543.917
 20
253.44
 30
0.0
 40
0
 41
0
  0
VERTEX
  8
0
 10
544.093
 20
252.804
 30
0.0
 40
0
 41
0
  0
VERTEX
  8
0
 10
544.239
 20
252.16
 30
0.0
 40
0
 41
0
  0
VERTEX
  8
0
 10
544.353
 20
251.507
 30
0.0
 40
0
 41
0
  0
VERTEX
  8
0
 10
544.435
 20
250.847
 30
0.0
 40
0
 41
0
  0
VERTEX
  8
0
 10
544.485
 20
250.183
 30
0.0
 40
0
 41
0
  0
VERTEX
  8
0
 10
544.501
 20
249.681
 30
0.0
 40
0
 41
0
  0
VERTEX
  8
0
 10
544.501
 20
249.514
 30
0.0
 40
0
 41
0
  0
VERTEX
  8
0
 10
544.501
 20
249.346
 30
0.0
 40
0
 41
0
  0
VERTEX
  8
0
 10
544.485
 20
248.844
 30
0.0
 40
0
 41
0
  0
VERTEX
  8
0
 10
544.435
 20
248.179
 30
0.0
 40
0
 41
0
  0
VERTEX
  8
0
 10
544.353
 20
247.519
 30
0.0
 40
0
 41
0
  0
VERTEX
  8
0
 10
544.239
 20
246.867
 30
0.0
 40
0
 41
0
  0
VERTEX
  8
0
 10
544.093
 20
246.222
 30
0.0
 40
0
 41
0
  0
VERTEX
  8
0
 10
543.917
 20
245.588
 30
0.0
 40
0
 41
0
  0
VERTEX
  8
0
 10
543.71
 20
244.961
 30
0.0
 40
0
 41
0
  0
VERTEX
  8
0
 10
543.474
 20
244.347
 30
0.0
 40
0
 41
0
  0
VERTEX
  8
0
 10
543.207
 20
243.744
 30
0.0
 40
0
 41
0
  0
VERTEX
  8
0
 10
542.91
 20
243.157
 30
0.0
 40
0
 41
0
  0
VERTEX
  8
0
 10
542.586
 20
242.582
 30
0.0
 40
0
 41
0
  0
VERTEX
  8
0
 10
542.232
 20
242.024
 30
0.0
 40
0
 41
0
  0
VERTEX
  8
0
 10
541.851
 20
241.482
 30
0.0
 40
0
 41
0
  0
VERTEX
  8
0
 10
541.443
 20
240.957
 30
0.0
 40
0
 41
0
  0
VERTEX
  8
0
 10
541.008
 20
240.453
 30
0.0
 40
0
 41
0
  0
VERTEX
  8
0
 10
540.665
 20
240.086
 30
0.0
 40
0
 41
0
  0
VERTEX
  8
0
 10
540.547
 20
239.968
 30
0.0
 40
0
 41
0
  0
VERTEX
  8
0
 10
540.428
 20
239.849
 30
0.0
 40
0
 41
0
  0
VERTEX
  8
0
 10
540.061
 20
239.506
 30
0.0
 40
0
 41
0
  0
VERTEX
  8
0
 10
539.557
 20
239.071
 30
0.0
 40
0
 41
0
  0
VERTEX
  8
0
 10
539.032
 20
238.662
 30
0.0
 40
0
 41
0
  0
VERTEX
  8
0
 10
538.49
 20
238.282
 30
0.0
 40
0
 41
0
  0
VERTEX
  8
0
 10
537.932
 20
237.929
 30
0.0
 40
0
 41
0
  0
VERTEX
  8
0
 10
537.358
 20
237.604
 30
0.0
 40
0
 41
0
  0
VERTEX
  8
0
 10
536.769
 20
237.308
 30
0.0
 40
0
 41
0
  0
VERTEX
  8
0
 10
536.167
 20
237.04
 30
0.0
 40
0
 41
0
  0
VERTEX
  8
0
 10
535.553
 20
236.804
 30
0.0
 40
0
 41
0
  0
VERTEX
  8
0
 10
534.926
 20
236.597
 30
0.0
 40
0
 41
0
  0
VERTEX
  8
0
 10
534.292
 20
236.421
 30
0.0
 40
0
 41
0
  0
VERTEX
  8
0
 10
533.647
 20
236.275
 30
0.0
 40
0
 41
0
  0
VERTEX
  8
0
 10
532.994
 20
236.161
 30
0.0
 40
0
 41
0
  0
VERTEX
  8
0
 10
532.335
 20
236.079
 30
0.0
 40
0
 41
0
  0
VERTEX
  8
0
 10
531.671
 20
236.031
 30
0.0
 40
0
 41
0
  0
VERTEX
  8
0
 10
531.168
 20
236.014
 30
0.0
 40
0
 41
0
  0
VERTEX
  8
0
 10
531.001
 20
236.014
 30
0.0
 40
0
 41
0
  0
SEQEND
 8
0
  0
POLYLINE
  8
0
 62
     0
 66
     1
 10
0
 20
0
 30
0.0
 70
     1
 40
0
 41
0
  0
VERTEX
  8
0
 10
531.001
 20
556.014
 30
0.0
 40
0
 41
0
  0
VERTEX
  8
0
 10
530.833
 20
556.014
 30
0.0
 40
0
 41
0
  0
VERTEX
  8
0
 10
530.332
 20
556.031
 30
0.0
 40
0
 41
0
  0
VERTEX
  8
0
 10
529.667
 20
556.081
 30
0.0
 40
0
 41
0
  0
VERTEX
  8
0
 10
529.007
 20
556.161
 30
0.0
 40
0
 41
0
  0
VERTEX
  8
0
 10
528.354
 20
556.275
 30
0.0
 40
0
 41
0
  0
VERTEX
  8
0
 10
527.71
 20
556.421
 30
0.0
 40
0
 41
0
  0
VERTEX
  8
0
 10
527.075
 20
556.597
 30
0.0
 40
0
 41
0
  0
VERTEX
  8
0
 10
526.449
 20
556.804
 30
0.0
 40
0
 41
0
  0
VERTEX
  8
0
 10
525.835
 20
557.042
 30
0.0
 40
0
 41
0
  0
VERTEX
  8
0
 10
525.232
 20
557.308
 30
0.0
 40
0
 41
0
  0
VERTEX
  8
0
 10
524.643
 20
557.604
 30
0.0
 40
0
 41
0
  0
VERTEX
  8
0
 10
524.069
 20
557.929
 30
0.0
 40
0
 41
0
  0
VERTEX
  8
0
 10
523.511
 20
558.282
 30
0.0
 40
0
 41
0
  0
VERTEX
  8
0
 10
522.969
 20
558.662
 30
0.0
 40
0
 41
0
  0
VERTEX
  8
0
 10
522.444
 20
559.071
 30
0.0
 40
0
 41
0
  0
VERTEX
  8
0
 10
521.94
 20
559.507
 30
0.0
 40
0
 41
0
  0
VERTEX
  8
0
 10
521.574
 20
559.85
 30
0.0
 40
0
 41
0
  0
VERTEX
  8
0
 10
521.454
 20
559.968
 30
0.0
 40
0
 41
0
  0
VERTEX
  8
0
 10
521.336
 20
560.086
 30
0.0
 40
0
 41
0
  0
VERTEX
  8
0
 10
520.993
 20
560.453
 30
0.0
 40
0
 41
0
  0
VERTEX
  8
0
 10
520.558
 20
560.958
 30
0.0
 40
0
 41
0
  0
VERTEX
  8
0
 10
520.15
 20
561.482
 30
0.0
 40
0
 41
0
  0
VERTEX
  8
0
 10
519.769
 20
562.024
 30
0.0
 40
0
 41
0
  0
VERTEX
  8
0
 10
519.415
 20
562.582
 30
0.0
 40
0
 41
0
  0
VERTEX
  8
0
 10
519.092
 20
563.157
 30
0.0
 40
0
 41
0
  0
VERTEX
  8
0
 10
518.796
 20
563.746
 30
0.0
 40
0
 41
0
  0
VERTEX
  8
0
 10
518.528
 20
564.347
 30
0.0
 40
0
 41
0
  0
VERTEX
  8
0
 10
518.292
 20
564.963
 30
0.0
 40
0
 41
0
  0
VERTEX
  8
0
 10
518.085
 20
565.588
 30
0.0
 40
0
 41
0
  0
VERTEX
  8
0
 10
517.908
 20
566.224
 30
0.0
 40
0
 41
0
  0
VERTEX
  8
0
 10
517.762
 20
566.868
 30
0.0
 40
0
 41
0
  0
VERTEX
  8
0
 10
517.649
 20
567.521
 30
0.0
 40
0
 41
0
  0
VERTEX
  8
0
 10
517.567
 20
568.179
 30
0.0
 40
0
 41
0
  0
VERTEX
  8
0
 10
517.517
 20
568.844
 30
0.0
 40
0
 41
0
  0
VERTEX
  8
0
 10
517.501
 20
569.346
 30
0.0
 40
0
 41
0
  0
VERTEX
  8
0
 10
517.501
 20
569.514
 30
0.0
 40
0
 41
0
  0
VERTEX
  8
0
 10
517.501
 20
569.681
 30
0.0
 40
0
 41
0
  0
VERTEX
  8
0
 10
517.517
 20
570.183
 30
0.0
 40
0
 41
0
  0
VERTEX
  8
0
 10
517.567
 20
570.849
 30
0.0
 40
0
 41
0
  0
VERTEX
  8
0
 10
517.649
 20
571.507
 30
0.0
 40
0
 41
0
  0
VERTEX
  8
0
 10
517.762
 20
572.16
 30
0.0
 40
0
 41
0
  0
VERTEX
  8
0
 10
517.908
 20
572.804
 30
0.0
 40
0
 41
0
  0
VERTEX
  8
0
 10
518.085
 20
573.44
 30
0.0
 40
0
 41
0
  0
VERTEX
  8
0
 10
518.292
 20
574.065
 30
0.0
 40
0
 41
0
  0
VERTEX
  8
0
 10
518.528
 20
574.681
 30
0.0
 40
0
 41
0
  0
VERTEX
  8
0
 10
518.796
 20
575.282
 30
0.0
 40
0
 41
0
  0
VERTEX
  8
0
 10
519.092
 20
575.871
 30
0.0
 40
0
 41
0
  0
VERTEX
  8
0
 10
519.415
 20
576.444
 30
0.0
 40
0
 41
0
  0
VERTEX
  8
0
 10
519.769
 20
577.004
 30
0.0
 40
0
 41
0
  0
VERTEX
  8
0
 10
520.15
 20
577.546
 30
0.0
 40
0
 41
0
  0
VERTEX
  8
0
 10
520.558
 20
578.069
 30
0.0
 40
0
 41
0
  0
VERTEX
  8
0
 10
520.993
 20
578.575
 30
0.0
 40
0
 41
0
  0
VERTEX
  8
0
 10
521.336
 20
578.942
 30
0.0
 40
0
 41
0
  0
VERTEX
  8
0
 10
521.454
 20
579.06
 30
0.0
 40
0
 41
0
  0
VERTEX
  8
0
 10
521.574
 20
579.178
 30
0.0
 40
0
 41
0
  0
VERTEX
  8
0
 10
521.94
 20
579.521
 30
0.0
 40
0
 41
0
  0
VERTEX
  8
0
 10
522.444
 20
579.957
 30
0.0
 40
0
 41
0
  0
VERTEX
  8
0
 10
522.969
 20
580.365
 30
0.0
 40
0
 41
0
  0
VERTEX
  8
0
 10
523.511
 20
580.746
 30
0.0
 40
0
 41
0
  0
VERTEX
  8
0
 10
524.069
 20
581.099
 30
0.0
 40
0
 41
0
  0
VERTEX
  8
0
 10
524.643
 20
581.424
 30
0.0
 40
0
 41
0
  0
VERTEX
  8
0
 10
525.232
 20
581.719
 30
0.0
 40
0
 41
0
  0
VERTEX
  8
0
 10
525.835
 20
581.986
 30
0.0
 40
0
 41
0
  0
VERTEX
  8
0
 10
526.449
 20
582.224
 30
0.0
 40
0
 41
0
  0
VERTEX
  8
0
 10
527.075
 20
582.431
 30
0.0
 40
0
 41
0
  0
VERTEX
  8
0
 10
527.71
 20
582.607
 30
0.0
 40
0
 41
0
  0
VERTEX
  8
0
 10
528.354
 20
582.751
 30
0.0
 40
0
 41
0
  0
VERTEX
  8
0
 10
529.007
 20
582.865
 30
0.0
 40
0
 41
0
  0
VERTEX
  8
0
 10
529.667
 20
582.947
 30
0.0
 40
0
 41
0
  0
VERTEX
  8
0
 10
530.332
 20
582.997
 30
0.0
 40
0
 41
0
  0
VERTEX
  8
0
 10
530.833
 20
583.014
 30
0.0
 40
0
 41
0
  0
VERTEX
  8
0
 10
531.001
 20
583.014
 30
0.0
 40
0
 41
0
  0
VERTEX
  8
0
 10
531.168
 20
583.014
 30
0.0
 40
0
 41
0
  0
VERTEX
  8
0
 10
531.671
 20
582.997
 30
0.0
 40
0
 41
0
  0
VERTEX
  8
0
 10
532.335
 20
582.947
 30
0.0
 40
0
 41
0
  0
VERTEX
  8
0
 10
532.994
 20
582.865
 30
0.0
 40
0
 41
0
  0
VERTEX
  8
0
 10
533.647
 20
582.751
 30
0.0
 40
0
 41
0
  0
VERTEX
  8
0
 10
534.292
 20
582.607
 30
0.0
 40
0
 41
0
  0
VERTEX
  8
0
 10
534.926
 20
582.431
 30
0.0
 40
0
 41
0
  0
VERTEX
  8
0
 10
535.553
 20
582.224
 30
0.0
 40
0
 41
0
  0
VERTEX
  8
0
 10
536.167
 20
581.986
 30
0.0
 40
0
 41
0
  0
VERTEX
  8
0
 10
536.769
 20
581.719
 30
0.0
 40
0
 41
0
  0
VERTEX
  8
0
 10
537.358
 20
581.424
 30
0.0
 40
0
 41
0
  0
VERTEX
  8
0
 10
537.932
 20
581.099
 30
0.0
 40
0
 41
0
  0
VERTEX
  8
0
 10
538.49
 20
580.746
 30
0.0
 40
0
 41
0
  0
VERTEX
  8
0
 10
539.032
 20
580.365
 30
0.0
 40
0
 41
0
  0
VERTEX
  8
0
 10
539.557
 20
579.957
 30
0.0
 40
0
 41
0
  0
VERTEX
  8
0
 10
540.061
 20
579.521
 30
0.0
 40
0
 41
0
  0
VERTEX
  8
0
 10
540.428
 20
579.178
 30
0.0
 40
0
 41
0
  0
VERTEX
  8
0
 10
540.547
 20
579.06
 30
0.0
 40
0
 41
0
  0
VERTEX
  8
0
 10
540.665
 20
578.942
 30
0.0
 40
0
 41
0
  0
VERTEX
  8
0
 10
541.008
 20
578.575
 30
0.0
 40
0
 41
0
  0
VERTEX
  8
0
 10
541.443
 20
578.069
 30
0.0
 40
0
 41
0
  0
VERTEX
  8
0
 10
541.851
 20
577.546
 30
0.0
 40
0
 41
0
  0
VERTEX
  8
0
 10
542.232
 20
577.004
 30
0.0
 40
0
 41
0
  0
VERTEX
  8
0
 10
542.586
 20
576.444
 30
0.0
 40
0
 41
0
  0
VERTEX
  8
0
 10
542.91
 20
575.871
 30
0.0
 40
0
 41
0
  0
VERTEX
  8
0
 10
543.207
 20
575.282
 30
0.0
 40
0
 41
0
  0
VERTEX
  8
0
 10
543.474
 20
574.681
 30
0.0
 40
0
 41
0
  0
VERTEX
  8
0
 10
543.71
 20
574.065
 30
0.0
 40
0
 41
0
  0
VERTEX
  8
0
 10
543.917
 20
573.44
 30
0.0
 40
0
 41
0
  0
VERTEX
  8
0
 10
544.093
 20
572.804
 30
0.0
 40
0
 41
0
  0
VERTEX
  8
0
 10
544.239
 20
572.16
 30
0.0
 40
0
 41
0
  0
VERTEX
  8
0
 10
544.353
 20
571.507
 30
0.0
 40
0
 41
0
  0
VERTEX
  8
0
 10
544.435
 20
570.849
 30
0.0
 40
0
 41
0
  0
VERTEX
  8
0
 10
544.485
 20
570.183
 30
0.0
 40
0
 41
0
  0
VERTEX
  8
0
 10
544.501
 20
569.681
 30
0.0
 40
0
 41
0
  0
VERTEX
  8
0
 10
544.501
 20
569.514
 30
0.0
 40
0
 41
0
  0
VERTEX
  8
0
 10
544.501
 20
569.346
 30
0.0
 40
0
 41
0
  0
VERTEX
  8
0
 10
544.485
 20
568.844
 30
0.0
 40
0
 41
0
  0
VERTEX
  8
0
 10
544.435
 20
568.179
 30
0.0
 40
0
 41
0
  0
VERTEX
  8
0
 10
544.353
 20
567.521
 30
0.0
 40
0
 41
0
  0
VERTEX
  8
0
 10
544.239
 20
566.868
 30
0.0
 40
0
 41
0
  0
VERTEX
  8
0
 10
544.093
 20
566.224
 30
0.0
 40
0
 41
0
  0
VERTEX
  8
0
 10
543.917
 20
565.588
 30
0.0
 40
0
 41
0
  0
VERTEX
  8
0
 10
543.71
 20
564.963
 30
0.0
 40
0
 41
0
  0
VERTEX
  8
0
 10
543.474
 20
564.347
 30
0.0
 40
0
 41
0
  0
VERTEX
  8
0
 10
543.207
 20
563.746
 30
0.0
 40
0
 41
0
  0
VERTEX
  8
0
 10
542.91
 20
563.157
 30
0.0
 40
0
 41
0
  0
VERTEX
  8
0
 10
542.586
 20
562.582
 30
0.0
 40
0
 41
0
  0
VERTEX
  8
0
 10
542.232
 20
562.024
 30
0.0
 40
0
 41
0
  0
VERTEX
  8
0
 10
541.851
 20
561.482
 30
0.0
 40
0
 41
0
  0
VERTEX
  8
0
 10
541.443
 20
560.958
 30
0.0
 40
0
 41
0
  0
VERTEX
  8
0
 10
541.008
 20
560.453
 30
0.0
 40
0
 41
0
  0
VERTEX
  8
0
 10
540.665
 20
560.086
 30
0.0
 40
0
 41
0
  0
VERTEX
  8
0
 10
540.547
 20
559.968
 30
0.0
 40
0
 41
0
  0
VERTEX
  8
0
 10
540.428
 20
559.85
 30
0.0
 40
0
 41
0
  0
VERTEX
  8
0
 10
540.061
 20
559.507
 30
0.0
 40
0
 41
0
  0
VERTEX
  8
0
 10
539.557
 20
559.071
 30
0.0
 40
0
 41
0
  0
VERTEX
  8
0
 10
539.032
 20
558.662
 30
0.0
 40
0
 41
0
  0
VERTEX
  8
0
 10
538.49
 20
558.282
 30
0.0
 40
0
 41
0
  0
VERTEX
  8
0
 10
537.932
 20
557.929
 30
0.0
 40
0
 41
0
  0
VERTEX
  8
0
 10
537.358
 20
557.604
 30
0.0
 40
0
 41
0
  0
VERTEX
  8
0
 10
536.769
 20
557.308
 30
0.0
 40
0
 41
0
  0
VERTEX
  8
0
 10
536.167
 20
557.042
 30
0.0
 40
0
 41
0
  0
VERTEX
  8
0
 10
535.553
 20
556.804
 30
0.0
 40
0
 41
0
  0
VERTEX
  8
0
 10
534.926
 20
556.597
 30
0.0
 40
0
 41
0
  0
VERTEX
  8
0
 10
534.292
 20
556.421
 30
0.0
 40
0
 41
0
  0
VERTEX
  8
0
 10
533.647
 20
556.275
 30
0.0
 40
0
 41
0
  0
VERTEX
  8
0
 10
532.994
 20
556.161
 30
0.0
 40
0
 41
0
  0
VERTEX
  8
0
 10
532.335
 20
556.081
 30
0.0
 40
0
 41
0
  0
VERTEX
  8
0
 10
531.671
 20
556.031
 30
0.0
 40
0
 41
0
  0
VERTEX
  8
0
 10
531.168
 20
556.014
 30
0.0
 40
0
 41
0
  0
VERTEX
  8
0
 10
531.001
 20
556.014
 30
0.0
 40
0
 41
0
  0
SEQEND
 8
0
  0
POLYLINE
  8
0
 62
     0
 66
     1
 10
0
 20
0
 30
0.0
 70
     1
 40
0
 41
0
  0
VERTEX
  8
0
 10
573.001
 20
607.014
 30
0.0
 40
0
 41
0
  0
VERTEX
  8
0
 10
702.001
 20
607.014
 30
0.0
 40
0
 41
0
  0
VERTEX
  8
0
 10
702.001
 20
212.014
 30
0.0
 40
0
 41
0
  0
VERTEX
  8
0
 10
573.001
 20
212.014
 30
0.0
 40
0
 41
0
  0
VERTEX
  8
0
 10
573.001
 20
607.014
 30
0.0
 40
0
 41
0
  0
SEQEND
 8
0
  0
POLYLINE
  8
0
 62
     0
 66
     1
 10
0
 20
0
 30
0.0
 70
     1
 40
0
 41
0
  0
VERTEX
  8
0
 10
415
 20
192.014
 30
0.0
 40
0
 41
0
  0
VERTEX
  8
0
 10
544.001
 20
192.014
 30
0.0
 40
0
 41
0
  0
VERTEX
  8
0
 10
544.001
 20
12.013
 30
0.0
 40
0
 41
0
  0
VERTEX
  8
0
 10
415
 20
12.013
 30
0.0
 40
0
 41
0
  0
VERTEX
  8
0
 10
415
 20
192.014
 30
0.0
 40
0
 41
0
  0
SEQEND
 8
0
  0
POLYLINE
  8
0
 62
     0
 66
     1
 10
0
 20
0
 30
0.0
 70
     1
 40
0
 41
0
  0
VERTEX
  8
0
 10
564.001
 20
192.014
 30
0.0
 40
0
 41
0
  0
VERTEX
  8
0
 10
744.001
 20
192.014
 30
0.0
 40
0
 41
0
  0
VERTEX
  8
0
 10
744.001
 20
63.0131
 30
0.0
 40
0
 41
0
  0
VERTEX
  8
0
 10
564.001
 20
63.0131
 30
0.0
 40
0
 41
0
  0
VERTEX
  8
0
 10
564.001
 20
192.014
 30
0.0
 40
0
 41
0
  0
SEQEND
 8
0
  0
ENDSEC
  0
EOF
