  0
SECTION
  2
HEADER
  9
$ACADVER
  1
AC1009
  9
$EXTMIN
 10
0.0
 20
0.0
 30
0.0
  9
$EXTMAX
 10
1000.0
 20
1000.0
 30
0.0
  9
$FILLMODE
 70
 0
  9
$SPLFRAME
 70
 1
  0
ENDSEC
  0
SECTION
  2
TABLES
  0
TABLE
  2
LAYER
 70
1
  0
LAYER
  2
0
 70
     0
 62
     7
  6
CONTINUOUS
  0
ENDTAB
  0
ENDSEC
  0
SECTION
  2
ENTITIES
  0
POLYLINE
  8
0
 62
     0
 66
     1
 10
0
 20
0
 30
0.0
 70
     1
 40
0
 41
0
  0
VERTEX
  8
0
 10
0
 20
395.014
 30
0.0
 40
0
 41
0
  0
VERTEX
  8
0
 10
192
 20
395.014
 30
0.0
 40
0
 41
0
  0
VERTEX
  8
0
 10
192
 20
0.0132921
 30
0.0
 40
0
 41
0
  0
VERTEX
  8
0
 10
0
 20
0.0132921
 30
0.0
 40
0
 41
0
  0
VERTEX
  8
0
 10
0
 20
395.014
 30
0.0
 40
0
 41
0
  0
SEQEND
 8
0
  0
POLYLINE
  8
0
 62
     0
 66
     1
 10
0
 20
0
 30
0.0
 70
     1
 40
0
 41
0
  0
VERTEX
  8
0
 10
186
 20
386.914
 30
0.0
 40
0
 41
0
  0
VERTEX
  8
0
 10
185.947
 20
386.914
 30
0.0
 40
0
 41
0
  0
VERTEX
  8
0
 10
185.786
 20
386.925
 30
0.0
 40
0
 41
0
  0
VERTEX
  8
0
 10
185.576
 20
386.957
 30
0.0
 40
0
 41
0
  0
VERTEX
  8
0
 10
185.376
 20
387.008
 30
0.0
 40
0
 41
0
  0
VERTEX
  8
0
 10
185.183
 20
387.079
 30
0.0
 40
0
 41
0
  0
VERTEX
  8
0
 10
184.999
 20
387.167
 30
0.0
 40
0
 41
0
  0
VERTEX
  8
0
 10
184.826
 20
387.272
 30
0.0
 40
0
 41
0
  0
VERTEX
  8
0
 10
184.664
 20
387.393
 30
0.0
 40
0
 41
0
  0
VERTEX
  8
0
 10
184.515
 20
387.529
 30
0.0
 40
0
 41
0
  0
VERTEX
  8
0
 10
184.379
 20
387.678
 30
0.0
 40
0
 41
0
  0
VERTEX
  8
0
 10
184.258
 20
387.84
 30
0.0
 40
0
 41
0
  0
VERTEX
  8
0
 10
184.154
 20
388.013
 30
0.0
 40
0
 41
0
  0
VERTEX
  8
0
 10
184.065
 20
388.196
 30
0.0
 40
0
 41
0
  0
VERTEX
  8
0
 10
183.994
 20
388.389
 30
0.0
 40
0
 41
0
  0
VERTEX
  8
0
 10
183.943
 20
388.59
 30
0.0
 40
0
 41
0
  0
VERTEX
  8
0
 10
183.911
 20
388.799
 30
0.0
 40
0
 41
0
  0
VERTEX
  8
0
 10
183.9
 20
388.96
 30
0.0
 40
0
 41
0
  0
VERTEX
  8
0
 10
183.9
 20
389.014
 30
0.0
 40
0
 41
0
  0
VERTEX
  8
0
 10
183.9
 20
389.068
 30
0.0
 40
0
 41
0
  0
VERTEX
  8
0
 10
183.911
 20
389.229
 30
0.0
 40
0
 41
0
  0
VERTEX
  8
0
 10
183.943
 20
389.438
 30
0.0
 40
0
 41
0
  0
VERTEX
  8
0
 10
183.994
 20
389.639
 30
0.0
 40
0
 41
0
  0
VERTEX
  8
0
 10
184.065
 20
389.832
 30
0.0
 40
0
 41
0
  0
VERTEX
  8
0
 10
184.154
 20
390.015
 30
0.0
 40
0
 41
0
  0
VERTEX
  8
0
 10
184.258
 20
390.188
 30
0.0
 40
0
 41
0
  0
VERTEX
  8
0
 10
184.379
 20
390.35
 30
0.0
 40
0
 41
0
  0
VERTEX
  8
0
 10
184.515
 20
390.499
 30
0.0
 40
0
 41
0
  0
VERTEX
  8
0
 10
184.664
 20
390.635
 30
0.0
 40
0
 41
0
  0
VERTEX
  8
0
 10
184.826
 20
390.756
 30
0.0
 40
0
 41
0
  0
VERTEX
  8
0
 10
184.999
 20
390.861
 30
0.0
 40
0
 41
0
  0
VERTEX
  8
0
 10
185.183
 20
390.949
 30
0.0
 40
0
 41
0
  0
VERTEX
  8
0
 10
185.376
 20
391.019
 30
0.0
 40
0
 41
0
  0
VERTEX
  8
0
 10
185.576
 20
391.071
 30
0.0
 40
0
 41
0
  0
VERTEX
  8
0
 10
185.786
 20
391.103
 30
0.0
 40
0
 41
0
  0
VERTEX
  8
0
 10
185.947
 20
391.114
 30
0.0
 40
0
 41
0
  0
VERTEX
  8
0
 10
186
 20
391.114
 30
0.0
 40
0
 41
0
  0
VERTEX
  8
0
 10
186.054
 20
391.114
 30
0.0
 40
0
 41
0
  0
VERTEX
  8
0
 10
186.215
 20
391.103
 30
0.0
 40
0
 41
0
  0
VERTEX
  8
0
 10
186.424
 20
391.071
 30
0.0
 40
0
 41
0
  0
VERTEX
  8
0
 10
186.625
 20
391.019
 30
0.0
 40
0
 41
0
  0
VERTEX
  8
0
 10
186.818
 20
390.949
 30
0.0
 40
0
 41
0
  0
VERTEX
  8
0
 10
187.001
 20
390.861
 30
0.0
 40
0
 41
0
  0
VERTEX
  8
0
 10
187.175
 20
390.756
 30
0.0
 40
0
 41
0
  0
VERTEX
  8
0
 10
187.336
 20
390.635
 30
0.0
 40
0
 41
0
  0
VERTEX
  8
0
 10
187.485
 20
390.499
 30
0.0
 40
0
 41
0
  0
VERTEX
  8
0
 10
187.621
 20
390.35
 30
0.0
 40
0
 41
0
  0
VERTEX
  8
0
 10
187.742
 20
390.188
 30
0.0
 40
0
 41
0
  0
VERTEX
  8
0
 10
187.847
 20
390.015
 30
0.0
 40
0
 41
0
  0
VERTEX
  8
0
 10
187.935
 20
389.832
 30
0.0
 40
0
 41
0
  0
VERTEX
  8
0
 10
188.006
 20
389.639
 30
0.0
 40
0
 41
0
  0
VERTEX
  8
0
 10
188.057
 20
389.438
 30
0.0
 40
0
 41
0
  0
VERTEX
  8
0
 10
188.089
 20
389.229
 30
0.0
 40
0
 41
0
  0
VERTEX
  8
0
 10
188.1
 20
389.068
 30
0.0
 40
0
 41
0
  0
VERTEX
  8
0
 10
188.1
 20
389.014
 30
0.0
 40
0
 41
0
  0
VERTEX
  8
0
 10
188.1
 20
388.96
 30
0.0
 40
0
 41
0
  0
VERTEX
  8
0
 10
188.089
 20
388.799
 30
0.0
 40
0
 41
0
  0
VERTEX
  8
0
 10
188.057
 20
388.59
 30
0.0
 40
0
 41
0
  0
VERTEX
  8
0
 10
188.006
 20
388.389
 30
0.0
 40
0
 41
0
  0
VERTEX
  8
0
 10
187.935
 20
388.196
 30
0.0
 40
0
 41
0
  0
VERTEX
  8
0
 10
187.847
 20
388.013
 30
0.0
 40
0
 41
0
  0
VERTEX
  8
0
 10
187.742
 20
387.84
 30
0.0
 40
0
 41
0
  0
VERTEX
  8
0
 10
187.621
 20
387.678
 30
0.0
 40
0
 41
0
  0
VERTEX
  8
0
 10
187.485
 20
387.529
 30
0.0
 40
0
 41
0
  0
VERTEX
  8
0
 10
187.336
 20
387.393
 30
0.0
 40
0
 41
0
  0
VERTEX
  8
0
 10
187.175
 20
387.272
 30
0.0
 40
0
 41
0
  0
VERTEX
  8
0
 10
187.001
 20
387.167
 30
0.0
 40
0
 41
0
  0
VERTEX
  8
0
 10
186.818
 20
387.079
 30
0.0
 40
0
 41
0
  0
VERTEX
  8
0
 10
186.625
 20
387.008
 30
0.0
 40
0
 41
0
  0
VERTEX
  8
0
 10
186.424
 20
386.957
 30
0.0
 40
0
 41
0
  0
VERTEX
  8
0
 10
186.215
 20
386.925
 30
0.0
 40
0
 41
0
  0
VERTEX
  8
0
 10
186.054
 20
386.914
 30
0.0
 40
0
 41
0
  0
VERTEX
  8
0
 10
186
 20
386.914
 30
0.0
 40
0
 41
0
  0
SEQEND
 8
0
  0
POLYLINE
  8
0
 62
     0
 66
     1
 10
0
 20
0
 30
0.0
 70
     1
 40
0
 41
0
  0
VERTEX
  8
0
 10
6
 20
3.91331
 30
0.0
 40
0
 41
0
  0
VERTEX
  8
0
 10
5.94629
 20
3.91331
 30
0.0
 40
0
 41
0
  0
VERTEX
  8
0
 10
5.78526
 20
3.92415
 30
0.0
 40
0
 41
0
  0
VERTEX
  8
0
 10
5.57676
 20
3.956
 30
0.0
 40
0
 41
0
  0
VERTEX
  8
0
 10
5.37549
 20
4.00776
 30
0.0
 40
0
 41
0
  0
VERTEX
  8
0
 10
5.18257
 20
4.07835
 30
0.0
 40
0
 41
0
  0
VERTEX
  8
0
 10
4.99903
 20
4.16678
 30
0.0
 40
0
 41
0
  0
VERTEX
  8
0
 10
4.82585
 20
4.27197
 30
0.0
 40
0
 41
0
  0
VERTEX
  8
0
 10
4.66417
 20
4.39285
 30
0.0
 40
0
 41
0
  0
VERTEX
  8
0
 10
4.51508
 20
4.52843
 30
0.0
 40
0
 41
0
  0
VERTEX
  8
0
 10
4.3795
 20
4.67751
 30
0.0
 40
0
 41
0
  0
VERTEX
  8
0
 10
4.25863
 20
4.83919
 30
0.0
 40
0
 41
0
  0
VERTEX
  8
0
 10
4.15343
 20
5.01237
 30
0.0
 40
0
 41
0
  0
VERTEX
  8
0
 10
4.065
 20
5.1959
 30
0.0
 40
0
 41
0
  0
VERTEX
  8
0
 10
3.99442
 20
5.38883
 30
0.0
 40
0
 41
0
  0
VERTEX
  8
0
 10
3.94265
 20
5.59011
 30
0.0
 40
0
 41
0
  0
VERTEX
  8
0
 10
3.91081
 20
5.79861
 30
0.0
 40
0
 41
0
  0
VERTEX
  8
0
 10
3.90001
 20
5.95964
 30
0.0
 40
0
 41
0
  0
VERTEX
  8
0
 10
3.90001
 20
6.01329
 30
0.0
 40
0
 41
0
  0
VERTEX
  8
0
 10
3.90001
 20
6.067
 30
0.0
 40
0
 41
0
  0
VERTEX
  8
0
 10
3.91081
 20
6.22803
 30
0.0
 40
0
 41
0
  0
VERTEX
  8
0
 10
3.94265
 20
6.43658
 30
0.0
 40
0
 41
0
  0
VERTEX
  8
0
 10
3.99442
 20
6.63781
 30
0.0
 40
0
 41
0
  0
VERTEX
  8
0
 10
4.065
 20
6.83074
 30
0.0
 40
0
 41
0
  0
VERTEX
  8
0
 10
4.15343
 20
7.01432
 30
0.0
 40
0
 41
0
  0
VERTEX
  8
0
 10
4.25863
 20
7.18744
 30
0.0
 40
0
 41
0
  0
VERTEX
  8
0
 10
4.3795
 20
7.34913
 30
0.0
 40
0
 41
0
  0
VERTEX
  8
0
 10
4.51508
 20
7.49826
 30
0.0
 40
0
 41
0
  0
VERTEX
  8
0
 10
4.66417
 20
7.63379
 30
0.0
 40
0
 41
0
  0
VERTEX
  8
0
 10
4.82585
 20
7.75467
 30
0.0
 40
0
 41
0
  0
VERTEX
  8
0
 10
4.99903
 20
7.85986
 30
0.0
 40
0
 41
0
  0
VERTEX
  8
0
 10
5.18257
 20
7.94829
 30
0.0
 40
0
 41
0
  0
VERTEX
  8
0
 10
5.37549
 20
8.01888
 30
0.0
 40
0
 41
0
  0
VERTEX
  8
0
 10
5.57676
 20
8.07064
 30
0.0
 40
0
 41
0
  0
VERTEX
  8
0
 10
5.78526
 20
8.10249
 30
0.0
 40
0
 41
0
  0
VERTEX
  8
0
 10
5.94629
 20
8.11328
 30
0.0
 40
0
 41
0
  0
VERTEX
  8
0
 10
6
 20
8.11328
 30
0.0
 40
0
 41
0
  0
VERTEX
  8
0
 10
6.05365
 20
8.11328
 30
0.0
 40
0
 41
0
  0
VERTEX
  8
0
 10
6.21468
 20
8.10249
 30
0.0
 40
0
 41
0
  0
VERTEX
  8
0
 10
6.42324
 20
8.07064
 30
0.0
 40
0
 41
0
  0
VERTEX
  8
0
 10
6.62446
 20
8.01888
 30
0.0
 40
0
 41
0
  0
VERTEX
  8
0
 10
6.81739
 20
7.94829
 30
0.0
 40
0
 41
0
  0
VERTEX
  8
0
 10
7.00097
 20
7.85986
 30
0.0
 40
0
 41
0
  0
VERTEX
  8
0
 10
7.1741
 20
7.75467
 30
0.0
 40
0
 41
0
  0
VERTEX
  8
0
 10
7.33578
 20
7.63379
 30
0.0
 40
0
 41
0
  0
VERTEX
  8
0
 10
7.48492
 20
7.49826
 30
0.0
 40
0
 41
0
  0
VERTEX
  8
0
 10
7.62044
 20
7.34913
 30
0.0
 40
0
 41
0
  0
VERTEX
  8
0
 10
7.74132
 20
7.18744
 30
0.0
 40
0
 41
0
  0
VERTEX
  8
0
 10
7.84651
 20
7.01432
 30
0.0
 40
0
 41
0
  0
VERTEX
  8
0
 10
7.93494
 20
6.83074
 30
0.0
 40
0
 41
0
  0
VERTEX
  8
0
 10
8.00553
 20
6.63781
 30
0.0
 40
0
 41
0
  0
VERTEX
  8
0
 10
8.05729
 20
6.43658
 30
0.0
 40
0
 41
0
  0
VERTEX
  8
0
 10
8.08914
 20
6.22803
 30
0.0
 40
0
 41
0
  0
VERTEX
  8
0
 10
8.09999
 20
6.067
 30
0.0
 40
0
 41
0
  0
VERTEX
  8
0
 10
8.09999
 20
6.01329
 30
0.0
 40
0
 41
0
  0
VERTEX
  8
0
 10
8.09999
 20
5.95964
 30
0.0
 40
0
 41
0
  0
VERTEX
  8
0
 10
8.08914
 20
5.79861
 30
0.0
 40
0
 41
0
  0
VERTEX
  8
0
 10
8.05729
 20
5.59011
 30
0.0
 40
0
 41
0
  0
VERTEX
  8
0
 10
8.00553
 20
5.38883
 30
0.0
 40
0
 41
0
  0
VERTEX
  8
0
 10
7.93494
 20
5.1959
 30
0.0
 40
0
 41
0
  0
VERTEX
  8
0
 10
7.84651
 20
5.01237
 30
0.0
 40
0
 41
0
  0
VERTEX
  8
0
 10
7.74132
 20
4.83919
 30
0.0
 40
0
 41
0
  0
VERTEX
  8
0
 10
7.62044
 20
4.67751
 30
0.0
 40
0
 41
0
  0
VERTEX
  8
0
 10
7.48492
 20
4.52843
 30
0.0
 40
0
 41
0
  0
VERTEX
  8
0
 10
7.33578
 20
4.39285
 30
0.0
 40
0
 41
0
  0
VERTEX
  8
0
 10
7.1741
 20
4.27197
 30
0.0
 40
0
 41
0
  0
VERTEX
  8
0
 10
7.00097
 20
4.16678
 30
0.0
 40
0
 41
0
  0
VERTEX
  8
0
 10
6.81739
 20
4.07835
 30
0.0
 40
0
 41
0
  0
VERTEX
  8
0
 10
6.62446
 20
4.00776
 30
0.0
 40
0
 41
0
  0
VERTEX
  8
0
 10
6.42324
 20
3.956
 30
0.0
 40
0
 41
0
  0
VERTEX
  8
0
 10
6.21468
 20
3.92415
 30
0.0
 40
0
 41
0
  0
VERTEX
  8
0
 10
6.05365
 20
3.91331
 30
0.0
 40
0
 41
0
  0
VERTEX
  8
0
 10
6
 20
3.91331
 30
0.0
 40
0
 41
0
  0
SEQEND
 8
0
  0
POLYLINE
  8
0
 62
     0
 66
     1
 10
0
 20
0
 30
0.0
 70
     1
 40
0
 41
0
  0
VERTEX
  8
0
 10
6
 20
386.914
 30
0.0
 40
0
 41
0
  0
VERTEX
  8
0
 10
5.94629
 20
386.914
 30
0.0
 40
0
 41
0
  0
VERTEX
  8
0
 10
5.78526
 20
386.925
 30
0.0
 40
0
 41
0
  0
VERTEX
  8
0
 10
5.57676
 20
386.957
 30
0.0
 40
0
 41
0
  0
VERTEX
  8
0
 10
5.37549
 20
387.008
 30
0.0
 40
0
 41
0
  0
VERTEX
  8
0
 10
5.18257
 20
387.079
 30
0.0
 40
0
 41
0
  0
VERTEX
  8
0
 10
4.99903
 20
387.167
 30
0.0
 40
0
 41
0
  0
VERTEX
  8
0
 10
4.82585
 20
387.272
 30
0.0
 40
0
 41
0
  0
VERTEX
  8
0
 10
4.66417
 20
387.393
 30
0.0
 40
0
 41
0
  0
VERTEX
  8
0
 10
4.51508
 20
387.529
 30
0.0
 40
0
 41
0
  0
VERTEX
  8
0
 10
4.3795
 20
387.678
 30
0.0
 40
0
 41
0
  0
VERTEX
  8
0
 10
4.25863
 20
387.84
 30
0.0
 40
0
 41
0
  0
VERTEX
  8
0
 10
4.15343
 20
388.013
 30
0.0
 40
0
 41
0
  0
VERTEX
  8
0
 10
4.065
 20
388.196
 30
0.0
 40
0
 41
0
  0
VERTEX
  8
0
 10
3.99442
 20
388.389
 30
0.0
 40
0
 41
0
  0
VERTEX
  8
0
 10
3.94265
 20
388.59
 30
0.0
 40
0
 41
0
  0
VERTEX
  8
0
 10
3.91081
 20
388.799
 30
0.0
 40
0
 41
0
  0
VERTEX
  8
0
 10
3.90001
 20
388.96
 30
0.0
 40
0
 41
0
  0
VERTEX
  8
0
 10
3.90001
 20
389.014
 30
0.0
 40
0
 41
0
  0
VERTEX
  8
0
 10
3.90001
 20
389.068
 30
0.0
 40
0
 41
0
  0
VERTEX
  8
0
 10
3.91081
 20
389.229
 30
0.0
 40
0
 41
0
  0
VERTEX
  8
0
 10
3.94265
 20
389.438
 30
0.0
 40
0
 41
0
  0
VERTEX
  8
0
 10
3.99442
 20
389.639
 30
0.0
 40
0
 41
0
  0
VERTEX
  8
0
 10
4.065
 20
389.832
 30
0.0
 40
0
 41
0
  0
VERTEX
  8
0
 10
4.15343
 20
390.015
 30
0.0
 40
0
 41
0
  0
VERTEX
  8
0
 10
4.25863
 20
390.188
 30
0.0
 40
0
 41
0
  0
VERTEX
  8
0
 10
4.3795
 20
390.35
 30
0.0
 40
0
 41
0
  0
VERTEX
  8
0
 10
4.51508
 20
390.499
 30
0.0
 40
0
 41
0
  0
VERTEX
  8
0
 10
4.66417
 20
390.635
 30
0.0
 40
0
 41
0
  0
VERTEX
  8
0
 10
4.82585
 20
390.756
 30
0.0
 40
0
 41
0
  0
VERTEX
  8
0
 10
4.99903
 20
390.861
 30
0.0
 40
0
 41
0
  0
VERTEX
  8
0
 10
5.18257
 20
390.949
 30
0.0
 40
0
 41
0
  0
VERTEX
  8
0
 10
5.37549
 20
391.019
 30
0.0
 40
0
 41
0
  0
VERTEX
  8
0
 10
5.57676
 20
391.071
 30
0.0
 40
0
 41
0
  0
VERTEX
  8
0
 10
5.78526
 20
391.103
 30
0.0
 40
0
 41
0
  0
VERTEX
  8
0
 10
5.94629
 20
391.114
 30
0.0
 40
0
 41
0
  0
VERTEX
  8
0
 10
6
 20
391.114
 30
0.0
 40
0
 41
0
  0
VERTEX
  8
0
 10
6.05365
 20
391.114
 30
0.0
 40
0
 41
0
  0
VERTEX
  8
0
 10
6.21468
 20
391.103
 30
0.0
 40
0
 41
0
  0
VERTEX
  8
0
 10
6.42324
 20
391.071
 30
0.0
 40
0
 41
0
  0
VERTEX
  8
0
 10
6.62446
 20
391.019
 30
0.0
 40
0
 41
0
  0
VERTEX
  8
0
 10
6.81739
 20
390.949
 30
0.0
 40
0
 41
0
  0
VERTEX
  8
0
 10
7.00097
 20
390.861
 30
0.0
 40
0
 41
0
  0
VERTEX
  8
0
 10
7.1741
 20
390.756
 30
0.0
 40
0
 41
0
  0
VERTEX
  8
0
 10
7.33578
 20
390.635
 30
0.0
 40
0
 41
0
  0
VERTEX
  8
0
 10
7.48492
 20
390.499
 30
0.0
 40
0
 41
0
  0
VERTEX
  8
0
 10
7.62044
 20
390.35
 30
0.0
 40
0
 41
0
  0
VERTEX
  8
0
 10
7.74132
 20
390.188
 30
0.0
 40
0
 41
0
  0
VERTEX
  8
0
 10
7.84651
 20
390.015
 30
0.0
 40
0
 41
0
  0
VERTEX
  8
0
 10
7.93494
 20
389.832
 30
0.0
 40
0
 41
0
  0
VERTEX
  8
0
 10
8.00553
 20
389.639
 30
0.0
 40
0
 41
0
  0
VERTEX
  8
0
 10
8.05729
 20
389.438
 30
0.0
 40
0
 41
0
  0
VERTEX
  8
0
 10
8.08914
 20
389.229
 30
0.0
 40
0
 41
0
  0
VERTEX
  8
0
 10
8.09999
 20
389.068
 30
0.0
 40
0
 41
0
  0
VERTEX
  8
0
 10
8.09999
 20
389.014
 30
0.0
 40
0
 41
0
  0
VERTEX
  8
0
 10
8.09999
 20
388.96
 30
0.0
 40
0
 41
0
  0
VERTEX
  8
0
 10
8.08914
 20
388.799
 30
0.0
 40
0
 41
0
  0
VERTEX
  8
0
 10
8.05729
 20
388.59
 30
0.0
 40
0
 41
0
  0
VERTEX
  8
0
 10
8.00553
 20
388.389
 30
0.0
 40
0
 41
0
  0
VERTEX
  8
0
 10
7.93494
 20
388.196
 30
0.0
 40
0
 41
0
  0
VERTEX
  8
0
 10
7.84651
 20
388.013
 30
0.0
 40
0
 41
0
  0
VERTEX
  8
0
 10
7.74132
 20
387.84
 30
0.0
 40
0
 41
0
  0
VERTEX
  8
0
 10
7.62044
 20
387.678
 30
0.0
 40
0
 41
0
  0
VERTEX
  8
0
 10
7.48492
 20
387.529
 30
0.0
 40
0
 41
0
  0
VERTEX
  8
0
 10
7.33578
 20
387.393
 30
0.0
 40
0
 41
0
  0
VERTEX
  8
0
 10
7.1741
 20
387.272
 30
0.0
 40
0
 41
0
  0
VERTEX
  8
0
 10
7.00097
 20
387.167
 30
0.0
 40
0
 41
0
  0
VERTEX
  8
0
 10
6.81739
 20
387.079
 30
0.0
 40
0
 41
0
  0
VERTEX
  8
0
 10
6.62446
 20
387.008
 30
0.0
 40
0
 41
0
  0
VERTEX
  8
0
 10
6.42324
 20
386.957
 30
0.0
 40
0
 41
0
  0
VERTEX
  8
0
 10
6.21468
 20
386.925
 30
0.0
 40
0
 41
0
  0
VERTEX
  8
0
 10
6.05365
 20
386.914
 30
0.0
 40
0
 41
0
  0
VERTEX
  8
0
 10
6
 20
386.914
 30
0.0
 40
0
 41
0
  0
SEQEND
 8
0
  0
POLYLINE
  8
0
 62
     0
 66
     1
 10
0
 20
0
 30
0.0
 70
     1
 40
0
 41
0
  0
VERTEX
  8
0
 10
186
 20
3.91331
 30
0.0
 40
0
 41
0
  0
VERTEX
  8
0
 10
185.947
 20
3.91331
 30
0.0
 40
0
 41
0
  0
VERTEX
  8
0
 10
185.786
 20
3.92415
 30
0.0
 40
0
 41
0
  0
VERTEX
  8
0
 10
185.576
 20
3.956
 30
0.0
 40
0
 41
0
  0
VERTEX
  8
0
 10
185.376
 20
4.00776
 30
0.0
 40
0
 41
0
  0
VERTEX
  8
0
 10
185.183
 20
4.07835
 30
0.0
 40
0
 41
0
  0
VERTEX
  8
0
 10
184.999
 20
4.16678
 30
0.0
 40
0
 41
0
  0
VERTEX
  8
0
 10
184.826
 20
4.27197
 30
0.0
 40
0
 41
0
  0
VERTEX
  8
0
 10
184.664
 20
4.39285
 30
0.0
 40
0
 41
0
  0
VERTEX
  8
0
 10
184.515
 20
4.52843
 30
0.0
 40
0
 41
0
  0
VERTEX
  8
0
 10
184.379
 20
4.67751
 30
0.0
 40
0
 41
0
  0
VERTEX
  8
0
 10
184.258
 20
4.83919
 30
0.0
 40
0
 41
0
  0
VERTEX
  8
0
 10
184.154
 20
5.01237
 30
0.0
 40
0
 41
0
  0
VERTEX
  8
0
 10
184.065
 20
5.1959
 30
0.0
 40
0
 41
0
  0
VERTEX
  8
0
 10
183.994
 20
5.38883
 30
0.0
 40
0
 41
0
  0
VERTEX
  8
0
 10
183.943
 20
5.59011
 30
0.0
 40
0
 41
0
  0
VERTEX
  8
0
 10
183.911
 20
5.79861
 30
0.0
 40
0
 41
0
  0
VERTEX
  8
0
 10
183.9
 20
5.95964
 30
0.0
 40
0
 41
0
  0
VERTEX
  8
0
 10
183.9
 20
6.01329
 30
0.0
 40
0
 41
0
  0
VERTEX
  8
0
 10
183.9
 20
6.067
 30
0.0
 40
0
 41
0
  0
VERTEX
  8
0
 10
183.911
 20
6.22803
 30
0.0
 40
0
 41
0
  0
VERTEX
  8
0
 10
183.943
 20
6.43658
 30
0.0
 40
0
 41
0
  0
VERTEX
  8
0
 10
183.994
 20
6.63781
 30
0.0
 40
0
 41
0
  0
VERTEX
  8
0
 10
184.065
 20
6.83074
 30
0.0
 40
0
 41
0
  0
VERTEX
  8
0
 10
184.154
 20
7.01432
 30
0.0
 40
0
 41
0
  0
VERTEX
  8
0
 10
184.258
 20
7.18744
 30
0.0
 40
0
 41
0
  0
VERTEX
  8
0
 10
184.379
 20
7.34913
 30
0.0
 40
0
 41
0
  0
VERTEX
  8
0
 10
184.515
 20
7.49826
 30
0.0
 40
0
 41
0
  0
VERTEX
  8
0
 10
184.664
 20
7.63379
 30
0.0
 40
0
 41
0
  0
VERTEX
  8
0
 10
184.826
 20
7.75467
 30
0.0
 40
0
 41
0
  0
VERTEX
  8
0
 10
184.999
 20
7.85986
 30
0.0
 40
0
 41
0
  0
VERTEX
  8
0
 10
185.183
 20
7.94829
 30
0.0
 40
0
 41
0
  0
VERTEX
  8
0
 10
185.376
 20
8.01888
 30
0.0
 40
0
 41
0
  0
VERTEX
  8
0
 10
185.576
 20
8.07064
 30
0.0
 40
0
 41
0
  0
VERTEX
  8
0
 10
185.786
 20
8.10249
 30
0.0
 40
0
 41
0
  0
VERTEX
  8
0
 10
185.947
 20
8.11328
 30
0.0
 40
0
 41
0
  0
VERTEX
  8
0
 10
186
 20
8.11328
 30
0.0
 40
0
 41
0
  0
VERTEX
  8
0
 10
186.054
 20
8.11328
 30
0.0
 40
0
 41
0
  0
VERTEX
  8
0
 10
186.215
 20
8.10249
 30
0.0
 40
0
 41
0
  0
VERTEX
  8
0
 10
186.424
 20
8.07064
 30
0.0
 40
0
 41
0
  0
VERTEX
  8
0
 10
186.625
 20
8.01888
 30
0.0
 40
0
 41
0
  0
VERTEX
  8
0
 10
186.818
 20
7.94829
 30
0.0
 40
0
 41
0
  0
VERTEX
  8
0
 10
187.001
 20
7.85986
 30
0.0
 40
0
 41
0
  0
VERTEX
  8
0
 10
187.175
 20
7.75467
 30
0.0
 40
0
 41
0
  0
VERTEX
  8
0
 10
187.336
 20
7.63379
 30
0.0
 40
0
 41
0
  0
VERTEX
  8
0
 10
187.485
 20
7.49826
 30
0.0
 40
0
 41
0
  0
VERTEX
  8
0
 10
187.621
 20
7.34913
 30
0.0
 40
0
 41
0
  0
VERTEX
  8
0
 10
187.742
 20
7.18744
 30
0.0
 40
0
 41
0
  0
VERTEX
  8
0
 10
187.847
 20
7.01432
 30
0.0
 40
0
 41
0
  0
VERTEX
  8
0
 10
187.935
 20
6.83074
 30
0.0
 40
0
 41
0
  0
VERTEX
  8
0
 10
188.006
 20
6.63781
 30
0.0
 40
0
 41
0
  0
VERTEX
  8
0
 10
188.057
 20
6.43658
 30
0.0
 40
0
 41
0
  0
VERTEX
  8
0
 10
188.089
 20
6.22803
 30
0.0
 40
0
 41
0
  0
VERTEX
  8
0
 10
188.1
 20
6.067
 30
0.0
 40
0
 41
0
  0
VERTEX
  8
0
 10
188.1
 20
6.01329
 30
0.0
 40
0
 41
0
  0
VERTEX
  8
0
 10
188.1
 20
5.95964
 30
0.0
 40
0
 41
0
  0
VERTEX
  8
0
 10
188.089
 20
5.79861
 30
0.0
 40
0
 41
0
  0
VERTEX
  8
0
 10
188.057
 20
5.59011
 30
0.0
 40
0
 41
0
  0
VERTEX
  8
0
 10
188.006
 20
5.38883
 30
0.0
 40
0
 41
0
  0
VERTEX
  8
0
 10
187.935
 20
5.1959
 30
0.0
 40
0
 41
0
  0
VERTEX
  8
0
 10
187.847
 20
5.01237
 30
0.0
 40
0
 41
0
  0
VERTEX
  8
0
 10
187.742
 20
4.83919
 30
0.0
 40
0
 41
0
  0
VERTEX
  8
0
 10
187.621
 20
4.67751
 30
0.0
 40
0
 41
0
  0
VERTEX
  8
0
 10
187.485
 20
4.52843
 30
0.0
 40
0
 41
0
  0
VERTEX
  8
0
 10
187.336
 20
4.39285
 30
0.0
 40
0
 41
0
  0
VERTEX
  8
0
 10
187.175
 20
4.27197
 30
0.0
 40
0
 41
0
  0
VERTEX
  8
0
 10
187.001
 20
4.16678
 30
0.0
 40
0
 41
0
  0
VERTEX
  8
0
 10
186.818
 20
4.07835
 30
0.0
 40
0
 41
0
  0
VERTEX
  8
0
 10
186.625
 20
4.00776
 30
0.0
 40
0
 41
0
  0
VERTEX
  8
0
 10
186.424
 20
3.956
 30
0.0
 40
0
 41
0
  0
VERTEX
  8
0
 10
186.215
 20
3.92415
 30
0.0
 40
0
 41
0
  0
VERTEX
  8
0
 10
186.054
 20
3.91331
 30
0.0
 40
0
 41
0
  0
VERTEX
  8
0
 10
186
 20
3.91331
 30
0.0
 40
0
 41
0
  0
SEQEND
 8
0
  0
POLYLINE
  8
0
 62
     0
 66
     1
 10
0
 20
0
 30
0.0
 70
     1
 40
0
 41
0
  0
VERTEX
  8
0
 10
212
 20
395.014
 30
0.0
 40
0
 41
0
  0
VERTEX
  8
0
 10
404
 20
395.014
 30
0.0
 40
0
 41
0
  0
VERTEX
  8
0
 10
404
 20
0.0132921
 30
0.0
 40
0
 41
0
  0
VERTEX
  8
0
 10
212
 20
0.0132921
 30
0.0
 40
0
 41
0
  0
VERTEX
  8
0
 10
212
 20
395.014
 30
0.0
 40
0
 41
0
  0
SEQEND
 8
0
  0
POLYLINE
  8
0
 62
     0
 66
     1
 10
0
 20
0
 30
0.0
 70
     1
 40
0
 41
0
  0
VERTEX
  8
0
 10
212
 20
0.0132921
 30
0.0
 40
0
 41
0
  0
VERTEX
  8
0
 10
404
 20
395.014
 30
0.0
 40
0
 41
0
  0
SEQEND
 8
0
  0
POLYLINE
  8
0
 62
     0
 66
     1
 10
0
 20
0
 30
0.0
 70
     1
 40
0
 41
0
  0
VERTEX
  8
0
 10
212
 20
395.014
 30
0.0
 40
0
 41
0
  0
VERTEX
  8
0
 10
404
 20
0.0132921
 30
0.0
 40
0
 41
0
  0
SEQEND
 8
0
  0
POLYLINE
  8
0
 62
     0
 66
     1
 10
0
 20
0
 30
0.0
 70
     1
 40
0
 41
0
  0
VERTEX
  8
0
 10
424
 20
395.014
 30
0.0
 40
0
 41
0
  0
VERTEX
  8
0
 10
616.001
 20
395.014
 30
0.0
 40
0
 41
0
  0
VERTEX
  8
0
 10
616.001
 20
0.0132921
 30
0.0
 40
0
 41
0
  0
VERTEX
  8
0
 10
424
 20
0.0132921
 30
0.0
 40
0
 41
0
  0
VERTEX
  8
0
 10
424
 20
395.014
 30
0.0
 40
0
 41
0
  0
SEQEND
 8
0
  0
POLYLINE
  8
0
 62
     0
 66
     1
 10
0
 20
0
 30
0.0
 70
     1
 40
0
 41
0
  0
VERTEX
  8
0
 10
614.351
 20
25.0133
 30
0.0
 40
0
 41
0
  0
VERTEX
  8
0
 10
614.351
 20
373.628
 30
0.0
 40
0
 41
0
  0
VERTEX
  8
0
 10
614.351
 20
373.801
 30
0.0
 40
0
 41
0
  0
VERTEX
  8
0
 10
614.325
 20
374.322
 30
0.0
 40
0
 41
0
  0
VERTEX
  8
0
 10
614.247
 20
375.011
 30
0.0
 40
0
 41
0
  0
VERTEX
  8
0
 10
614.121
 20
375.69
 30
0.0
 40
0
 41
0
  0
VERTEX
  8
0
 10
613.943
 20
376.357
 30
0.0
 40
0
 41
0
  0
VERTEX
  8
0
 10
613.718
 20
377.01
 30
0.0
 40
0
 41
0
  0
VERTEX
  8
0
 10
613.444
 20
377.644
 30
0.0
 40
0
 41
0
  0
VERTEX
  8
0
 10
613.124
 20
378.258
 30
0.0
 40
0
 41
0
  0
VERTEX
  8
0
 10
612.854
 20
378.706
 30
0.0
 40
0
 41
0
  0
VERTEX
  8
0
 10
612.757
 20
378.85
 30
0.0
 40
0
 41
0
  0
VERTEX
  8
0
 10
612.66
 20
378.993
 30
0.0
 40
0
 41
0
  0
VERTEX
  8
0
 10
612.347
 20
379.411
 30
0.0
 40
0
 41
0
  0
VERTEX
  8
0
 10
611.899
 20
379.94
 30
0.0
 40
0
 41
0
  0
VERTEX
  8
0
 10
611.412
 20
380.432
 30
0.0
 40
0
 41
0
  0
VERTEX
  8
0
 10
610.893
 20
380.886
 30
0.0
 40
0
 41
0
  0
VERTEX
  8
0
 10
610.342
 20
381.301
 30
0.0
 40
0
 41
0
  0
VERTEX
  8
0
 10
609.761
 20
381.675
 30
0.0
 40
0
 41
0
  0
VERTEX
  8
0
 10
609.151
 20
382.006
 30
0.0
 40
0
 41
0
  0
VERTEX
  8
0
 10
608.678
 20
382.225
 30
0.0
 40
0
 41
0
  0
VERTEX
  8
0
 10
608.517
 20
382.29
 30
0.0
 40
0
 41
0
  0
VERTEX
  8
0
 10
606.796
 20
382.989
 30
0.0
 40
0
 41
0
  0
VERTEX
  8
0
 10
606.69
 20
383.032
 30
0.0
 40
0
 41
0
  0
VERTEX
  8
0
 10
606.382
 20
383.182
 30
0.0
 40
0
 41
0
  0
VERTEX
  8
0
 10
605.99
 20
383.412
 30
0.0
 40
0
 41
0
  0
VERTEX
  8
0
 10
605.625
 20
383.679
 30
0.0
 40
0
 41
0
  0
VERTEX
  8
0
 10
605.289
 20
383.979
 30
0.0
 40
0
 41
0
  0
VERTEX
  8
0
 10
604.982
 20
384.31
 30
0.0
 40
0
 41
0
  0
VERTEX
  8
0
 10
604.708
 20
384.671
 30
0.0
 40
0
 41
0
  0
VERTEX
  8
0
 10
604.471
 20
385.057
 30
0.0
 40
0
 41
0
  0
VERTEX
  8
0
 10
604.315
 20
385.364
 30
0.0
 40
0
 41
0
  0
VERTEX
  8
0
 10
604.271
 20
385.468
 30
0.0
 40
0
 41
0
  0
VERTEX
  8
0
 10
603.318
 20
387.692
 30
0.0
 40
0
 41
0
  0
VERTEX
  8
0
 10
603.251
 20
387.85
 30
0.0
 40
0
 41
0
  0
VERTEX
  8
0
 10
603.026
 20
388.311
 30
0.0
 40
0
 41
0
  0
VERTEX
  8
0
 10
602.692
 20
388.906
 30
0.0
 40
0
 41
0
  0
VERTEX
  8
0
 10
602.314
 20
389.472
 30
0.0
 40
0
 41
0
  0
VERTEX
  8
0
 10
601.899
 20
390.008
 30
0.0
 40
0
 41
0
  0
VERTEX
  8
0
 10
601.444
 20
390.514
 30
0.0
 40
0
 41
0
  0
VERTEX
  8
0
 10
600.954
 20
390.985
 30
0.0
 40
0
 41
0
  0
VERTEX
  8
0
 10
600.429
 20
391.421
 30
0.0
 40
0
 41
0
  0
VERTEX
  8
0
 10
600.014
 20
391.724
 30
0.0
 40
0
 41
0
  0
VERTEX
  8
0
 10
599.872
 20
391.818
 30
0.0
 40
0
 41
0
  0
VERTEX
  8
0
 10
599.729
 20
391.912
 30
0.0
 40
0
 41
0
  0
VERTEX
  8
0
 10
599.287
 20
392.174
 30
0.0
 40
0
 41
0
  0
VERTEX
  8
0
 10
598.681
 20
392.485
 30
0.0
 40
0
 41
0
  0
VERTEX
  8
0
 10
598.054
 20
392.75
 30
0.0
 40
0
 41
0
  0
VERTEX
  8
0
 10
597.411
 20
392.969
 30
0.0
 40
0
 41
0
  0
VERTEX
  8
0
 10
596.753
 20
393.14
 30
0.0
 40
0
 41
0
  0
VERTEX
  8
0
 10
596.085
 20
393.264
 30
0.0
 40
0
 41
0
  0
VERTEX
  8
0
 10
595.407
 20
393.339
 30
0.0
 40
0
 41
0
  0
VERTEX
  8
0
 10
594.893
 20
393.364
 30
0.0
 40
0
 41
0
  0
VERTEX
  8
0
 10
594.722
 20
393.364
 30
0.0
 40
0
 41
0
  0
VERTEX
  8
0
 10
591.001
 20
393.364
 30
0.0
 40
0
 41
0
  0
VERTEX
  8
0
 10
520.19
 20
393.296
 30
0.0
 40
0
 41
0
  0
VERTEX
  8
0
 10
520.19
 20
393.294
 30
0.0
 40
0
 41
0
  0
VERTEX
  8
0
 10
520.001
 20
393.294
 30
0.0
 40
0
 41
0
  0
VERTEX
  8
0
 10
519.811
 20
393.294
 30
0.0
 40
0
 41
0
  0
VERTEX
  8
0
 10
519.811
 20
393.296
 30
0.0
 40
0
 41
0
  0
VERTEX
  8
0
 10
449
 20
393.364
 30
0.0
 40
0
 41
0
  0
VERTEX
  8
0
 10
445.279
 20
393.364
 30
0.0
 40
0
 41
0
  0
VERTEX
  8
0
 10
445.108
 20
393.364
 30
0.0
 40
0
 41
0
  0
VERTEX
  8
0
 10
444.594
 20
393.339
 30
0.0
 40
0
 41
0
  0
VERTEX
  8
0
 10
443.917
 20
393.264
 30
0.0
 40
0
 41
0
  0
VERTEX
  8
0
 10
443.249
 20
393.14
 30
0.0
 40
0
 41
0
  0
VERTEX
  8
0
 10
442.59
 20
392.969
 30
0.0
 40
0
 41
0
  0
VERTEX
  8
0
 10
441.947
 20
392.75
 30
0.0
 40
0
 41
0
  0
VERTEX
  8
0
 10
441.321
 20
392.485
 30
0.0
 40
0
 41
0
  0
VERTEX
  8
0
 10
440.714
 20
392.174
 30
0.0
 40
0
 41
0
  0
VERTEX
  8
0
 10
440.272
 20
391.912
 30
0.0
 40
0
 41
0
  0
VERTEX
  8
0
 10
440.129
 20
391.818
 30
0.0
 40
0
 41
0
  0
VERTEX
  8
0
 10
439.987
 20
391.724
 30
0.0
 40
0
 41
0
  0
VERTEX
  8
0
 10
439.572
 20
391.421
 30
0.0
 40
0
 41
0
  0
VERTEX
  8
0
 10
439.047
 20
390.985
 30
0.0
 40
0
 41
0
  0
VERTEX
  8
0
 10
438.557
 20
390.514
 30
0.0
 40
0
 41
0
  0
VERTEX
  8
0
 10
438.103
 20
390.008
 30
0.0
 40
0
 41
0
  0
VERTEX
  8
0
 10
437.688
 20
389.472
 30
0.0
 40
0
 41
0
  0
VERTEX
  8
0
 10
437.31
 20
388.906
 30
0.0
 40
0
 41
0
  0
VERTEX
  8
0
 10
436.975
 20
388.311
 30
0.0
 40
0
 41
0
  0
VERTEX
  8
0
 10
436.75
 20
387.85
 30
0.0
 40
0
 41
0
  0
VERTEX
  8
0
 10
436.683
 20
387.692
 30
0.0
 40
0
 41
0
  0
VERTEX
  8
0
 10
435.731
 20
385.468
 30
0.0
 40
0
 41
0
  0
VERTEX
  8
0
 10
435.686
 20
385.364
 30
0.0
 40
0
 41
0
  0
VERTEX
  8
0
 10
435.531
 20
385.057
 30
0.0
 40
0
 41
0
  0
VERTEX
  8
0
 10
435.293
 20
384.671
 30
0.0
 40
0
 41
0
  0
VERTEX
  8
0
 10
435.019
 20
384.31
 30
0.0
 40
0
 41
0
  0
VERTEX
  8
0
 10
434.713
 20
383.979
 30
0.0
 40
0
 41
0
  0
VERTEX
  8
0
 10
434.376
 20
383.679
 30
0.0
 40
0
 41
0
  0
VERTEX
  8
0
 10
434.011
 20
383.412
 30
0.0
 40
0
 41
0
  0
VERTEX
  8
0
 10
433.619
 20
383.182
 30
0.0
 40
0
 41
0
  0
VERTEX
  8
0
 10
433.311
 20
383.032
 30
0.0
 40
0
 41
0
  0
VERTEX
  8
0
 10
433.206
 20
382.989
 30
0.0
 40
0
 41
0
  0
VERTEX
  8
0
 10
431.485
 20
382.29
 30
0.0
 40
0
 41
0
  0
VERTEX
  8
0
 10
431.324
 20
382.225
 30
0.0
 40
0
 41
0
  0
VERTEX
  8
0
 10
430.85
 20
382.006
 30
0.0
 40
0
 41
0
  0
VERTEX
  8
0
 10
430.24
 20
381.675
 30
0.0
 40
0
 41
0
  0
VERTEX
  8
0
 10
429.66
 20
381.301
 30
0.0
 40
0
 41
0
  0
VERTEX
  8
0
 10
429.108
 20
380.886
 30
0.0
 40
0
 41
0
  0
VERTEX
  8
0
 10
428.589
 20
380.432
 30
0.0
 40
0
 41
0
  0
VERTEX
  8
0
 10
428.103
 20
379.94
 30
0.0
 40
0
 41
0
  0
VERTEX
  8
0
 10
427.654
 20
379.411
 30
0.0
 40
0
 41
0
  0
VERTEX
  8
0
 10
427.342
 20
378.993
 30
0.0
 40
0
 41
0
  0
VERTEX
  8
0
 10
427.244
 20
378.85
 30
0.0
 40
0
 41
0
  0
VERTEX
  8
0
 10
427.147
 20
378.706
 30
0.0
 40
0
 41
0
  0
VERTEX
  8
0
 10
426.878
 20
378.258
 30
0.0
 40
0
 41
0
  0
VERTEX
  8
0
 10
426.557
 20
377.644
 30
0.0
 40
0
 41
0
  0
VERTEX
  8
0
 10
426.283
 20
377.01
 30
0.0
 40
0
 41
0
  0
VERTEX
  8
0
 10
426.058
 20
376.357
 30
0.0
 40
0
 41
0
  0
VERTEX
  8
0
 10
425.881
 20
375.69
 30
0.0
 40
0
 41
0
  0
VERTEX
  8
0
 10
425.754
 20
375.011
 30
0.0
 40
0
 41
0
  0
VERTEX
  8
0
 10
425.676
 20
374.322
 30
0.0
 40
0
 41
0
  0
VERTEX
  8
0
 10
425.65
 20
373.801
 30
0.0
 40
0
 41
0
  0
VERTEX
  8
0
 10
425.65
 20
373.628
 30
0.0
 40
0
 41
0
  0
VERTEX
  8
0
 10
425.65
 20
21.4
 30
0.0
 40
0
 41
0
  0
VERTEX
  8
0
 10
425.65
 20
21.2263
 30
0.0
 40
0
 41
0
  0
VERTEX
  8
0
 10
425.676
 20
20.7049
 30
0.0
 40
0
 41
0
  0
VERTEX
  8
0
 10
425.754
 20
20.0161
 30
0.0
 40
0
 41
0
  0
VERTEX
  8
0
 10
425.881
 20
19.3371
 30
0.0
 40
0
 41
0
  0
VERTEX
  8
0
 10
426.058
 20
18.67
 30
0.0
 40
0
 41
0
  0
VERTEX
  8
0
 10
426.283
 20
18.0178
 30
0.0
 40
0
 41
0
  0
VERTEX
  8
0
 10
426.557
 20
17.3832
 30
0.0
 40
0
 41
0
  0
VERTEX
  8
0
 10
426.878
 20
16.769
 30
0.0
 40
0
 41
0
  0
VERTEX
  8
0
 10
427.147
 20
16.3219
 30
0.0
 40
0
 41
0
  0
VERTEX
  8
0
 10
427.244
 20
16.1778
 30
0.0
 40
0
 41
0
  0
VERTEX
  8
0
 10
427.342
 20
16.0336
 30
0.0
 40
0
 41
0
  0
VERTEX
  8
0
 10
427.654
 20
15.6156
 30
0.0
 40
0
 41
0
  0
VERTEX
  8
0
 10
428.103
 20
15.0874
 30
0.0
 40
0
 41
0
  0
VERTEX
  8
0
 10
428.589
 20
14.5953
 30
0.0
 40
0
 41
0
  0
VERTEX
  8
0
 10
429.108
 20
14.1408
 30
0.0
 40
0
 41
0
  0
VERTEX
  8
0
 10
429.66
 20
13.726
 30
0.0
 40
0
 41
0
  0
VERTEX
  8
0
 10
430.24
 20
13.3524
 30
0.0
 40
0
 41
0
  0
VERTEX
  8
0
 10
430.85
 20
13.022
 30
0.0
 40
0
 41
0
  0
VERTEX
  8
0
 10
431.324
 20
12.8019
 30
0.0
 40
0
 41
0
  0
VERTEX
  8
0
 10
431.485
 20
12.7365
 30
0.0
 40
0
 41
0
  0
VERTEX
  8
0
 10
433.206
 20
12.038
 30
0.0
 40
0
 41
0
  0
VERTEX
  8
0
 10
433.311
 20
11.9951
 30
0.0
 40
0
 41
0
  0
VERTEX
  8
0
 10
433.619
 20
11.8454
 30
0.0
 40
0
 41
0
  0
VERTEX
  8
0
 10
434.011
 20
11.6146
 30
0.0
 40
0
 41
0
  0
VERTEX
  8
0
 10
434.376
 20
11.3482
 30
0.0
 40
0
 41
0
  0
VERTEX
  8
0
 10
434.713
 20
11.0482
 30
0.0
 40
0
 41
0
  0
VERTEX
  8
0
 10
435.019
 20
10.717
 30
0.0
 40
0
 41
0
  0
VERTEX
  8
0
 10
435.293
 20
10.3569
 30
0.0
 40
0
 41
0
  0
VERTEX
  8
0
 10
435.531
 20
9.97006
 30
0.0
 40
0
 41
0
  0
VERTEX
  8
0
 10
435.686
 20
9.66385
 30
0.0
 40
0
 41
0
  0
VERTEX
  8
0
 10
435.731
 20
9.55881
 30
0.0
 40
0
 41
0
  0
VERTEX
  8
0
 10
436.683
 20
7.33485
 30
0.0
 40
0
 41
0
  0
VERTEX
  8
0
 10
436.75
 20
7.17763
 30
0.0
 40
0
 41
0
  0
VERTEX
  8
0
 10
436.975
 20
6.71571
 30
0.0
 40
0
 41
0
  0
VERTEX
  8
0
 10
437.31
 20
6.1219
 30
0.0
 40
0
 41
0
  0
VERTEX
  8
0
 10
437.688
 20
5.55561
 30
0.0
 40
0
 41
0
  0
VERTEX
  8
0
 10
438.103
 20
5.01882
 30
0.0
 40
0
 41
0
  0
VERTEX
  8
0
 10
438.557
 20
4.51367
 30
0.0
 40
0
 41
0
  0
VERTEX
  8
0
 10
439.047
 20
4.04226
 30
0.0
 40
0
 41
0
  0
VERTEX
  8
0
 10
439.572
 20
3.60667
 30
0.0
 40
0
 41
0
  0
VERTEX
  8
0
 10
439.987
 20
3.30317
 30
0.0
 40
0
 41
0
  0
VERTEX
  8
0
 10
440.129
 20
3.20893
 30
0.0
 40
0
 41
0
  0
VERTEX
  8
0
 10
440.272
 20
3.11475
 30
0.0
 40
0
 41
0
  0
VERTEX
  8
0
 10
440.714
 20
2.85308
 30
0.0
 40
0
 41
0
  0
VERTEX
  8
0
 10
441.321
 20
2.5421
 30
0.0
 40
0
 41
0
  0
VERTEX
  8
0
 10
441.947
 20
2.27686
 30
0.0
 40
0
 41
0
  0
VERTEX
  8
0
 10
442.59
 20
2.05806
 30
0.0
 40
0
 41
0
  0
VERTEX
  8
0
 10
443.249
 20
1.88656
 30
0.0
 40
0
 41
0
  0
VERTEX
  8
0
 10
443.917
 20
1.76307
 30
0.0
 40
0
 41
0
  0
VERTEX
  8
0
 10
444.594
 20
1.68838
 30
0.0
 40
0
 41
0
  0
VERTEX
  8
0
 10
445.108
 20
1.66331
 30
0.0
 40
0
 41
0
  0
VERTEX
  8
0
 10
445.279
 20
1.66331
 30
0.0
 40
0
 41
0
  0
VERTEX
  8
0
 10
449
 20
1.66331
 30
0.0
 40
0
 41
0
  0
VERTEX
  8
0
 10
519.811
 20
1.73199
 30
0.0
 40
0
 41
0
  0
VERTEX
  8
0
 10
519.811
 20
1.73232
 30
0.0
 40
0
 41
0
  0
VERTEX
  8
0
 10
520.001
 20
1.73215
 30
0.0
 40
0
 41
0
  0
VERTEX
  8
0
 10
520.19
 20
1.73232
 30
0.0
 40
0
 41
0
  0
VERTEX
  8
0
 10
520.19
 20
1.73199
 30
0.0
 40
0
 41
0
  0
VERTEX
  8
0
 10
591.001
 20
1.66331
 30
0.0
 40
0
 41
0
  0
VERTEX
  8
0
 10
594.722
 20
1.66331
 30
0.0
 40
0
 41
0
  0
VERTEX
  8
0
 10
594.893
 20
1.66331
 30
0.0
 40
0
 41
0
  0
VERTEX
  8
0
 10
595.407
 20
1.68838
 30
0.0
 40
0
 41
0
  0
VERTEX
  8
0
 10
596.085
 20
1.76307
 30
0.0
 40
0
 41
0
  0
VERTEX
  8
0
 10
596.753
 20
1.88656
 30
0.0
 40
0
 41
0
  0
VERTEX
  8
0
 10
597.411
 20
2.05806
 30
0.0
 40
0
 41
0
  0
VERTEX
  8
0
 10
598.054
 20
2.27686
 30
0.0
 40
0
 41
0
  0
VERTEX
  8
0
 10
598.681
 20
2.5421
 30
0.0
 40
0
 41
0
  0
VERTEX
  8
0
 10
599.287
 20
2.85308
 30
0.0
 40
0
 41
0
  0
VERTEX
  8
0
 10
599.729
 20
3.11475
 30
0.0
 40
0
 41
0
  0
VERTEX
  8
0
 10
599.872
 20
3.20893
 30
0.0
 40
0
 41
0
  0
VERTEX
  8
0
 10
600.014
 20
3.30311
 30
0.0
 40
0
 41
0
  0
VERTEX
  8
0
 10
600.429
 20
3.60667
 30
0.0
 40
0
 41
0
  0
VERTEX
  8
0
 10
600.954
 20
4.04226
 30
0.0
 40
0
 41
0
  0
VERTEX
  8
0
 10
601.444
 20
4.51367
 30
0.0
 40
0
 41
0
  0
VERTEX
  8
0
 10
601.899
 20
5.01882
 30
0.0
 40
0
 41
0
  0
VERTEX
  8
0
 10
602.314
 20
5.55561
 30
0.0
 40
0
 41
0
  0
VERTEX
  8
0
 10
602.692
 20
6.1219
 30
0.0
 40
0
 41
0
  0
VERTEX
  8
0
 10
603.026
 20
6.71571
 30
0.0
 40
0
 41
0
  0
VERTEX
  8
0
 10
603.251
 20
7.17763
 30
0.0
 40
0
 41
0
  0
VERTEX
  8
0
 10
603.318
 20
7.33485
 30
0.0
 40
0
 41
0
  0
VERTEX
  8
0
 10
604.271
 20
9.55881
 30
0.0
 40
0
 41
0
  0
VERTEX
  8
0
 10
604.315
 20
9.66385
 30
0.0
 40
0
 41
0
  0
VERTEX
  8
0
 10
604.471
 20
9.97006
 30
0.0
 40
0
 41
0
  0
VERTEX
  8
0
 10
604.708
 20
10.3569
 30
0.0
 40
0
 41
0
  0
VERTEX
  8
0
 10
604.982
 20
10.717
 30
0.0
 40
0
 41
0
  0
VERTEX
  8
0
 10
605.289
 20
11.0482
 30
0.0
 40
0
 41
0
  0
VERTEX
  8
0
 10
605.625
 20
11.3482
 30
0.0
 40
0
 41
0
  0
VERTEX
  8
0
 10
605.99
 20
11.6146
 30
0.0
 40
0
 41
0
  0
VERTEX
  8
0
 10
606.382
 20
11.8454
 30
0.0
 40
0
 41
0
  0
VERTEX
  8
0
 10
606.69
 20
11.9951
 30
0.0
 40
0
 41
0
  0
VERTEX
  8
0
 10
606.796
 20
12.038
 30
0.0
 40
0
 41
0
  0
VERTEX
  8
0
 10
608.517
 20
12.7365
 30
0.0
 40
0
 41
0
  0
VERTEX
  8
0
 10
608.678
 20
12.8019
 30
0.0
 40
0
 41
0
  0
VERTEX
  8
0
 10
609.151
 20
13.022
 30
0.0
 40
0
 41
0
  0
VERTEX
  8
0
 10
609.761
 20
13.3524
 30
0.0
 40
0
 41
0
  0
VERTEX
  8
0
 10
610.342
 20
13.726
 30
0.0
 40
0
 41
0
  0
VERTEX
  8
0
 10
610.893
 20
14.1408
 30
0.0
 40
0
 41
0
  0
VERTEX
  8
0
 10
611.412
 20
14.5953
 30
0.0
 40
0
 41
0
  0
VERTEX
  8
0
 10
611.899
 20
15.0874
 30
0.0
 40
0
 41
0
  0
VERTEX
  8
0
 10
612.347
 20
15.6156
 30
0.0
 40
0
 41
0
  0
VERTEX
  8
0
 10
612.66
 20
16.0336
 30
0.0
 40
0
 41
0
  0
VERTEX
  8
0
 10
612.757
 20
16.1778
 30
0.0
 40
0
 41
0
  0
VERTEX
  8
0
 10
612.854
 20
16.3219
 30
0.0
 40
0
 41
0
  0
VERTEX
  8
0
 10
613.124
 20
16.769
 30
0.0
 40
0
 41
0
  0
VERTEX
  8
0
 10
613.444
 20
17.3832
 30
0.0
 40
0
 41
0
  0
VERTEX
  8
0
 10
613.718
 20
18.0178
 30
0.0
 40
0
 41
0
  0
VERTEX
  8
0
 10
613.943
 20
18.67
 30
0.0
 40
0
 41
0
  0
VERTEX
  8
0
 10
614.121
 20
19.3371
 30
0.0
 40
0
 41
0
  0
VERTEX
  8
0
 10
614.247
 20
20.0161
 30
0.0
 40
0
 41
0
  0
VERTEX
  8
0
 10
614.325
 20
20.7049
 30
0.0
 40
0
 41
0
  0
VERTEX
  8
0
 10
614.351
 20
21.2263
 30
0.0
 40
0
 41
0
  0
VERTEX
  8
0
 10
614.351
 20
21.4
 30
0.0
 40
0
 41
0
  0
VERTEX
  8
0
 10
614.351
 20
25.0133
 30
0.0
 40
0
 41
0
  0
SEQEND
 8
0
  0
POLYLINE
  8
0
 62
     0
 66
     1
 10
0
 20
0
 30
0.0
 70
     1
 40
0
 41
0
  0
VERTEX
  8
0
 10
610.001
 20
25.0133
 30
0.0
 40
0
 41
0
  0
VERTEX
  8
0
 10
610.001
 20
373.628
 30
0.0
 40
0
 41
0
  0
VERTEX
  8
0
 10
610.001
 20
373.722
 30
0.0
 40
0
 41
0
  0
VERTEX
  8
0
 10
609.986
 20
374.006
 30
0.0
 40
0
 41
0
  0
VERTEX
  8
0
 10
609.944
 20
374.379
 30
0.0
 40
0
 41
0
  0
VERTEX
  8
0
 10
609.875
 20
374.744
 30
0.0
 40
0
 41
0
  0
VERTEX
  8
0
 10
609.779
 20
375.101
 30
0.0
 40
0
 41
0
  0
VERTEX
  8
0
 10
609.657
 20
375.45
 30
0.0
 40
0
 41
0
  0
VERTEX
  8
0
 10
609.511
 20
375.786
 30
0.0
 40
0
 41
0
  0
VERTEX
  8
0
 10
609.342
 20
376.11
 30
0.0
 40
0
 41
0
  0
VERTEX
  8
0
 10
609.149
 20
376.419
 30
0.0
 40
0
 41
0
  0
VERTEX
  8
0
 10
608.933
 20
376.715
 30
0.0
 40
0
 41
0
  0
VERTEX
  8
0
 10
608.697
 20
376.994
 30
0.0
 40
0
 41
0
  0
VERTEX
  8
0
 10
608.44
 20
377.257
 30
0.0
 40
0
 41
0
  0
VERTEX
  8
0
 10
608.164
 20
377.5
 30
0.0
 40
0
 41
0
  0
VERTEX
  8
0
 10
607.869
 20
377.722
 30
0.0
 40
0
 41
0
  0
VERTEX
  8
0
 10
607.557
 20
377.925
 30
0.0
 40
0
 41
0
  0
VERTEX
  8
0
 10
607.228
 20
378.104
 30
0.0
 40
0
 41
0
  0
VERTEX
  8
0
 10
606.969
 20
378.225
 30
0.0
 40
0
 41
0
  0
VERTEX
  8
0
 10
606.882
 20
378.26
 30
0.0
 40
0
 41
0
  0
VERTEX
  8
0
 10
605.161
 20
378.958
 30
0.0
 40
0
 41
0
  0
VERTEX
  8
0
 10
605.058
 20
379
 30
0.0
 40
0
 41
0
  0
VERTEX
  8
0
 10
604.754
 20
379.136
 30
0.0
 40
0
 41
0
  0
VERTEX
  8
0
 10
604.357
 20
379.332
 30
0.0
 40
0
 41
0
  0
VERTEX
  8
0
 10
603.972
 20
379.546
 30
0.0
 40
0
 41
0
  0
VERTEX
  8
0
 10
603.6
 20
379.778
 30
0.0
 40
0
 41
0
  0
VERTEX
  8
0
 10
603.24
 20
380.028
 30
0.0
 40
0
 41
0
  0
VERTEX
  8
0
 10
602.893
 20
380.294
 30
0.0
 40
0
 41
0
  0
VERTEX
  8
0
 10
602.56
 20
380.576
 30
0.0
 40
0
 41
0
  0
VERTEX
  8
0
 10
602.242
 20
380.875
 30
0.0
 40
0
 41
0
  0
VERTEX
  8
0
 10
601.938
 20
381.188
 30
0.0
 40
0
 41
0
  0
VERTEX
  8
0
 10
601.649
 20
381.515
 30
0.0
 40
0
 41
0
  0
VERTEX
  8
0
 10
601.376
 20
381.857
 30
0.0
 40
0
 41
0
  0
VERTEX
  8
0
 10
601.119
 20
382.213
 30
0.0
 40
0
 41
0
  0
VERTEX
  8
0
 10
600.881
 20
382.581
 30
0.0
 40
0
 41
0
  0
VERTEX
  8
0
 10
600.658
 20
382.961
 30
0.0
 40
0
 41
0
  0
VERTEX
  8
0
 10
600.456
 20
383.353
 30
0.0
 40
0
 41
0
  0
VERTEX
  8
0
 10
600.315
 20
383.656
 30
0.0
 40
0
 41
0
  0
VERTEX
  8
0
 10
600.271
 20
383.757
 30
0.0
 40
0
 41
0
  0
VERTEX
  8
0
 10
599.319
 20
385.981
 30
0.0
 40
0
 41
0
  0
VERTEX
  8
0
 10
599.283
 20
386.067
 30
0.0
 40
0
 41
0
  0
VERTEX
  8
0
 10
599.16
 20
386.318
 30
0.0
 40
0
 41
0
  0
VERTEX
  8
0
 10
598.978
 20
386.639
 30
0.0
 40
0
 41
0
  0
VERTEX
  8
0
 10
598.774
 20
386.944
 30
0.0
 40
0
 41
0
  0
VERTEX
  8
0
 10
598.55
 20
387.231
 30
0.0
 40
0
 41
0
  0
VERTEX
  8
0
 10
598.307
 20
387.5
 30
0.0
 40
0
 41
0
  0
VERTEX
  8
0
 10
598.047
 20
387.749
 30
0.0
 40
0
 41
0
  0
VERTEX
  8
0
 10
597.769
 20
387.979
 30
0.0
 40
0
 41
0
  0
VERTEX
  8
0
 10
597.476
 20
388.188
 30
0.0
 40
0
 41
0
  0
VERTEX
  8
0
 10
597.169
 20
388.375
 30
0.0
 40
0
 41
0
  0
VERTEX
  8
0
 10
596.849
 20
388.539
 30
0.0
 40
0
 41
0
  0
VERTEX
  8
0
 10
596.517
 20
388.681
 30
0.0
 40
0
 41
0
  0
VERTEX
  8
0
 10
596.175
 20
388.799
 30
0.0
 40
0
 41
0
  0
VERTEX
  8
0
 10
595.822
 20
388.892
 30
0.0
 40
0
 41
0
  0
VERTEX
  8
0
 10
595.463
 20
388.96
 30
0.0
 40
0
 41
0
  0
VERTEX
  8
0
 10
595.096
 20
389
 30
0.0
 40
0
 41
0
  0
VERTEX
  8
0
 10
594.815
 20
389.014
 30
0.0
 40
0
 41
0
  0
VERTEX
  8
0
 10
594.722
 20
389.014
 30
0.0
 40
0
 41
0
  0
VERTEX
  8
0
 10
591.001
 20
389.014
 30
0.0
 40
0
 41
0
  0
VERTEX
  8
0
 10
520.186
 20
388.946
 30
0.0
 40
0
 41
0
  0
VERTEX
  8
0
 10
520.186
 20
388.944
 30
0.0
 40
0
 41
0
  0
VERTEX
  8
0
 10
520.001
 20
388.944
 30
0.0
 40
0
 41
0
  0
VERTEX
  8
0
 10
519.815
 20
388.944
 30
0.0
 40
0
 41
0
  0
VERTEX
  8
0
 10
519.815
 20
388.946
 30
0.0
 40
0
 41
0
  0
VERTEX
  8
0
 10
449
 20
389.014
 30
0.0
 40
0
 41
0
  0
VERTEX
  8
0
 10
445.279
 20
389.014
 30
0.0
 40
0
 41
0
  0
VERTEX
  8
0
 10
445.186
 20
389.014
 30
0.0
 40
0
 41
0
  0
VERTEX
  8
0
 10
444.906
 20
389
 30
0.0
 40
0
 41
0
  0
VERTEX
  8
0
 10
444.539
 20
388.96
 30
0.0
 40
0
 41
0
  0
VERTEX
  8
0
 10
444.179
 20
388.892
 30
0.0
 40
0
 41
0
  0
VERTEX
  8
0
 10
443.828
 20
388.799
 30
0.0
 40
0
 41
0
  0
VERTEX
  8
0
 10
443.485
 20
388.681
 30
0.0
 40
0
 41
0
  0
VERTEX
  8
0
 10
443.153
 20
388.539
 30
0.0
 40
0
 41
0
  0
VERTEX
  8
0
 10
442.832
 20
388.375
 30
0.0
 40
0
 41
0
  0
VERTEX
  8
0
 10
442.525
 20
388.188
 30
0.0
 40
0
 41
0
  0
VERTEX
  8
0
 10
442.232
 20
387.979
 30
0.0
 40
0
 41
0
  0
VERTEX
  8
0
 10
441.956
 20
387.749
 30
0.0
 40
0
 41
0
  0
VERTEX
  8
0
 10
441.694
 20
387.5
 30
0.0
 40
0
 41
0
  0
VERTEX
  8
0
 10
441.451
 20
387.231
 30
0.0
 40
0
 41
0
  0
VERTEX
  8
0
 10
441.228
 20
386.944
 30
0.0
 40
0
 41
0
  0
VERTEX
  8
0
 10
441.024
 20
386.639
 30
0.0
 40
0
 41
0
  0
VERTEX
  8
0
 10
440.842
 20
386.318
 30
0.0
 40
0
 41
0
  0
VERTEX
  8
0
 10
440.719
 20
386.067
 30
0.0
 40
0
 41
0
  0
VERTEX
  8
0
 10
440.682
 20
385.981
 30
0.0
 40
0
 41
0
  0
VERTEX
  8
0
 10
439.731
 20
383.757
 30
0.0
 40
0
 41
0
  0
VERTEX
  8
0
 10
439.686
 20
383.656
 30
0.0
 40
0
 41
0
  0
VERTEX
  8
0
 10
439.546
 20
383.353
 30
0.0
 40
0
 41
0
  0
VERTEX
  8
0
 10
439.343
 20
382.961
 30
0.0
 40
0
 41
0
  0
VERTEX
  8
0
 10
439.121
 20
382.581
 30
0.0
 40
0
 41
0
  0
VERTEX
  8
0
 10
438.882
 20
382.213
 30
0.0
 40
0
 41
0
  0
VERTEX
  8
0
 10
438.625
 20
381.857
 30
0.0
 40
0
 41
0
  0
VERTEX
  8
0
 10
438.353
 20
381.515
 30
0.0
 40
0
 41
0
  0
VERTEX
  8
0
 10
438.064
 20
381.188
 30
0.0
 40
0
 41
0
  0
VERTEX
  8
0
 10
437.76
 20
380.875
 30
0.0
 40
0
 41
0
  0
VERTEX
  8
0
 10
437.442
 20
380.576
 30
0.0
 40
0
 41
0
  0
VERTEX
  8
0
 10
437.108
 20
380.294
 30
0.0
 40
0
 41
0
  0
VERTEX
  8
0
 10
436.761
 20
380.028
 30
0.0
 40
0
 41
0
  0
VERTEX
  8
0
 10
436.401
 20
379.778
 30
0.0
 40
0
 41
0
  0
VERTEX
  8
0
 10
436.029
 20
379.546
 30
0.0
 40
0
 41
0
  0
VERTEX
  8
0
 10
435.644
 20
379.332
 30
0.0
 40
0
 41
0
  0
VERTEX
  8
0
 10
435.249
 20
379.136
 30
0.0
 40
0
 41
0
  0
VERTEX
  8
0
 10
434.943
 20
379
 30
0.0
 40
0
 41
0
  0
VERTEX
  8
0
 10
434.842
 20
378.958
 30
0.0
 40
0
 41
0
  0
VERTEX
  8
0
 10
433.119
 20
378.26
 30
0.0
 40
0
 41
0
  0
VERTEX
  8
0
 10
433.032
 20
378.225
 30
0.0
 40
0
 41
0
  0
VERTEX
  8
0
 10
432.774
 20
378.104
 30
0.0
 40
0
 41
0
  0
VERTEX
  8
0
 10
432.444
 20
377.925
 30
0.0
 40
0
 41
0
  0
VERTEX
  8
0
 10
432.132
 20
377.722
 30
0.0
 40
0
 41
0
  0
VERTEX
  8
0
 10
431.838
 20
377.5
 30
0.0
 40
0
 41
0
  0
VERTEX
  8
0
 10
431.561
 20
377.257
 30
0.0
 40
0
 41
0
  0
VERTEX
  8
0
 10
431.304
 20
376.994
 30
0.0
 40
0
 41
0
  0
VERTEX
  8
0
 10
431.068
 20
376.715
 30
0.0
 40
0
 41
0
  0
VERTEX
  8
0
 10
430.853
 20
376.419
 30
0.0
 40
0
 41
0
  0
VERTEX
  8
0
 10
430.66
 20
376.11
 30
0.0
 40
0
 41
0
  0
VERTEX
  8
0
 10
430.49
 20
375.786
 30
0.0
 40
0
 41
0
  0
VERTEX
  8
0
 10
430.344
 20
375.45
 30
0.0
 40
0
 41
0
  0
VERTEX
  8
0
 10
430.222
 20
375.101
 30
0.0
 40
0
 41
0
  0
VERTEX
  8
0
 10
430.126
 20
374.744
 30
0.0
 40
0
 41
0
  0
VERTEX
  8
0
 10
430.057
 20
374.379
 30
0.0
 40
0
 41
0
  0
VERTEX
  8
0
 10
430.015
 20
374.006
 30
0.0
 40
0
 41
0
  0
VERTEX
  8
0
 10
430
 20
373.722
 30
0.0
 40
0
 41
0
  0
VERTEX
  8
0
 10
430
 20
373.628
 30
0.0
 40
0
 41
0
  0
VERTEX
  8
0
 10
430
 20
21.4
 30
0.0
 40
0
 41
0
  0
VERTEX
  8
0
 10
430
 20
21.3053
 30
0.0
 40
0
 41
0
  0
VERTEX
  8
0
 10
430.015
 20
21.0211
 30
0.0
 40
0
 41
0
  0
VERTEX
  8
0
 10
430.057
 20
20.6481
 30
0.0
 40
0
 41
0
  0
VERTEX
  8
0
 10
430.126
 20
20.2824
 30
0.0
 40
0
 41
0
  0
VERTEX
  8
0
 10
430.222
 20
19.9251
 30
0.0
 40
0
 41
0
  0
VERTEX
  8
0
 10
430.344
 20
19.5779
 30
0.0
 40
0
 41
0
  0
VERTEX
  8
0
 10
430.49
 20
19.2415
 30
0.0
 40
0
 41
0
  0
VERTEX
  8
0
 10
430.66
 20
18.9176
 30
0.0
 40
0
 41
0
  0
VERTEX
  8
0
 10
430.853
 20
18.6074
 30
0.0
 40
0
 41
0
  0
VERTEX
  8
0
 10
431.068
 20
18.3119
 30
0.0
 40
0
 41
0
  0
VERTEX
  8
0
 10
431.304
 20
18.0328
 30
0.0
 40
0
 41
0
  0
VERTEX
  8
0
 10
431.561
 20
17.771
 30
0.0
 40
0
 41
0
  0
VERTEX
  8
0
 10
431.838
 20
17.5278
 30
0.0
 40
0
 41
0
  0
VERTEX
  8
0
 10
432.132
 20
17.3046
 30
0.0
 40
0
 41
0
  0
VERTEX
  8
0
 10
432.444
 20
17.1025
 30
0.0
 40
0
 41
0
  0
VERTEX
  8
0
 10
432.774
 20
16.9229
 30
0.0
 40
0
 41
0
  0
VERTEX
  8
0
 10
433.032
 20
16.8028
 30
0.0
 40
0
 41
0
  0
VERTEX
  8
0
 10
433.119
 20
16.7671
 30
0.0
 40
0
 41
0
  0
VERTEX
  8
0
 10
434.842
 20
16.0687
 30
0.0
 40
0
 41
0
  0
VERTEX
  8
0
 10
434.943
 20
16.0271
 30
0.0
 40
0
 41
0
  0
VERTEX
  8
0
 10
435.249
 20
15.8917
 30
0.0
 40
0
 41
0
  0
VERTEX
  8
0
 10
435.644
 20
15.6958
 30
0.0
 40
0
 41
0
  0
VERTEX
  8
0
 10
436.029
 20
15.4814
 30
0.0
 40
0
 41
0
  0
VERTEX
  8
0
 10
436.401
 20
15.2493
 30
0.0
 40
0
 41
0
  0
VERTEX
  8
0
 10
436.761
 20
14.9997
 30
0.0
 40
0
 41
0
  0
VERTEX
  8
0
 10
437.108
 20
14.7335
 30
0.0
 40
0
 41
0
  0
VERTEX
  8
0
 10
437.442
 20
14.451
 30
0.0
 40
0
 41
0
  0
VERTEX
  8
0
 10
437.76
 20
14.1528
 30
0.0
 40
0
 41
0
  0
VERTEX
  8
0
 10
438.064
 20
13.8396
 30
0.0
 40
0
 41
0
  0
VERTEX
  8
0
 10
438.353
 20
13.5118
 30
0.0
 40
0
 41
0
  0
VERTEX
  8
0
 10
438.625
 20
13.17
 30
0.0
 40
0
 41
0
  0
VERTEX
  8
0
 10
438.882
 20
12.8148
 30
0.0
 40
0
 41
0
  0
VERTEX
  8
0
 10
439.121
 20
12.4466
 30
0.0
 40
0
 41
0
  0
VERTEX
  8
0
 10
439.343
 20
12.0661
 30
0.0
 40
0
 41
0
  0
VERTEX
  8
0
 10
439.546
 20
11.6738
 30
0.0
 40
0
 41
0
  0
VERTEX
  8
0
 10
439.686
 20
11.3722
 30
0.0
 40
0
 41
0
  0
VERTEX
  8
0
 10
439.731
 20
11.2702
 30
0.0
 40
0
 41
0
  0
VERTEX
  8
0
 10
440.682
 20
9.04622
 30
0.0
 40
0
 41
0
  0
VERTEX
  8
0
 10
440.719
 20
8.96056
 30
0.0
 40
0
 41
0
  0
VERTEX
  8
0
 10
440.842
 20
8.70899
 30
0.0
 40
0
 41
0
  0
VERTEX
  8
0
 10
441.024
 20
8.38769
 30
0.0
 40
0
 41
0
  0
VERTEX
  8
0
 10
441.228
 20
8.08317
 30
0.0
 40
0
 41
0
  0
VERTEX
  8
0
 10
441.451
 20
7.79617
 30
0.0
 40
0
 41
0
  0
VERTEX
  8
0
 10
441.694
 20
7.52756
 30
0.0
 40
0
 41
0
  0
VERTEX
  8
0
 10
441.956
 20
7.2781
 30
0.0
 40
0
 41
0
  0
VERTEX
  8
0
 10
442.232
 20
7.04861
 30
0.0
 40
0
 41
0
  0
VERTEX
  8
0
 10
442.525
 20
6.83985
 30
0.0
 40
0
 41
0
  0
VERTEX
  8
0
 10
442.832
 20
6.65267
 30
0.0
 40
0
 41
0
  0
VERTEX
  8
0
 10
443.153
 20
6.48785
 30
0.0
 40
0
 41
0
  0
VERTEX
  8
0
 10
443.485
 20
6.34619
 30
0.0
 40
0
 41
0
  0
VERTEX
  8
0
 10
443.828
 20
6.22851
 30
0.0
 40
0
 41
0
  0
VERTEX
  8
0
 10
444.179
 20
6.13558
 30
0.0
 40
0
 41
0
  0
VERTEX
  8
0
 10
444.539
 20
6.06819
 30
0.0
 40
0
 41
0
  0
VERTEX
  8
0
 10
444.906
 20
6.02718
 30
0.0
 40
0
 41
0
  0
VERTEX
  8
0
 10
445.186
 20
6.01329
 30
0.0
 40
0
 41
0
  0
VERTEX
  8
0
 10
445.279
 20
6.01329
 30
0.0
 40
0
 41
0
  0
VERTEX
  8
0
 10
449
 20
6.01329
 30
0.0
 40
0
 41
0
  0
VERTEX
  8
0
 10
519.815
 20
6.08197
 30
0.0
 40
0
 41
0
  0
VERTEX
  8
0
 10
519.815
 20
6.08236
 30
0.0
 40
0
 41
0
  0
VERTEX
  8
0
 10
520.001
 20
6.08214
 30
0.0
 40
0
 41
0
  0
VERTEX
  8
0
 10
520.186
 20
6.08236
 30
0.0
 40
0
 41
0
  0
VERTEX
  8
0
 10
520.186
 20
6.08197
 30
0.0
 40
0
 41
0
  0
VERTEX
  8
0
 10
591.001
 20
6.01329
 30
0.0
 40
0
 41
0
  0
VERTEX
  8
0
 10
594.722
 20
6.01329
 30
0.0
 40
0
 41
0
  0
VERTEX
  8
0
 10
594.815
 20
6.01329
 30
0.0
 40
0
 41
0
  0
VERTEX
  8
0
 10
595.096
 20
6.02718
 30
0.0
 40
0
 41
0
  0
VERTEX
  8
0
 10
595.463
 20
6.06819
 30
0.0
 40
0
 41
0
  0
VERTEX
  8
0
 10
595.822
 20
6.13558
 30
0.0
 40
0
 41
0
  0
VERTEX
  8
0
 10
596.175
 20
6.22851
 30
0.0
 40
0
 41
0
  0
VERTEX
  8
0
 10
596.517
 20
6.34619
 30
0.0
 40
0
 41
0
  0
VERTEX
  8
0
 10
596.849
 20
6.48785
 30
0.0
 40
0
 41
0
  0
VERTEX
  8
0
 10
597.169
 20
6.65267
 30
0.0
 40
0
 41
0
  0
VERTEX
  8
0
 10
597.476
 20
6.83985
 30
0.0
 40
0
 41
0
  0
VERTEX
  8
0
 10
597.769
 20
7.04861
 30
0.0
 40
0
 41
0
  0
VERTEX
  8
0
 10
598.047
 20
7.2781
 30
0.0
 40
0
 41
0
  0
VERTEX
  8
0
 10
598.307
 20
7.52756
 30
0.0
 40
0
 41
0
  0
VERTEX
  8
0
 10
598.55
 20
7.79617
 30
0.0
 40
0
 41
0
  0
VERTEX
  8
0
 10
598.774
 20
8.08317
 30
0.0
 40
0
 41
0
  0
VERTEX
  8
0
 10
598.978
 20
8.38769
 30
0.0
 40
0
 41
0
  0
VERTEX
  8
0
 10
599.16
 20
8.70899
 30
0.0
 40
0
 41
0
  0
VERTEX
  8
0
 10
599.283
 20
8.96056
 30
0.0
 40
0
 41
0
  0
VERTEX
  8
0
 10
599.319
 20
9.04622
 30
0.0
 40
0
 41
0
  0
VERTEX
  8
0
 10
600.271
 20
11.2702
 30
0.0
 40
0
 41
0
  0
VERTEX
  8
0
 10
600.315
 20
11.3722
 30
0.0
 40
0
 41
0
  0
VERTEX
  8
0
 10
600.456
 20
11.6738
 30
0.0
 40
0
 41
0
  0
VERTEX
  8
0
 10
600.658
 20
12.0661
 30
0.0
 40
0
 41
0
  0
VERTEX
  8
0
 10
600.881
 20
12.4466
 30
0.0
 40
0
 41
0
  0
VERTEX
  8
0
 10
601.119
 20
12.8148
 30
0.0
 40
0
 41
0
  0
VERTEX
  8
0
 10
601.376
 20
13.17
 30
0.0
 40
0
 41
0
  0
VERTEX
  8
0
 10
601.649
 20
13.5118
 30
0.0
 40
0
 41
0
  0
VERTEX
  8
0
 10
601.938
 20
13.8396
 30
0.0
 40
0
 41
0
  0
VERTEX
  8
0
 10
602.242
 20
14.1528
 30
0.0
 40
0
 41
0
  0
VERTEX
  8
0
 10
602.56
 20
14.451
 30
0.0
 40
0
 41
0
  0
VERTEX
  8
0
 10
602.893
 20
14.7335
 30
0.0
 40
0
 41
0
  0
VERTEX
  8
0
 10
603.24
 20
14.9997
 30
0.0
 40
0
 41
0
  0
VERTEX
  8
0
 10
603.6
 20
15.2493
 30
0.0
 40
0
 41
0
  0
VERTEX
  8
0
 10
603.972
 20
15.4814
 30
0.0
 40
0
 41
0
  0
VERTEX
  8
0
 10
604.357
 20
15.6958
 30
0.0
 40
0
 41
0
  0
VERTEX
  8
0
 10
604.754
 20
15.8917
 30
0.0
 40
0
 41
0
  0
VERTEX
  8
0
 10
605.058
 20
16.0271
 30
0.0
 40
0
 41
0
  0
VERTEX
  8
0
 10
605.161
 20
16.0687
 30
0.0
 40
0
 41
0
  0
VERTEX
  8
0
 10
606.882
 20
16.7671
 30
0.0
 40
0
 41
0
  0
VERTEX
  8
0
 10
606.969
 20
16.8028
 30
0.0
 40
0
 41
0
  0
VERTEX
  8
0
 10
607.228
 20
16.9229
 30
0.0
 40
0
 41
0
  0
VERTEX
  8
0
 10
607.557
 20
17.1025
 30
0.0
 40
0
 41
0
  0
VERTEX
  8
0
 10
607.869
 20
17.3046
 30
0.0
 40
0
 41
0
  0
VERTEX
  8
0
 10
608.164
 20
17.5278
 30
0.0
 40
0
 41
0
  0
VERTEX
  8
0
 10
608.44
 20
17.771
 30
0.0
 40
0
 41
0
  0
VERTEX
  8
0
 10
608.697
 20
18.0328
 30
0.0
 40
0
 41
0
  0
VERTEX
  8
0
 10
608.933
 20
18.3119
 30
0.0
 40
0
 41
0
  0
VERTEX
  8
0
 10
609.149
 20
18.6074
 30
0.0
 40
0
 41
0
  0
VERTEX
  8
0
 10
609.342
 20
18.9176
 30
0.0
 40
0
 41
0
  0
VERTEX
  8
0
 10
609.511
 20
19.2415
 30
0.0
 40
0
 41
0
  0
VERTEX
  8
0
 10
609.657
 20
19.5779
 30
0.0
 40
0
 41
0
  0
VERTEX
  8
0
 10
609.779
 20
19.9251
 30
0.0
 40
0
 41
0
  0
VERTEX
  8
0
 10
609.875
 20
20.2824
 30
0.0
 40
0
 41
0
  0
VERTEX
  8
0
 10
609.944
 20
20.6481
 30
0.0
 40
0
 41
0
  0
VERTEX
  8
0
 10
609.986
 20
21.0211
 30
0.0
 40
0
 41
0
  0
VERTEX
  8
0
 10
610.001
 20
21.3053
 30
0.0
 40
0
 41
0
  0
VERTEX
  8
0
 10
610.001
 20
21.4
 30
0.0
 40
0
 41
0
  0
VERTEX
  8
0
 10
610.001
 20
25.0133
 30
0.0
 40
0
 41
0
  0
SEQEND
 8
0
  0
POLYLINE
  8
0
 62
     0
 66
     1
 10
0
 20
0
 30
0.0
 70
     1
 40
0
 41
0
  0
VERTEX
  8
0
 10
611.651
 20
370.014
 30
0.0
 40
0
 41
0
  0
VERTEX
  8
0
 10
611.651
 20
21.4
 30
0.0
 40
0
 41
0
  0
VERTEX
  8
0
 10
611.651
 20
21.2765
 30
0.0
 40
0
 41
0
  0
VERTEX
  8
0
 10
611.632
 20
20.9056
 30
0.0
 40
0
 41
0
  0
VERTEX
  8
0
 10
611.578
 20
20.4158
 30
0.0
 40
0
 41
0
  0
VERTEX
  8
0
 10
611.488
 20
19.9328
 30
0.0
 40
0
 41
0
  0
VERTEX
  8
0
 10
611.361
 20
19.4583
 30
0.0
 40
0
 41
0
  0
VERTEX
  8
0
 10
611.2
 20
18.9946
 30
0.0
 40
0
 41
0
  0
VERTEX
  8
0
 10
611.006
 20
18.5432
 30
0.0
 40
0
 41
0
  0
VERTEX
  8
0
 10
610.778
 20
18.1064
 30
0.0
 40
0
 41
0
  0
VERTEX
  8
0
 10
610.586
 20
17.7883
 30
0.0
 40
0
 41
0
  0
VERTEX
  8
0
 10
610.517
 20
17.6858
 30
0.0
 40
0
 41
0
  0
VERTEX
  8
0
 10
610.447
 20
17.5833
 30
0.0
 40
0
 41
0
  0
VERTEX
  8
0
 10
610.225
 20
17.286
 30
0.0
 40
0
 41
0
  0
VERTEX
  8
0
 10
609.907
 20
16.9103
 30
0.0
 40
0
 41
0
  0
VERTEX
  8
0
 10
609.561
 20
16.5603
 30
0.0
 40
0
 41
0
  0
VERTEX
  8
0
 10
609.192
 20
16.2371
 30
0.0
 40
0
 41
0
  0
VERTEX
  8
0
 10
608.8
 20
15.9419
 30
0.0
 40
0
 41
0
  0
VERTEX
  8
0
 10
608.386
 20
15.6764
 30
0.0
 40
0
 41
0
  0
VERTEX
  8
0
 10
607.953
 20
15.4414
 30
0.0
 40
0
 41
0
  0
VERTEX
  8
0
 10
607.617
 20
15.2847
 30
0.0
 40
0
 41
0
  0
VERTEX
  8
0
 10
607.501
 20
15.2383
 30
0.0
 40
0
 41
0
  0
VERTEX
  8
0
 10
605.781
 20
14.5399
 30
0.0
 40
0
 41
0
  0
VERTEX
  8
0
 10
605.697
 20
14.5057
 30
0.0
 40
0
 41
0
  0
VERTEX
  8
0
 10
605.449
 20
14.3953
 30
0.0
 40
0
 41
0
  0
VERTEX
  8
0
 10
605.125
 20
14.2353
 30
0.0
 40
0
 41
0
  0
VERTEX
  8
0
 10
604.811
 20
14.0603
 30
0.0
 40
0
 41
0
  0
VERTEX
  8
0
 10
604.507
 20
13.8706
 30
0.0
 40
0
 41
0
  0
VERTEX
  8
0
 10
604.213
 20
13.6668
 30
0.0
 40
0
 41
0
  0
VERTEX
  8
0
 10
603.929
 20
13.4494
 30
0.0
 40
0
 41
0
  0
VERTEX
  8
0
 10
603.657
 20
13.2187
 30
0.0
 40
0
 41
0
  0
VERTEX
  8
0
 10
603.397
 20
12.9752
 30
0.0
 40
0
 41
0
  0
VERTEX
  8
0
 10
603.149
 20
12.7195
 30
0.0
 40
0
 41
0
  0
VERTEX
  8
0
 10
602.912
 20
12.4517
 30
0.0
 40
0
 41
0
  0
VERTEX
  8
0
 10
602.69
 20
12.1726
 30
0.0
 40
0
 41
0
  0
VERTEX
  8
0
 10
602.481
 20
11.8825
 30
0.0
 40
0
 41
0
  0
VERTEX
  8
0
 10
602.286
 20
11.5818
 30
0.0
 40
0
 41
0
  0
VERTEX
  8
0
 10
602.104
 20
11.2711
 30
0.0
 40
0
 41
0
  0
VERTEX
  8
0
 10
601.939
 20
10.9507
 30
0.0
 40
0
 41
0
  0
VERTEX
  8
0
 10
601.824
 20
10.7043
 30
0.0
 40
0
 41
0
  0
VERTEX
  8
0
 10
601.787
 20
10.621
 30
0.0
 40
0
 41
0
  0
VERTEX
  8
0
 10
600.836
 20
8.39708
 30
0.0
 40
0
 41
0
  0
VERTEX
  8
0
 10
600.789
 20
8.28526
 30
0.0
 40
0
 41
0
  0
VERTEX
  8
0
 10
600.629
 20
7.95671
 30
0.0
 40
0
 41
0
  0
VERTEX
  8
0
 10
600.39
 20
7.5344
 30
0.0
 40
0
 41
0
  0
VERTEX
  8
0
 10
600.122
 20
7.13162
 30
0.0
 40
0
 41
0
  0
VERTEX
  8
0
 10
599.826
 20
6.74983
 30
0.0
 40
0
 41
0
  0
VERTEX
  8
0
 10
599.503
 20
6.39057
 30
0.0
 40
0
 41
0
  0
VERTEX
  8
0
 10
599.154
 20
6.05528
 30
0.0
 40
0
 41
0
  0
VERTEX
  8
0
 10
598.781
 20
5.7455
 30
0.0
 40
0
 41
0
  0
VERTEX
  8
0
 10
598.486
 20
5.52962
 30
0.0
 40
0
 41
0
  0
VERTEX
  8
0
 10
598.385
 20
5.46262
 30
0.0
 40
0
 41
0
  0
VERTEX
  8
0
 10
598.283
 20
5.39567
 30
0.0
 40
0
 41
0
  0
VERTEX
  8
0
 10
597.969
 20
5.20953
 30
0.0
 40
0
 41
0
  0
VERTEX
  8
0
 10
597.537
 20
4.98833
 30
0.0
 40
0
 41
0
  0
VERTEX
  8
0
 10
597.092
 20
4.79969
 30
0.0
 40
0
 41
0
  0
VERTEX
  8
0
 10
596.635
 20
4.6441
 30
0.0
 40
0
 41
0
  0
VERTEX
  8
0
 10
596.167
 20
4.52208
 30
0.0
 40
0
 41
0
  0
VERTEX
  8
0
 10
595.692
 20
4.43425
 30
0.0
 40
0
 41
0
  0
VERTEX
  8
0
 10
595.21
 20
4.38113
 30
0.0
 40
0
 41
0
  0
VERTEX
  8
0
 10
594.844
 20
4.36328
 30
0.0
 40
0
 41
0
  0
VERTEX
  8
0
 10
594.722
 20
4.36328
 30
0.0
 40
0
 41
0
  0
VERTEX
  8
0
 10
591.001
 20
4.36328
 30
0.0
 40
0
 41
0
  0
VERTEX
  8
0
 10
520.001
 20
4.43218
 30
0.0
 40
0
 41
0
  0
VERTEX
  8
0
 10
449
 20
4.36328
 30
0.0
 40
0
 41
0
  0
VERTEX
  8
0
 10
445.279
 20
4.36328
 30
0.0
 40
0
 41
0
  0
VERTEX
  8
0
 10
445.157
 20
4.36328
 30
0.0
 40
0
 41
0
  0
VERTEX
  8
0
 10
444.792
 20
4.38113
 30
0.0
 40
0
 41
0
  0
VERTEX
  8
0
 10
444.31
 20
4.43425
 30
0.0
 40
0
 41
0
  0
VERTEX
  8
0
 10
443.835
 20
4.52208
 30
0.0
 40
0
 41
0
  0
VERTEX
  8
0
 10
443.367
 20
4.6441
 30
0.0
 40
0
 41
0
  0
VERTEX
  8
0
 10
442.91
 20
4.79969
 30
0.0
 40
0
 41
0
  0
VERTEX
  8
0
 10
442.464
 20
4.98833
 30
0.0
 40
0
 41
0
  0
VERTEX
  8
0
 10
442.032
 20
5.20953
 30
0.0
 40
0
 41
0
  0
VERTEX
  8
0
 10
441.718
 20
5.39567
 30
0.0
 40
0
 41
0
  0
VERTEX
  8
0
 10
441.617
 20
5.46262
 30
0.0
 40
0
 41
0
  0
VERTEX
  8
0
 10
441.515
 20
5.52962
 30
0.0
 40
0
 41
0
  0
VERTEX
  8
0
 10
441.221
 20
5.7455
 30
0.0
 40
0
 41
0
  0
VERTEX
  8
0
 10
440.847
 20
6.05528
 30
0.0
 40
0
 41
0
  0
VERTEX
  8
0
 10
440.499
 20
6.39057
 30
0.0
 40
0
 41
0
  0
VERTEX
  8
0
 10
440.175
 20
6.74983
 30
0.0
 40
0
 41
0
  0
VERTEX
  8
0
 10
439.879
 20
7.13162
 30
0.0
 40
0
 41
0
  0
VERTEX
  8
0
 10
439.611
 20
7.5344
 30
0.0
 40
0
 41
0
  0
VERTEX
  8
0
 10
439.374
 20
7.95671
 30
0.0
 40
0
 41
0
  0
VERTEX
  8
0
 10
439.213
 20
8.28526
 30
0.0
 40
0
 41
0
  0
VERTEX
  8
0
 10
439.165
 20
8.39708
 30
0.0
 40
0
 41
0
  0
VERTEX
  8
0
 10
438.214
 20
10.621
 30
0.0
 40
0
 41
0
  0
VERTEX
  8
0
 10
438.178
 20
10.7043
 30
0.0
 40
0
 41
0
  0
VERTEX
  8
0
 10
438.063
 20
10.9507
 30
0.0
 40
0
 41
0
  0
VERTEX
  8
0
 10
437.897
 20
11.2711
 30
0.0
 40
0
 41
0
  0
VERTEX
  8
0
 10
437.715
 20
11.5818
 30
0.0
 40
0
 41
0
  0
VERTEX
  8
0
 10
437.521
 20
11.8825
 30
0.0
 40
0
 41
0
  0
VERTEX
  8
0
 10
437.311
 20
12.1726
 30
0.0
 40
0
 41
0
  0
VERTEX
  8
0
 10
437.089
 20
12.4517
 30
0.0
 40
0
 41
0
  0
VERTEX
  8
0
 10
436.853
 20
12.7195
 30
0.0
 40
0
 41
0
  0
VERTEX
  8
0
 10
436.604
 20
12.9752
 30
0.0
 40
0
 41
0
  0
VERTEX
  8
0
 10
436.344
 20
13.2187
 30
0.0
 40
0
 41
0
  0
VERTEX
  8
0
 10
436.072
 20
13.4494
 30
0.0
 40
0
 41
0
  0
VERTEX
  8
0
 10
435.789
 20
13.6668
 30
0.0
 40
0
 41
0
  0
VERTEX
  8
0
 10
435.494
 20
13.8706
 30
0.0
 40
0
 41
0
  0
VERTEX
  8
0
 10
435.19
 20
14.0603
 30
0.0
 40
0
 41
0
  0
VERTEX
  8
0
 10
434.876
 20
14.2353
 30
0.0
 40
0
 41
0
  0
VERTEX
  8
0
 10
434.553
 20
14.3953
 30
0.0
 40
0
 41
0
  0
VERTEX
  8
0
 10
434.304
 20
14.5058
 30
0.0
 40
0
 41
0
  0
VERTEX
  8
0
 10
434.221
 20
14.5399
 30
0.0
 40
0
 41
0
  0
VERTEX
  8
0
 10
432.5
 20
15.2383
 30
0.0
 40
0
 41
0
  0
VERTEX
  8
0
 10
432.385
 20
15.2847
 30
0.0
 40
0
 41
0
  0
VERTEX
  8
0
 10
432.049
 20
15.4414
 30
0.0
 40
0
 41
0
  0
VERTEX
  8
0
 10
431.615
 20
15.6764
 30
0.0
 40
0
 41
0
  0
VERTEX
  8
0
 10
431.201
 20
15.9419
 30
0.0
 40
0
 41
0
  0
VERTEX
  8
0
 10
430.81
 20
16.2371
 30
0.0
 40
0
 41
0
  0
VERTEX
  8
0
 10
430.44
 20
16.5603
 30
0.0
 40
0
 41
0
  0
VERTEX
  8
0
 10
430.094
 20
16.9103
 30
0.0
 40
0
 41
0
  0
VERTEX
  8
0
 10
429.776
 20
17.286
 30
0.0
 40
0
 41
0
  0
VERTEX
  8
0
 10
429.554
 20
17.5833
 30
0.0
 40
0
 41
0
  0
VERTEX
  8
0
 10
429.485
 20
17.6858
 30
0.0
 40
0
 41
0
  0
VERTEX
  8
0
 10
429.415
 20
17.7885
 30
0.0
 40
0
 41
0
  0
VERTEX
  8
0
 10
429.224
 20
18.1064
 30
0.0
 40
0
 41
0
  0
VERTEX
  8
0
 10
428.996
 20
18.5432
 30
0.0
 40
0
 41
0
  0
VERTEX
  8
0
 10
428.801
 20
18.9946
 30
0.0
 40
0
 41
0
  0
VERTEX
  8
0
 10
428.64
 20
19.4583
 30
0.0
 40
0
 41
0
  0
VERTEX
  8
0
 10
428.514
 20
19.9328
 30
0.0
 40
0
 41
0
  0
VERTEX
  8
0
 10
428.424
 20
20.4158
 30
0.0
 40
0
 41
0
  0
VERTEX
  8
0
 10
428.369
 20
20.9056
 30
0.0
 40
0
 41
0
  0
VERTEX
  8
0
 10
428.35
 20
21.2765
 30
0.0
 40
0
 41
0
  0
VERTEX
  8
0
 10
428.35
 20
21.4
 30
0.0
 40
0
 41
0
  0
VERTEX
  8
0
 10
428.35
 20
373.628
 30
0.0
 40
0
 41
0
  0
VERTEX
  8
0
 10
428.35
 20
373.751
 30
0.0
 40
0
 41
0
  0
VERTEX
  8
0
 10
428.369
 20
374.122
 30
0.0
 40
0
 41
0
  0
VERTEX
  8
0
 10
428.424
 20
374.611
 30
0.0
 40
0
 41
0
  0
VERTEX
  8
0
 10
428.514
 20
375.094
 30
0.0
 40
0
 41
0
  0
VERTEX
  8
0
 10
428.64
 20
375.569
 30
0.0
 40
0
 41
0
  0
VERTEX
  8
0
 10
428.801
 20
376.033
 30
0.0
 40
0
 41
0
  0
VERTEX
  8
0
 10
428.996
 20
376.483
 30
0.0
 40
0
 41
0
  0
VERTEX
  8
0
 10
429.224
 20
376.921
 30
0.0
 40
0
 41
0
  0
VERTEX
  8
0
 10
429.415
 20
377.239
 30
0.0
 40
0
 41
0
  0
VERTEX
  8
0
 10
429.485
 20
377.342
 30
0.0
 40
0
 41
0
  0
VERTEX
  8
0
 10
429.554
 20
377.444
 30
0.0
 40
0
 41
0
  0
VERTEX
  8
0
 10
429.776
 20
377.742
 30
0.0
 40
0
 41
0
  0
VERTEX
  8
0
 10
430.094
 20
378.117
 30
0.0
 40
0
 41
0
  0
VERTEX
  8
0
 10
430.44
 20
378.467
 30
0.0
 40
0
 41
0
  0
VERTEX
  8
0
 10
430.81
 20
378.79
 30
0.0
 40
0
 41
0
  0
VERTEX
  8
0
 10
431.201
 20
379.085
 30
0.0
 40
0
 41
0
  0
VERTEX
  8
0
 10
431.615
 20
379.351
 30
0.0
 40
0
 41
0
  0
VERTEX
  8
0
 10
432.049
 20
379.586
 30
0.0
 40
0
 41
0
  0
VERTEX
  8
0
 10
432.385
 20
379.743
 30
0.0
 40
0
 41
0
  0
VERTEX
  8
0
 10
432.5
 20
379.789
 30
0.0
 40
0
 41
0
  0
VERTEX
  8
0
 10
434.221
 20
380.487
 30
0.0
 40
0
 41
0
  0
VERTEX
  8
0
 10
434.304
 20
380.521
 30
0.0
 40
0
 41
0
  0
VERTEX
  8
0
 10
434.553
 20
380.632
 30
0.0
 40
0
 41
0
  0
VERTEX
  8
0
 10
434.876
 20
380.792
 30
0.0
 40
0
 41
0
  0
VERTEX
  8
0
 10
435.19
 20
380.967
 30
0.0
 40
0
 41
0
  0
VERTEX
  8
0
 10
435.494
 20
381.157
 30
0.0
 40
0
 41
0
  0
VERTEX
  8
0
 10
435.789
 20
381.36
 30
0.0
 40
0
 41
0
  0
VERTEX
  8
0
 10
436.072
 20
381.578
 30
0.0
 40
0
 41
0
  0
VERTEX
  8
0
 10
436.344
 20
381.808
 30
0.0
 40
0
 41
0
  0
VERTEX
  8
0
 10
436.604
 20
382.051
 30
0.0
 40
0
 41
0
  0
VERTEX
  8
0
 10
436.853
 20
382.308
 30
0.0
 40
0
 41
0
  0
VERTEX
  8
0
 10
437.089
 20
382.575
 30
0.0
 40
0
 41
0
  0
VERTEX
  8
0
 10
437.311
 20
382.854
 30
0.0
 40
0
 41
0
  0
VERTEX
  8
0
 10
437.521
 20
383.144
 30
0.0
 40
0
 41
0
  0
VERTEX
  8
0
 10
437.715
 20
383.446
 30
0.0
 40
0
 41
0
  0
VERTEX
  8
0
 10
437.897
 20
383.756
 30
0.0
 40
0
 41
0
  0
VERTEX
  8
0
 10
438.063
 20
384.076
 30
0.0
 40
0
 41
0
  0
VERTEX
  8
0
 10
438.178
 20
384.324
 30
0.0
 40
0
 41
0
  0
VERTEX
  8
0
 10
438.214
 20
384.406
 30
0.0
 40
0
 41
0
  0
VERTEX
  8
0
 10
439.165
 20
386.631
 30
0.0
 40
0
 41
0
  0
VERTEX
  8
0
 10
439.213
 20
386.742
 30
0.0
 40
0
 41
0
  0
VERTEX
  8
0
 10
439.374
 20
387.071
 30
0.0
 40
0
 41
0
  0
VERTEX
  8
0
 10
439.611
 20
387.493
 30
0.0
 40
0
 41
0
  0
VERTEX
  8
0
 10
439.879
 20
387.896
 30
0.0
 40
0
 41
0
  0
VERTEX
  8
0
 10
440.175
 20
388.278
 30
0.0
 40
0
 41
0
  0
VERTEX
  8
0
 10
440.499
 20
388.636
 30
0.0
 40
0
 41
0
  0
VERTEX
  8
0
 10
440.847
 20
388.972
 30
0.0
 40
0
 41
0
  0
VERTEX
  8
0
 10
441.221
 20
389.282
 30
0.0
 40
0
 41
0
  0
VERTEX
  8
0
 10
441.515
 20
389.497
 30
0.0
 40
0
 41
0
  0
VERTEX
  8
0
 10
441.617
 20
389.564
 30
0.0
 40
0
 41
0
  0
VERTEX
  8
0
 10
441.718
 20
389.632
 30
0.0
 40
0
 41
0
  0
VERTEX
  8
0
 10
442.032
 20
389.818
 30
0.0
 40
0
 41
0
  0
VERTEX
  8
0
 10
442.464
 20
390.039
 30
0.0
 40
0
 41
0
  0
VERTEX
  8
0
 10
442.91
 20
390.228
 30
0.0
 40
0
 41
0
  0
VERTEX
  8
0
 10
443.367
 20
390.383
 30
0.0
 40
0
 41
0
  0
VERTEX
  8
0
 10
443.835
 20
390.506
 30
0.0
 40
0
 41
0
  0
VERTEX
  8
0
 10
444.31
 20
390.593
 30
0.0
 40
0
 41
0
  0
VERTEX
  8
0
 10
444.792
 20
390.646
 30
0.0
 40
0
 41
0
  0
VERTEX
  8
0
 10
445.157
 20
390.664
 30
0.0
 40
0
 41
0
  0
VERTEX
  8
0
 10
445.279
 20
390.664
 30
0.0
 40
0
 41
0
  0
VERTEX
  8
0
 10
449
 20
390.664
 30
0.0
 40
0
 41
0
  0
VERTEX
  8
0
 10
520.001
 20
390.594
 30
0.0
 40
0
 41
0
  0
VERTEX
  8
0
 10
591.001
 20
390.664
 30
0.0
 40
0
 41
0
  0
VERTEX
  8
0
 10
594.722
 20
390.664
 30
0.0
 40
0
 41
0
  0
VERTEX
  8
0
 10
594.844
 20
390.664
 30
0.0
 40
0
 41
0
  0
VERTEX
  8
0
 10
595.21
 20
390.646
 30
0.0
 40
0
 41
0
  0
VERTEX
  8
0
 10
595.692
 20
390.593
 30
0.0
 40
0
 41
0
  0
VERTEX
  8
0
 10
596.167
 20
390.506
 30
0.0
 40
0
 41
0
  0
VERTEX
  8
0
 10
596.635
 20
390.383
 30
0.0
 40
0
 41
0
  0
VERTEX
  8
0
 10
597.092
 20
390.228
 30
0.0
 40
0
 41
0
  0
VERTEX
  8
0
 10
597.537
 20
390.039
 30
0.0
 40
0
 41
0
  0
VERTEX
  8
0
 10
597.969
 20
389.818
 30
0.0
 40
0
 41
0
  0
VERTEX
  8
0
 10
598.283
 20
389.632
 30
0.0
 40
0
 41
0
  0
VERTEX
  8
0
 10
598.385
 20
389.564
 30
0.0
 40
0
 41
0
  0
VERTEX
  8
0
 10
598.486
 20
389.497
 30
0.0
 40
0
 41
0
  0
VERTEX
  8
0
 10
598.781
 20
389.282
 30
0.0
 40
0
 41
0
  0
VERTEX
  8
0
 10
599.154
 20
388.972
 30
0.0
 40
0
 41
0
  0
VERTEX
  8
0
 10
599.503
 20
388.636
 30
0.0
 40
0
 41
0
  0
VERTEX
  8
0
 10
599.826
 20
388.278
 30
0.0
 40
0
 41
0
  0
VERTEX
  8
0
 10
600.122
 20
387.896
 30
0.0
 40
0
 41
0
  0
VERTEX
  8
0
 10
600.39
 20
387.493
 30
0.0
 40
0
 41
0
  0
VERTEX
  8
0
 10
600.629
 20
387.071
 30
0.0
 40
0
 41
0
  0
VERTEX
  8
0
 10
600.789
 20
386.742
 30
0.0
 40
0
 41
0
  0
VERTEX
  8
0
 10
600.836
 20
386.631
 30
0.0
 40
0
 41
0
  0
VERTEX
  8
0
 10
601.787
 20
384.406
 30
0.0
 40
0
 41
0
  0
VERTEX
  8
0
 10
601.824
 20
384.324
 30
0.0
 40
0
 41
0
  0
VERTEX
  8
0
 10
601.939
 20
384.076
 30
0.0
 40
0
 41
0
  0
VERTEX
  8
0
 10
602.104
 20
383.756
 30
0.0
 40
0
 41
0
  0
VERTEX
  8
0
 10
602.286
 20
383.446
 30
0.0
 40
0
 41
0
  0
VERTEX
  8
0
 10
602.481
 20
383.144
 30
0.0
 40
0
 41
0
  0
VERTEX
  8
0
 10
602.69
 20
382.854
 30
0.0
 40
0
 41
0
  0
VERTEX
  8
0
 10
602.912
 20
382.575
 30
0.0
 40
0
 41
0
  0
VERTEX
  8
0
 10
603.149
 20
382.308
 30
0.0
 40
0
 41
0
  0
VERTEX
  8
0
 10
603.397
 20
382.051
 30
0.0
 40
0
 41
0
  0
VERTEX
  8
0
 10
603.657
 20
381.808
 30
0.0
 40
0
 41
0
  0
VERTEX
  8
0
 10
603.929
 20
381.578
 30
0.0
 40
0
 41
0
  0
VERTEX
  8
0
 10
604.213
 20
381.36
 30
0.0
 40
0
 41
0
  0
VERTEX
  8
0
 10
604.507
 20
381.157
 30
0.0
 40
0
 41
0
  0
VERTEX
  8
0
 10
604.811
 20
380.967
 30
0.0
 40
0
 41
0
  0
VERTEX
  8
0
 10
605.125
 20
380.792
 30
0.0
 40
0
 41
0
  0
VERTEX
  8
0
 10
605.449
 20
380.632
 30
0.0
 40
0
 41
0
  0
VERTEX
  8
0
 10
605.697
 20
380.521
 30
0.0
 40
0
 41
0
  0
VERTEX
  8
0
 10
605.781
 20
380.487
 30
0.0
 40
0
 41
0
  0
VERTEX
  8
0
 10
607.501
 20
379.789
 30
0.0
 40
0
 41
0
  0
VERTEX
  8
0
 10
607.617
 20
379.743
 30
0.0
 40
0
 41
0
  0
VERTEX
  8
0
 10
607.953
 20
379.586
 30
0.0
 40
0
 41
0
  0
VERTEX
  8
0
 10
608.386
 20
379.351
 30
0.0
 40
0
 41
0
  0
VERTEX
  8
0
 10
608.8
 20
379.085
 30
0.0
 40
0
 41
0
  0
VERTEX
  8
0
 10
609.192
 20
378.79
 30
0.0
 40
0
 41
0
  0
VERTEX
  8
0
 10
609.561
 20
378.467
 30
0.0
 40
0
 41
0
  0
VERTEX
  8
0
 10
609.907
 20
378.117
 30
0.0
 40
0
 41
0
  0
VERTEX
  8
0
 10
610.225
 20
377.742
 30
0.0
 40
0
 41
0
  0
VERTEX
  8
0
 10
610.447
 20
377.444
 30
0.0
 40
0
 41
0
  0
VERTEX
  8
0
 10
610.517
 20
377.342
 30
0.0
 40
0
 41
0
  0
VERTEX
  8
0
 10
610.586
 20
377.239
 30
0.0
 40
0
 41
0
  0
VERTEX
  8
0
 10
610.778
 20
376.921
 30
0.0
 40
0
 41
0
  0
VERTEX
  8
0
 10
611.006
 20
376.483
 30
0.0
 40
0
 41
0
  0
VERTEX
  8
0
 10
611.2
 20
376.033
 30
0.0
 40
0
 41
0
  0
VERTEX
  8
0
 10
611.361
 20
375.569
 30
0.0
 40
0
 41
0
  0
VERTEX
  8
0
 10
611.488
 20
375.094
 30
0.0
 40
0
 41
0
  0
VERTEX
  8
0
 10
611.578
 20
374.611
 30
0.0
 40
0
 41
0
  0
VERTEX
  8
0
 10
611.632
 20
374.122
 30
0.0
 40
0
 41
0
  0
VERTEX
  8
0
 10
611.651
 20
373.751
 30
0.0
 40
0
 41
0
  0
VERTEX
  8
0
 10
611.651
 20
373.628
 30
0.0
 40
0
 41
0
  0
VERTEX
  8
0
 10
611.651
 20
370.014
 30
0.0
 40
0
 41
0
  0
SEQEND
 8
0
  0
POLYLINE
  8
0
 62
     0
 66
     1
 10
0
 20
0
 30
0.0
 70
     1
 40
0
 41
0
  0
VERTEX
  8
0
 10
611.651
 20
25.0133
 30
0.0
 40
0
 41
0
  0
VERTEX
  8
0
 10
611.651
 20
373.628
 30
0.0
 40
0
 41
0
  0
VERTEX
  8
0
 10
611.651
 20
373.751
 30
0.0
 40
0
 41
0
  0
VERTEX
  8
0
 10
611.632
 20
374.122
 30
0.0
 40
0
 41
0
  0
VERTEX
  8
0
 10
611.578
 20
374.611
 30
0.0
 40
0
 41
0
  0
VERTEX
  8
0
 10
611.488
 20
375.094
 30
0.0
 40
0
 41
0
  0
VERTEX
  8
0
 10
611.361
 20
375.569
 30
0.0
 40
0
 41
0
  0
VERTEX
  8
0
 10
611.2
 20
376.033
 30
0.0
 40
0
 41
0
  0
VERTEX
  8
0
 10
611.006
 20
376.483
 30
0.0
 40
0
 41
0
  0
VERTEX
  8
0
 10
610.778
 20
376.921
 30
0.0
 40
0
 41
0
  0
VERTEX
  8
0
 10
610.586
 20
377.239
 30
0.0
 40
0
 41
0
  0
VERTEX
  8
0
 10
610.517
 20
377.342
 30
0.0
 40
0
 41
0
  0
VERTEX
  8
0
 10
610.447
 20
377.444
 30
0.0
 40
0
 41
0
  0
VERTEX
  8
0
 10
610.225
 20
377.742
 30
0.0
 40
0
 41
0
  0
VERTEX
  8
0
 10
609.907
 20
378.117
 30
0.0
 40
0
 41
0
  0
VERTEX
  8
0
 10
609.561
 20
378.467
 30
0.0
 40
0
 41
0
  0
VERTEX
  8
0
 10
609.192
 20
378.79
 30
0.0
 40
0
 41
0
  0
VERTEX
  8
0
 10
608.8
 20
379.085
 30
0.0
 40
0
 41
0
  0
VERTEX
  8
0
 10
608.386
 20
379.351
 30
0.0
 40
0
 41
0
  0
VERTEX
  8
0
 10
607.953
 20
379.586
 30
0.0
 40
0
 41
0
  0
VERTEX
  8
0
 10
607.617
 20
379.743
 30
0.0
 40
0
 41
0
  0
VERTEX
  8
0
 10
607.501
 20
379.789
 30
0.0
 40
0
 41
0
  0
VERTEX
  8
0
 10
605.781
 20
380.487
 30
0.0
 40
0
 41
0
  0
VERTEX
  8
0
 10
605.697
 20
380.521
 30
0.0
 40
0
 41
0
  0
VERTEX
  8
0
 10
605.449
 20
380.632
 30
0.0
 40
0
 41
0
  0
VERTEX
  8
0
 10
605.125
 20
380.792
 30
0.0
 40
0
 41
0
  0
VERTEX
  8
0
 10
604.811
 20
380.967
 30
0.0
 40
0
 41
0
  0
VERTEX
  8
0
 10
604.507
 20
381.157
 30
0.0
 40
0
 41
0
  0
VERTEX
  8
0
 10
604.213
 20
381.36
 30
0.0
 40
0
 41
0
  0
VERTEX
  8
0
 10
603.929
 20
381.578
 30
0.0
 40
0
 41
0
  0
VERTEX
  8
0
 10
603.657
 20
381.808
 30
0.0
 40
0
 41
0
  0
VERTEX
  8
0
 10
603.397
 20
382.051
 30
0.0
 40
0
 41
0
  0
VERTEX
  8
0
 10
603.149
 20
382.308
 30
0.0
 40
0
 41
0
  0
VERTEX
  8
0
 10
602.912
 20
382.575
 30
0.0
 40
0
 41
0
  0
VERTEX
  8
0
 10
602.69
 20
382.854
 30
0.0
 40
0
 41
0
  0
VERTEX
  8
0
 10
602.481
 20
383.144
 30
0.0
 40
0
 41
0
  0
VERTEX
  8
0
 10
602.286
 20
383.446
 30
0.0
 40
0
 41
0
  0
VERTEX
  8
0
 10
602.104
 20
383.756
 30
0.0
 40
0
 41
0
  0
VERTEX
  8
0
 10
601.939
 20
384.076
 30
0.0
 40
0
 41
0
  0
VERTEX
  8
0
 10
601.824
 20
384.324
 30
0.0
 40
0
 41
0
  0
VERTEX
  8
0
 10
601.787
 20
384.406
 30
0.0
 40
0
 41
0
  0
VERTEX
  8
0
 10
600.836
 20
386.631
 30
0.0
 40
0
 41
0
  0
VERTEX
  8
0
 10
600.789
 20
386.742
 30
0.0
 40
0
 41
0
  0
VERTEX
  8
0
 10
600.629
 20
387.071
 30
0.0
 40
0
 41
0
  0
VERTEX
  8
0
 10
600.39
 20
387.493
 30
0.0
 40
0
 41
0
  0
VERTEX
  8
0
 10
600.122
 20
387.896
 30
0.0
 40
0
 41
0
  0
VERTEX
  8
0
 10
599.826
 20
388.278
 30
0.0
 40
0
 41
0
  0
VERTEX
  8
0
 10
599.503
 20
388.636
 30
0.0
 40
0
 41
0
  0
VERTEX
  8
0
 10
599.154
 20
388.972
 30
0.0
 40
0
 41
0
  0
VERTEX
  8
0
 10
598.781
 20
389.282
 30
0.0
 40
0
 41
0
  0
VERTEX
  8
0
 10
598.486
 20
389.497
 30
0.0
 40
0
 41
0
  0
VERTEX
  8
0
 10
598.385
 20
389.564
 30
0.0
 40
0
 41
0
  0
VERTEX
  8
0
 10
598.283
 20
389.632
 30
0.0
 40
0
 41
0
  0
VERTEX
  8
0
 10
597.969
 20
389.818
 30
0.0
 40
0
 41
0
  0
VERTEX
  8
0
 10
597.537
 20
390.039
 30
0.0
 40
0
 41
0
  0
VERTEX
  8
0
 10
597.092
 20
390.228
 30
0.0
 40
0
 41
0
  0
VERTEX
  8
0
 10
596.635
 20
390.383
 30
0.0
 40
0
 41
0
  0
VERTEX
  8
0
 10
596.167
 20
390.506
 30
0.0
 40
0
 41
0
  0
VERTEX
  8
0
 10
595.692
 20
390.593
 30
0.0
 40
0
 41
0
  0
VERTEX
  8
0
 10
595.21
 20
390.646
 30
0.0
 40
0
 41
0
  0
VERTEX
  8
0
 10
594.844
 20
390.664
 30
0.0
 40
0
 41
0
  0
VERTEX
  8
0
 10
594.722
 20
390.664
 30
0.0
 40
0
 41
0
  0
VERTEX
  8
0
 10
591.001
 20
390.664
 30
0.0
 40
0
 41
0
  0
VERTEX
  8
0
 10
520.001
 20
390.594
 30
0.0
 40
0
 41
0
  0
VERTEX
  8
0
 10
449
 20
390.664
 30
0.0
 40
0
 41
0
  0
VERTEX
  8
0
 10
445.279
 20
390.664
 30
0.0
 40
0
 41
0
  0
VERTEX
  8
0
 10
445.157
 20
390.664
 30
0.0
 40
0
 41
0
  0
VERTEX
  8
0
 10
444.792
 20
390.646
 30
0.0
 40
0
 41
0
  0
VERTEX
  8
0
 10
444.31
 20
390.593
 30
0.0
 40
0
 41
0
  0
VERTEX
  8
0
 10
443.835
 20
390.506
 30
0.0
 40
0
 41
0
  0
VERTEX
  8
0
 10
443.367
 20
390.383
 30
0.0
 40
0
 41
0
  0
VERTEX
  8
0
 10
442.91
 20
390.228
 30
0.0
 40
0
 41
0
  0
VERTEX
  8
0
 10
442.464
 20
390.039
 30
0.0
 40
0
 41
0
  0
VERTEX
  8
0
 10
442.032
 20
389.818
 30
0.0
 40
0
 41
0
  0
VERTEX
  8
0
 10
441.718
 20
389.632
 30
0.0
 40
0
 41
0
  0
VERTEX
  8
0
 10
441.617
 20
389.564
 30
0.0
 40
0
 41
0
  0
VERTEX
  8
0
 10
441.515
 20
389.497
 30
0.0
 40
0
 41
0
  0
VERTEX
  8
0
 10
441.221
 20
389.282
 30
0.0
 40
0
 41
0
  0
VERTEX
  8
0
 10
440.847
 20
388.972
 30
0.0
 40
0
 41
0
  0
VERTEX
  8
0
 10
440.499
 20
388.636
 30
0.0
 40
0
 41
0
  0
VERTEX
  8
0
 10
440.175
 20
388.278
 30
0.0
 40
0
 41
0
  0
VERTEX
  8
0
 10
439.879
 20
387.896
 30
0.0
 40
0
 41
0
  0
VERTEX
  8
0
 10
439.611
 20
387.493
 30
0.0
 40
0
 41
0
  0
VERTEX
  8
0
 10
439.374
 20
387.071
 30
0.0
 40
0
 41
0
  0
VERTEX
  8
0
 10
439.213
 20
386.742
 30
0.0
 40
0
 41
0
  0
VERTEX
  8
0
 10
439.165
 20
386.631
 30
0.0
 40
0
 41
0
  0
VERTEX
  8
0
 10
438.214
 20
384.406
 30
0.0
 40
0
 41
0
  0
VERTEX
  8
0
 10
438.178
 20
384.324
 30
0.0
 40
0
 41
0
  0
VERTEX
  8
0
 10
438.063
 20
384.076
 30
0.0
 40
0
 41
0
  0
VERTEX
  8
0
 10
437.897
 20
383.756
 30
0.0
 40
0
 41
0
  0
VERTEX
  8
0
 10
437.715
 20
383.446
 30
0.0
 40
0
 41
0
  0
VERTEX
  8
0
 10
437.521
 20
383.144
 30
0.0
 40
0
 41
0
  0
VERTEX
  8
0
 10
437.311
 20
382.854
 30
0.0
 40
0
 41
0
  0
VERTEX
  8
0
 10
437.089
 20
382.575
 30
0.0
 40
0
 41
0
  0
VERTEX
  8
0
 10
436.853
 20
382.308
 30
0.0
 40
0
 41
0
  0
VERTEX
  8
0
 10
436.604
 20
382.051
 30
0.0
 40
0
 41
0
  0
VERTEX
  8
0
 10
436.344
 20
381.808
 30
0.0
 40
0
 41
0
  0
VERTEX
  8
0
 10
436.072
 20
381.578
 30
0.0
 40
0
 41
0
  0
VERTEX
  8
0
 10
435.789
 20
381.36
 30
0.0
 40
0
 41
0
  0
VERTEX
  8
0
 10
435.494
 20
381.157
 30
0.0
 40
0
 41
0
  0
VERTEX
  8
0
 10
435.19
 20
380.967
 30
0.0
 40
0
 41
0
  0
VERTEX
  8
0
 10
434.876
 20
380.792
 30
0.0
 40
0
 41
0
  0
VERTEX
  8
0
 10
434.553
 20
380.632
 30
0.0
 40
0
 41
0
  0
VERTEX
  8
0
 10
434.304
 20
380.521
 30
0.0
 40
0
 41
0
  0
VERTEX
  8
0
 10
434.221
 20
380.487
 30
0.0
 40
0
 41
0
  0
VERTEX
  8
0
 10
432.5
 20
379.789
 30
0.0
 40
0
 41
0
  0
VERTEX
  8
0
 10
432.385
 20
379.743
 30
0.0
 40
0
 41
0
  0
VERTEX
  8
0
 10
432.049
 20
379.586
 30
0.0
 40
0
 41
0
  0
VERTEX
  8
0
 10
431.615
 20
379.351
 30
0.0
 40
0
 41
0
  0
VERTEX
  8
0
 10
431.201
 20
379.085
 30
0.0
 40
0
 41
0
  0
VERTEX
  8
0
 10
430.81
 20
378.79
 30
0.0
 40
0
 41
0
  0
VERTEX
  8
0
 10
430.44
 20
378.467
 30
0.0
 40
0
 41
0
  0
VERTEX
  8
0
 10
430.094
 20
378.117
 30
0.0
 40
0
 41
0
  0
VERTEX
  8
0
 10
429.776
 20
377.742
 30
0.0
 40
0
 41
0
  0
VERTEX
  8
0
 10
429.554
 20
377.444
 30
0.0
 40
0
 41
0
  0
VERTEX
  8
0
 10
429.485
 20
377.342
 30
0.0
 40
0
 41
0
  0
VERTEX
  8
0
 10
429.415
 20
377.239
 30
0.0
 40
0
 41
0
  0
VERTEX
  8
0
 10
429.224
 20
376.921
 30
0.0
 40
0
 41
0
  0
VERTEX
  8
0
 10
428.996
 20
376.483
 30
0.0
 40
0
 41
0
  0
VERTEX
  8
0
 10
428.801
 20
376.033
 30
0.0
 40
0
 41
0
  0
VERTEX
  8
0
 10
428.64
 20
375.569
 30
0.0
 40
0
 41
0
  0
VERTEX
  8
0
 10
428.514
 20
375.094
 30
0.0
 40
0
 41
0
  0
VERTEX
  8
0
 10
428.424
 20
374.611
 30
0.0
 40
0
 41
0
  0
VERTEX
  8
0
 10
428.369
 20
374.122
 30
0.0
 40
0
 41
0
  0
VERTEX
  8
0
 10
428.35
 20
373.751
 30
0.0
 40
0
 41
0
  0
VERTEX
  8
0
 10
428.35
 20
373.628
 30
0.0
 40
0
 41
0
  0
VERTEX
  8
0
 10
428.35
 20
21.4
 30
0.0
 40
0
 41
0
  0
VERTEX
  8
0
 10
428.35
 20
21.2765
 30
0.0
 40
0
 41
0
  0
VERTEX
  8
0
 10
428.369
 20
20.9056
 30
0.0
 40
0
 41
0
  0
VERTEX
  8
0
 10
428.424
 20
20.4158
 30
0.0
 40
0
 41
0
  0
VERTEX
  8
0
 10
428.514
 20
19.9328
 30
0.0
 40
0
 41
0
  0
VERTEX
  8
0
 10
428.64
 20
19.4583
 30
0.0
 40
0
 41
0
  0
VERTEX
  8
0
 10
428.801
 20
18.9946
 30
0.0
 40
0
 41
0
  0
VERTEX
  8
0
 10
428.996
 20
18.5432
 30
0.0
 40
0
 41
0
  0
VERTEX
  8
0
 10
429.224
 20
18.1064
 30
0.0
 40
0
 41
0
  0
VERTEX
  8
0
 10
429.415
 20
17.7885
 30
0.0
 40
0
 41
0
  0
VERTEX
  8
0
 10
429.485
 20
17.6858
 30
0.0
 40
0
 41
0
  0
VERTEX
  8
0
 10
429.554
 20
17.5833
 30
0.0
 40
0
 41
0
  0
VERTEX
  8
0
 10
429.776
 20
17.286
 30
0.0
 40
0
 41
0
  0
VERTEX
  8
0
 10
430.094
 20
16.9103
 30
0.0
 40
0
 41
0
  0
VERTEX
  8
0
 10
430.44
 20
16.5603
 30
0.0
 40
0
 41
0
  0
VERTEX
  8
0
 10
430.81
 20
16.2371
 30
0.0
 40
0
 41
0
  0
VERTEX
  8
0
 10
431.201
 20
15.9419
 30
0.0
 40
0
 41
0
  0
VERTEX
  8
0
 10
431.615
 20
15.6764
 30
0.0
 40
0
 41
0
  0
VERTEX
  8
0
 10
432.049
 20
15.4414
 30
0.0
 40
0
 41
0
  0
VERTEX
  8
0
 10
432.385
 20
15.2847
 30
0.0
 40
0
 41
0
  0
VERTEX
  8
0
 10
432.5
 20
15.2383
 30
0.0
 40
0
 41
0
  0
VERTEX
  8
0
 10
434.221
 20
14.5399
 30
0.0
 40
0
 41
0
  0
VERTEX
  8
0
 10
434.304
 20
14.5058
 30
0.0
 40
0
 41
0
  0
VERTEX
  8
0
 10
434.553
 20
14.3953
 30
0.0
 40
0
 41
0
  0
VERTEX
  8
0
 10
434.876
 20
14.2353
 30
0.0
 40
0
 41
0
  0
VERTEX
  8
0
 10
435.19
 20
14.0603
 30
0.0
 40
0
 41
0
  0
VERTEX
  8
0
 10
435.494
 20
13.8706
 30
0.0
 40
0
 41
0
  0
VERTEX
  8
0
 10
435.789
 20
13.6668
 30
0.0
 40
0
 41
0
  0
VERTEX
  8
0
 10
436.072
 20
13.4494
 30
0.0
 40
0
 41
0
  0
VERTEX
  8
0
 10
436.344
 20
13.2187
 30
0.0
 40
0
 41
0
  0
VERTEX
  8
0
 10
436.604
 20
12.9752
 30
0.0
 40
0
 41
0
  0
VERTEX
  8
0
 10
436.853
 20
12.7195
 30
0.0
 40
0
 41
0
  0
VERTEX
  8
0
 10
437.089
 20
12.4517
 30
0.0
 40
0
 41
0
  0
VERTEX
  8
0
 10
437.311
 20
12.1726
 30
0.0
 40
0
 41
0
  0
VERTEX
  8
0
 10
437.521
 20
11.8825
 30
0.0
 40
0
 41
0
  0
VERTEX
  8
0
 10
437.715
 20
11.5818
 30
0.0
 40
0
 41
0
  0
VERTEX
  8
0
 10
437.897
 20
11.2711
 30
0.0
 40
0
 41
0
  0
VERTEX
  8
0
 10
438.063
 20
10.9507
 30
0.0
 40
0
 41
0
  0
VERTEX
  8
0
 10
438.178
 20
10.7043
 30
0.0
 40
0
 41
0
  0
VERTEX
  8
0
 10
438.214
 20
10.621
 30
0.0
 40
0
 41
0
  0
VERTEX
  8
0
 10
439.165
 20
8.39708
 30
0.0
 40
0
 41
0
  0
VERTEX
  8
0
 10
439.213
 20
8.28526
 30
0.0
 40
0
 41
0
  0
VERTEX
  8
0
 10
439.374
 20
7.95671
 30
0.0
 40
0
 41
0
  0
VERTEX
  8
0
 10
439.611
 20
7.5344
 30
0.0
 40
0
 41
0
  0
VERTEX
  8
0
 10
439.879
 20
7.13162
 30
0.0
 40
0
 41
0
  0
VERTEX
  8
0
 10
440.175
 20
6.74983
 30
0.0
 40
0
 41
0
  0
VERTEX
  8
0
 10
440.499
 20
6.39057
 30
0.0
 40
0
 41
0
  0
VERTEX
  8
0
 10
440.847
 20
6.05528
 30
0.0
 40
0
 41
0
  0
VERTEX
  8
0
 10
441.221
 20
5.7455
 30
0.0
 40
0
 41
0
  0
VERTEX
  8
0
 10
441.515
 20
5.52962
 30
0.0
 40
0
 41
0
  0
VERTEX
  8
0
 10
441.617
 20
5.46262
 30
0.0
 40
0
 41
0
  0
VERTEX
  8
0
 10
441.718
 20
5.39567
 30
0.0
 40
0
 41
0
  0
VERTEX
  8
0
 10
442.032
 20
5.20953
 30
0.0
 40
0
 41
0
  0
VERTEX
  8
0
 10
442.464
 20
4.98833
 30
0.0
 40
0
 41
0
  0
VERTEX
  8
0
 10
442.91
 20
4.79969
 30
0.0
 40
0
 41
0
  0
VERTEX
  8
0
 10
443.367
 20
4.6441
 30
0.0
 40
0
 41
0
  0
VERTEX
  8
0
 10
443.835
 20
4.52208
 30
0.0
 40
0
 41
0
  0
VERTEX
  8
0
 10
444.31
 20
4.43425
 30
0.0
 40
0
 41
0
  0
VERTEX
  8
0
 10
444.792
 20
4.38113
 30
0.0
 40
0
 41
0
  0
VERTEX
  8
0
 10
445.157
 20
4.36328
 30
0.0
 40
0
 41
0
  0
VERTEX
  8
0
 10
445.279
 20
4.36328
 30
0.0
 40
0
 41
0
  0
VERTEX
  8
0
 10
449
 20
4.36328
 30
0.0
 40
0
 41
0
  0
VERTEX
  8
0
 10
520.001
 20
4.43218
 30
0.0
 40
0
 41
0
  0
VERTEX
  8
0
 10
591.001
 20
4.36328
 30
0.0
 40
0
 41
0
  0
VERTEX
  8
0
 10
594.722
 20
4.36328
 30
0.0
 40
0
 41
0
  0
VERTEX
  8
0
 10
594.844
 20
4.36328
 30
0.0
 40
0
 41
0
  0
VERTEX
  8
0
 10
595.21
 20
4.38113
 30
0.0
 40
0
 41
0
  0
VERTEX
  8
0
 10
595.692
 20
4.43425
 30
0.0
 40
0
 41
0
  0
VERTEX
  8
0
 10
596.167
 20
4.52208
 30
0.0
 40
0
 41
0
  0
VERTEX
  8
0
 10
596.635
 20
4.6441
 30
0.0
 40
0
 41
0
  0
VERTEX
  8
0
 10
597.092
 20
4.79969
 30
0.0
 40
0
 41
0
  0
VERTEX
  8
0
 10
597.537
 20
4.98833
 30
0.0
 40
0
 41
0
  0
VERTEX
  8
0
 10
597.969
 20
5.20953
 30
0.0
 40
0
 41
0
  0
VERTEX
  8
0
 10
598.283
 20
5.39567
 30
0.0
 40
0
 41
0
  0
VERTEX
  8
0
 10
598.385
 20
5.46262
 30
0.0
 40
0
 41
0
  0
VERTEX
  8
0
 10
598.486
 20
5.52962
 30
0.0
 40
0
 41
0
  0
VERTEX
  8
0
 10
598.781
 20
5.7455
 30
0.0
 40
0
 41
0
  0
VERTEX
  8
0
 10
599.154
 20
6.05528
 30
0.0
 40
0
 41
0
  0
VERTEX
  8
0
 10
599.503
 20
6.39057
 30
0.0
 40
0
 41
0
  0
VERTEX
  8
0
 10
599.826
 20
6.74983
 30
0.0
 40
0
 41
0
  0
VERTEX
  8
0
 10
600.122
 20
7.13162
 30
0.0
 40
0
 41
0
  0
VERTEX
  8
0
 10
600.39
 20
7.5344
 30
0.0
 40
0
 41
0
  0
VERTEX
  8
0
 10
600.629
 20
7.95671
 30
0.0
 40
0
 41
0
  0
VERTEX
  8
0
 10
600.789
 20
8.28526
 30
0.0
 40
0
 41
0
  0
VERTEX
  8
0
 10
600.836
 20
8.39708
 30
0.0
 40
0
 41
0
  0
VERTEX
  8
0
 10
601.787
 20
10.621
 30
0.0
 40
0
 41
0
  0
VERTEX
  8
0
 10
601.824
 20
10.7043
 30
0.0
 40
0
 41
0
  0
VERTEX
  8
0
 10
601.939
 20
10.9507
 30
0.0
 40
0
 41
0
  0
VERTEX
  8
0
 10
602.104
 20
11.2711
 30
0.0
 40
0
 41
0
  0
VERTEX
  8
0
 10
602.286
 20
11.5818
 30
0.0
 40
0
 41
0
  0
VERTEX
  8
0
 10
602.481
 20
11.8825
 30
0.0
 40
0
 41
0
  0
VERTEX
  8
0
 10
602.69
 20
12.1726
 30
0.0
 40
0
 41
0
  0
VERTEX
  8
0
 10
602.912
 20
12.4517
 30
0.0
 40
0
 41
0
  0
VERTEX
  8
0
 10
603.149
 20
12.7195
 30
0.0
 40
0
 41
0
  0
VERTEX
  8
0
 10
603.397
 20
12.9752
 30
0.0
 40
0
 41
0
  0
VERTEX
  8
0
 10
603.657
 20
13.2187
 30
0.0
 40
0
 41
0
  0
VERTEX
  8
0
 10
603.929
 20
13.4494
 30
0.0
 40
0
 41
0
  0
VERTEX
  8
0
 10
604.213
 20
13.6668
 30
0.0
 40
0
 41
0
  0
VERTEX
  8
0
 10
604.507
 20
13.8706
 30
0.0
 40
0
 41
0
  0
VERTEX
  8
0
 10
604.811
 20
14.0603
 30
0.0
 40
0
 41
0
  0
VERTEX
  8
0
 10
605.125
 20
14.2353
 30
0.0
 40
0
 41
0
  0
VERTEX
  8
0
 10
605.449
 20
14.3953
 30
0.0
 40
0
 41
0
  0
VERTEX
  8
0
 10
605.697
 20
14.5057
 30
0.0
 40
0
 41
0
  0
VERTEX
  8
0
 10
605.781
 20
14.5399
 30
0.0
 40
0
 41
0
  0
VERTEX
  8
0
 10
607.501
 20
15.2383
 30
0.0
 40
0
 41
0
  0
VERTEX
  8
0
 10
607.617
 20
15.2847
 30
0.0
 40
0
 41
0
  0
VERTEX
  8
0
 10
607.953
 20
15.4414
 30
0.0
 40
0
 41
0
  0
VERTEX
  8
0
 10
608.386
 20
15.6764
 30
0.0
 40
0
 41
0
  0
VERTEX
  8
0
 10
608.8
 20
15.9419
 30
0.0
 40
0
 41
0
  0
VERTEX
  8
0
 10
609.192
 20
16.2371
 30
0.0
 40
0
 41
0
  0
VERTEX
  8
0
 10
609.561
 20
16.5603
 30
0.0
 40
0
 41
0
  0
VERTEX
  8
0
 10
609.907
 20
16.9103
 30
0.0
 40
0
 41
0
  0
VERTEX
  8
0
 10
610.225
 20
17.286
 30
0.0
 40
0
 41
0
  0
VERTEX
  8
0
 10
610.447
 20
17.5833
 30
0.0
 40
0
 41
0
  0
VERTEX
  8
0
 10
610.517
 20
17.6858
 30
0.0
 40
0
 41
0
  0
VERTEX
  8
0
 10
610.586
 20
17.7883
 30
0.0
 40
0
 41
0
  0
VERTEX
  8
0
 10
610.778
 20
18.1064
 30
0.0
 40
0
 41
0
  0
VERTEX
  8
0
 10
611.006
 20
18.5432
 30
0.0
 40
0
 41
0
  0
VERTEX
  8
0
 10
611.2
 20
18.9946
 30
0.0
 40
0
 41
0
  0
VERTEX
  8
0
 10
611.361
 20
19.4583
 30
0.0
 40
0
 41
0
  0
VERTEX
  8
0
 10
611.488
 20
19.9328
 30
0.0
 40
0
 41
0
  0
VERTEX
  8
0
 10
611.578
 20
20.4158
 30
0.0
 40
0
 41
0
  0
VERTEX
  8
0
 10
611.632
 20
20.9056
 30
0.0
 40
0
 41
0
  0
VERTEX
  8
0
 10
611.651
 20
21.2765
 30
0.0
 40
0
 41
0
  0
VERTEX
  8
0
 10
611.651
 20
21.4
 30
0.0
 40
0
 41
0
  0
VERTEX
  8
0
 10
611.651
 20
25.0133
 30
0.0
 40
0
 41
0
  0
SEQEND
 8
0
  0
POLYLINE
  8
0
 62
     0
 66
     1
 10
0
 20
0
 30
0.0
 70
     1
 40
0
 41
0
  0
VERTEX
  8
0
 10
614.351
 20
370.014
 30
0.0
 40
0
 41
0
  0
VERTEX
  8
0
 10
614.351
 20
21.4
 30
0.0
 40
0
 41
0
  0
VERTEX
  8
0
 10
614.351
 20
21.2263
 30
0.0
 40
0
 41
0
  0
VERTEX
  8
0
 10
614.325
 20
20.7049
 30
0.0
 40
0
 41
0
  0
VERTEX
  8
0
 10
614.247
 20
20.0161
 30
0.0
 40
0
 41
0
  0
VERTEX
  8
0
 10
614.121
 20
19.3371
 30
0.0
 40
0
 41
0
  0
VERTEX
  8
0
 10
613.943
 20
18.67
 30
0.0
 40
0
 41
0
  0
VERTEX
  8
0
 10
613.718
 20
18.0178
 30
0.0
 40
0
 41
0
  0
VERTEX
  8
0
 10
613.444
 20
17.3832
 30
0.0
 40
0
 41
0
  0
VERTEX
  8
0
 10
613.124
 20
16.769
 30
0.0
 40
0
 41
0
  0
VERTEX
  8
0
 10
612.854
 20
16.3219
 30
0.0
 40
0
 41
0
  0
VERTEX
  8
0
 10
612.757
 20
16.1778
 30
0.0
 40
0
 41
0
  0
VERTEX
  8
0
 10
612.66
 20
16.0336
 30
0.0
 40
0
 41
0
  0
VERTEX
  8
0
 10
612.347
 20
15.6156
 30
0.0
 40
0
 41
0
  0
VERTEX
  8
0
 10
611.899
 20
15.0874
 30
0.0
 40
0
 41
0
  0
VERTEX
  8
0
 10
611.412
 20
14.5953
 30
0.0
 40
0
 41
0
  0
VERTEX
  8
0
 10
610.893
 20
14.1408
 30
0.0
 40
0
 41
0
  0
VERTEX
  8
0
 10
610.342
 20
13.726
 30
0.0
 40
0
 41
0
  0
VERTEX
  8
0
 10
609.761
 20
13.3524
 30
0.0
 40
0
 41
0
  0
VERTEX
  8
0
 10
609.151
 20
13.022
 30
0.0
 40
0
 41
0
  0
VERTEX
  8
0
 10
608.678
 20
12.8019
 30
0.0
 40
0
 41
0
  0
VERTEX
  8
0
 10
608.517
 20
12.7365
 30
0.0
 40
0
 41
0
  0
VERTEX
  8
0
 10
606.796
 20
12.038
 30
0.0
 40
0
 41
0
  0
VERTEX
  8
0
 10
606.69
 20
11.9951
 30
0.0
 40
0
 41
0
  0
VERTEX
  8
0
 10
606.382
 20
11.8454
 30
0.0
 40
0
 41
0
  0
VERTEX
  8
0
 10
605.99
 20
11.6146
 30
0.0
 40
0
 41
0
  0
VERTEX
  8
0
 10
605.625
 20
11.3482
 30
0.0
 40
0
 41
0
  0
VERTEX
  8
0
 10
605.289
 20
11.0482
 30
0.0
 40
0
 41
0
  0
VERTEX
  8
0
 10
604.982
 20
10.717
 30
0.0
 40
0
 41
0
  0
VERTEX
  8
0
 10
604.708
 20
10.3569
 30
0.0
 40
0
 41
0
  0
VERTEX
  8
0
 10
604.471
 20
9.97006
 30
0.0
 40
0
 41
0
  0
VERTEX
  8
0
 10
604.315
 20
9.66385
 30
0.0
 40
0
 41
0
  0
VERTEX
  8
0
 10
604.271
 20
9.55881
 30
0.0
 40
0
 41
0
  0
VERTEX
  8
0
 10
603.318
 20
7.33485
 30
0.0
 40
0
 41
0
  0
VERTEX
  8
0
 10
603.251
 20
7.17763
 30
0.0
 40
0
 41
0
  0
VERTEX
  8
0
 10
603.026
 20
6.71571
 30
0.0
 40
0
 41
0
  0
VERTEX
  8
0
 10
602.692
 20
6.1219
 30
0.0
 40
0
 41
0
  0
VERTEX
  8
0
 10
602.314
 20
5.55561
 30
0.0
 40
0
 41
0
  0
VERTEX
  8
0
 10
601.899
 20
5.01882
 30
0.0
 40
0
 41
0
  0
VERTEX
  8
0
 10
601.444
 20
4.51367
 30
0.0
 40
0
 41
0
  0
VERTEX
  8
0
 10
600.954
 20
4.04226
 30
0.0
 40
0
 41
0
  0
VERTEX
  8
0
 10
600.429
 20
3.60667
 30
0.0
 40
0
 41
0
  0
VERTEX
  8
0
 10
600.014
 20
3.30311
 30
0.0
 40
0
 41
0
  0
VERTEX
  8
0
 10
599.872
 20
3.20893
 30
0.0
 40
0
 41
0
  0
VERTEX
  8
0
 10
599.729
 20
3.11475
 30
0.0
 40
0
 41
0
  0
VERTEX
  8
0
 10
599.287
 20
2.85308
 30
0.0
 40
0
 41
0
  0
VERTEX
  8
0
 10
598.681
 20
2.5421
 30
0.0
 40
0
 41
0
  0
VERTEX
  8
0
 10
598.054
 20
2.27686
 30
0.0
 40
0
 41
0
  0
VERTEX
  8
0
 10
597.411
 20
2.05806
 30
0.0
 40
0
 41
0
  0
VERTEX
  8
0
 10
596.753
 20
1.88656
 30
0.0
 40
0
 41
0
  0
VERTEX
  8
0
 10
596.085
 20
1.76307
 30
0.0
 40
0
 41
0
  0
VERTEX
  8
0
 10
595.407
 20
1.68838
 30
0.0
 40
0
 41
0
  0
VERTEX
  8
0
 10
594.893
 20
1.66331
 30
0.0
 40
0
 41
0
  0
VERTEX
  8
0
 10
594.722
 20
1.66331
 30
0.0
 40
0
 41
0
  0
VERTEX
  8
0
 10
591.001
 20
1.66331
 30
0.0
 40
0
 41
0
  0
VERTEX
  8
0
 10
520.19
 20
1.73199
 30
0.0
 40
0
 41
0
  0
VERTEX
  8
0
 10
520.19
 20
1.73232
 30
0.0
 40
0
 41
0
  0
VERTEX
  8
0
 10
520.001
 20
1.73215
 30
0.0
 40
0
 41
0
  0
VERTEX
  8
0
 10
519.811
 20
1.73232
 30
0.0
 40
0
 41
0
  0
VERTEX
  8
0
 10
519.811
 20
1.73199
 30
0.0
 40
0
 41
0
  0
VERTEX
  8
0
 10
449
 20
1.66331
 30
0.0
 40
0
 41
0
  0
VERTEX
  8
0
 10
445.279
 20
1.66331
 30
0.0
 40
0
 41
0
  0
VERTEX
  8
0
 10
445.108
 20
1.66331
 30
0.0
 40
0
 41
0
  0
VERTEX
  8
0
 10
444.594
 20
1.68838
 30
0.0
 40
0
 41
0
  0
VERTEX
  8
0
 10
443.917
 20
1.76307
 30
0.0
 40
0
 41
0
  0
VERTEX
  8
0
 10
443.249
 20
1.88656
 30
0.0
 40
0
 41
0
  0
VERTEX
  8
0
 10
442.59
 20
2.05806
 30
0.0
 40
0
 41
0
  0
VERTEX
  8
0
 10
441.947
 20
2.27686
 30
0.0
 40
0
 41
0
  0
VERTEX
  8
0
 10
441.321
 20
2.5421
 30
0.0
 40
0
 41
0
  0
VERTEX
  8
0
 10
440.714
 20
2.85308
 30
0.0
 40
0
 41
0
  0
VERTEX
  8
0
 10
440.272
 20
3.11475
 30
0.0
 40
0
 41
0
  0
VERTEX
  8
0
 10
440.129
 20
3.20893
 30
0.0
 40
0
 41
0
  0
VERTEX
  8
0
 10
439.987
 20
3.30317
 30
0.0
 40
0
 41
0
  0
VERTEX
  8
0
 10
439.572
 20
3.60667
 30
0.0
 40
0
 41
0
  0
VERTEX
  8
0
 10
439.047
 20
4.04226
 30
0.0
 40
0
 41
0
  0
VERTEX
  8
0
 10
438.557
 20
4.51367
 30
0.0
 40
0
 41
0
  0
VERTEX
  8
0
 10
438.103
 20
5.01882
 30
0.0
 40
0
 41
0
  0
VERTEX
  8
0
 10
437.688
 20
5.55561
 30
0.0
 40
0
 41
0
  0
VERTEX
  8
0
 10
437.31
 20
6.1219
 30
0.0
 40
0
 41
0
  0
VERTEX
  8
0
 10
436.975
 20
6.71571
 30
0.0
 40
0
 41
0
  0
VERTEX
  8
0
 10
436.75
 20
7.17763
 30
0.0
 40
0
 41
0
  0
VERTEX
  8
0
 10
436.683
 20
7.33485
 30
0.0
 40
0
 41
0
  0
VERTEX
  8
0
 10
435.731
 20
9.55881
 30
0.0
 40
0
 41
0
  0
VERTEX
  8
0
 10
435.686
 20
9.66385
 30
0.0
 40
0
 41
0
  0
VERTEX
  8
0
 10
435.531
 20
9.97006
 30
0.0
 40
0
 41
0
  0
VERTEX
  8
0
 10
435.293
 20
10.3569
 30
0.0
 40
0
 41
0
  0
VERTEX
  8
0
 10
435.019
 20
10.717
 30
0.0
 40
0
 41
0
  0
VERTEX
  8
0
 10
434.713
 20
11.0482
 30
0.0
 40
0
 41
0
  0
VERTEX
  8
0
 10
434.376
 20
11.3482
 30
0.0
 40
0
 41
0
  0
VERTEX
  8
0
 10
434.011
 20
11.6146
 30
0.0
 40
0
 41
0
  0
VERTEX
  8
0
 10
433.619
 20
11.8454
 30
0.0
 40
0
 41
0
  0
VERTEX
  8
0
 10
433.311
 20
11.9951
 30
0.0
 40
0
 41
0
  0
VERTEX
  8
0
 10
433.206
 20
12.038
 30
0.0
 40
0
 41
0
  0
VERTEX
  8
0
 10
431.485
 20
12.7365
 30
0.0
 40
0
 41
0
  0
VERTEX
  8
0
 10
431.324
 20
12.8019
 30
0.0
 40
0
 41
0
  0
VERTEX
  8
0
 10
430.85
 20
13.022
 30
0.0
 40
0
 41
0
  0
VERTEX
  8
0
 10
430.24
 20
13.3524
 30
0.0
 40
0
 41
0
  0
VERTEX
  8
0
 10
429.66
 20
13.726
 30
0.0
 40
0
 41
0
  0
VERTEX
  8
0
 10
429.108
 20
14.1408
 30
0.0
 40
0
 41
0
  0
VERTEX
  8
0
 10
428.589
 20
14.5953
 30
0.0
 40
0
 41
0
  0
VERTEX
  8
0
 10
428.103
 20
15.0874
 30
0.0
 40
0
 41
0
  0
VERTEX
  8
0
 10
427.654
 20
15.6156
 30
0.0
 40
0
 41
0
  0
VERTEX
  8
0
 10
427.342
 20
16.0336
 30
0.0
 40
0
 41
0
  0
VERTEX
  8
0
 10
427.244
 20
16.1778
 30
0.0
 40
0
 41
0
  0
VERTEX
  8
0
 10
427.147
 20
16.3219
 30
0.0
 40
0
 41
0
  0
VERTEX
  8
0
 10
426.878
 20
16.769
 30
0.0
 40
0
 41
0
  0
VERTEX
  8
0
 10
426.557
 20
17.3832
 30
0.0
 40
0
 41
0
  0
VERTEX
  8
0
 10
426.283
 20
18.0178
 30
0.0
 40
0
 41
0
  0
VERTEX
  8
0
 10
426.058
 20
18.67
 30
0.0
 40
0
 41
0
  0
VERTEX
  8
0
 10
425.881
 20
19.3371
 30
0.0
 40
0
 41
0
  0
VERTEX
  8
0
 10
425.754
 20
20.0161
 30
0.0
 40
0
 41
0
  0
VERTEX
  8
0
 10
425.676
 20
20.7049
 30
0.0
 40
0
 41
0
  0
VERTEX
  8
0
 10
425.65
 20
21.2263
 30
0.0
 40
0
 41
0
  0
VERTEX
  8
0
 10
425.65
 20
21.4
 30
0.0
 40
0
 41
0
  0
VERTEX
  8
0
 10
425.65
 20
373.628
 30
0.0
 40
0
 41
0
  0
VERTEX
  8
0
 10
425.65
 20
373.801
 30
0.0
 40
0
 41
0
  0
VERTEX
  8
0
 10
425.676
 20
374.322
 30
0.0
 40
0
 41
0
  0
VERTEX
  8
0
 10
425.754
 20
375.011
 30
0.0
 40
0
 41
0
  0
VERTEX
  8
0
 10
425.881
 20
375.69
 30
0.0
 40
0
 41
0
  0
VERTEX
  8
0
 10
426.058
 20
376.357
 30
0.0
 40
0
 41
0
  0
VERTEX
  8
0
 10
426.283
 20
377.01
 30
0.0
 40
0
 41
0
  0
VERTEX
  8
0
 10
426.557
 20
377.644
 30
0.0
 40
0
 41
0
  0
VERTEX
  8
0
 10
426.878
 20
378.258
 30
0.0
 40
0
 41
0
  0
VERTEX
  8
0
 10
427.147
 20
378.706
 30
0.0
 40
0
 41
0
  0
VERTEX
  8
0
 10
427.244
 20
378.85
 30
0.0
 40
0
 41
0
  0
VERTEX
  8
0
 10
427.342
 20
378.993
 30
0.0
 40
0
 41
0
  0
VERTEX
  8
0
 10
427.654
 20
379.411
 30
0.0
 40
0
 41
0
  0
VERTEX
  8
0
 10
428.103
 20
379.94
 30
0.0
 40
0
 41
0
  0
VERTEX
  8
0
 10
428.589
 20
380.432
 30
0.0
 40
0
 41
0
  0
VERTEX
  8
0
 10
429.108
 20
380.886
 30
0.0
 40
0
 41
0
  0
VERTEX
  8
0
 10
429.66
 20
381.301
 30
0.0
 40
0
 41
0
  0
VERTEX
  8
0
 10
430.24
 20
381.675
 30
0.0
 40
0
 41
0
  0
VERTEX
  8
0
 10
430.85
 20
382.006
 30
0.0
 40
0
 41
0
  0
VERTEX
  8
0
 10
431.324
 20
382.225
 30
0.0
 40
0
 41
0
  0
VERTEX
  8
0
 10
431.485
 20
382.29
 30
0.0
 40
0
 41
0
  0
VERTEX
  8
0
 10
433.206
 20
382.989
 30
0.0
 40
0
 41
0
  0
VERTEX
  8
0
 10
433.311
 20
383.032
 30
0.0
 40
0
 41
0
  0
VERTEX
  8
0
 10
433.619
 20
383.182
 30
0.0
 40
0
 41
0
  0
VERTEX
  8
0
 10
434.011
 20
383.412
 30
0.0
 40
0
 41
0
  0
VERTEX
  8
0
 10
434.376
 20
383.679
 30
0.0
 40
0
 41
0
  0
VERTEX
  8
0
 10
434.713
 20
383.979
 30
0.0
 40
0
 41
0
  0
VERTEX
  8
0
 10
435.019
 20
384.31
 30
0.0
 40
0
 41
0
  0
VERTEX
  8
0
 10
435.293
 20
384.671
 30
0.0
 40
0
 41
0
  0
VERTEX
  8
0
 10
435.531
 20
385.057
 30
0.0
 40
0
 41
0
  0
VERTEX
  8
0
 10
435.686
 20
385.364
 30
0.0
 40
0
 41
0
  0
VERTEX
  8
0
 10
435.731
 20
385.468
 30
0.0
 40
0
 41
0
  0
VERTEX
  8
0
 10
436.683
 20
387.692
 30
0.0
 40
0
 41
0
  0
VERTEX
  8
0
 10
436.75
 20
387.85
 30
0.0
 40
0
 41
0
  0
VERTEX
  8
0
 10
436.975
 20
388.311
 30
0.0
 40
0
 41
0
  0
VERTEX
  8
0
 10
437.31
 20
388.906
 30
0.0
 40
0
 41
0
  0
VERTEX
  8
0
 10
437.688
 20
389.472
 30
0.0
 40
0
 41
0
  0
VERTEX
  8
0
 10
438.103
 20
390.008
 30
0.0
 40
0
 41
0
  0
VERTEX
  8
0
 10
438.557
 20
390.514
 30
0.0
 40
0
 41
0
  0
VERTEX
  8
0
 10
439.047
 20
390.985
 30
0.0
 40
0
 41
0
  0
VERTEX
  8
0
 10
439.572
 20
391.421
 30
0.0
 40
0
 41
0
  0
VERTEX
  8
0
 10
439.987
 20
391.724
 30
0.0
 40
0
 41
0
  0
VERTEX
  8
0
 10
440.129
 20
391.818
 30
0.0
 40
0
 41
0
  0
VERTEX
  8
0
 10
440.272
 20
391.912
 30
0.0
 40
0
 41
0
  0
VERTEX
  8
0
 10
440.714
 20
392.174
 30
0.0
 40
0
 41
0
  0
VERTEX
  8
0
 10
441.321
 20
392.485
 30
0.0
 40
0
 41
0
  0
VERTEX
  8
0
 10
441.947
 20
392.75
 30
0.0
 40
0
 41
0
  0
VERTEX
  8
0
 10
442.59
 20
392.969
 30
0.0
 40
0
 41
0
  0
VERTEX
  8
0
 10
443.249
 20
393.14
 30
0.0
 40
0
 41
0
  0
VERTEX
  8
0
 10
443.917
 20
393.264
 30
0.0
 40
0
 41
0
  0
VERTEX
  8
0
 10
444.594
 20
393.339
 30
0.0
 40
0
 41
0
  0
VERTEX
  8
0
 10
445.108
 20
393.364
 30
0.0
 40
0
 41
0
  0
VERTEX
  8
0
 10
445.279
 20
393.364
 30
0.0
 40
0
 41
0
  0
VERTEX
  8
0
 10
449
 20
393.364
 30
0.0
 40
0
 41
0
  0
VERTEX
  8
0
 10
519.811
 20
393.296
 30
0.0
 40
0
 41
0
  0
VERTEX
  8
0
 10
519.811
 20
393.294
 30
0.0
 40
0
 41
0
  0
VERTEX
  8
0
 10
520.001
 20
393.294
 30
0.0
 40
0
 41
0
  0
VERTEX
  8
0
 10
520.19
 20
393.294
 30
0.0
 40
0
 41
0
  0
VERTEX
  8
0
 10
520.19
 20
393.296
 30
0.0
 40
0
 41
0
  0
VERTEX
  8
0
 10
591.001
 20
393.364
 30
0.0
 40
0
 41
0
  0
VERTEX
  8
0
 10
594.722
 20
393.364
 30
0.0
 40
0
 41
0
  0
VERTEX
  8
0
 10
594.893
 20
393.364
 30
0.0
 40
0
 41
0
  0
VERTEX
  8
0
 10
595.407
 20
393.339
 30
0.0
 40
0
 41
0
  0
VERTEX
  8
0
 10
596.085
 20
393.264
 30
0.0
 40
0
 41
0
  0
VERTEX
  8
0
 10
596.753
 20
393.14
 30
0.0
 40
0
 41
0
  0
VERTEX
  8
0
 10
597.411
 20
392.969
 30
0.0
 40
0
 41
0
  0
VERTEX
  8
0
 10
598.054
 20
392.75
 30
0.0
 40
0
 41
0
  0
VERTEX
  8
0
 10
598.681
 20
392.485
 30
0.0
 40
0
 41
0
  0
VERTEX
  8
0
 10
599.287
 20
392.174
 30
0.0
 40
0
 41
0
  0
VERTEX
  8
0
 10
599.729
 20
391.912
 30
0.0
 40
0
 41
0
  0
VERTEX
  8
0
 10
599.872
 20
391.818
 30
0.0
 40
0
 41
0
  0
VERTEX
  8
0
 10
600.014
 20
391.724
 30
0.0
 40
0
 41
0
  0
VERTEX
  8
0
 10
600.429
 20
391.421
 30
0.0
 40
0
 41
0
  0
VERTEX
  8
0
 10
600.954
 20
390.985
 30
0.0
 40
0
 41
0
  0
VERTEX
  8
0
 10
601.444
 20
390.514
 30
0.0
 40
0
 41
0
  0
VERTEX
  8
0
 10
601.899
 20
390.008
 30
0.0
 40
0
 41
0
  0
VERTEX
  8
0
 10
602.314
 20
389.472
 30
0.0
 40
0
 41
0
  0
VERTEX
  8
0
 10
602.692
 20
388.906
 30
0.0
 40
0
 41
0
  0
VERTEX
  8
0
 10
603.026
 20
388.311
 30
0.0
 40
0
 41
0
  0
VERTEX
  8
0
 10
603.251
 20
387.85
 30
0.0
 40
0
 41
0
  0
VERTEX
  8
0
 10
603.318
 20
387.692
 30
0.0
 40
0
 41
0
  0
VERTEX
  8
0
 10
604.271
 20
385.468
 30
0.0
 40
0
 41
0
  0
VERTEX
  8
0
 10
604.315
 20
385.364
 30
0.0
 40
0
 41
0
  0
VERTEX
  8
0
 10
604.471
 20
385.057
 30
0.0
 40
0
 41
0
  0
VERTEX
  8
0
 10
604.708
 20
384.671
 30
0.0
 40
0
 41
0
  0
VERTEX
  8
0
 10
604.982
 20
384.31
 30
0.0
 40
0
 41
0
  0
VERTEX
  8
0
 10
605.289
 20
383.979
 30
0.0
 40
0
 41
0
  0
VERTEX
  8
0
 10
605.625
 20
383.679
 30
0.0
 40
0
 41
0
  0
VERTEX
  8
0
 10
605.99
 20
383.412
 30
0.0
 40
0
 41
0
  0
VERTEX
  8
0
 10
606.382
 20
383.182
 30
0.0
 40
0
 41
0
  0
VERTEX
  8
0
 10
606.69
 20
383.032
 30
0.0
 40
0
 41
0
  0
VERTEX
  8
0
 10
606.796
 20
382.989
 30
0.0
 40
0
 41
0
  0
VERTEX
  8
0
 10
608.517
 20
382.29
 30
0.0
 40
0
 41
0
  0
VERTEX
  8
0
 10
608.678
 20
382.225
 30
0.0
 40
0
 41
0
  0
VERTEX
  8
0
 10
609.151
 20
382.006
 30
0.0
 40
0
 41
0
  0
VERTEX
  8
0
 10
609.761
 20
381.675
 30
0.0
 40
0
 41
0
  0
VERTEX
  8
0
 10
610.342
 20
381.301
 30
0.0
 40
0
 41
0
  0
VERTEX
  8
0
 10
610.893
 20
380.886
 30
0.0
 40
0
 41
0
  0
VERTEX
  8
0
 10
611.412
 20
380.432
 30
0.0
 40
0
 41
0
  0
VERTEX
  8
0
 10
611.899
 20
379.94
 30
0.0
 40
0
 41
0
  0
VERTEX
  8
0
 10
612.347
 20
379.411
 30
0.0
 40
0
 41
0
  0
VERTEX
  8
0
 10
612.66
 20
378.993
 30
0.0
 40
0
 41
0
  0
VERTEX
  8
0
 10
612.757
 20
378.85
 30
0.0
 40
0
 41
0
  0
VERTEX
  8
0
 10
612.854
 20
378.706
 30
0.0
 40
0
 41
0
  0
VERTEX
  8
0
 10
613.124
 20
378.258
 30
0.0
 40
0
 41
0
  0
VERTEX
  8
0
 10
613.444
 20
377.644
 30
0.0
 40
0
 41
0
  0
VERTEX
  8
0
 10
613.718
 20
377.01
 30
0.0
 40
0
 41
0
  0
VERTEX
  8
0
 10
613.943
 20
376.357
 30
0.0
 40
0
 41
0
  0
VERTEX
  8
0
 10
614.121
 20
375.69
 30
0.0
 40
0
 41
0
  0
VERTEX
  8
0
 10
614.247
 20
375.011
 30
0.0
 40
0
 41
0
  0
VERTEX
  8
0
 10
614.325
 20
374.322
 30
0.0
 40
0
 41
0
  0
VERTEX
  8
0
 10
614.351
 20
373.801
 30
0.0
 40
0
 41
0
  0
VERTEX
  8
0
 10
614.351
 20
373.628
 30
0.0
 40
0
 41
0
  0
VERTEX
  8
0
 10
614.351
 20
370.014
 30
0.0
 40
0
 41
0
  0
SEQEND
 8
0
  0
POLYLINE
  8
0
 62
     0
 66
     1
 10
0
 20
0
 30
0.0
 70
     1
 40
0
 41
0
  0
VERTEX
  8
0
 10
430
 20
386.014
 30
0.0
 40
0
 41
0
  0
VERTEX
  8
0
 10
429.924
 20
386.014
 30
0.0
 40
0
 41
0
  0
VERTEX
  8
0
 10
429.694
 20
386.029
 30
0.0
 40
0
 41
0
  0
VERTEX
  8
0
 10
429.396
 20
386.075
 30
0.0
 40
0
 41
0
  0
VERTEX
  8
0
 10
429.108
 20
386.149
 30
0.0
 40
0
 41
0
  0
VERTEX
  8
0
 10
428.833
 20
386.25
 30
0.0
 40
0
 41
0
  0
VERTEX
  8
0
 10
428.571
 20
386.376
 30
0.0
 40
0
 41
0
  0
VERTEX
  8
0
 10
428.324
 20
386.526
 30
0.0
 40
0
 41
0
  0
VERTEX
  8
0
 10
428.092
 20
386.699
 30
0.0
 40
0
 41
0
  0
VERTEX
  8
0
 10
427.879
 20
386.893
 30
0.0
 40
0
 41
0
  0
VERTEX
  8
0
 10
427.686
 20
387.106
 30
0.0
 40
0
 41
0
  0
VERTEX
  8
0
 10
427.513
 20
387.336
 30
0.0
 40
0
 41
0
  0
VERTEX
  8
0
 10
427.362
 20
387.583
 30
0.0
 40
0
 41
0
  0
VERTEX
  8
0
 10
427.236
 20
387.846
 30
0.0
 40
0
 41
0
  0
VERTEX
  8
0
 10
427.136
 20
388.122
 30
0.0
 40
0
 41
0
  0
VERTEX
  8
0
 10
427.061
 20
388.41
 30
0.0
 40
0
 41
0
  0
VERTEX
  8
0
 10
427.017
 20
388.707
 30
0.0
 40
0
 41
0
  0
VERTEX
  8
0
 10
427
 20
388.938
 30
0.0
 40
0
 41
0
  0
VERTEX
  8
0
 10
427
 20
389.014
 30
0.0
 40
0
 41
0
  0
VERTEX
  8
0
 10
427
 20
389.09
 30
0.0
 40
0
 41
0
  0
VERTEX
  8
0
 10
427.017
 20
389.321
 30
0.0
 40
0
 41
0
  0
VERTEX
  8
0
 10
427.061
 20
389.618
 30
0.0
 40
0
 41
0
  0
VERTEX
  8
0
 10
427.136
 20
389.906
 30
0.0
 40
0
 41
0
  0
VERTEX
  8
0
 10
427.236
 20
390.182
 30
0.0
 40
0
 41
0
  0
VERTEX
  8
0
 10
427.362
 20
390.444
 30
0.0
 40
0
 41
0
  0
VERTEX
  8
0
 10
427.513
 20
390.692
 30
0.0
 40
0
 41
0
  0
VERTEX
  8
0
 10
427.686
 20
390.922
 30
0.0
 40
0
 41
0
  0
VERTEX
  8
0
 10
427.879
 20
391.135
 30
0.0
 40
0
 41
0
  0
VERTEX
  8
0
 10
428.092
 20
391.329
 30
0.0
 40
0
 41
0
  0
VERTEX
  8
0
 10
428.324
 20
391.501
 30
0.0
 40
0
 41
0
  0
VERTEX
  8
0
 10
428.571
 20
391.651
 30
0.0
 40
0
 41
0
  0
VERTEX
  8
0
 10
428.833
 20
391.778
 30
0.0
 40
0
 41
0
  0
VERTEX
  8
0
 10
429.108
 20
391.879
 30
0.0
 40
0
 41
0
  0
VERTEX
  8
0
 10
429.396
 20
391.953
 30
0.0
 40
0
 41
0
  0
VERTEX
  8
0
 10
429.694
 20
391.999
 30
0.0
 40
0
 41
0
  0
VERTEX
  8
0
 10
429.924
 20
392.014
 30
0.0
 40
0
 41
0
  0
VERTEX
  8
0
 10
430
 20
392.014
 30
0.0
 40
0
 41
0
  0
VERTEX
  8
0
 10
430.078
 20
392.014
 30
0.0
 40
0
 41
0
  0
VERTEX
  8
0
 10
430.307
 20
391.999
 30
0.0
 40
0
 41
0
  0
VERTEX
  8
0
 10
430.606
 20
391.953
 30
0.0
 40
0
 41
0
  0
VERTEX
  8
0
 10
430.893
 20
391.879
 30
0.0
 40
0
 41
0
  0
VERTEX
  8
0
 10
431.168
 20
391.778
 30
0.0
 40
0
 41
0
  0
VERTEX
  8
0
 10
431.431
 20
391.651
 30
0.0
 40
0
 41
0
  0
VERTEX
  8
0
 10
431.678
 20
391.501
 30
0.0
 40
0
 41
0
  0
VERTEX
  8
0
 10
431.908
 20
391.329
 30
0.0
 40
0
 41
0
  0
VERTEX
  8
0
 10
432.122
 20
391.135
 30
0.0
 40
0
 41
0
  0
VERTEX
  8
0
 10
432.315
 20
390.922
 30
0.0
 40
0
 41
0
  0
VERTEX
  8
0
 10
432.489
 20
390.692
 30
0.0
 40
0
 41
0
  0
VERTEX
  8
0
 10
432.639
 20
390.444
 30
0.0
 40
0
 41
0
  0
VERTEX
  8
0
 10
432.765
 20
390.182
 30
0.0
 40
0
 41
0
  0
VERTEX
  8
0
 10
432.865
 20
389.906
 30
0.0
 40
0
 41
0
  0
VERTEX
  8
0
 10
432.94
 20
389.618
 30
0.0
 40
0
 41
0
  0
VERTEX
  8
0
 10
432.985
 20
389.321
 30
0.0
 40
0
 41
0
  0
VERTEX
  8
0
 10
433
 20
389.09
 30
0.0
 40
0
 41
0
  0
VERTEX
  8
0
 10
433
 20
389.014
 30
0.0
 40
0
 41
0
  0
VERTEX
  8
0
 10
433
 20
388.938
 30
0.0
 40
0
 41
0
  0
VERTEX
  8
0
 10
432.985
 20
388.707
 30
0.0
 40
0
 41
0
  0
VERTEX
  8
0
 10
432.94
 20
388.41
 30
0.0
 40
0
 41
0
  0
VERTEX
  8
0
 10
432.865
 20
388.122
 30
0.0
 40
0
 41
0
  0
VERTEX
  8
0
 10
432.765
 20
387.846
 30
0.0
 40
0
 41
0
  0
VERTEX
  8
0
 10
432.639
 20
387.583
 30
0.0
 40
0
 41
0
  0
VERTEX
  8
0
 10
432.489
 20
387.336
 30
0.0
 40
0
 41
0
  0
VERTEX
  8
0
 10
432.315
 20
387.106
 30
0.0
 40
0
 41
0
  0
VERTEX
  8
0
 10
432.122
 20
386.893
 30
0.0
 40
0
 41
0
  0
VERTEX
  8
0
 10
431.908
 20
386.699
 30
0.0
 40
0
 41
0
  0
VERTEX
  8
0
 10
431.678
 20
386.526
 30
0.0
 40
0
 41
0
  0
VERTEX
  8
0
 10
431.431
 20
386.376
 30
0.0
 40
0
 41
0
  0
VERTEX
  8
0
 10
431.168
 20
386.25
 30
0.0
 40
0
 41
0
  0
VERTEX
  8
0
 10
430.893
 20
386.149
 30
0.0
 40
0
 41
0
  0
VERTEX
  8
0
 10
430.606
 20
386.075
 30
0.0
 40
0
 41
0
  0
VERTEX
  8
0
 10
430.307
 20
386.029
 30
0.0
 40
0
 41
0
  0
VERTEX
  8
0
 10
430.078
 20
386.014
 30
0.0
 40
0
 41
0
  0
VERTEX
  8
0
 10
430
 20
386.014
 30
0.0
 40
0
 41
0
  0
SEQEND
 8
0
  0
POLYLINE
  8
0
 62
     0
 66
     1
 10
0
 20
0
 30
0.0
 70
     1
 40
0
 41
0
  0
VERTEX
  8
0
 10
610.001
 20
386.014
 30
0.0
 40
0
 41
0
  0
VERTEX
  8
0
 10
609.924
 20
386.014
 30
0.0
 40
0
 41
0
  0
VERTEX
  8
0
 10
609.694
 20
386.029
 30
0.0
 40
0
 41
0
  0
VERTEX
  8
0
 10
609.396
 20
386.075
 30
0.0
 40
0
 41
0
  0
VERTEX
  8
0
 10
609.108
 20
386.149
 30
0.0
 40
0
 41
0
  0
VERTEX
  8
0
 10
608.833
 20
386.25
 30
0.0
 40
0
 41
0
  0
VERTEX
  8
0
 10
608.571
 20
386.376
 30
0.0
 40
0
 41
0
  0
VERTEX
  8
0
 10
608.324
 20
386.526
 30
0.0
 40
0
 41
0
  0
VERTEX
  8
0
 10
608.093
 20
386.699
 30
0.0
 40
0
 41
0
  0
VERTEX
  8
0
 10
607.879
 20
386.893
 30
0.0
 40
0
 41
0
  0
VERTEX
  8
0
 10
607.686
 20
387.106
 30
0.0
 40
0
 41
0
  0
VERTEX
  8
0
 10
607.512
 20
387.336
 30
0.0
 40
0
 41
0
  0
VERTEX
  8
0
 10
607.363
 20
387.583
 30
0.0
 40
0
 41
0
  0
VERTEX
  8
0
 10
607.236
 20
387.846
 30
0.0
 40
0
 41
0
  0
VERTEX
  8
0
 10
607.136
 20
388.122
 30
0.0
 40
0
 41
0
  0
VERTEX
  8
0
 10
607.061
 20
388.41
 30
0.0
 40
0
 41
0
  0
VERTEX
  8
0
 10
607.017
 20
388.707
 30
0.0
 40
0
 41
0
  0
VERTEX
  8
0
 10
607.001
 20
388.938
 30
0.0
 40
0
 41
0
  0
VERTEX
  8
0
 10
607.001
 20
389.014
 30
0.0
 40
0
 41
0
  0
VERTEX
  8
0
 10
607.001
 20
389.09
 30
0.0
 40
0
 41
0
  0
VERTEX
  8
0
 10
607.017
 20
389.321
 30
0.0
 40
0
 41
0
  0
VERTEX
  8
0
 10
607.061
 20
389.618
 30
0.0
 40
0
 41
0
  0
VERTEX
  8
0
 10
607.136
 20
389.906
 30
0.0
 40
0
 41
0
  0
VERTEX
  8
0
 10
607.236
 20
390.182
 30
0.0
 40
0
 41
0
  0
VERTEX
  8
0
 10
607.363
 20
390.444
 30
0.0
 40
0
 41
0
  0
VERTEX
  8
0
 10
607.512
 20
390.692
 30
0.0
 40
0
 41
0
  0
VERTEX
  8
0
 10
607.686
 20
390.922
 30
0.0
 40
0
 41
0
  0
VERTEX
  8
0
 10
607.879
 20
391.135
 30
0.0
 40
0
 41
0
  0
VERTEX
  8
0
 10
608.093
 20
391.329
 30
0.0
 40
0
 41
0
  0
VERTEX
  8
0
 10
608.324
 20
391.501
 30
0.0
 40
0
 41
0
  0
VERTEX
  8
0
 10
608.571
 20
391.651
 30
0.0
 40
0
 41
0
  0
VERTEX
  8
0
 10
608.833
 20
391.778
 30
0.0
 40
0
 41
0
  0
VERTEX
  8
0
 10
609.108
 20
391.879
 30
0.0
 40
0
 41
0
  0
VERTEX
  8
0
 10
609.396
 20
391.953
 30
0.0
 40
0
 41
0
  0
VERTEX
  8
0
 10
609.694
 20
391.999
 30
0.0
 40
0
 41
0
  0
VERTEX
  8
0
 10
609.924
 20
392.014
 30
0.0
 40
0
 41
0
  0
VERTEX
  8
0
 10
610.001
 20
392.014
 30
0.0
 40
0
 41
0
  0
VERTEX
  8
0
 10
610.078
 20
392.014
 30
0.0
 40
0
 41
0
  0
VERTEX
  8
0
 10
610.307
 20
391.999
 30
0.0
 40
0
 41
0
  0
VERTEX
  8
0
 10
610.606
 20
391.953
 30
0.0
 40
0
 41
0
  0
VERTEX
  8
0
 10
610.893
 20
391.879
 30
0.0
 40
0
 41
0
  0
VERTEX
  8
0
 10
611.168
 20
391.778
 30
0.0
 40
0
 41
0
  0
VERTEX
  8
0
 10
611.431
 20
391.651
 30
0.0
 40
0
 41
0
  0
VERTEX
  8
0
 10
611.678
 20
391.501
 30
0.0
 40
0
 41
0
  0
VERTEX
  8
0
 10
611.91
 20
391.329
 30
0.0
 40
0
 41
0
  0
VERTEX
  8
0
 10
612.122
 20
391.135
 30
0.0
 40
0
 41
0
  0
VERTEX
  8
0
 10
612.315
 20
390.922
 30
0.0
 40
0
 41
0
  0
VERTEX
  8
0
 10
612.489
 20
390.692
 30
0.0
 40
0
 41
0
  0
VERTEX
  8
0
 10
612.639
 20
390.444
 30
0.0
 40
0
 41
0
  0
VERTEX
  8
0
 10
612.765
 20
390.182
 30
0.0
 40
0
 41
0
  0
VERTEX
  8
0
 10
612.865
 20
389.906
 30
0.0
 40
0
 41
0
  0
VERTEX
  8
0
 10
612.94
 20
389.618
 30
0.0
 40
0
 41
0
  0
VERTEX
  8
0
 10
612.985
 20
389.321
 30
0.0
 40
0
 41
0
  0
VERTEX
  8
0
 10
613.001
 20
389.09
 30
0.0
 40
0
 41
0
  0
VERTEX
  8
0
 10
613.001
 20
389.014
 30
0.0
 40
0
 41
0
  0
VERTEX
  8
0
 10
613.001
 20
388.938
 30
0.0
 40
0
 41
0
  0
VERTEX
  8
0
 10
612.985
 20
388.707
 30
0.0
 40
0
 41
0
  0
VERTEX
  8
0
 10
612.94
 20
388.41
 30
0.0
 40
0
 41
0
  0
VERTEX
  8
0
 10
612.865
 20
388.122
 30
0.0
 40
0
 41
0
  0
VERTEX
  8
0
 10
612.765
 20
387.846
 30
0.0
 40
0
 41
0
  0
VERTEX
  8
0
 10
612.639
 20
387.583
 30
0.0
 40
0
 41
0
  0
VERTEX
  8
0
 10
612.489
 20
387.336
 30
0.0
 40
0
 41
0
  0
VERTEX
  8
0
 10
612.315
 20
387.106
 30
0.0
 40
0
 41
0
  0
VERTEX
  8
0
 10
612.122
 20
386.893
 30
0.0
 40
0
 41
0
  0
VERTEX
  8
0
 10
611.91
 20
386.699
 30
0.0
 40
0
 41
0
  0
VERTEX
  8
0
 10
611.678
 20
386.526
 30
0.0
 40
0
 41
0
  0
VERTEX
  8
0
 10
611.431
 20
386.376
 30
0.0
 40
0
 41
0
  0
VERTEX
  8
0
 10
611.168
 20
386.25
 30
0.0
 40
0
 41
0
  0
VERTEX
  8
0
 10
610.893
 20
386.149
 30
0.0
 40
0
 41
0
  0
VERTEX
  8
0
 10
610.606
 20
386.075
 30
0.0
 40
0
 41
0
  0
VERTEX
  8
0
 10
610.307
 20
386.029
 30
0.0
 40
0
 41
0
  0
VERTEX
  8
0
 10
610.078
 20
386.014
 30
0.0
 40
0
 41
0
  0
VERTEX
  8
0
 10
610.001
 20
386.014
 30
0.0
 40
0
 41
0
  0
SEQEND
 8
0
  0
POLYLINE
  8
0
 62
     0
 66
     1
 10
0
 20
0
 30
0.0
 70
     1
 40
0
 41
0
  0
VERTEX
  8
0
 10
610.001
 20
3.01329
 30
0.0
 40
0
 41
0
  0
VERTEX
  8
0
 10
609.924
 20
3.01329
 30
0.0
 40
0
 41
0
  0
VERTEX
  8
0
 10
609.694
 20
3.02881
 30
0.0
 40
0
 41
0
  0
VERTEX
  8
0
 10
609.396
 20
3.07428
 30
0.0
 40
0
 41
0
  0
VERTEX
  8
0
 10
609.108
 20
3.14822
 30
0.0
 40
0
 41
0
  0
VERTEX
  8
0
 10
608.833
 20
3.24908
 30
0.0
 40
0
 41
0
  0
VERTEX
  8
0
 10
608.571
 20
3.37537
 30
0.0
 40
0
 41
0
  0
VERTEX
  8
0
 10
608.324
 20
3.52567
 30
0.0
 40
0
 41
0
  0
VERTEX
  8
0
 10
608.093
 20
3.69835
 30
0.0
 40
0
 41
0
  0
VERTEX
  8
0
 10
607.879
 20
3.89199
 30
0.0
 40
0
 41
0
  0
VERTEX
  8
0
 10
607.686
 20
4.10504
 30
0.0
 40
0
 41
0
  0
VERTEX
  8
0
 10
607.512
 20
4.33599
 30
0.0
 40
0
 41
0
  0
VERTEX
  8
0
 10
607.363
 20
4.58333
 30
0.0
 40
0
 41
0
  0
VERTEX
  8
0
 10
607.236
 20
4.8456
 30
0.0
 40
0
 41
0
  0
VERTEX
  8
0
 10
607.136
 20
5.12121
 30
0.0
 40
0
 41
0
  0
VERTEX
  8
0
 10
607.061
 20
5.40869
 30
0.0
 40
0
 41
0
  0
VERTEX
  8
0
 10
607.017
 20
5.7066
 30
0.0
 40
0
 41
0
  0
VERTEX
  8
0
 10
607.001
 20
5.93664
 30
0.0
 40
0
 41
0
  0
VERTEX
  8
0
 10
607.001
 20
6.01329
 30
0.0
 40
0
 41
0
  0
VERTEX
  8
0
 10
607.001
 20
6.09
 30
0.0
 40
0
 41
0
  0
VERTEX
  8
0
 10
607.017
 20
6.32004
 30
0.0
 40
0
 41
0
  0
VERTEX
  8
0
 10
607.061
 20
6.61794
 30
0.0
 40
0
 41
0
  0
VERTEX
  8
0
 10
607.136
 20
6.90543
 30
0.0
 40
0
 41
0
  0
VERTEX
  8
0
 10
607.236
 20
7.18104
 30
0.0
 40
0
 41
0
  0
VERTEX
  8
0
 10
607.363
 20
7.44331
 30
0.0
 40
0
 41
0
  0
VERTEX
  8
0
 10
607.512
 20
7.69065
 30
0.0
 40
0
 41
0
  0
VERTEX
  8
0
 10
607.686
 20
7.9216
 30
0.0
 40
0
 41
0
  0
VERTEX
  8
0
 10
607.879
 20
8.13465
 30
0.0
 40
0
 41
0
  0
VERTEX
  8
0
 10
608.093
 20
8.32829
 30
0.0
 40
0
 41
0
  0
VERTEX
  8
0
 10
608.324
 20
8.50097
 30
0.0
 40
0
 41
0
  0
VERTEX
  8
0
 10
608.571
 20
8.65126
 30
0.0
 40
0
 41
0
  0
VERTEX
  8
0
 10
608.833
 20
8.77756
 30
0.0
 40
0
 41
0
  0
VERTEX
  8
0
 10
609.108
 20
8.87842
 30
0.0
 40
0
 41
0
  0
VERTEX
  8
0
 10
609.396
 20
8.95236
 30
0.0
 40
0
 41
0
  0
VERTEX
  8
0
 10
609.694
 20
8.99783
 30
0.0
 40
0
 41
0
  0
VERTEX
  8
0
 10
609.924
 20
9.01329
 30
0.0
 40
0
 41
0
  0
VERTEX
  8
0
 10
610.001
 20
9.01329
 30
0.0
 40
0
 41
0
  0
VERTEX
  8
0
 10
610.078
 20
9.01329
 30
0.0
 40
0
 41
0
  0
VERTEX
  8
0
 10
610.307
 20
8.99783
 30
0.0
 40
0
 41
0
  0
VERTEX
  8
0
 10
610.606
 20
8.95236
 30
0.0
 40
0
 41
0
  0
VERTEX
  8
0
 10
610.893
 20
8.87842
 30
0.0
 40
0
 41
0
  0
VERTEX
  8
0
 10
611.168
 20
8.77756
 30
0.0
 40
0
 41
0
  0
VERTEX
  8
0
 10
611.431
 20
8.65126
 30
0.0
 40
0
 41
0
  0
VERTEX
  8
0
 10
611.678
 20
8.50097
 30
0.0
 40
0
 41
0
  0
VERTEX
  8
0
 10
611.91
 20
8.32829
 30
0.0
 40
0
 41
0
  0
VERTEX
  8
0
 10
612.122
 20
8.13465
 30
0.0
 40
0
 41
0
  0
VERTEX
  8
0
 10
612.315
 20
7.9216
 30
0.0
 40
0
 41
0
  0
VERTEX
  8
0
 10
612.489
 20
7.69065
 30
0.0
 40
0
 41
0
  0
VERTEX
  8
0
 10
612.639
 20
7.44331
 30
0.0
 40
0
 41
0
  0
VERTEX
  8
0
 10
612.765
 20
7.18104
 30
0.0
 40
0
 41
0
  0
VERTEX
  8
0
 10
612.865
 20
6.90543
 30
0.0
 40
0
 41
0
  0
VERTEX
  8
0
 10
612.94
 20
6.61794
 30
0.0
 40
0
 41
0
  0
VERTEX
  8
0
 10
612.985
 20
6.32004
 30
0.0
 40
0
 41
0
  0
VERTEX
  8
0
 10
613.001
 20
6.09
 30
0.0
 40
0
 41
0
  0
VERTEX
  8
0
 10
613.001
 20
6.01329
 30
0.0
 40
0
 41
0
  0
VERTEX
  8
0
 10
613.001
 20
5.93664
 30
0.0
 40
0
 41
0
  0
VERTEX
  8
0
 10
612.985
 20
5.7066
 30
0.0
 40
0
 41
0
  0
VERTEX
  8
0
 10
612.94
 20
5.40869
 30
0.0
 40
0
 41
0
  0
VERTEX
  8
0
 10
612.865
 20
5.12121
 30
0.0
 40
0
 41
0
  0
VERTEX
  8
0
 10
612.765
 20
4.8456
 30
0.0
 40
0
 41
0
  0
VERTEX
  8
0
 10
612.639
 20
4.58333
 30
0.0
 40
0
 41
0
  0
VERTEX
  8
0
 10
612.489
 20
4.33599
 30
0.0
 40
0
 41
0
  0
VERTEX
  8
0
 10
612.315
 20
4.10504
 30
0.0
 40
0
 41
0
  0
VERTEX
  8
0
 10
612.122
 20
3.89199
 30
0.0
 40
0
 41
0
  0
VERTEX
  8
0
 10
611.91
 20
3.69835
 30
0.0
 40
0
 41
0
  0
VERTEX
  8
0
 10
611.678
 20
3.52567
 30
0.0
 40
0
 41
0
  0
VERTEX
  8
0
 10
611.431
 20
3.37537
 30
0.0
 40
0
 41
0
  0
VERTEX
  8
0
 10
611.168
 20
3.24908
 30
0.0
 40
0
 41
0
  0
VERTEX
  8
0
 10
610.893
 20
3.14822
 30
0.0
 40
0
 41
0
  0
VERTEX
  8
0
 10
610.606
 20
3.07428
 30
0.0
 40
0
 41
0
  0
VERTEX
  8
0
 10
610.307
 20
3.02881
 30
0.0
 40
0
 41
0
  0
VERTEX
  8
0
 10
610.078
 20
3.01329
 30
0.0
 40
0
 41
0
  0
VERTEX
  8
0
 10
610.001
 20
3.01329
 30
0.0
 40
0
 41
0
  0
SEQEND
 8
0
  0
POLYLINE
  8
0
 62
     0
 66
     1
 10
0
 20
0
 30
0.0
 70
     1
 40
0
 41
0
  0
VERTEX
  8
0
 10
430
 20
3.01329
 30
0.0
 40
0
 41
0
  0
VERTEX
  8
0
 10
429.924
 20
3.01329
 30
0.0
 40
0
 41
0
  0
VERTEX
  8
0
 10
429.694
 20
3.02881
 30
0.0
 40
0
 41
0
  0
VERTEX
  8
0
 10
429.396
 20
3.07428
 30
0.0
 40
0
 41
0
  0
VERTEX
  8
0
 10
429.108
 20
3.14822
 30
0.0
 40
0
 41
0
  0
VERTEX
  8
0
 10
428.833
 20
3.24908
 30
0.0
 40
0
 41
0
  0
VERTEX
  8
0
 10
428.571
 20
3.37537
 30
0.0
 40
0
 41
0
  0
VERTEX
  8
0
 10
428.324
 20
3.52567
 30
0.0
 40
0
 41
0
  0
VERTEX
  8
0
 10
428.092
 20
3.69835
 30
0.0
 40
0
 41
0
  0
VERTEX
  8
0
 10
427.879
 20
3.89199
 30
0.0
 40
0
 41
0
  0
VERTEX
  8
0
 10
427.686
 20
4.10504
 30
0.0
 40
0
 41
0
  0
VERTEX
  8
0
 10
427.513
 20
4.33599
 30
0.0
 40
0
 41
0
  0
VERTEX
  8
0
 10
427.362
 20
4.58333
 30
0.0
 40
0
 41
0
  0
VERTEX
  8
0
 10
427.236
 20
4.8456
 30
0.0
 40
0
 41
0
  0
VERTEX
  8
0
 10
427.136
 20
5.12121
 30
0.0
 40
0
 41
0
  0
VERTEX
  8
0
 10
427.061
 20
5.40869
 30
0.0
 40
0
 41
0
  0
VERTEX
  8
0
 10
427.017
 20
5.7066
 30
0.0
 40
0
 41
0
  0
VERTEX
  8
0
 10
427
 20
5.93664
 30
0.0
 40
0
 41
0
  0
VERTEX
  8
0
 10
427
 20
6.01329
 30
0.0
 40
0
 41
0
  0
VERTEX
  8
0
 10
427
 20
6.09
 30
0.0
 40
0
 41
0
  0
VERTEX
  8
0
 10
427.017
 20
6.32004
 30
0.0
 40
0
 41
0
  0
VERTEX
  8
0
 10
427.061
 20
6.61794
 30
0.0
 40
0
 41
0
  0
VERTEX
  8
0
 10
427.136
 20
6.90543
 30
0.0
 40
0
 41
0
  0
VERTEX
  8
0
 10
427.236
 20
7.18104
 30
0.0
 40
0
 41
0
  0
VERTEX
  8
0
 10
427.362
 20
7.44331
 30
0.0
 40
0
 41
0
  0
VERTEX
  8
0
 10
427.513
 20
7.69065
 30
0.0
 40
0
 41
0
  0
VERTEX
  8
0
 10
427.686
 20
7.9216
 30
0.0
 40
0
 41
0
  0
VERTEX
  8
0
 10
427.879
 20
8.13465
 30
0.0
 40
0
 41
0
  0
VERTEX
  8
0
 10
428.092
 20
8.32829
 30
0.0
 40
0
 41
0
  0
VERTEX
  8
0
 10
428.324
 20
8.50097
 30
0.0
 40
0
 41
0
  0
VERTEX
  8
0
 10
428.571
 20
8.65126
 30
0.0
 40
0
 41
0
  0
VERTEX
  8
0
 10
428.833
 20
8.77756
 30
0.0
 40
0
 41
0
  0
VERTEX
  8
0
 10
429.108
 20
8.87842
 30
0.0
 40
0
 41
0
  0
VERTEX
  8
0
 10
429.396
 20
8.95236
 30
0.0
 40
0
 41
0
  0
VERTEX
  8
0
 10
429.694
 20
8.99783
 30
0.0
 40
0
 41
0
  0
VERTEX
  8
0
 10
429.924
 20
9.01329
 30
0.0
 40
0
 41
0
  0
VERTEX
  8
0
 10
430
 20
9.01329
 30
0.0
 40
0
 41
0
  0
VERTEX
  8
0
 10
430.078
 20
9.01329
 30
0.0
 40
0
 41
0
  0
VERTEX
  8
0
 10
430.307
 20
8.99783
 30
0.0
 40
0
 41
0
  0
VERTEX
  8
0
 10
430.606
 20
8.95236
 30
0.0
 40
0
 41
0
  0
VERTEX
  8
0
 10
430.893
 20
8.87842
 30
0.0
 40
0
 41
0
  0
VERTEX
  8
0
 10
431.168
 20
8.77756
 30
0.0
 40
0
 41
0
  0
VERTEX
  8
0
 10
431.431
 20
8.65126
 30
0.0
 40
0
 41
0
  0
VERTEX
  8
0
 10
431.678
 20
8.50097
 30
0.0
 40
0
 41
0
  0
VERTEX
  8
0
 10
431.908
 20
8.32829
 30
0.0
 40
0
 41
0
  0
VERTEX
  8
0
 10
432.122
 20
8.13465
 30
0.0
 40
0
 41
0
  0
VERTEX
  8
0
 10
432.315
 20
7.9216
 30
0.0
 40
0
 41
0
  0
VERTEX
  8
0
 10
432.489
 20
7.69065
 30
0.0
 40
0
 41
0
  0
VERTEX
  8
0
 10
432.639
 20
7.44331
 30
0.0
 40
0
 41
0
  0
VERTEX
  8
0
 10
432.765
 20
7.18104
 30
0.0
 40
0
 41
0
  0
VERTEX
  8
0
 10
432.865
 20
6.90543
 30
0.0
 40
0
 41
0
  0
VERTEX
  8
0
 10
432.94
 20
6.61794
 30
0.0
 40
0
 41
0
  0
VERTEX
  8
0
 10
432.985
 20
6.32004
 30
0.0
 40
0
 41
0
  0
VERTEX
  8
0
 10
433
 20
6.09
 30
0.0
 40
0
 41
0
  0
VERTEX
  8
0
 10
433
 20
6.01329
 30
0.0
 40
0
 41
0
  0
VERTEX
  8
0
 10
433
 20
5.93664
 30
0.0
 40
0
 41
0
  0
VERTEX
  8
0
 10
432.985
 20
5.7066
 30
0.0
 40
0
 41
0
  0
VERTEX
  8
0
 10
432.94
 20
5.40869
 30
0.0
 40
0
 41
0
  0
VERTEX
  8
0
 10
432.865
 20
5.12121
 30
0.0
 40
0
 41
0
  0
VERTEX
  8
0
 10
432.765
 20
4.8456
 30
0.0
 40
0
 41
0
  0
VERTEX
  8
0
 10
432.639
 20
4.58333
 30
0.0
 40
0
 41
0
  0
VERTEX
  8
0
 10
432.489
 20
4.33599
 30
0.0
 40
0
 41
0
  0
VERTEX
  8
0
 10
432.315
 20
4.10504
 30
0.0
 40
0
 41
0
  0
VERTEX
  8
0
 10
432.122
 20
3.89199
 30
0.0
 40
0
 41
0
  0
VERTEX
  8
0
 10
431.908
 20
3.69835
 30
0.0
 40
0
 41
0
  0
VERTEX
  8
0
 10
431.678
 20
3.52567
 30
0.0
 40
0
 41
0
  0
VERTEX
  8
0
 10
431.431
 20
3.37537
 30
0.0
 40
0
 41
0
  0
VERTEX
  8
0
 10
431.168
 20
3.24908
 30
0.0
 40
0
 41
0
  0
VERTEX
  8
0
 10
430.893
 20
3.14822
 30
0.0
 40
0
 41
0
  0
VERTEX
  8
0
 10
430.606
 20
3.07428
 30
0.0
 40
0
 41
0
  0
VERTEX
  8
0
 10
430.307
 20
3.02881
 30
0.0
 40
0
 41
0
  0
VERTEX
  8
0
 10
430.078
 20
3.01329
 30
0.0
 40
0
 41
0
  0
VERTEX
  8
0
 10
430
 20
3.01329
 30
0.0
 40
0
 41
0
  0
SEQEND
 8
0
  0
POLYLINE
  8
0
 62
     0
 66
     1
 10
0
 20
0
 30
0.0
 70
     1
 40
0
 41
0
  0
VERTEX
  8
0
 10
636.001
 20
395.014
 30
0.0
 40
0
 41
0
  0
VERTEX
  8
0
 10
765.001
 20
395.014
 30
0.0
 40
0
 41
0
  0
VERTEX
  8
0
 10
765.001
 20
0.0132921
 30
0.0
 40
0
 41
0
  0
VERTEX
  8
0
 10
636.001
 20
0.0132921
 30
0.0
 40
0
 41
0
  0
VERTEX
  8
0
 10
636.001
 20
395.014
 30
0.0
 40
0
 41
0
  0
SEQEND
 8
0
  0
POLYLINE
  8
0
 62
     0
 66
     1
 10
0
 20
0
 30
0.0
 70
     1
 40
0
 41
0
  0
VERTEX
  8
0
 10
785.001
 20
395.014
 30
0.0
 40
0
 41
0
  0
VERTEX
  8
0
 10
914.001
 20
395.014
 30
0.0
 40
0
 41
0
  0
VERTEX
  8
0
 10
914.001
 20
0.0132921
 30
0.0
 40
0
 41
0
  0
VERTEX
  8
0
 10
785.001
 20
0.0132921
 30
0.0
 40
0
 41
0
  0
VERTEX
  8
0
 10
785.001
 20
395.014
 30
0.0
 40
0
 41
0
  0
SEQEND
 8
0
  0
POLYLINE
  8
0
 62
     0
 66
     1
 10
0
 20
0
 30
0.0
 70
     1
 40
0
 41
0
  0
VERTEX
  8
0
 10
807.001
 20
371.014
 30
0.0
 40
0
 41
0
  0
VERTEX
  8
0
 10
807.168
 20
371.014
 30
0.0
 40
0
 41
0
  0
VERTEX
  8
0
 10
807.671
 20
370.997
 30
0.0
 40
0
 41
0
  0
VERTEX
  8
0
 10
808.335
 20
370.947
 30
0.0
 40
0
 41
0
  0
VERTEX
  8
0
 10
808.994
 20
370.865
 30
0.0
 40
0
 41
0
  0
VERTEX
  8
0
 10
809.647
 20
370.751
 30
0.0
 40
0
 41
0
  0
VERTEX
  8
0
 10
810.292
 20
370.607
 30
0.0
 40
0
 41
0
  0
VERTEX
  8
0
 10
810.928
 20
370.431
 30
0.0
 40
0
 41
0
  0
VERTEX
  8
0
 10
811.553
 20
370.224
 30
0.0
 40
0
 41
0
  0
VERTEX
  8
0
 10
812.167
 20
369.986
 30
0.0
 40
0
 41
0
  0
VERTEX
  8
0
 10
812.769
 20
369.719
 30
0.0
 40
0
 41
0
  0
VERTEX
  8
0
 10
813.358
 20
369.424
 30
0.0
 40
0
 41
0
  0
VERTEX
  8
0
 10
813.932
 20
369.099
 30
0.0
 40
0
 41
0
  0
VERTEX
  8
0
 10
814.49
 20
368.746
 30
0.0
 40
0
 41
0
  0
VERTEX
  8
0
 10
815.033
 20
368.365
 30
0.0
 40
0
 41
0
  0
VERTEX
  8
0
 10
815.557
 20
367.957
 30
0.0
 40
0
 41
0
  0
VERTEX
  8
0
 10
816.063
 20
367.521
 30
0.0
 40
0
 41
0
  0
VERTEX
  8
0
 10
816.429
 20
367.178
 30
0.0
 40
0
 41
0
  0
VERTEX
  8
0
 10
816.547
 20
367.06
 30
0.0
 40
0
 41
0
  0
VERTEX
  8
0
 10
816.665
 20
366.942
 30
0.0
 40
0
 41
0
  0
VERTEX
  8
0
 10
817.008
 20
366.575
 30
0.0
 40
0
 41
0
  0
VERTEX
  8
0
 10
817.444
 20
366.069
 30
0.0
 40
0
 41
0
  0
VERTEX
  8
0
 10
817.851
 20
365.546
 30
0.0
 40
0
 41
0
  0
VERTEX
  8
0
 10
818.233
 20
365.004
 30
0.0
 40
0
 41
0
  0
VERTEX
  8
0
 10
818.586
 20
364.444
 30
0.0
 40
0
 41
0
  0
VERTEX
  8
0
 10
818.911
 20
363.871
 30
0.0
 40
0
 41
0
  0
VERTEX
  8
0
 10
819.207
 20
363.282
 30
0.0
 40
0
 41
0
  0
VERTEX
  8
0
 10
819.474
 20
362.681
 30
0.0
 40
0
 41
0
  0
VERTEX
  8
0
 10
819.711
 20
362.065
 30
0.0
 40
0
 41
0
  0
VERTEX
  8
0
 10
819.918
 20
361.44
 30
0.0
 40
0
 41
0
  0
VERTEX
  8
0
 10
820.094
 20
360.804
 30
0.0
 40
0
 41
0
  0
VERTEX
  8
0
 10
820.239
 20
360.16
 30
0.0
 40
0
 41
0
  0
VERTEX
  8
0
 10
820.353
 20
359.507
 30
0.0
 40
0
 41
0
  0
VERTEX
  8
0
 10
820.435
 20
358.849
 30
0.0
 40
0
 41
0
  0
VERTEX
  8
0
 10
820.485
 20
358.183
 30
0.0
 40
0
 41
0
  0
VERTEX
  8
0
 10
820.501
 20
357.681
 30
0.0
 40
0
 41
0
  0
VERTEX
  8
0
 10
820.501
 20
357.514
 30
0.0
 40
0
 41
0
  0
VERTEX
  8
0
 10
820.501
 20
357.346
 30
0.0
 40
0
 41
0
  0
VERTEX
  8
0
 10
820.485
 20
356.844
 30
0.0
 40
0
 41
0
  0
VERTEX
  8
0
 10
820.435
 20
356.179
 30
0.0
 40
0
 41
0
  0
VERTEX
  8
0
 10
820.353
 20
355.521
 30
0.0
 40
0
 41
0
  0
VERTEX
  8
0
 10
820.239
 20
354.868
 30
0.0
 40
0
 41
0
  0
VERTEX
  8
0
 10
820.094
 20
354.224
 30
0.0
 40
0
 41
0
  0
VERTEX
  8
0
 10
819.918
 20
353.588
 30
0.0
 40
0
 41
0
  0
VERTEX
  8
0
 10
819.711
 20
352.963
 30
0.0
 40
0
 41
0
  0
VERTEX
  8
0
 10
819.474
 20
352.347
 30
0.0
 40
0
 41
0
  0
VERTEX
  8
0
 10
819.207
 20
351.746
 30
0.0
 40
0
 41
0
  0
VERTEX
  8
0
 10
818.911
 20
351.157
 30
0.0
 40
0
 41
0
  0
VERTEX
  8
0
 10
818.586
 20
350.582
 30
0.0
 40
0
 41
0
  0
VERTEX
  8
0
 10
818.233
 20
350.024
 30
0.0
 40
0
 41
0
  0
VERTEX
  8
0
 10
817.851
 20
349.482
 30
0.0
 40
0
 41
0
  0
VERTEX
  8
0
 10
817.444
 20
348.958
 30
0.0
 40
0
 41
0
  0
VERTEX
  8
0
 10
817.008
 20
348.453
 30
0.0
 40
0
 41
0
  0
VERTEX
  8
0
 10
816.665
 20
348.086
 30
0.0
 40
0
 41
0
  0
VERTEX
  8
0
 10
816.547
 20
347.968
 30
0.0
 40
0
 41
0
  0
VERTEX
  8
0
 10
816.429
 20
347.85
 30
0.0
 40
0
 41
0
  0
VERTEX
  8
0
 10
816.063
 20
347.507
 30
0.0
 40
0
 41
0
  0
VERTEX
  8
0
 10
815.557
 20
347.071
 30
0.0
 40
0
 41
0
  0
VERTEX
  8
0
 10
815.033
 20
346.662
 30
0.0
 40
0
 41
0
  0
VERTEX
  8
0
 10
814.49
 20
346.282
 30
0.0
 40
0
 41
0
  0
VERTEX
  8
0
 10
813.932
 20
345.929
 30
0.0
 40
0
 41
0
  0
VERTEX
  8
0
 10
813.358
 20
345.604
 30
0.0
 40
0
 41
0
  0
VERTEX
  8
0
 10
812.769
 20
345.308
 30
0.0
 40
0
 41
0
  0
VERTEX
  8
0
 10
812.167
 20
345.042
 30
0.0
 40
0
 41
0
  0
VERTEX
  8
0
 10
811.553
 20
344.804
 30
0.0
 40
0
 41
0
  0
VERTEX
  8
0
 10
810.928
 20
344.597
 30
0.0
 40
0
 41
0
  0
VERTEX
  8
0
 10
810.292
 20
344.421
 30
0.0
 40
0
 41
0
  0
VERTEX
  8
0
 10
809.647
 20
344.275
 30
0.0
 40
0
 41
0
  0
VERTEX
  8
0
 10
808.994
 20
344.161
 30
0.0
 40
0
 41
0
  0
VERTEX
  8
0
 10
808.335
 20
344.081
 30
0.0
 40
0
 41
0
  0
VERTEX
  8
0
 10
807.671
 20
344.031
 30
0.0
 40
0
 41
0
  0
VERTEX
  8
0
 10
807.168
 20
344.014
 30
0.0
 40
0
 41
0
  0
VERTEX
  8
0
 10
807.001
 20
344.014
 30
0.0
 40
0
 41
0
  0
VERTEX
  8
0
 10
806.833
 20
344.014
 30
0.0
 40
0
 41
0
  0
VERTEX
  8
0
 10
806.332
 20
344.031
 30
0.0
 40
0
 41
0
  0
VERTEX
  8
0
 10
805.667
 20
344.081
 30
0.0
 40
0
 41
0
  0
VERTEX
  8
0
 10
805.007
 20
344.161
 30
0.0
 40
0
 41
0
  0
VERTEX
  8
0
 10
804.356
 20
344.275
 30
0.0
 40
0
 41
0
  0
VERTEX
  8
0
 10
803.711
 20
344.421
 30
0.0
 40
0
 41
0
  0
VERTEX
  8
0
 10
803.075
 20
344.597
 30
0.0
 40
0
 41
0
  0
VERTEX
  8
0
 10
802.449
 20
344.804
 30
0.0
 40
0
 41
0
  0
VERTEX
  8
0
 10
801.835
 20
345.042
 30
0.0
 40
0
 41
0
  0
VERTEX
  8
0
 10
801.233
 20
345.308
 30
0.0
 40
0
 41
0
  0
VERTEX
  8
0
 10
800.644
 20
345.604
 30
0.0
 40
0
 41
0
  0
VERTEX
  8
0
 10
800.069
 20
345.929
 30
0.0
 40
0
 41
0
  0
VERTEX
  8
0
 10
799.511
 20
346.282
 30
0.0
 40
0
 41
0
  0
VERTEX
  8
0
 10
798.969
 20
346.662
 30
0.0
 40
0
 41
0
  0
VERTEX
  8
0
 10
798.446
 20
347.071
 30
0.0
 40
0
 41
0
  0
VERTEX
  8
0
 10
797.94
 20
347.507
 30
0.0
 40
0
 41
0
  0
VERTEX
  8
0
 10
797.574
 20
347.85
 30
0.0
 40
0
 41
0
  0
VERTEX
  8
0
 10
797.456
 20
347.968
 30
0.0
 40
0
 41
0
  0
VERTEX
  8
0
 10
797.336
 20
348.086
 30
0.0
 40
0
 41
0
  0
VERTEX
  8
0
 10
796.993
 20
348.453
 30
0.0
 40
0
 41
0
  0
VERTEX
  8
0
 10
796.558
 20
348.958
 30
0.0
 40
0
 41
0
  0
VERTEX
  8
0
 10
796.15
 20
349.482
 30
0.0
 40
0
 41
0
  0
VERTEX
  8
0
 10
795.769
 20
350.024
 30
0.0
 40
0
 41
0
  0
VERTEX
  8
0
 10
795.417
 20
350.582
 30
0.0
 40
0
 41
0
  0
VERTEX
  8
0
 10
795.092
 20
351.157
 30
0.0
 40
0
 41
0
  0
VERTEX
  8
0
 10
794.796
 20
351.746
 30
0.0
 40
0
 41
0
  0
VERTEX
  8
0
 10
794.529
 20
352.347
 30
0.0
 40
0
 41
0
  0
VERTEX
  8
0
 10
794.292
 20
352.963
 30
0.0
 40
0
 41
0
  0
VERTEX
  8
0
 10
794.085
 20
353.588
 30
0.0
 40
0
 41
0
  0
VERTEX
  8
0
 10
793.908
 20
354.224
 30
0.0
 40
0
 41
0
  0
VERTEX
  8
0
 10
793.762
 20
354.868
 30
0.0
 40
0
 41
0
  0
VERTEX
  8
0
 10
793.649
 20
355.521
 30
0.0
 40
0
 41
0
  0
VERTEX
  8
0
 10
793.567
 20
356.179
 30
0.0
 40
0
 41
0
  0
VERTEX
  8
0
 10
793.518
 20
356.844
 30
0.0
 40
0
 41
0
  0
VERTEX
  8
0
 10
793.501
 20
357.346
 30
0.0
 40
0
 41
0
  0
VERTEX
  8
0
 10
793.501
 20
357.514
 30
0.0
 40
0
 41
0
  0
VERTEX
  8
0
 10
793.501
 20
357.681
 30
0.0
 40
0
 41
0
  0
VERTEX
  8
0
 10
793.518
 20
358.183
 30
0.0
 40
0
 41
0
  0
VERTEX
  8
0
 10
793.567
 20
358.849
 30
0.0
 40
0
 41
0
  0
VERTEX
  8
0
 10
793.649
 20
359.507
 30
0.0
 40
0
 41
0
  0
VERTEX
  8
0
 10
793.762
 20
360.16
 30
0.0
 40
0
 41
0
  0
VERTEX
  8
0
 10
793.908
 20
360.804
 30
0.0
 40
0
 41
0
  0
VERTEX
  8
0
 10
794.085
 20
361.44
 30
0.0
 40
0
 41
0
  0
VERTEX
  8
0
 10
794.292
 20
362.065
 30
0.0
 40
0
 41
0
  0
VERTEX
  8
0
 10
794.529
 20
362.681
 30
0.0
 40
0
 41
0
  0
VERTEX
  8
0
 10
794.796
 20
363.282
 30
0.0
 40
0
 41
0
  0
VERTEX
  8
0
 10
795.092
 20
363.871
 30
0.0
 40
0
 41
0
  0
VERTEX
  8
0
 10
795.417
 20
364.444
 30
0.0
 40
0
 41
0
  0
VERTEX
  8
0
 10
795.769
 20
365.004
 30
0.0
 40
0
 41
0
  0
VERTEX
  8
0
 10
796.15
 20
365.546
 30
0.0
 40
0
 41
0
  0
VERTEX
  8
0
 10
796.558
 20
366.069
 30
0.0
 40
0
 41
0
  0
VERTEX
  8
0
 10
796.993
 20
366.575
 30
0.0
 40
0
 41
0
  0
VERTEX
  8
0
 10
797.336
 20
366.942
 30
0.0
 40
0
 41
0
  0
VERTEX
  8
0
 10
797.456
 20
367.06
 30
0.0
 40
0
 41
0
  0
VERTEX
  8
0
 10
797.574
 20
367.178
 30
0.0
 40
0
 41
0
  0
VERTEX
  8
0
 10
797.94
 20
367.521
 30
0.0
 40
0
 41
0
  0
VERTEX
  8
0
 10
798.446
 20
367.957
 30
0.0
 40
0
 41
0
  0
VERTEX
  8
0
 10
798.969
 20
368.365
 30
0.0
 40
0
 41
0
  0
VERTEX
  8
0
 10
799.511
 20
368.746
 30
0.0
 40
0
 41
0
  0
VERTEX
  8
0
 10
800.069
 20
369.099
 30
0.0
 40
0
 41
0
  0
VERTEX
  8
0
 10
800.644
 20
369.424
 30
0.0
 40
0
 41
0
  0
VERTEX
  8
0
 10
801.233
 20
369.719
 30
0.0
 40
0
 41
0
  0
VERTEX
  8
0
 10
801.835
 20
369.986
 30
0.0
 40
0
 41
0
  0
VERTEX
  8
0
 10
802.449
 20
370.224
 30
0.0
 40
0
 41
0
  0
VERTEX
  8
0
 10
803.075
 20
370.431
 30
0.0
 40
0
 41
0
  0
VERTEX
  8
0
 10
803.711
 20
370.607
 30
0.0
 40
0
 41
0
  0
VERTEX
  8
0
 10
804.356
 20
370.751
 30
0.0
 40
0
 41
0
  0
VERTEX
  8
0
 10
805.007
 20
370.865
 30
0.0
 40
0
 41
0
  0
VERTEX
  8
0
 10
805.667
 20
370.947
 30
0.0
 40
0
 41
0
  0
VERTEX
  8
0
 10
806.332
 20
370.997
 30
0.0
 40
0
 41
0
  0
VERTEX
  8
0
 10
806.833
 20
371.014
 30
0.0
 40
0
 41
0
  0
VERTEX
  8
0
 10
807.001
 20
371.014
 30
0.0
 40
0
 41
0
  0
SEQEND
 8
0
  0
POLYLINE
  8
0
 62
     0
 66
     1
 10
0
 20
0
 30
0.0
 70
     1
 40
0
 41
0
  0
VERTEX
  8
0
 10
807.001
 20
51.0133
 30
0.0
 40
0
 41
0
  0
VERTEX
  8
0
 10
807.168
 20
51.0133
 30
0.0
 40
0
 41
0
  0
VERTEX
  8
0
 10
807.671
 20
50.9968
 30
0.0
 40
0
 41
0
  0
VERTEX
  8
0
 10
808.335
 20
50.9474
 30
0.0
 40
0
 41
0
  0
VERTEX
  8
0
 10
808.994
 20
50.8654
 30
0.0
 40
0
 41
0
  0
VERTEX
  8
0
 10
809.647
 20
50.7515
 30
0.0
 40
0
 41
0
  0
VERTEX
  8
0
 10
810.292
 20
50.6062
 30
0.0
 40
0
 41
0
  0
VERTEX
  8
0
 10
810.928
 20
50.4299
 30
0.0
 40
0
 41
0
  0
VERTEX
  8
0
 10
811.553
 20
50.2229
 30
0.0
 40
0
 41
0
  0
VERTEX
  8
0
 10
812.167
 20
49.9857
 30
0.0
 40
0
 41
0
  0
VERTEX
  8
0
 10
812.769
 20
49.719
 30
0.0
 40
0
 41
0
  0
VERTEX
  8
0
 10
813.358
 20
49.4231
 30
0.0
 40
0
 41
0
  0
VERTEX
  8
0
 10
813.932
 20
49.0982
 30
0.0
 40
0
 41
0
  0
VERTEX
  8
0
 10
814.49
 20
48.7453
 30
0.0
 40
0
 41
0
  0
VERTEX
  8
0
 10
815.033
 20
48.3643
 30
0.0
 40
0
 41
0
  0
VERTEX
  8
0
 10
815.557
 20
47.9561
 30
0.0
 40
0
 41
0
  0
VERTEX
  8
0
 10
816.063
 20
47.521
 30
0.0
 40
0
 41
0
  0
VERTEX
  8
0
 10
816.429
 20
47.1776
 30
0.0
 40
0
 41
0
  0
VERTEX
  8
0
 10
816.547
 20
47.0593
 30
0.0
 40
0
 41
0
  0
VERTEX
  8
0
 10
816.665
 20
46.941
 30
0.0
 40
0
 41
0
  0
VERTEX
  8
0
 10
817.008
 20
46.5742
 30
0.0
 40
0
 41
0
  0
VERTEX
  8
0
 10
817.444
 20
46.0692
 30
0.0
 40
0
 41
0
  0
VERTEX
  8
0
 10
817.851
 20
45.5451
 30
0.0
 40
0
 41
0
  0
VERTEX
  8
0
 10
818.233
 20
45.0032
 30
0.0
 40
0
 41
0
  0
VERTEX
  8
0
 10
818.586
 20
44.4446
 30
0.0
 40
0
 41
0
  0
VERTEX
  8
0
 10
818.911
 20
43.8704
 30
0.0
 40
0
 41
0
  0
VERTEX
  8
0
 10
819.207
 20
43.2817
 30
0.0
 40
0
 41
0
  0
VERTEX
  8
0
 10
819.474
 20
42.6796
 30
0.0
 40
0
 41
0
  0
VERTEX
  8
0
 10
819.711
 20
42.0653
 30
0.0
 40
0
 41
0
  0
VERTEX
  8
0
 10
819.918
 20
41.4397
 30
0.0
 40
0
 41
0
  0
VERTEX
  8
0
 10
820.094
 20
40.804
 30
0.0
 40
0
 41
0
  0
VERTEX
  8
0
 10
820.239
 20
40.1594
 30
0.0
 40
0
 41
0
  0
VERTEX
  8
0
 10
820.353
 20
39.5069
 30
0.0
 40
0
 41
0
  0
VERTEX
  8
0
 10
820.435
 20
38.8476
 30
0.0
 40
0
 41
0
  0
VERTEX
  8
0
 10
820.485
 20
38.1828
 30
0.0
 40
0
 41
0
  0
VERTEX
  8
0
 10
820.501
 20
37.6807
 30
0.0
 40
0
 41
0
  0
VERTEX
  8
0
 10
820.501
 20
37.5133
 30
0.0
 40
0
 41
0
  0
VERTEX
  8
0
 10
820.501
 20
37.346
 30
0.0
 40
0
 41
0
  0
VERTEX
  8
0
 10
820.485
 20
36.844
 30
0.0
 40
0
 41
0
  0
VERTEX
  8
0
 10
820.435
 20
36.179
 30
0.0
 40
0
 41
0
  0
VERTEX
  8
0
 10
820.353
 20
35.5199
 30
0.0
 40
0
 41
0
  0
VERTEX
  8
0
 10
820.239
 20
34.8674
 30
0.0
 40
0
 41
0
  0
VERTEX
  8
0
 10
820.094
 20
34.2228
 30
0.0
 40
0
 41
0
  0
VERTEX
  8
0
 10
819.918
 20
33.5871
 30
0.0
 40
0
 41
0
  0
VERTEX
  8
0
 10
819.711
 20
32.9615
 30
0.0
 40
0
 41
0
  0
VERTEX
  8
0
 10
819.474
 20
32.3471
 30
0.0
 40
0
 41
0
  0
VERTEX
  8
0
 10
819.207
 20
31.745
 30
0.0
 40
0
 41
0
  0
VERTEX
  8
0
 10
818.911
 20
31.1564
 30
0.0
 40
0
 41
0
  0
VERTEX
  8
0
 10
818.586
 20
30.5821
 30
0.0
 40
0
 41
0
  0
VERTEX
  8
0
 10
818.233
 20
30.0236
 30
0.0
 40
0
 41
0
  0
VERTEX
  8
0
 10
817.851
 20
29.4817
 30
0.0
 40
0
 41
0
  0
VERTEX
  8
0
 10
817.444
 20
28.9576
 30
0.0
 40
0
 41
0
  0
VERTEX
  8
0
 10
817.008
 20
28.4525
 30
0.0
 40
0
 41
0
  0
VERTEX
  8
0
 10
816.665
 20
28.0857
 30
0.0
 40
0
 41
0
  0
VERTEX
  8
0
 10
816.547
 20
27.9674
 30
0.0
 40
0
 41
0
  0
VERTEX
  8
0
 10
816.429
 20
27.849
 30
0.0
 40
0
 41
0
  0
VERTEX
  8
0
 10
816.063
 20
27.5058
 30
0.0
 40
0
 41
0
  0
VERTEX
  8
0
 10
815.557
 20
27.0707
 30
0.0
 40
0
 41
0
  0
VERTEX
  8
0
 10
815.033
 20
26.6624
 30
0.0
 40
0
 41
0
  0
VERTEX
  8
0
 10
814.49
 20
26.2815
 30
0.0
 40
0
 41
0
  0
VERTEX
  8
0
 10
813.932
 20
25.9285
 30
0.0
 40
0
 41
0
  0
VERTEX
  8
0
 10
813.358
 20
25.6037
 30
0.0
 40
0
 41
0
  0
VERTEX
  8
0
 10
812.769
 20
25.3078
 30
0.0
 40
0
 41
0
  0
VERTEX
  8
0
 10
812.167
 20
25.041
 30
0.0
 40
0
 41
0
  0
VERTEX
  8
0
 10
811.553
 20
24.8039
 30
0.0
 40
0
 41
0
  0
VERTEX
  8
0
 10
810.928
 20
24.5969
 30
0.0
 40
0
 41
0
  0
VERTEX
  8
0
 10
810.292
 20
24.4204
 30
0.0
 40
0
 41
0
  0
VERTEX
  8
0
 10
809.647
 20
24.2751
 30
0.0
 40
0
 41
0
  0
VERTEX
  8
0
 10
808.994
 20
24.1612
 30
0.0
 40
0
 41
0
  0
VERTEX
  8
0
 10
808.335
 20
24.0793
 30
0.0
 40
0
 41
0
  0
VERTEX
  8
0
 10
807.671
 20
24.0299
 30
0.0
 40
0
 41
0
  0
VERTEX
  8
0
 10
807.168
 20
24.0133
 30
0.0
 40
0
 41
0
  0
VERTEX
  8
0
 10
807.001
 20
24.0133
 30
0.0
 40
0
 41
0
  0
VERTEX
  8
0
 10
806.833
 20
24.0133
 30
0.0
 40
0
 41
0
  0
VERTEX
  8
0
 10
806.332
 20
24.0299
 30
0.0
 40
0
 41
0
  0
VERTEX
  8
0
 10
805.667
 20
24.0793
 30
0.0
 40
0
 41
0
  0
VERTEX
  8
0
 10
805.007
 20
24.1612
 30
0.0
 40
0
 41
0
  0
VERTEX
  8
0
 10
804.356
 20
24.2751
 30
0.0
 40
0
 41
0
  0
VERTEX
  8
0
 10
803.711
 20
24.4204
 30
0.0
 40
0
 41
0
  0
VERTEX
  8
0
 10
803.075
 20
24.5969
 30
0.0
 40
0
 41
0
  0
VERTEX
  8
0
 10
802.449
 20
24.8039
 30
0.0
 40
0
 41
0
  0
VERTEX
  8
0
 10
801.835
 20
25.041
 30
0.0
 40
0
 41
0
  0
VERTEX
  8
0
 10
801.233
 20
25.3078
 30
0.0
 40
0
 41
0
  0
VERTEX
  8
0
 10
800.644
 20
25.6037
 30
0.0
 40
0
 41
0
  0
VERTEX
  8
0
 10
800.069
 20
25.9285
 30
0.0
 40
0
 41
0
  0
VERTEX
  8
0
 10
799.511
 20
26.2815
 30
0.0
 40
0
 41
0
  0
VERTEX
  8
0
 10
798.969
 20
26.6624
 30
0.0
 40
0
 41
0
  0
VERTEX
  8
0
 10
798.446
 20
27.0707
 30
0.0
 40
0
 41
0
  0
VERTEX
  8
0
 10
797.94
 20
27.5058
 30
0.0
 40
0
 41
0
  0
VERTEX
  8
0
 10
797.574
 20
27.849
 30
0.0
 40
0
 41
0
  0
VERTEX
  8
0
 10
797.456
 20
27.9674
 30
0.0
 40
0
 41
0
  0
VERTEX
  8
0
 10
797.336
 20
28.0858
 30
0.0
 40
0
 41
0
  0
VERTEX
  8
0
 10
796.993
 20
28.4525
 30
0.0
 40
0
 41
0
  0
VERTEX
  8
0
 10
796.558
 20
28.9576
 30
0.0
 40
0
 41
0
  0
VERTEX
  8
0
 10
796.15
 20
29.4817
 30
0.0
 40
0
 41
0
  0
VERTEX
  8
0
 10
795.769
 20
30.0236
 30
0.0
 40
0
 41
0
  0
VERTEX
  8
0
 10
795.417
 20
30.5821
 30
0.0
 40
0
 41
0
  0
VERTEX
  8
0
 10
795.092
 20
31.1564
 30
0.0
 40
0
 41
0
  0
VERTEX
  8
0
 10
794.796
 20
31.745
 30
0.0
 40
0
 41
0
  0
VERTEX
  8
0
 10
794.529
 20
32.3471
 30
0.0
 40
0
 41
0
  0
VERTEX
  8
0
 10
794.292
 20
32.9615
 30
0.0
 40
0
 41
0
  0
VERTEX
  8
0
 10
794.085
 20
33.5871
 30
0.0
 40
0
 41
0
  0
VERTEX
  8
0
 10
793.908
 20
34.2228
 30
0.0
 40
0
 41
0
  0
VERTEX
  8
0
 10
793.762
 20
34.8674
 30
0.0
 40
0
 41
0
  0
VERTEX
  8
0
 10
793.649
 20
35.5199
 30
0.0
 40
0
 41
0
  0
VERTEX
  8
0
 10
793.567
 20
36.179
 30
0.0
 40
0
 41
0
  0
VERTEX
  8
0
 10
793.518
 20
36.844
 30
0.0
 40
0
 41
0
  0
VERTEX
  8
0
 10
793.501
 20
37.346
 30
0.0
 40
0
 41
0
  0
VERTEX
  8
0
 10
793.501
 20
37.5133
 30
0.0
 40
0
 41
0
  0
VERTEX
  8
0
 10
793.501
 20
37.6807
 30
0.0
 40
0
 41
0
  0
VERTEX
  8
0
 10
793.518
 20
38.1828
 30
0.0
 40
0
 41
0
  0
VERTEX
  8
0
 10
793.567
 20
38.8476
 30
0.0
 40
0
 41
0
  0
VERTEX
  8
0
 10
793.649
 20
39.5069
 30
0.0
 40
0
 41
0
  0
VERTEX
  8
0
 10
793.762
 20
40.1594
 30
0.0
 40
0
 41
0
  0
VERTEX
  8
0
 10
793.908
 20
40.804
 30
0.0
 40
0
 41
0
  0
VERTEX
  8
0
 10
794.085
 20
41.4397
 30
0.0
 40
0
 41
0
  0
VERTEX
  8
0
 10
794.292
 20
42.0653
 30
0.0
 40
0
 41
0
  0
VERTEX
  8
0
 10
794.529
 20
42.6796
 30
0.0
 40
0
 41
0
  0
VERTEX
  8
0
 10
794.796
 20
43.2817
 30
0.0
 40
0
 41
0
  0
VERTEX
  8
0
 10
795.092
 20
43.8704
 30
0.0
 40
0
 41
0
  0
VERTEX
  8
0
 10
795.417
 20
44.4446
 30
0.0
 40
0
 41
0
  0
VERTEX
  8
0
 10
795.769
 20
45.0032
 30
0.0
 40
0
 41
0
  0
VERTEX
  8
0
 10
796.15
 20
45.5451
 30
0.0
 40
0
 41
0
  0
VERTEX
  8
0
 10
796.558
 20
46.0692
 30
0.0
 40
0
 41
0
  0
VERTEX
  8
0
 10
796.993
 20
46.5742
 30
0.0
 40
0
 41
0
  0
VERTEX
  8
0
 10
797.336
 20
46.941
 30
0.0
 40
0
 41
0
  0
VERTEX
  8
0
 10
797.456
 20
47.0593
 30
0.0
 40
0
 41
0
  0
VERTEX
  8
0
 10
797.574
 20
47.1776
 30
0.0
 40
0
 41
0
  0
VERTEX
  8
0
 10
797.94
 20
47.521
 30
0.0
 40
0
 41
0
  0
VERTEX
  8
0
 10
798.446
 20
47.9561
 30
0.0
 40
0
 41
0
  0
VERTEX
  8
0
 10
798.969
 20
48.3643
 30
0.0
 40
0
 41
0
  0
VERTEX
  8
0
 10
799.511
 20
48.7453
 30
0.0
 40
0
 41
0
  0
VERTEX
  8
0
 10
800.069
 20
49.0982
 30
0.0
 40
0
 41
0
  0
VERTEX
  8
0
 10
800.644
 20
49.4231
 30
0.0
 40
0
 41
0
  0
VERTEX
  8
0
 10
801.233
 20
49.719
 30
0.0
 40
0
 41
0
  0
VERTEX
  8
0
 10
801.835
 20
49.9857
 30
0.0
 40
0
 41
0
  0
VERTEX
  8
0
 10
802.449
 20
50.2229
 30
0.0
 40
0
 41
0
  0
VERTEX
  8
0
 10
803.075
 20
50.4299
 30
0.0
 40
0
 41
0
  0
VERTEX
  8
0
 10
803.711
 20
50.6062
 30
0.0
 40
0
 41
0
  0
VERTEX
  8
0
 10
804.356
 20
50.7515
 30
0.0
 40
0
 41
0
  0
VERTEX
  8
0
 10
805.007
 20
50.8654
 30
0.0
 40
0
 41
0
  0
VERTEX
  8
0
 10
805.667
 20
50.9474
 30
0.0
 40
0
 41
0
  0
VERTEX
  8
0
 10
806.332
 20
50.9968
 30
0.0
 40
0
 41
0
  0
VERTEX
  8
0
 10
806.833
 20
51.0133
 30
0.0
 40
0
 41
0
  0
VERTEX
  8
0
 10
807.001
 20
51.0133
 30
0.0
 40
0
 41
0
  0
SEQEND
 8
0
  0
POLYLINE
  8
0
 62
     0
 66
     1
 10
0
 20
0
 30
0.0
 70
     1
 40
0
 41
0
  0
VERTEX
  8
0
 10
934.001
 20
395.014
 30
0.0
 40
0
 41
0
  0
VERTEX
  8
0
 10
1063
 20
395.014
 30
0.0
 40
0
 41
0
  0
VERTEX
  8
0
 10
1063
 20
215.014
 30
0.0
 40
0
 41
0
  0
VERTEX
  8
0
 10
934.001
 20
215.014
 30
0.0
 40
0
 41
0
  0
VERTEX
  8
0
 10
934.001
 20
395.014
 30
0.0
 40
0
 41
0
  0
SEQEND
 8
0
  0
POLYLINE
  8
0
 62
     0
 66
     1
 10
0
 20
0
 30
0.0
 70
     1
 40
0
 41
0
  0
VERTEX
  8
0
 10
934.001
 20
195.014
 30
0.0
 40
0
 41
0
  0
VERTEX
  8
0
 10
1063
 20
195.014
 30
0.0
 40
0
 41
0
  0
VERTEX
  8
0
 10
1063
 20
15.0133
 30
0.0
 40
0
 41
0
  0
VERTEX
  8
0
 10
934.001
 20
15.0133
 30
0.0
 40
0
 41
0
  0
VERTEX
  8
0
 10
934.001
 20
195.014
 30
0.0
 40
0
 41
0
  0
SEQEND
 8
0
  0
ENDSEC
  0
EOF
